%TF.GenerationSoftware,KiCad,Pcbnew,(5.1.6)-1*%
%TF.CreationDate,2021-01-08T17:07:44+01:00*%
%TF.ProjectId,stm32L412K8T6,73746d33-324c-4343-9132-4b3854362e6b,rev?*%
%TF.SameCoordinates,Original*%
%TF.FileFunction,Paste,Top*%
%TF.FilePolarity,Positive*%
%FSLAX46Y46*%
G04 Gerber Fmt 4.6, Leading zero omitted, Abs format (unit mm)*
G04 Created by KiCad (PCBNEW (5.1.6)-1) date 2021-01-08 17:07:44*
%MOMM*%
%LPD*%
G01*
G04 APERTURE LIST*
%ADD10R,1.900000X1.000000*%
%ADD11R,2.000000X1.500000*%
%ADD12R,2.000000X3.800000*%
%ADD13R,1.000000X1.550000*%
%ADD14R,1.000000X1.900000*%
%ADD15R,2.600000X3.600000*%
G04 APERTURE END LIST*
D10*
%TO.C,J8*%
X169150000Y-75040000D03*
X169150000Y-69960000D03*
X165850000Y-72500000D03*
%TD*%
%TO.C,J7*%
X168800000Y-84040000D03*
X168800000Y-78960000D03*
X165500000Y-81500000D03*
%TD*%
%TO.C,J3*%
X169000000Y-93000000D03*
X169000000Y-87920000D03*
X165700000Y-90460000D03*
%TD*%
D11*
%TO.C,U2*%
X129000000Y-96700000D03*
X129000000Y-101300000D03*
X129000000Y-99000000D03*
D12*
X135300000Y-99000000D03*
%TD*%
%TO.C,U1*%
G36*
G01*
X145450000Y-87050000D02*
X144200000Y-87050000D01*
G75*
G02*
X144075000Y-86925000I0J125000D01*
G01*
X144075000Y-86675000D01*
G75*
G02*
X144200000Y-86550000I125000J0D01*
G01*
X145450000Y-86550000D01*
G75*
G02*
X145575000Y-86675000I0J-125000D01*
G01*
X145575000Y-86925000D01*
G75*
G02*
X145450000Y-87050000I-125000J0D01*
G01*
G37*
G36*
G01*
X145450000Y-86250000D02*
X144200000Y-86250000D01*
G75*
G02*
X144075000Y-86125000I0J125000D01*
G01*
X144075000Y-85875000D01*
G75*
G02*
X144200000Y-85750000I125000J0D01*
G01*
X145450000Y-85750000D01*
G75*
G02*
X145575000Y-85875000I0J-125000D01*
G01*
X145575000Y-86125000D01*
G75*
G02*
X145450000Y-86250000I-125000J0D01*
G01*
G37*
G36*
G01*
X145450000Y-85450000D02*
X144200000Y-85450000D01*
G75*
G02*
X144075000Y-85325000I0J125000D01*
G01*
X144075000Y-85075000D01*
G75*
G02*
X144200000Y-84950000I125000J0D01*
G01*
X145450000Y-84950000D01*
G75*
G02*
X145575000Y-85075000I0J-125000D01*
G01*
X145575000Y-85325000D01*
G75*
G02*
X145450000Y-85450000I-125000J0D01*
G01*
G37*
G36*
G01*
X145450000Y-84650000D02*
X144200000Y-84650000D01*
G75*
G02*
X144075000Y-84525000I0J125000D01*
G01*
X144075000Y-84275000D01*
G75*
G02*
X144200000Y-84150000I125000J0D01*
G01*
X145450000Y-84150000D01*
G75*
G02*
X145575000Y-84275000I0J-125000D01*
G01*
X145575000Y-84525000D01*
G75*
G02*
X145450000Y-84650000I-125000J0D01*
G01*
G37*
G36*
G01*
X145450000Y-83850000D02*
X144200000Y-83850000D01*
G75*
G02*
X144075000Y-83725000I0J125000D01*
G01*
X144075000Y-83475000D01*
G75*
G02*
X144200000Y-83350000I125000J0D01*
G01*
X145450000Y-83350000D01*
G75*
G02*
X145575000Y-83475000I0J-125000D01*
G01*
X145575000Y-83725000D01*
G75*
G02*
X145450000Y-83850000I-125000J0D01*
G01*
G37*
G36*
G01*
X145450000Y-83050000D02*
X144200000Y-83050000D01*
G75*
G02*
X144075000Y-82925000I0J125000D01*
G01*
X144075000Y-82675000D01*
G75*
G02*
X144200000Y-82550000I125000J0D01*
G01*
X145450000Y-82550000D01*
G75*
G02*
X145575000Y-82675000I0J-125000D01*
G01*
X145575000Y-82925000D01*
G75*
G02*
X145450000Y-83050000I-125000J0D01*
G01*
G37*
G36*
G01*
X145450000Y-82250000D02*
X144200000Y-82250000D01*
G75*
G02*
X144075000Y-82125000I0J125000D01*
G01*
X144075000Y-81875000D01*
G75*
G02*
X144200000Y-81750000I125000J0D01*
G01*
X145450000Y-81750000D01*
G75*
G02*
X145575000Y-81875000I0J-125000D01*
G01*
X145575000Y-82125000D01*
G75*
G02*
X145450000Y-82250000I-125000J0D01*
G01*
G37*
G36*
G01*
X145450000Y-81450000D02*
X144200000Y-81450000D01*
G75*
G02*
X144075000Y-81325000I0J125000D01*
G01*
X144075000Y-81075000D01*
G75*
G02*
X144200000Y-80950000I125000J0D01*
G01*
X145450000Y-80950000D01*
G75*
G02*
X145575000Y-81075000I0J-125000D01*
G01*
X145575000Y-81325000D01*
G75*
G02*
X145450000Y-81450000I-125000J0D01*
G01*
G37*
G36*
G01*
X146325000Y-80575000D02*
X146075000Y-80575000D01*
G75*
G02*
X145950000Y-80450000I0J125000D01*
G01*
X145950000Y-79200000D01*
G75*
G02*
X146075000Y-79075000I125000J0D01*
G01*
X146325000Y-79075000D01*
G75*
G02*
X146450000Y-79200000I0J-125000D01*
G01*
X146450000Y-80450000D01*
G75*
G02*
X146325000Y-80575000I-125000J0D01*
G01*
G37*
G36*
G01*
X147125000Y-80575000D02*
X146875000Y-80575000D01*
G75*
G02*
X146750000Y-80450000I0J125000D01*
G01*
X146750000Y-79200000D01*
G75*
G02*
X146875000Y-79075000I125000J0D01*
G01*
X147125000Y-79075000D01*
G75*
G02*
X147250000Y-79200000I0J-125000D01*
G01*
X147250000Y-80450000D01*
G75*
G02*
X147125000Y-80575000I-125000J0D01*
G01*
G37*
G36*
G01*
X147925000Y-80575000D02*
X147675000Y-80575000D01*
G75*
G02*
X147550000Y-80450000I0J125000D01*
G01*
X147550000Y-79200000D01*
G75*
G02*
X147675000Y-79075000I125000J0D01*
G01*
X147925000Y-79075000D01*
G75*
G02*
X148050000Y-79200000I0J-125000D01*
G01*
X148050000Y-80450000D01*
G75*
G02*
X147925000Y-80575000I-125000J0D01*
G01*
G37*
G36*
G01*
X148725000Y-80575000D02*
X148475000Y-80575000D01*
G75*
G02*
X148350000Y-80450000I0J125000D01*
G01*
X148350000Y-79200000D01*
G75*
G02*
X148475000Y-79075000I125000J0D01*
G01*
X148725000Y-79075000D01*
G75*
G02*
X148850000Y-79200000I0J-125000D01*
G01*
X148850000Y-80450000D01*
G75*
G02*
X148725000Y-80575000I-125000J0D01*
G01*
G37*
G36*
G01*
X149525000Y-80575000D02*
X149275000Y-80575000D01*
G75*
G02*
X149150000Y-80450000I0J125000D01*
G01*
X149150000Y-79200000D01*
G75*
G02*
X149275000Y-79075000I125000J0D01*
G01*
X149525000Y-79075000D01*
G75*
G02*
X149650000Y-79200000I0J-125000D01*
G01*
X149650000Y-80450000D01*
G75*
G02*
X149525000Y-80575000I-125000J0D01*
G01*
G37*
G36*
G01*
X150325000Y-80575000D02*
X150075000Y-80575000D01*
G75*
G02*
X149950000Y-80450000I0J125000D01*
G01*
X149950000Y-79200000D01*
G75*
G02*
X150075000Y-79075000I125000J0D01*
G01*
X150325000Y-79075000D01*
G75*
G02*
X150450000Y-79200000I0J-125000D01*
G01*
X150450000Y-80450000D01*
G75*
G02*
X150325000Y-80575000I-125000J0D01*
G01*
G37*
G36*
G01*
X151125000Y-80575000D02*
X150875000Y-80575000D01*
G75*
G02*
X150750000Y-80450000I0J125000D01*
G01*
X150750000Y-79200000D01*
G75*
G02*
X150875000Y-79075000I125000J0D01*
G01*
X151125000Y-79075000D01*
G75*
G02*
X151250000Y-79200000I0J-125000D01*
G01*
X151250000Y-80450000D01*
G75*
G02*
X151125000Y-80575000I-125000J0D01*
G01*
G37*
G36*
G01*
X151925000Y-80575000D02*
X151675000Y-80575000D01*
G75*
G02*
X151550000Y-80450000I0J125000D01*
G01*
X151550000Y-79200000D01*
G75*
G02*
X151675000Y-79075000I125000J0D01*
G01*
X151925000Y-79075000D01*
G75*
G02*
X152050000Y-79200000I0J-125000D01*
G01*
X152050000Y-80450000D01*
G75*
G02*
X151925000Y-80575000I-125000J0D01*
G01*
G37*
G36*
G01*
X153800000Y-81450000D02*
X152550000Y-81450000D01*
G75*
G02*
X152425000Y-81325000I0J125000D01*
G01*
X152425000Y-81075000D01*
G75*
G02*
X152550000Y-80950000I125000J0D01*
G01*
X153800000Y-80950000D01*
G75*
G02*
X153925000Y-81075000I0J-125000D01*
G01*
X153925000Y-81325000D01*
G75*
G02*
X153800000Y-81450000I-125000J0D01*
G01*
G37*
G36*
G01*
X153800000Y-82250000D02*
X152550000Y-82250000D01*
G75*
G02*
X152425000Y-82125000I0J125000D01*
G01*
X152425000Y-81875000D01*
G75*
G02*
X152550000Y-81750000I125000J0D01*
G01*
X153800000Y-81750000D01*
G75*
G02*
X153925000Y-81875000I0J-125000D01*
G01*
X153925000Y-82125000D01*
G75*
G02*
X153800000Y-82250000I-125000J0D01*
G01*
G37*
G36*
G01*
X153800000Y-83050000D02*
X152550000Y-83050000D01*
G75*
G02*
X152425000Y-82925000I0J125000D01*
G01*
X152425000Y-82675000D01*
G75*
G02*
X152550000Y-82550000I125000J0D01*
G01*
X153800000Y-82550000D01*
G75*
G02*
X153925000Y-82675000I0J-125000D01*
G01*
X153925000Y-82925000D01*
G75*
G02*
X153800000Y-83050000I-125000J0D01*
G01*
G37*
G36*
G01*
X153800000Y-83850000D02*
X152550000Y-83850000D01*
G75*
G02*
X152425000Y-83725000I0J125000D01*
G01*
X152425000Y-83475000D01*
G75*
G02*
X152550000Y-83350000I125000J0D01*
G01*
X153800000Y-83350000D01*
G75*
G02*
X153925000Y-83475000I0J-125000D01*
G01*
X153925000Y-83725000D01*
G75*
G02*
X153800000Y-83850000I-125000J0D01*
G01*
G37*
G36*
G01*
X153800000Y-84650000D02*
X152550000Y-84650000D01*
G75*
G02*
X152425000Y-84525000I0J125000D01*
G01*
X152425000Y-84275000D01*
G75*
G02*
X152550000Y-84150000I125000J0D01*
G01*
X153800000Y-84150000D01*
G75*
G02*
X153925000Y-84275000I0J-125000D01*
G01*
X153925000Y-84525000D01*
G75*
G02*
X153800000Y-84650000I-125000J0D01*
G01*
G37*
G36*
G01*
X153800000Y-85450000D02*
X152550000Y-85450000D01*
G75*
G02*
X152425000Y-85325000I0J125000D01*
G01*
X152425000Y-85075000D01*
G75*
G02*
X152550000Y-84950000I125000J0D01*
G01*
X153800000Y-84950000D01*
G75*
G02*
X153925000Y-85075000I0J-125000D01*
G01*
X153925000Y-85325000D01*
G75*
G02*
X153800000Y-85450000I-125000J0D01*
G01*
G37*
G36*
G01*
X153800000Y-86250000D02*
X152550000Y-86250000D01*
G75*
G02*
X152425000Y-86125000I0J125000D01*
G01*
X152425000Y-85875000D01*
G75*
G02*
X152550000Y-85750000I125000J0D01*
G01*
X153800000Y-85750000D01*
G75*
G02*
X153925000Y-85875000I0J-125000D01*
G01*
X153925000Y-86125000D01*
G75*
G02*
X153800000Y-86250000I-125000J0D01*
G01*
G37*
G36*
G01*
X153800000Y-87050000D02*
X152550000Y-87050000D01*
G75*
G02*
X152425000Y-86925000I0J125000D01*
G01*
X152425000Y-86675000D01*
G75*
G02*
X152550000Y-86550000I125000J0D01*
G01*
X153800000Y-86550000D01*
G75*
G02*
X153925000Y-86675000I0J-125000D01*
G01*
X153925000Y-86925000D01*
G75*
G02*
X153800000Y-87050000I-125000J0D01*
G01*
G37*
G36*
G01*
X151925000Y-88925000D02*
X151675000Y-88925000D01*
G75*
G02*
X151550000Y-88800000I0J125000D01*
G01*
X151550000Y-87550000D01*
G75*
G02*
X151675000Y-87425000I125000J0D01*
G01*
X151925000Y-87425000D01*
G75*
G02*
X152050000Y-87550000I0J-125000D01*
G01*
X152050000Y-88800000D01*
G75*
G02*
X151925000Y-88925000I-125000J0D01*
G01*
G37*
G36*
G01*
X151125000Y-88925000D02*
X150875000Y-88925000D01*
G75*
G02*
X150750000Y-88800000I0J125000D01*
G01*
X150750000Y-87550000D01*
G75*
G02*
X150875000Y-87425000I125000J0D01*
G01*
X151125000Y-87425000D01*
G75*
G02*
X151250000Y-87550000I0J-125000D01*
G01*
X151250000Y-88800000D01*
G75*
G02*
X151125000Y-88925000I-125000J0D01*
G01*
G37*
G36*
G01*
X150325000Y-88925000D02*
X150075000Y-88925000D01*
G75*
G02*
X149950000Y-88800000I0J125000D01*
G01*
X149950000Y-87550000D01*
G75*
G02*
X150075000Y-87425000I125000J0D01*
G01*
X150325000Y-87425000D01*
G75*
G02*
X150450000Y-87550000I0J-125000D01*
G01*
X150450000Y-88800000D01*
G75*
G02*
X150325000Y-88925000I-125000J0D01*
G01*
G37*
G36*
G01*
X149525000Y-88925000D02*
X149275000Y-88925000D01*
G75*
G02*
X149150000Y-88800000I0J125000D01*
G01*
X149150000Y-87550000D01*
G75*
G02*
X149275000Y-87425000I125000J0D01*
G01*
X149525000Y-87425000D01*
G75*
G02*
X149650000Y-87550000I0J-125000D01*
G01*
X149650000Y-88800000D01*
G75*
G02*
X149525000Y-88925000I-125000J0D01*
G01*
G37*
G36*
G01*
X148725000Y-88925000D02*
X148475000Y-88925000D01*
G75*
G02*
X148350000Y-88800000I0J125000D01*
G01*
X148350000Y-87550000D01*
G75*
G02*
X148475000Y-87425000I125000J0D01*
G01*
X148725000Y-87425000D01*
G75*
G02*
X148850000Y-87550000I0J-125000D01*
G01*
X148850000Y-88800000D01*
G75*
G02*
X148725000Y-88925000I-125000J0D01*
G01*
G37*
G36*
G01*
X147925000Y-88925000D02*
X147675000Y-88925000D01*
G75*
G02*
X147550000Y-88800000I0J125000D01*
G01*
X147550000Y-87550000D01*
G75*
G02*
X147675000Y-87425000I125000J0D01*
G01*
X147925000Y-87425000D01*
G75*
G02*
X148050000Y-87550000I0J-125000D01*
G01*
X148050000Y-88800000D01*
G75*
G02*
X147925000Y-88925000I-125000J0D01*
G01*
G37*
G36*
G01*
X147125000Y-88925000D02*
X146875000Y-88925000D01*
G75*
G02*
X146750000Y-88800000I0J125000D01*
G01*
X146750000Y-87550000D01*
G75*
G02*
X146875000Y-87425000I125000J0D01*
G01*
X147125000Y-87425000D01*
G75*
G02*
X147250000Y-87550000I0J-125000D01*
G01*
X147250000Y-88800000D01*
G75*
G02*
X147125000Y-88925000I-125000J0D01*
G01*
G37*
G36*
G01*
X146325000Y-88925000D02*
X146075000Y-88925000D01*
G75*
G02*
X145950000Y-88800000I0J125000D01*
G01*
X145950000Y-87550000D01*
G75*
G02*
X146075000Y-87425000I125000J0D01*
G01*
X146325000Y-87425000D01*
G75*
G02*
X146450000Y-87550000I0J-125000D01*
G01*
X146450000Y-88800000D01*
G75*
G02*
X146325000Y-88925000I-125000J0D01*
G01*
G37*
%TD*%
D13*
%TO.C,SW1*%
X164150000Y-60750000D03*
X164150000Y-66000000D03*
X165850000Y-66000000D03*
X165850000Y-60750000D03*
%TD*%
%TO.C,R7*%
G36*
G01*
X160456250Y-65050000D02*
X159543750Y-65050000D01*
G75*
G02*
X159300000Y-64806250I0J243750D01*
G01*
X159300000Y-64318750D01*
G75*
G02*
X159543750Y-64075000I243750J0D01*
G01*
X160456250Y-64075000D01*
G75*
G02*
X160700000Y-64318750I0J-243750D01*
G01*
X160700000Y-64806250D01*
G75*
G02*
X160456250Y-65050000I-243750J0D01*
G01*
G37*
G36*
G01*
X160456250Y-66925000D02*
X159543750Y-66925000D01*
G75*
G02*
X159300000Y-66681250I0J243750D01*
G01*
X159300000Y-66193750D01*
G75*
G02*
X159543750Y-65950000I243750J0D01*
G01*
X160456250Y-65950000D01*
G75*
G02*
X160700000Y-66193750I0J-243750D01*
G01*
X160700000Y-66681250D01*
G75*
G02*
X160456250Y-66925000I-243750J0D01*
G01*
G37*
%TD*%
%TO.C,R6*%
G36*
G01*
X131543750Y-81512500D02*
X132456250Y-81512500D01*
G75*
G02*
X132700000Y-81756250I0J-243750D01*
G01*
X132700000Y-82243750D01*
G75*
G02*
X132456250Y-82487500I-243750J0D01*
G01*
X131543750Y-82487500D01*
G75*
G02*
X131300000Y-82243750I0J243750D01*
G01*
X131300000Y-81756250D01*
G75*
G02*
X131543750Y-81512500I243750J0D01*
G01*
G37*
G36*
G01*
X131543750Y-79637500D02*
X132456250Y-79637500D01*
G75*
G02*
X132700000Y-79881250I0J-243750D01*
G01*
X132700000Y-80368750D01*
G75*
G02*
X132456250Y-80612500I-243750J0D01*
G01*
X131543750Y-80612500D01*
G75*
G02*
X131300000Y-80368750I0J243750D01*
G01*
X131300000Y-79881250D01*
G75*
G02*
X131543750Y-79637500I243750J0D01*
G01*
G37*
%TD*%
%TO.C,R5*%
G36*
G01*
X139543750Y-100950000D02*
X140456250Y-100950000D01*
G75*
G02*
X140700000Y-101193750I0J-243750D01*
G01*
X140700000Y-101681250D01*
G75*
G02*
X140456250Y-101925000I-243750J0D01*
G01*
X139543750Y-101925000D01*
G75*
G02*
X139300000Y-101681250I0J243750D01*
G01*
X139300000Y-101193750D01*
G75*
G02*
X139543750Y-100950000I243750J0D01*
G01*
G37*
G36*
G01*
X139543750Y-99075000D02*
X140456250Y-99075000D01*
G75*
G02*
X140700000Y-99318750I0J-243750D01*
G01*
X140700000Y-99806250D01*
G75*
G02*
X140456250Y-100050000I-243750J0D01*
G01*
X139543750Y-100050000D01*
G75*
G02*
X139300000Y-99806250I0J243750D01*
G01*
X139300000Y-99318750D01*
G75*
G02*
X139543750Y-99075000I243750J0D01*
G01*
G37*
%TD*%
%TO.C,R4*%
G36*
G01*
X127956250Y-88987500D02*
X127043750Y-88987500D01*
G75*
G02*
X126800000Y-88743750I0J243750D01*
G01*
X126800000Y-88256250D01*
G75*
G02*
X127043750Y-88012500I243750J0D01*
G01*
X127956250Y-88012500D01*
G75*
G02*
X128200000Y-88256250I0J-243750D01*
G01*
X128200000Y-88743750D01*
G75*
G02*
X127956250Y-88987500I-243750J0D01*
G01*
G37*
G36*
G01*
X127956250Y-90862500D02*
X127043750Y-90862500D01*
G75*
G02*
X126800000Y-90618750I0J243750D01*
G01*
X126800000Y-90131250D01*
G75*
G02*
X127043750Y-89887500I243750J0D01*
G01*
X127956250Y-89887500D01*
G75*
G02*
X128200000Y-90131250I0J-243750D01*
G01*
X128200000Y-90618750D01*
G75*
G02*
X127956250Y-90862500I-243750J0D01*
G01*
G37*
%TD*%
%TO.C,R3*%
G36*
G01*
X131456250Y-89050000D02*
X130543750Y-89050000D01*
G75*
G02*
X130300000Y-88806250I0J243750D01*
G01*
X130300000Y-88318750D01*
G75*
G02*
X130543750Y-88075000I243750J0D01*
G01*
X131456250Y-88075000D01*
G75*
G02*
X131700000Y-88318750I0J-243750D01*
G01*
X131700000Y-88806250D01*
G75*
G02*
X131456250Y-89050000I-243750J0D01*
G01*
G37*
G36*
G01*
X131456250Y-90925000D02*
X130543750Y-90925000D01*
G75*
G02*
X130300000Y-90681250I0J243750D01*
G01*
X130300000Y-90193750D01*
G75*
G02*
X130543750Y-89950000I243750J0D01*
G01*
X131456250Y-89950000D01*
G75*
G02*
X131700000Y-90193750I0J-243750D01*
G01*
X131700000Y-90681250D01*
G75*
G02*
X131456250Y-90925000I-243750J0D01*
G01*
G37*
%TD*%
D14*
%TO.C,J6*%
X165040000Y-100200000D03*
X159960000Y-100200000D03*
X162500000Y-103500000D03*
%TD*%
%TO.C,J5*%
X137000000Y-60000000D03*
X131920000Y-60000000D03*
X134460000Y-63300000D03*
%TD*%
%TO.C,J4*%
X165040000Y-107200000D03*
X159960000Y-107200000D03*
X162500000Y-110500000D03*
%TD*%
%TO.C,J2*%
X126540000Y-60000000D03*
X121460000Y-60000000D03*
X124000000Y-63300000D03*
%TD*%
%TO.C,J1*%
X119730000Y-98000000D03*
X122270000Y-101300000D03*
%TD*%
%TO.C,D2*%
G36*
G01*
X159543750Y-62450000D02*
X160456250Y-62450000D01*
G75*
G02*
X160700000Y-62693750I0J-243750D01*
G01*
X160700000Y-63181250D01*
G75*
G02*
X160456250Y-63425000I-243750J0D01*
G01*
X159543750Y-63425000D01*
G75*
G02*
X159300000Y-63181250I0J243750D01*
G01*
X159300000Y-62693750D01*
G75*
G02*
X159543750Y-62450000I243750J0D01*
G01*
G37*
G36*
G01*
X159543750Y-60575000D02*
X160456250Y-60575000D01*
G75*
G02*
X160700000Y-60818750I0J-243750D01*
G01*
X160700000Y-61306250D01*
G75*
G02*
X160456250Y-61550000I-243750J0D01*
G01*
X159543750Y-61550000D01*
G75*
G02*
X159300000Y-61306250I0J243750D01*
G01*
X159300000Y-60818750D01*
G75*
G02*
X159543750Y-60575000I243750J0D01*
G01*
G37*
%TD*%
%TO.C,C7*%
G36*
G01*
X134950000Y-93956250D02*
X134950000Y-93043750D01*
G75*
G02*
X135193750Y-92800000I243750J0D01*
G01*
X135681250Y-92800000D01*
G75*
G02*
X135925000Y-93043750I0J-243750D01*
G01*
X135925000Y-93956250D01*
G75*
G02*
X135681250Y-94200000I-243750J0D01*
G01*
X135193750Y-94200000D01*
G75*
G02*
X134950000Y-93956250I0J243750D01*
G01*
G37*
G36*
G01*
X133075000Y-93956250D02*
X133075000Y-93043750D01*
G75*
G02*
X133318750Y-92800000I243750J0D01*
G01*
X133806250Y-92800000D01*
G75*
G02*
X134050000Y-93043750I0J-243750D01*
G01*
X134050000Y-93956250D01*
G75*
G02*
X133806250Y-94200000I-243750J0D01*
G01*
X133318750Y-94200000D01*
G75*
G02*
X133075000Y-93956250I0J243750D01*
G01*
G37*
%TD*%
%TO.C,C6*%
G36*
G01*
X125456250Y-95550000D02*
X124543750Y-95550000D01*
G75*
G02*
X124300000Y-95306250I0J243750D01*
G01*
X124300000Y-94818750D01*
G75*
G02*
X124543750Y-94575000I243750J0D01*
G01*
X125456250Y-94575000D01*
G75*
G02*
X125700000Y-94818750I0J-243750D01*
G01*
X125700000Y-95306250D01*
G75*
G02*
X125456250Y-95550000I-243750J0D01*
G01*
G37*
G36*
G01*
X125456250Y-97425000D02*
X124543750Y-97425000D01*
G75*
G02*
X124300000Y-97181250I0J243750D01*
G01*
X124300000Y-96693750D01*
G75*
G02*
X124543750Y-96450000I243750J0D01*
G01*
X125456250Y-96450000D01*
G75*
G02*
X125700000Y-96693750I0J-243750D01*
G01*
X125700000Y-97181250D01*
G75*
G02*
X125456250Y-97425000I-243750J0D01*
G01*
G37*
%TD*%
%TO.C,C5*%
G36*
G01*
X144456250Y-89487500D02*
X143543750Y-89487500D01*
G75*
G02*
X143300000Y-89243750I0J243750D01*
G01*
X143300000Y-88756250D01*
G75*
G02*
X143543750Y-88512500I243750J0D01*
G01*
X144456250Y-88512500D01*
G75*
G02*
X144700000Y-88756250I0J-243750D01*
G01*
X144700000Y-89243750D01*
G75*
G02*
X144456250Y-89487500I-243750J0D01*
G01*
G37*
G36*
G01*
X144456250Y-91362500D02*
X143543750Y-91362500D01*
G75*
G02*
X143300000Y-91118750I0J243750D01*
G01*
X143300000Y-90631250D01*
G75*
G02*
X143543750Y-90387500I243750J0D01*
G01*
X144456250Y-90387500D01*
G75*
G02*
X144700000Y-90631250I0J-243750D01*
G01*
X144700000Y-91118750D01*
G75*
G02*
X144456250Y-91362500I-243750J0D01*
G01*
G37*
%TD*%
%TO.C,C4*%
G36*
G01*
X144743750Y-96137500D02*
X145256250Y-96137500D01*
G75*
G02*
X145475000Y-96356250I0J-218750D01*
G01*
X145475000Y-96793750D01*
G75*
G02*
X145256250Y-97012500I-218750J0D01*
G01*
X144743750Y-97012500D01*
G75*
G02*
X144525000Y-96793750I0J218750D01*
G01*
X144525000Y-96356250D01*
G75*
G02*
X144743750Y-96137500I218750J0D01*
G01*
G37*
G36*
G01*
X144743750Y-94562500D02*
X145256250Y-94562500D01*
G75*
G02*
X145475000Y-94781250I0J-218750D01*
G01*
X145475000Y-95218750D01*
G75*
G02*
X145256250Y-95437500I-218750J0D01*
G01*
X144743750Y-95437500D01*
G75*
G02*
X144525000Y-95218750I0J218750D01*
G01*
X144525000Y-94781250D01*
G75*
G02*
X144743750Y-94562500I218750J0D01*
G01*
G37*
%TD*%
%TO.C,C3*%
G36*
G01*
X154456250Y-89487500D02*
X153543750Y-89487500D01*
G75*
G02*
X153300000Y-89243750I0J243750D01*
G01*
X153300000Y-88756250D01*
G75*
G02*
X153543750Y-88512500I243750J0D01*
G01*
X154456250Y-88512500D01*
G75*
G02*
X154700000Y-88756250I0J-243750D01*
G01*
X154700000Y-89243750D01*
G75*
G02*
X154456250Y-89487500I-243750J0D01*
G01*
G37*
G36*
G01*
X154456250Y-91362500D02*
X153543750Y-91362500D01*
G75*
G02*
X153300000Y-91118750I0J243750D01*
G01*
X153300000Y-90631250D01*
G75*
G02*
X153543750Y-90387500I243750J0D01*
G01*
X154456250Y-90387500D01*
G75*
G02*
X154700000Y-90631250I0J-243750D01*
G01*
X154700000Y-91118750D01*
G75*
G02*
X154456250Y-91362500I-243750J0D01*
G01*
G37*
%TD*%
%TO.C,C2*%
G36*
G01*
X150243750Y-96137500D02*
X150756250Y-96137500D01*
G75*
G02*
X150975000Y-96356250I0J-218750D01*
G01*
X150975000Y-96793750D01*
G75*
G02*
X150756250Y-97012500I-218750J0D01*
G01*
X150243750Y-97012500D01*
G75*
G02*
X150025000Y-96793750I0J218750D01*
G01*
X150025000Y-96356250D01*
G75*
G02*
X150243750Y-96137500I218750J0D01*
G01*
G37*
G36*
G01*
X150243750Y-94562500D02*
X150756250Y-94562500D01*
G75*
G02*
X150975000Y-94781250I0J-218750D01*
G01*
X150975000Y-95218750D01*
G75*
G02*
X150756250Y-95437500I-218750J0D01*
G01*
X150243750Y-95437500D01*
G75*
G02*
X150025000Y-95218750I0J218750D01*
G01*
X150025000Y-94781250D01*
G75*
G02*
X150243750Y-94562500I218750J0D01*
G01*
G37*
%TD*%
%TO.C,C1*%
G36*
G01*
X154456250Y-78050000D02*
X153543750Y-78050000D01*
G75*
G02*
X153300000Y-77806250I0J243750D01*
G01*
X153300000Y-77318750D01*
G75*
G02*
X153543750Y-77075000I243750J0D01*
G01*
X154456250Y-77075000D01*
G75*
G02*
X154700000Y-77318750I0J-243750D01*
G01*
X154700000Y-77806250D01*
G75*
G02*
X154456250Y-78050000I-243750J0D01*
G01*
G37*
G36*
G01*
X154456250Y-79925000D02*
X153543750Y-79925000D01*
G75*
G02*
X153300000Y-79681250I0J243750D01*
G01*
X153300000Y-79193750D01*
G75*
G02*
X153543750Y-78950000I243750J0D01*
G01*
X154456250Y-78950000D01*
G75*
G02*
X154700000Y-79193750I0J-243750D01*
G01*
X154700000Y-79681250D01*
G75*
G02*
X154456250Y-79925000I-243750J0D01*
G01*
G37*
%TD*%
D15*
%TO.C,BT1*%
X149150000Y-114500000D03*
X119850000Y-114500000D03*
%TD*%
M02*
