%TF.GenerationSoftware,KiCad,Pcbnew,(5.1.6)-1*%
%TF.CreationDate,2021-01-08T17:07:44+01:00*%
%TF.ProjectId,stm32L412K8T6,73746d33-324c-4343-9132-4b3854362e6b,rev?*%
%TF.SameCoordinates,Original*%
%TF.FileFunction,Copper,L2,Bot*%
%TF.FilePolarity,Positive*%
%FSLAX46Y46*%
G04 Gerber Fmt 4.6, Leading zero omitted, Abs format (unit mm)*
G04 Created by KiCad (PCBNEW (5.1.6)-1) date 2021-01-08 17:07:44*
%MOMM*%
%LPD*%
G01*
G04 APERTURE LIST*
%TA.AperFunction,ComponentPad*%
%ADD10C,1.000000*%
%TD*%
%TA.AperFunction,ViaPad*%
%ADD11C,0.800000*%
%TD*%
%TA.AperFunction,Conductor*%
%ADD12C,0.300000*%
%TD*%
%TA.AperFunction,Conductor*%
%ADD13C,0.254000*%
%TD*%
G04 APERTURE END LIST*
D10*
%TO.P,Y1,2*%
%TO.N,14_OSC_IN*%
X146460000Y-94000000D03*
%TO.P,Y1,1*%
%TO.N,15_OSC_OUT*%
X149000000Y-94000000D03*
%TD*%
%TO.P,D1,2*%
%TO.N,Net-(D1-Pad2)*%
%TA.AperFunction,SMDPad,CuDef*%
G36*
G01*
X139456250Y-83612500D02*
X138543750Y-83612500D01*
G75*
G02*
X138300000Y-83368750I0J243750D01*
G01*
X138300000Y-82881250D01*
G75*
G02*
X138543750Y-82637500I243750J0D01*
G01*
X139456250Y-82637500D01*
G75*
G02*
X139700000Y-82881250I0J-243750D01*
G01*
X139700000Y-83368750D01*
G75*
G02*
X139456250Y-83612500I-243750J0D01*
G01*
G37*
%TD.AperFunction*%
%TO.P,D1,1*%
%TO.N,GND*%
%TA.AperFunction,SMDPad,CuDef*%
G36*
G01*
X139456250Y-85487500D02*
X138543750Y-85487500D01*
G75*
G02*
X138300000Y-85243750I0J243750D01*
G01*
X138300000Y-84756250D01*
G75*
G02*
X138543750Y-84512500I243750J0D01*
G01*
X139456250Y-84512500D01*
G75*
G02*
X139700000Y-84756250I0J-243750D01*
G01*
X139700000Y-85243750D01*
G75*
G02*
X139456250Y-85487500I-243750J0D01*
G01*
G37*
%TD.AperFunction*%
%TD*%
D11*
%TO.N,GND*%
X147500000Y-82500000D03*
X149250000Y-82500000D03*
X147500000Y-84250000D03*
X151000000Y-86000000D03*
X147500000Y-86000000D03*
X120000000Y-78500000D03*
X122250000Y-78500000D03*
X120000000Y-80750000D03*
X122250000Y-83000000D03*
X122250000Y-80750000D03*
X124500000Y-80750000D03*
X120000000Y-83000000D03*
X124500000Y-78500000D03*
X124500000Y-83000000D03*
X124500000Y-87500000D03*
X120000000Y-87500000D03*
X120000000Y-85250000D03*
X124500000Y-89750000D03*
X122250000Y-89750000D03*
X124500000Y-85250000D03*
X120000000Y-89750000D03*
X122250000Y-85250000D03*
X122250000Y-87500000D03*
X141750000Y-75750000D03*
X137250000Y-73500000D03*
X139500000Y-73500000D03*
X137250000Y-78000000D03*
X139500000Y-75750000D03*
X137250000Y-75750000D03*
X141750000Y-78000000D03*
X139500000Y-78000000D03*
X141750000Y-73500000D03*
X134500000Y-89250000D03*
X139000000Y-91500000D03*
X139000000Y-87000000D03*
X139000000Y-89250000D03*
X134500000Y-87000000D03*
X134500000Y-91500000D03*
X136750000Y-87000000D03*
X136750000Y-91500000D03*
X136750000Y-89250000D03*
X159500000Y-93500000D03*
X157250000Y-89000000D03*
X159500000Y-89000000D03*
X157250000Y-91250000D03*
X161750000Y-93500000D03*
X161750000Y-89000000D03*
X157250000Y-93500000D03*
X161750000Y-91250000D03*
X159500000Y-91250000D03*
X156250000Y-73500000D03*
X154000000Y-71250000D03*
X154000000Y-73500000D03*
X158500000Y-75750000D03*
X154000000Y-75750000D03*
X158500000Y-73500000D03*
X158500000Y-71250000D03*
X156250000Y-71250000D03*
X156250000Y-75750000D03*
X151000000Y-84250000D03*
X156250000Y-80250000D03*
X142250000Y-86750000D03*
X152250000Y-59750000D03*
X145500000Y-59750000D03*
X145500000Y-64250000D03*
X150000000Y-64250000D03*
X150000000Y-62000000D03*
X143250000Y-64250000D03*
X154500000Y-64250000D03*
X147750000Y-59750000D03*
X152250000Y-62000000D03*
X147750000Y-62000000D03*
X143250000Y-59750000D03*
X152250000Y-64250000D03*
X154500000Y-59750000D03*
X147750000Y-64250000D03*
X154500000Y-62000000D03*
X143250000Y-62000000D03*
X145500000Y-62000000D03*
X150000000Y-59750000D03*
X127000000Y-109000000D03*
X124750000Y-106750000D03*
X118000000Y-109000000D03*
X122500000Y-109000000D03*
X124750000Y-104500000D03*
X129250000Y-109000000D03*
X129250000Y-106750000D03*
X124750000Y-109000000D03*
X120250000Y-109000000D03*
X118000000Y-104500000D03*
X122500000Y-106750000D03*
X129250000Y-104500000D03*
X118000000Y-106750000D03*
X120250000Y-106750000D03*
X127000000Y-104500000D03*
X127000000Y-106750000D03*
X136500000Y-109000000D03*
X134250000Y-109000000D03*
X138750000Y-106750000D03*
X143250000Y-109000000D03*
X132000000Y-104500000D03*
X138750000Y-104500000D03*
X141000000Y-104500000D03*
X132000000Y-109000000D03*
X143250000Y-106750000D03*
X136500000Y-104500000D03*
X138750000Y-109000000D03*
X134250000Y-104500000D03*
X134250000Y-106750000D03*
X141000000Y-106750000D03*
X132000000Y-106750000D03*
X143250000Y-104500000D03*
X136500000Y-106750000D03*
X141000000Y-109000000D03*
X127500000Y-116000000D03*
X132000000Y-116000000D03*
X134250000Y-113750000D03*
X136500000Y-116000000D03*
X134250000Y-116000000D03*
X132000000Y-111500000D03*
X138750000Y-111500000D03*
X129750000Y-116000000D03*
X136500000Y-111500000D03*
X134250000Y-111500000D03*
X129750000Y-113750000D03*
X138750000Y-116000000D03*
X129750000Y-111500000D03*
X138750000Y-113750000D03*
X127500000Y-113750000D03*
X132000000Y-113750000D03*
X127500000Y-111500000D03*
X136500000Y-113750000D03*
X132000000Y-120750000D03*
X127500000Y-118500000D03*
X127500000Y-123000000D03*
X134250000Y-120750000D03*
X132000000Y-118500000D03*
X134250000Y-118500000D03*
X136500000Y-118500000D03*
X138750000Y-120750000D03*
X132000000Y-123000000D03*
X136500000Y-123000000D03*
X127500000Y-120750000D03*
X134250000Y-123000000D03*
X136500000Y-120750000D03*
X138750000Y-123000000D03*
X129750000Y-123000000D03*
X138750000Y-118500000D03*
X129750000Y-118500000D03*
X129750000Y-120750000D03*
X159750000Y-112750000D03*
X162000000Y-115000000D03*
X153000000Y-115000000D03*
X164250000Y-112750000D03*
X159750000Y-115000000D03*
X155250000Y-112750000D03*
X155250000Y-115000000D03*
X164250000Y-115000000D03*
X162000000Y-112750000D03*
X157500000Y-117250000D03*
X162000000Y-117250000D03*
X164250000Y-117250000D03*
X159750000Y-117250000D03*
X157500000Y-112750000D03*
X155250000Y-117250000D03*
X153000000Y-112750000D03*
X153000000Y-117250000D03*
X157500000Y-115000000D03*
X129000000Y-73500000D03*
X126750000Y-73500000D03*
X124500000Y-71250000D03*
X117750000Y-75750000D03*
X120000000Y-73500000D03*
X122250000Y-73500000D03*
X122250000Y-71250000D03*
X117750000Y-73500000D03*
X120000000Y-71250000D03*
X126750000Y-75750000D03*
X129000000Y-71250000D03*
X126750000Y-71250000D03*
X124500000Y-75750000D03*
X120000000Y-75750000D03*
X117750000Y-71250000D03*
X124500000Y-73500000D03*
X129000000Y-75750000D03*
X122250000Y-75750000D03*
X117750000Y-80750000D03*
X117750000Y-85250000D03*
X117750000Y-78500000D03*
X117750000Y-89750000D03*
X117750000Y-87500000D03*
X117750000Y-83000000D03*
X145000000Y-98000000D03*
X117750000Y-94250000D03*
X117750000Y-92000000D03*
X124500000Y-92000000D03*
X120000000Y-94250000D03*
X122250000Y-92000000D03*
X120000000Y-92000000D03*
X122250000Y-94250000D03*
%TO.N,Net-(D1-Pad2)*%
X135000000Y-82500000D03*
%TO.N,RX*%
X152500000Y-71500000D03*
X123500000Y-61000000D03*
%TO.N,TX*%
X151000000Y-71500000D03*
X124000000Y-65000000D03*
%TO.N,NRST*%
X149000000Y-92500000D03*
X164500000Y-110500000D03*
%TO.N,SDA*%
X129000000Y-84000000D03*
X132500000Y-85500000D03*
%TO.N,SWCLK*%
X145500000Y-78000000D03*
X164000000Y-99500000D03*
%TO.N,SWO*%
X141000000Y-81500000D03*
X158000000Y-100000000D03*
%TO.N,SWDIO*%
X161500000Y-98000000D03*
X146500000Y-77000000D03*
%TO.N,BOOT0*%
X155500000Y-83000000D03*
X152500000Y-96000000D03*
X146000000Y-99250000D03*
X142250000Y-99500000D03*
%TO.N,PA8*%
X152000000Y-77000000D03*
X170000000Y-82000000D03*
%TO.N,PA15*%
X149500000Y-72500000D03*
X142500000Y-80000000D03*
%TD*%
D12*
%TO.N,Net-(D1-Pad2)*%
X135625000Y-83125000D02*
X139000000Y-83125000D01*
X135000000Y-82500000D02*
X135625000Y-83125000D01*
%TO.N,RX*%
X152500000Y-71500000D02*
X150000000Y-69000000D01*
X150000000Y-69000000D02*
X129000000Y-69000000D01*
X129000000Y-69000000D02*
X125500000Y-65500000D01*
X125500000Y-65500000D02*
X125500000Y-63000000D01*
X125500000Y-63000000D02*
X123500000Y-61000000D01*
%TO.N,TX*%
X151000000Y-71500000D02*
X150000000Y-70500000D01*
X150000000Y-70500000D02*
X149500000Y-70000000D01*
X149500000Y-70000000D02*
X128500000Y-70000000D01*
X128500000Y-70000000D02*
X124000000Y-65500000D01*
X124000000Y-65500000D02*
X124000000Y-65000000D01*
%TO.N,NRST*%
X149000000Y-92500000D02*
X149500000Y-93000000D01*
X149500000Y-93000000D02*
X150500000Y-94000000D01*
X150500000Y-94000000D02*
X150500000Y-96500000D01*
X151249999Y-97249999D02*
X163249999Y-97249999D01*
X150500000Y-96500000D02*
X151249999Y-97249999D01*
X163249999Y-97249999D02*
X165500000Y-99500000D01*
X165500000Y-99500000D02*
X165500000Y-109500000D01*
X165500000Y-109500000D02*
X164500000Y-110500000D01*
%TO.N,SDA*%
X129000000Y-84000000D02*
X130500000Y-85500000D01*
X130500000Y-85500000D02*
X132500000Y-85500000D01*
%TO.N,SWCLK*%
X145500000Y-78000000D02*
X145000000Y-78500000D01*
X145000000Y-78500000D02*
X145000000Y-95000000D01*
X145000000Y-95000000D02*
X149000000Y-99000000D01*
X149000000Y-99000000D02*
X163500000Y-99000000D01*
X163500000Y-99000000D02*
X164000000Y-99500000D01*
%TO.N,SWO*%
X141000000Y-81500000D02*
X140500000Y-82000000D01*
X140500000Y-82000000D02*
X140500000Y-91000000D01*
X140500000Y-91000000D02*
X140500000Y-91500000D01*
X140500000Y-91500000D02*
X149000000Y-100000000D01*
X149000000Y-100000000D02*
X158000000Y-100000000D01*
%TO.N,SWDIO*%
X161500000Y-98000000D02*
X153500000Y-98000000D01*
X153500000Y-98000000D02*
X149500000Y-98000000D01*
X149500000Y-98000000D02*
X147500000Y-96000000D01*
X147500000Y-96000000D02*
X147500000Y-93000000D01*
X147500000Y-93000000D02*
X146000000Y-91500000D01*
X146000000Y-91500000D02*
X146000000Y-79000000D01*
X146000000Y-79000000D02*
X146500000Y-78500000D01*
X146500000Y-78500000D02*
X146500000Y-77000000D01*
%TO.N,BOOT0*%
X155500000Y-83000000D02*
X156000000Y-83500000D01*
X156000000Y-83500000D02*
X156000000Y-92500000D01*
X156000000Y-92500000D02*
X152500000Y-96000000D01*
X145750000Y-99500000D02*
X146000000Y-99250000D01*
X142250000Y-99500000D02*
X145750000Y-99500000D01*
%TO.N,PA8*%
X170000000Y-82000000D02*
X170000000Y-79000000D01*
X168000000Y-77000000D02*
X152000000Y-77000000D01*
X170000000Y-79000000D02*
X168000000Y-77000000D01*
%TO.N,PA15*%
X149500000Y-72500000D02*
X149500000Y-73500000D01*
X149500000Y-73500000D02*
X149000000Y-74000000D01*
X149000000Y-74000000D02*
X147000000Y-74000000D01*
X147000000Y-74000000D02*
X144500000Y-76500000D01*
X144500000Y-76500000D02*
X144000000Y-77000000D01*
X144000000Y-77000000D02*
X144000000Y-78500000D01*
X144000000Y-78500000D02*
X142500000Y-80000000D01*
%TD*%
D13*
%TO.N,GND*%
G36*
X164033984Y-57734863D02*
G01*
X165047336Y-57953032D01*
X166019833Y-58311805D01*
X166932081Y-58804027D01*
X167765873Y-59419875D01*
X168504578Y-60147065D01*
X169133441Y-60971073D01*
X169639935Y-61875483D01*
X170013943Y-62842233D01*
X170248001Y-63852030D01*
X170339237Y-64905445D01*
X170340001Y-65002765D01*
X170340001Y-78229843D01*
X168582345Y-76472188D01*
X168557764Y-76442236D01*
X168438233Y-76344138D01*
X168301860Y-76271246D01*
X168153887Y-76226359D01*
X168038561Y-76215000D01*
X168038553Y-76215000D01*
X168000000Y-76211203D01*
X167961447Y-76215000D01*
X152678711Y-76215000D01*
X152659774Y-76196063D01*
X152490256Y-76082795D01*
X152301898Y-76004774D01*
X152101939Y-75965000D01*
X151898061Y-75965000D01*
X151698102Y-76004774D01*
X151509744Y-76082795D01*
X151340226Y-76196063D01*
X151196063Y-76340226D01*
X151082795Y-76509744D01*
X151004774Y-76698102D01*
X150965000Y-76898061D01*
X150965000Y-77101939D01*
X151004774Y-77301898D01*
X151082795Y-77490256D01*
X151196063Y-77659774D01*
X151340226Y-77803937D01*
X151509744Y-77917205D01*
X151698102Y-77995226D01*
X151898061Y-78035000D01*
X152101939Y-78035000D01*
X152301898Y-77995226D01*
X152490256Y-77917205D01*
X152659774Y-77803937D01*
X152678711Y-77785000D01*
X167674843Y-77785000D01*
X169215001Y-79325159D01*
X169215000Y-81321289D01*
X169196063Y-81340226D01*
X169082795Y-81509744D01*
X169004774Y-81698102D01*
X168965000Y-81898061D01*
X168965000Y-82101939D01*
X169004774Y-82301898D01*
X169082795Y-82490256D01*
X169196063Y-82659774D01*
X169340226Y-82803937D01*
X169509744Y-82917205D01*
X169698102Y-82995226D01*
X169898061Y-83035000D01*
X170101939Y-83035000D01*
X170301898Y-82995226D01*
X170340001Y-82979443D01*
X170340000Y-119976662D01*
X170265137Y-121033982D01*
X170046968Y-122047336D01*
X169688195Y-123019833D01*
X169195970Y-123932086D01*
X168580123Y-124765876D01*
X167852934Y-125504578D01*
X167028927Y-126133441D01*
X166124516Y-126639935D01*
X165157766Y-127013943D01*
X164147976Y-127248000D01*
X163094555Y-127339237D01*
X162997362Y-127340000D01*
X124023338Y-127340000D01*
X122966018Y-127265137D01*
X121952664Y-127046968D01*
X120980167Y-126688195D01*
X120067914Y-126195970D01*
X119234124Y-125580123D01*
X118495422Y-124852934D01*
X117866559Y-124028927D01*
X117360065Y-123124516D01*
X116986057Y-122157766D01*
X116752000Y-121147976D01*
X116660763Y-120094555D01*
X116660000Y-119997362D01*
X116660000Y-83898061D01*
X127965000Y-83898061D01*
X127965000Y-84101939D01*
X128004774Y-84301898D01*
X128082795Y-84490256D01*
X128196063Y-84659774D01*
X128340226Y-84803937D01*
X128509744Y-84917205D01*
X128698102Y-84995226D01*
X128898061Y-85035000D01*
X128924843Y-85035000D01*
X129917658Y-86027816D01*
X129942236Y-86057764D01*
X129972184Y-86082342D01*
X129972187Y-86082345D01*
X130001559Y-86106450D01*
X130061767Y-86155862D01*
X130198140Y-86228754D01*
X130311672Y-86263194D01*
X130346112Y-86273641D01*
X130360490Y-86275057D01*
X130461439Y-86285000D01*
X130461446Y-86285000D01*
X130499999Y-86288797D01*
X130538552Y-86285000D01*
X131821289Y-86285000D01*
X131840226Y-86303937D01*
X132009744Y-86417205D01*
X132198102Y-86495226D01*
X132398061Y-86535000D01*
X132601939Y-86535000D01*
X132801898Y-86495226D01*
X132990256Y-86417205D01*
X133159774Y-86303937D01*
X133303937Y-86159774D01*
X133417205Y-85990256D01*
X133495226Y-85801898D01*
X133535000Y-85601939D01*
X133535000Y-85487500D01*
X137661928Y-85487500D01*
X137674188Y-85611982D01*
X137710498Y-85731680D01*
X137769463Y-85841994D01*
X137848815Y-85938685D01*
X137945506Y-86018037D01*
X138055820Y-86077002D01*
X138175518Y-86113312D01*
X138300000Y-86125572D01*
X138714250Y-86122500D01*
X138873000Y-85963750D01*
X138873000Y-85127000D01*
X137823750Y-85127000D01*
X137665000Y-85285750D01*
X137661928Y-85487500D01*
X133535000Y-85487500D01*
X133535000Y-85398061D01*
X133495226Y-85198102D01*
X133417205Y-85009744D01*
X133303937Y-84840226D01*
X133159774Y-84696063D01*
X132990256Y-84582795D01*
X132801898Y-84504774D01*
X132601939Y-84465000D01*
X132398061Y-84465000D01*
X132198102Y-84504774D01*
X132009744Y-84582795D01*
X131840226Y-84696063D01*
X131821289Y-84715000D01*
X130825158Y-84715000D01*
X130035000Y-83924843D01*
X130035000Y-83898061D01*
X129995226Y-83698102D01*
X129917205Y-83509744D01*
X129803937Y-83340226D01*
X129659774Y-83196063D01*
X129490256Y-83082795D01*
X129301898Y-83004774D01*
X129101939Y-82965000D01*
X128898061Y-82965000D01*
X128698102Y-83004774D01*
X128509744Y-83082795D01*
X128340226Y-83196063D01*
X128196063Y-83340226D01*
X128082795Y-83509744D01*
X128004774Y-83698102D01*
X127965000Y-83898061D01*
X116660000Y-83898061D01*
X116660000Y-65023338D01*
X116734863Y-63966016D01*
X116953032Y-62952664D01*
X117311805Y-61980167D01*
X117804027Y-61067919D01*
X117929485Y-60898061D01*
X122465000Y-60898061D01*
X122465000Y-61101939D01*
X122504774Y-61301898D01*
X122582795Y-61490256D01*
X122696063Y-61659774D01*
X122840226Y-61803937D01*
X123009744Y-61917205D01*
X123198102Y-61995226D01*
X123398061Y-62035000D01*
X123424843Y-62035000D01*
X124715001Y-63325159D01*
X124715000Y-64251289D01*
X124659774Y-64196063D01*
X124490256Y-64082795D01*
X124301898Y-64004774D01*
X124101939Y-63965000D01*
X123898061Y-63965000D01*
X123698102Y-64004774D01*
X123509744Y-64082795D01*
X123340226Y-64196063D01*
X123196063Y-64340226D01*
X123082795Y-64509744D01*
X123004774Y-64698102D01*
X122965000Y-64898061D01*
X122965000Y-65101939D01*
X123004774Y-65301898D01*
X123082795Y-65490256D01*
X123196063Y-65659774D01*
X123242115Y-65705826D01*
X123271246Y-65801859D01*
X123344138Y-65938232D01*
X123442236Y-66057764D01*
X123472190Y-66082347D01*
X127917658Y-70527816D01*
X127942236Y-70557764D01*
X127972184Y-70582342D01*
X127972187Y-70582345D01*
X128001559Y-70606450D01*
X128061767Y-70655862D01*
X128198140Y-70728754D01*
X128346113Y-70773641D01*
X128461439Y-70785000D01*
X128461446Y-70785000D01*
X128499999Y-70788797D01*
X128538552Y-70785000D01*
X149174843Y-70785000D01*
X149417651Y-71027807D01*
X149417655Y-71027812D01*
X149960180Y-71570337D01*
X149801898Y-71504774D01*
X149601939Y-71465000D01*
X149398061Y-71465000D01*
X149198102Y-71504774D01*
X149009744Y-71582795D01*
X148840226Y-71696063D01*
X148696063Y-71840226D01*
X148582795Y-72009744D01*
X148504774Y-72198102D01*
X148465000Y-72398061D01*
X148465000Y-72601939D01*
X148504774Y-72801898D01*
X148582795Y-72990256D01*
X148696063Y-73159774D01*
X148713066Y-73176777D01*
X148674843Y-73215000D01*
X147038556Y-73215000D01*
X147000000Y-73211203D01*
X146961444Y-73215000D01*
X146961439Y-73215000D01*
X146921026Y-73218980D01*
X146846113Y-73226358D01*
X146698140Y-73271246D01*
X146561767Y-73344138D01*
X146501559Y-73393550D01*
X146472187Y-73417655D01*
X146472184Y-73417658D01*
X146442236Y-73442236D01*
X146417658Y-73472184D01*
X143917655Y-75972188D01*
X143917651Y-75972193D01*
X143472190Y-76417653D01*
X143442236Y-76442236D01*
X143344138Y-76561768D01*
X143271246Y-76698141D01*
X143226359Y-76846114D01*
X143215000Y-76961440D01*
X143215000Y-76961447D01*
X143211203Y-77000000D01*
X143215000Y-77038553D01*
X143215001Y-78174841D01*
X142424843Y-78965000D01*
X142398061Y-78965000D01*
X142198102Y-79004774D01*
X142009744Y-79082795D01*
X141840226Y-79196063D01*
X141696063Y-79340226D01*
X141582795Y-79509744D01*
X141504774Y-79698102D01*
X141465000Y-79898061D01*
X141465000Y-80101939D01*
X141504774Y-80301898D01*
X141582795Y-80490256D01*
X141696063Y-80659774D01*
X141840226Y-80803937D01*
X142009744Y-80917205D01*
X142198102Y-80995226D01*
X142398061Y-81035000D01*
X142601939Y-81035000D01*
X142801898Y-80995226D01*
X142990256Y-80917205D01*
X143159774Y-80803937D01*
X143303937Y-80659774D01*
X143417205Y-80490256D01*
X143495226Y-80301898D01*
X143535000Y-80101939D01*
X143535000Y-80075157D01*
X144215000Y-79395158D01*
X144215001Y-94104844D01*
X141285000Y-91174843D01*
X141285000Y-82498587D01*
X141301898Y-82495226D01*
X141490256Y-82417205D01*
X141659774Y-82303937D01*
X141803937Y-82159774D01*
X141917205Y-81990256D01*
X141995226Y-81801898D01*
X142035000Y-81601939D01*
X142035000Y-81398061D01*
X141995226Y-81198102D01*
X141917205Y-81009744D01*
X141803937Y-80840226D01*
X141659774Y-80696063D01*
X141490256Y-80582795D01*
X141301898Y-80504774D01*
X141101939Y-80465000D01*
X140898061Y-80465000D01*
X140698102Y-80504774D01*
X140509744Y-80582795D01*
X140340226Y-80696063D01*
X140196063Y-80840226D01*
X140082795Y-81009744D01*
X140004774Y-81198102D01*
X139965000Y-81398061D01*
X139965000Y-81423554D01*
X139942236Y-81442236D01*
X139844138Y-81561768D01*
X139771246Y-81698141D01*
X139726359Y-81846114D01*
X139715000Y-81961440D01*
X139715000Y-81961447D01*
X139711203Y-82000000D01*
X139715000Y-82038553D01*
X139715000Y-82042677D01*
X139628285Y-82016372D01*
X139456250Y-81999428D01*
X138543750Y-81999428D01*
X138371715Y-82016372D01*
X138206291Y-82066553D01*
X138053836Y-82148042D01*
X137920208Y-82257708D01*
X137852672Y-82340000D01*
X136023451Y-82340000D01*
X135995226Y-82198102D01*
X135917205Y-82009744D01*
X135803937Y-81840226D01*
X135659774Y-81696063D01*
X135490256Y-81582795D01*
X135301898Y-81504774D01*
X135101939Y-81465000D01*
X134898061Y-81465000D01*
X134698102Y-81504774D01*
X134509744Y-81582795D01*
X134340226Y-81696063D01*
X134196063Y-81840226D01*
X134082795Y-82009744D01*
X134004774Y-82198102D01*
X133965000Y-82398061D01*
X133965000Y-82601939D01*
X134004774Y-82801898D01*
X134082795Y-82990256D01*
X134196063Y-83159774D01*
X134340226Y-83303937D01*
X134509744Y-83417205D01*
X134698102Y-83495226D01*
X134898061Y-83535000D01*
X134924842Y-83535000D01*
X135042657Y-83652815D01*
X135067236Y-83682764D01*
X135097184Y-83707342D01*
X135097187Y-83707345D01*
X135126559Y-83731450D01*
X135186767Y-83780862D01*
X135323140Y-83853754D01*
X135431709Y-83886688D01*
X135471112Y-83898641D01*
X135485490Y-83900057D01*
X135586439Y-83910000D01*
X135586446Y-83910000D01*
X135624999Y-83913797D01*
X135663552Y-83910000D01*
X137852672Y-83910000D01*
X137920208Y-83992292D01*
X137926564Y-83997508D01*
X137848815Y-84061315D01*
X137769463Y-84158006D01*
X137710498Y-84268320D01*
X137674188Y-84388018D01*
X137661928Y-84512500D01*
X137665000Y-84714250D01*
X137823750Y-84873000D01*
X138873000Y-84873000D01*
X138873000Y-84853000D01*
X139127000Y-84853000D01*
X139127000Y-84873000D01*
X139147000Y-84873000D01*
X139147000Y-85127000D01*
X139127000Y-85127000D01*
X139127000Y-85963750D01*
X139285750Y-86122500D01*
X139700000Y-86125572D01*
X139715000Y-86124095D01*
X139715001Y-90961430D01*
X139715000Y-90961440D01*
X139715000Y-91461447D01*
X139711203Y-91500000D01*
X139715000Y-91538553D01*
X139715000Y-91538561D01*
X139726359Y-91653887D01*
X139771246Y-91801860D01*
X139844138Y-91938233D01*
X139942237Y-92057764D01*
X139972185Y-92082342D01*
X146105563Y-98215721D01*
X146101939Y-98215000D01*
X145898061Y-98215000D01*
X145698102Y-98254774D01*
X145509744Y-98332795D01*
X145340226Y-98446063D01*
X145196063Y-98590226D01*
X145112692Y-98715000D01*
X142928711Y-98715000D01*
X142909774Y-98696063D01*
X142740256Y-98582795D01*
X142551898Y-98504774D01*
X142351939Y-98465000D01*
X142148061Y-98465000D01*
X141948102Y-98504774D01*
X141759744Y-98582795D01*
X141590226Y-98696063D01*
X141446063Y-98840226D01*
X141332795Y-99009744D01*
X141254774Y-99198102D01*
X141215000Y-99398061D01*
X141215000Y-99601939D01*
X141254774Y-99801898D01*
X141332795Y-99990256D01*
X141446063Y-100159774D01*
X141590226Y-100303937D01*
X141759744Y-100417205D01*
X141948102Y-100495226D01*
X142148061Y-100535000D01*
X142351939Y-100535000D01*
X142551898Y-100495226D01*
X142740256Y-100417205D01*
X142909774Y-100303937D01*
X142928711Y-100285000D01*
X145711447Y-100285000D01*
X145750000Y-100288797D01*
X145788553Y-100285000D01*
X145788561Y-100285000D01*
X145861797Y-100277787D01*
X145898061Y-100285000D01*
X146101939Y-100285000D01*
X146301898Y-100245226D01*
X146490256Y-100167205D01*
X146659774Y-100053937D01*
X146803937Y-99909774D01*
X146917205Y-99740256D01*
X146995226Y-99551898D01*
X147035000Y-99351939D01*
X147035000Y-99148061D01*
X147034279Y-99144437D01*
X148417658Y-100527816D01*
X148442236Y-100557764D01*
X148472184Y-100582342D01*
X148472187Y-100582345D01*
X148501559Y-100606450D01*
X148561767Y-100655862D01*
X148698140Y-100728754D01*
X148811672Y-100763194D01*
X148846112Y-100773641D01*
X148860490Y-100775057D01*
X148961439Y-100785000D01*
X148961446Y-100785000D01*
X148999999Y-100788797D01*
X149038552Y-100785000D01*
X157321289Y-100785000D01*
X157340226Y-100803937D01*
X157509744Y-100917205D01*
X157698102Y-100995226D01*
X157898061Y-101035000D01*
X158101939Y-101035000D01*
X158301898Y-100995226D01*
X158490256Y-100917205D01*
X158659774Y-100803937D01*
X158803937Y-100659774D01*
X158917205Y-100490256D01*
X158995226Y-100301898D01*
X159035000Y-100101939D01*
X159035000Y-99898061D01*
X159012511Y-99785000D01*
X163001413Y-99785000D01*
X163004774Y-99801898D01*
X163082795Y-99990256D01*
X163196063Y-100159774D01*
X163340226Y-100303937D01*
X163509744Y-100417205D01*
X163698102Y-100495226D01*
X163898061Y-100535000D01*
X164101939Y-100535000D01*
X164301898Y-100495226D01*
X164490256Y-100417205D01*
X164659774Y-100303937D01*
X164715000Y-100248711D01*
X164715001Y-109174842D01*
X164424843Y-109465000D01*
X164398061Y-109465000D01*
X164198102Y-109504774D01*
X164009744Y-109582795D01*
X163840226Y-109696063D01*
X163696063Y-109840226D01*
X163582795Y-110009744D01*
X163504774Y-110198102D01*
X163465000Y-110398061D01*
X163465000Y-110601939D01*
X163504774Y-110801898D01*
X163582795Y-110990256D01*
X163696063Y-111159774D01*
X163840226Y-111303937D01*
X164009744Y-111417205D01*
X164198102Y-111495226D01*
X164398061Y-111535000D01*
X164601939Y-111535000D01*
X164801898Y-111495226D01*
X164990256Y-111417205D01*
X165159774Y-111303937D01*
X165303937Y-111159774D01*
X165417205Y-110990256D01*
X165495226Y-110801898D01*
X165535000Y-110601939D01*
X165535000Y-110575157D01*
X166027810Y-110082347D01*
X166057764Y-110057764D01*
X166155862Y-109938233D01*
X166228754Y-109801860D01*
X166273642Y-109653887D01*
X166281020Y-109578974D01*
X166285000Y-109538561D01*
X166285000Y-109538556D01*
X166288797Y-109500000D01*
X166285000Y-109461444D01*
X166285000Y-99538555D01*
X166288797Y-99500000D01*
X166285000Y-99461440D01*
X166285000Y-99461439D01*
X166278758Y-99398061D01*
X166273642Y-99346113D01*
X166228754Y-99198140D01*
X166227644Y-99196063D01*
X166155862Y-99061767D01*
X166105170Y-98999999D01*
X166082345Y-98972187D01*
X166082342Y-98972184D01*
X166057764Y-98942236D01*
X166027817Y-98917659D01*
X163832344Y-96722187D01*
X163807763Y-96692235D01*
X163688232Y-96594137D01*
X163551859Y-96521245D01*
X163403886Y-96476358D01*
X163288560Y-96464999D01*
X163288552Y-96464999D01*
X163249999Y-96461202D01*
X163211446Y-96464999D01*
X153427667Y-96464999D01*
X153495226Y-96301898D01*
X153535000Y-96101939D01*
X153535000Y-96075157D01*
X156527816Y-93082342D01*
X156557764Y-93057764D01*
X156582346Y-93027812D01*
X156613167Y-92990256D01*
X156655862Y-92938233D01*
X156728754Y-92801860D01*
X156773641Y-92653887D01*
X156785000Y-92538561D01*
X156785000Y-92538554D01*
X156788797Y-92500001D01*
X156785000Y-92461448D01*
X156785000Y-83538556D01*
X156788797Y-83500000D01*
X156785000Y-83461440D01*
X156785000Y-83461439D01*
X156775871Y-83368750D01*
X156773642Y-83346113D01*
X156728754Y-83198140D01*
X156689660Y-83125000D01*
X156655862Y-83061767D01*
X156557764Y-82942236D01*
X156535000Y-82923554D01*
X156535000Y-82898061D01*
X156495226Y-82698102D01*
X156417205Y-82509744D01*
X156303937Y-82340226D01*
X156159774Y-82196063D01*
X155990256Y-82082795D01*
X155801898Y-82004774D01*
X155601939Y-81965000D01*
X155398061Y-81965000D01*
X155198102Y-82004774D01*
X155009744Y-82082795D01*
X154840226Y-82196063D01*
X154696063Y-82340226D01*
X154582795Y-82509744D01*
X154504774Y-82698102D01*
X154465000Y-82898061D01*
X154465000Y-83101939D01*
X154504774Y-83301898D01*
X154582795Y-83490256D01*
X154696063Y-83659774D01*
X154840226Y-83803937D01*
X155009744Y-83917205D01*
X155198102Y-83995226D01*
X155215000Y-83998587D01*
X155215001Y-92174841D01*
X152424843Y-94965000D01*
X152398061Y-94965000D01*
X152198102Y-95004774D01*
X152009744Y-95082795D01*
X151840226Y-95196063D01*
X151696063Y-95340226D01*
X151582795Y-95509744D01*
X151504774Y-95698102D01*
X151465000Y-95898061D01*
X151465000Y-96101939D01*
X151504774Y-96301898D01*
X151570337Y-96460180D01*
X151285000Y-96174843D01*
X151285000Y-94038556D01*
X151288797Y-94000000D01*
X151285000Y-93961440D01*
X151285000Y-93961439D01*
X151277788Y-93888212D01*
X151273642Y-93846113D01*
X151228754Y-93698140D01*
X151155862Y-93561767D01*
X151057764Y-93442236D01*
X151027811Y-93417654D01*
X150035000Y-92424843D01*
X150035000Y-92398061D01*
X149995226Y-92198102D01*
X149917205Y-92009744D01*
X149803937Y-91840226D01*
X149659774Y-91696063D01*
X149490256Y-91582795D01*
X149301898Y-91504774D01*
X149101939Y-91465000D01*
X148898061Y-91465000D01*
X148698102Y-91504774D01*
X148509744Y-91582795D01*
X148340226Y-91696063D01*
X148196063Y-91840226D01*
X148082795Y-92009744D01*
X148004774Y-92198102D01*
X147972170Y-92362013D01*
X146785000Y-91174843D01*
X146785000Y-79325157D01*
X147027806Y-79082350D01*
X147057764Y-79057764D01*
X147155862Y-78938233D01*
X147228754Y-78801860D01*
X147260217Y-78698141D01*
X147273642Y-78653887D01*
X147282714Y-78561767D01*
X147285000Y-78538561D01*
X147285000Y-78538556D01*
X147288797Y-78500000D01*
X147285000Y-78461440D01*
X147285000Y-77678711D01*
X147303937Y-77659774D01*
X147417205Y-77490256D01*
X147495226Y-77301898D01*
X147535000Y-77101939D01*
X147535000Y-76898061D01*
X147495226Y-76698102D01*
X147417205Y-76509744D01*
X147303937Y-76340226D01*
X147159774Y-76196063D01*
X146990256Y-76082795D01*
X146801898Y-76004774D01*
X146601939Y-75965000D01*
X146398061Y-75965000D01*
X146198102Y-76004774D01*
X146039821Y-76070337D01*
X147325158Y-74785000D01*
X148961447Y-74785000D01*
X149000000Y-74788797D01*
X149038553Y-74785000D01*
X149038561Y-74785000D01*
X149153887Y-74773641D01*
X149301860Y-74728754D01*
X149438233Y-74655862D01*
X149557764Y-74557764D01*
X149582347Y-74527810D01*
X150027805Y-74082351D01*
X150057764Y-74057764D01*
X150155862Y-73938233D01*
X150228754Y-73801860D01*
X150260217Y-73698141D01*
X150273642Y-73653887D01*
X150282714Y-73561767D01*
X150285000Y-73538561D01*
X150285000Y-73538556D01*
X150288797Y-73500000D01*
X150285000Y-73461444D01*
X150285000Y-73178711D01*
X150303937Y-73159774D01*
X150417205Y-72990256D01*
X150495226Y-72801898D01*
X150535000Y-72601939D01*
X150535000Y-72427666D01*
X150698102Y-72495226D01*
X150898061Y-72535000D01*
X151101939Y-72535000D01*
X151301898Y-72495226D01*
X151490256Y-72417205D01*
X151659774Y-72303937D01*
X151750000Y-72213711D01*
X151840226Y-72303937D01*
X152009744Y-72417205D01*
X152198102Y-72495226D01*
X152398061Y-72535000D01*
X152601939Y-72535000D01*
X152801898Y-72495226D01*
X152990256Y-72417205D01*
X153159774Y-72303937D01*
X153303937Y-72159774D01*
X153417205Y-71990256D01*
X153495226Y-71801898D01*
X153535000Y-71601939D01*
X153535000Y-71398061D01*
X153495226Y-71198102D01*
X153417205Y-71009744D01*
X153303937Y-70840226D01*
X153159774Y-70696063D01*
X152990256Y-70582795D01*
X152801898Y-70504774D01*
X152601939Y-70465000D01*
X152575158Y-70465000D01*
X150582347Y-68472190D01*
X150557764Y-68442236D01*
X150438233Y-68344138D01*
X150301860Y-68271246D01*
X150153887Y-68226359D01*
X150038561Y-68215000D01*
X150038553Y-68215000D01*
X150000000Y-68211203D01*
X149961447Y-68215000D01*
X129325158Y-68215000D01*
X126285000Y-65174843D01*
X126285000Y-63038552D01*
X126288797Y-62999999D01*
X126285000Y-62961446D01*
X126285000Y-62961439D01*
X126273641Y-62846113D01*
X126264108Y-62814685D01*
X126228754Y-62698140D01*
X126221166Y-62683944D01*
X126155862Y-62561767D01*
X126057764Y-62442236D01*
X126027816Y-62417658D01*
X124535000Y-60924843D01*
X124535000Y-60898061D01*
X124495226Y-60698102D01*
X124417205Y-60509744D01*
X124303937Y-60340226D01*
X124159774Y-60196063D01*
X123990256Y-60082795D01*
X123801898Y-60004774D01*
X123601939Y-59965000D01*
X123398061Y-59965000D01*
X123198102Y-60004774D01*
X123009744Y-60082795D01*
X122840226Y-60196063D01*
X122696063Y-60340226D01*
X122582795Y-60509744D01*
X122504774Y-60698102D01*
X122465000Y-60898061D01*
X117929485Y-60898061D01*
X118419875Y-60234127D01*
X119147065Y-59495422D01*
X119971073Y-58866559D01*
X120875483Y-58360065D01*
X121842233Y-57986057D01*
X122852030Y-57751999D01*
X123905445Y-57660763D01*
X124002638Y-57660000D01*
X162976662Y-57660000D01*
X164033984Y-57734863D01*
G37*
X164033984Y-57734863D02*
X165047336Y-57953032D01*
X166019833Y-58311805D01*
X166932081Y-58804027D01*
X167765873Y-59419875D01*
X168504578Y-60147065D01*
X169133441Y-60971073D01*
X169639935Y-61875483D01*
X170013943Y-62842233D01*
X170248001Y-63852030D01*
X170339237Y-64905445D01*
X170340001Y-65002765D01*
X170340001Y-78229843D01*
X168582345Y-76472188D01*
X168557764Y-76442236D01*
X168438233Y-76344138D01*
X168301860Y-76271246D01*
X168153887Y-76226359D01*
X168038561Y-76215000D01*
X168038553Y-76215000D01*
X168000000Y-76211203D01*
X167961447Y-76215000D01*
X152678711Y-76215000D01*
X152659774Y-76196063D01*
X152490256Y-76082795D01*
X152301898Y-76004774D01*
X152101939Y-75965000D01*
X151898061Y-75965000D01*
X151698102Y-76004774D01*
X151509744Y-76082795D01*
X151340226Y-76196063D01*
X151196063Y-76340226D01*
X151082795Y-76509744D01*
X151004774Y-76698102D01*
X150965000Y-76898061D01*
X150965000Y-77101939D01*
X151004774Y-77301898D01*
X151082795Y-77490256D01*
X151196063Y-77659774D01*
X151340226Y-77803937D01*
X151509744Y-77917205D01*
X151698102Y-77995226D01*
X151898061Y-78035000D01*
X152101939Y-78035000D01*
X152301898Y-77995226D01*
X152490256Y-77917205D01*
X152659774Y-77803937D01*
X152678711Y-77785000D01*
X167674843Y-77785000D01*
X169215001Y-79325159D01*
X169215000Y-81321289D01*
X169196063Y-81340226D01*
X169082795Y-81509744D01*
X169004774Y-81698102D01*
X168965000Y-81898061D01*
X168965000Y-82101939D01*
X169004774Y-82301898D01*
X169082795Y-82490256D01*
X169196063Y-82659774D01*
X169340226Y-82803937D01*
X169509744Y-82917205D01*
X169698102Y-82995226D01*
X169898061Y-83035000D01*
X170101939Y-83035000D01*
X170301898Y-82995226D01*
X170340001Y-82979443D01*
X170340000Y-119976662D01*
X170265137Y-121033982D01*
X170046968Y-122047336D01*
X169688195Y-123019833D01*
X169195970Y-123932086D01*
X168580123Y-124765876D01*
X167852934Y-125504578D01*
X167028927Y-126133441D01*
X166124516Y-126639935D01*
X165157766Y-127013943D01*
X164147976Y-127248000D01*
X163094555Y-127339237D01*
X162997362Y-127340000D01*
X124023338Y-127340000D01*
X122966018Y-127265137D01*
X121952664Y-127046968D01*
X120980167Y-126688195D01*
X120067914Y-126195970D01*
X119234124Y-125580123D01*
X118495422Y-124852934D01*
X117866559Y-124028927D01*
X117360065Y-123124516D01*
X116986057Y-122157766D01*
X116752000Y-121147976D01*
X116660763Y-120094555D01*
X116660000Y-119997362D01*
X116660000Y-83898061D01*
X127965000Y-83898061D01*
X127965000Y-84101939D01*
X128004774Y-84301898D01*
X128082795Y-84490256D01*
X128196063Y-84659774D01*
X128340226Y-84803937D01*
X128509744Y-84917205D01*
X128698102Y-84995226D01*
X128898061Y-85035000D01*
X128924843Y-85035000D01*
X129917658Y-86027816D01*
X129942236Y-86057764D01*
X129972184Y-86082342D01*
X129972187Y-86082345D01*
X130001559Y-86106450D01*
X130061767Y-86155862D01*
X130198140Y-86228754D01*
X130311672Y-86263194D01*
X130346112Y-86273641D01*
X130360490Y-86275057D01*
X130461439Y-86285000D01*
X130461446Y-86285000D01*
X130499999Y-86288797D01*
X130538552Y-86285000D01*
X131821289Y-86285000D01*
X131840226Y-86303937D01*
X132009744Y-86417205D01*
X132198102Y-86495226D01*
X132398061Y-86535000D01*
X132601939Y-86535000D01*
X132801898Y-86495226D01*
X132990256Y-86417205D01*
X133159774Y-86303937D01*
X133303937Y-86159774D01*
X133417205Y-85990256D01*
X133495226Y-85801898D01*
X133535000Y-85601939D01*
X133535000Y-85487500D01*
X137661928Y-85487500D01*
X137674188Y-85611982D01*
X137710498Y-85731680D01*
X137769463Y-85841994D01*
X137848815Y-85938685D01*
X137945506Y-86018037D01*
X138055820Y-86077002D01*
X138175518Y-86113312D01*
X138300000Y-86125572D01*
X138714250Y-86122500D01*
X138873000Y-85963750D01*
X138873000Y-85127000D01*
X137823750Y-85127000D01*
X137665000Y-85285750D01*
X137661928Y-85487500D01*
X133535000Y-85487500D01*
X133535000Y-85398061D01*
X133495226Y-85198102D01*
X133417205Y-85009744D01*
X133303937Y-84840226D01*
X133159774Y-84696063D01*
X132990256Y-84582795D01*
X132801898Y-84504774D01*
X132601939Y-84465000D01*
X132398061Y-84465000D01*
X132198102Y-84504774D01*
X132009744Y-84582795D01*
X131840226Y-84696063D01*
X131821289Y-84715000D01*
X130825158Y-84715000D01*
X130035000Y-83924843D01*
X130035000Y-83898061D01*
X129995226Y-83698102D01*
X129917205Y-83509744D01*
X129803937Y-83340226D01*
X129659774Y-83196063D01*
X129490256Y-83082795D01*
X129301898Y-83004774D01*
X129101939Y-82965000D01*
X128898061Y-82965000D01*
X128698102Y-83004774D01*
X128509744Y-83082795D01*
X128340226Y-83196063D01*
X128196063Y-83340226D01*
X128082795Y-83509744D01*
X128004774Y-83698102D01*
X127965000Y-83898061D01*
X116660000Y-83898061D01*
X116660000Y-65023338D01*
X116734863Y-63966016D01*
X116953032Y-62952664D01*
X117311805Y-61980167D01*
X117804027Y-61067919D01*
X117929485Y-60898061D01*
X122465000Y-60898061D01*
X122465000Y-61101939D01*
X122504774Y-61301898D01*
X122582795Y-61490256D01*
X122696063Y-61659774D01*
X122840226Y-61803937D01*
X123009744Y-61917205D01*
X123198102Y-61995226D01*
X123398061Y-62035000D01*
X123424843Y-62035000D01*
X124715001Y-63325159D01*
X124715000Y-64251289D01*
X124659774Y-64196063D01*
X124490256Y-64082795D01*
X124301898Y-64004774D01*
X124101939Y-63965000D01*
X123898061Y-63965000D01*
X123698102Y-64004774D01*
X123509744Y-64082795D01*
X123340226Y-64196063D01*
X123196063Y-64340226D01*
X123082795Y-64509744D01*
X123004774Y-64698102D01*
X122965000Y-64898061D01*
X122965000Y-65101939D01*
X123004774Y-65301898D01*
X123082795Y-65490256D01*
X123196063Y-65659774D01*
X123242115Y-65705826D01*
X123271246Y-65801859D01*
X123344138Y-65938232D01*
X123442236Y-66057764D01*
X123472190Y-66082347D01*
X127917658Y-70527816D01*
X127942236Y-70557764D01*
X127972184Y-70582342D01*
X127972187Y-70582345D01*
X128001559Y-70606450D01*
X128061767Y-70655862D01*
X128198140Y-70728754D01*
X128346113Y-70773641D01*
X128461439Y-70785000D01*
X128461446Y-70785000D01*
X128499999Y-70788797D01*
X128538552Y-70785000D01*
X149174843Y-70785000D01*
X149417651Y-71027807D01*
X149417655Y-71027812D01*
X149960180Y-71570337D01*
X149801898Y-71504774D01*
X149601939Y-71465000D01*
X149398061Y-71465000D01*
X149198102Y-71504774D01*
X149009744Y-71582795D01*
X148840226Y-71696063D01*
X148696063Y-71840226D01*
X148582795Y-72009744D01*
X148504774Y-72198102D01*
X148465000Y-72398061D01*
X148465000Y-72601939D01*
X148504774Y-72801898D01*
X148582795Y-72990256D01*
X148696063Y-73159774D01*
X148713066Y-73176777D01*
X148674843Y-73215000D01*
X147038556Y-73215000D01*
X147000000Y-73211203D01*
X146961444Y-73215000D01*
X146961439Y-73215000D01*
X146921026Y-73218980D01*
X146846113Y-73226358D01*
X146698140Y-73271246D01*
X146561767Y-73344138D01*
X146501559Y-73393550D01*
X146472187Y-73417655D01*
X146472184Y-73417658D01*
X146442236Y-73442236D01*
X146417658Y-73472184D01*
X143917655Y-75972188D01*
X143917651Y-75972193D01*
X143472190Y-76417653D01*
X143442236Y-76442236D01*
X143344138Y-76561768D01*
X143271246Y-76698141D01*
X143226359Y-76846114D01*
X143215000Y-76961440D01*
X143215000Y-76961447D01*
X143211203Y-77000000D01*
X143215000Y-77038553D01*
X143215001Y-78174841D01*
X142424843Y-78965000D01*
X142398061Y-78965000D01*
X142198102Y-79004774D01*
X142009744Y-79082795D01*
X141840226Y-79196063D01*
X141696063Y-79340226D01*
X141582795Y-79509744D01*
X141504774Y-79698102D01*
X141465000Y-79898061D01*
X141465000Y-80101939D01*
X141504774Y-80301898D01*
X141582795Y-80490256D01*
X141696063Y-80659774D01*
X141840226Y-80803937D01*
X142009744Y-80917205D01*
X142198102Y-80995226D01*
X142398061Y-81035000D01*
X142601939Y-81035000D01*
X142801898Y-80995226D01*
X142990256Y-80917205D01*
X143159774Y-80803937D01*
X143303937Y-80659774D01*
X143417205Y-80490256D01*
X143495226Y-80301898D01*
X143535000Y-80101939D01*
X143535000Y-80075157D01*
X144215000Y-79395158D01*
X144215001Y-94104844D01*
X141285000Y-91174843D01*
X141285000Y-82498587D01*
X141301898Y-82495226D01*
X141490256Y-82417205D01*
X141659774Y-82303937D01*
X141803937Y-82159774D01*
X141917205Y-81990256D01*
X141995226Y-81801898D01*
X142035000Y-81601939D01*
X142035000Y-81398061D01*
X141995226Y-81198102D01*
X141917205Y-81009744D01*
X141803937Y-80840226D01*
X141659774Y-80696063D01*
X141490256Y-80582795D01*
X141301898Y-80504774D01*
X141101939Y-80465000D01*
X140898061Y-80465000D01*
X140698102Y-80504774D01*
X140509744Y-80582795D01*
X140340226Y-80696063D01*
X140196063Y-80840226D01*
X140082795Y-81009744D01*
X140004774Y-81198102D01*
X139965000Y-81398061D01*
X139965000Y-81423554D01*
X139942236Y-81442236D01*
X139844138Y-81561768D01*
X139771246Y-81698141D01*
X139726359Y-81846114D01*
X139715000Y-81961440D01*
X139715000Y-81961447D01*
X139711203Y-82000000D01*
X139715000Y-82038553D01*
X139715000Y-82042677D01*
X139628285Y-82016372D01*
X139456250Y-81999428D01*
X138543750Y-81999428D01*
X138371715Y-82016372D01*
X138206291Y-82066553D01*
X138053836Y-82148042D01*
X137920208Y-82257708D01*
X137852672Y-82340000D01*
X136023451Y-82340000D01*
X135995226Y-82198102D01*
X135917205Y-82009744D01*
X135803937Y-81840226D01*
X135659774Y-81696063D01*
X135490256Y-81582795D01*
X135301898Y-81504774D01*
X135101939Y-81465000D01*
X134898061Y-81465000D01*
X134698102Y-81504774D01*
X134509744Y-81582795D01*
X134340226Y-81696063D01*
X134196063Y-81840226D01*
X134082795Y-82009744D01*
X134004774Y-82198102D01*
X133965000Y-82398061D01*
X133965000Y-82601939D01*
X134004774Y-82801898D01*
X134082795Y-82990256D01*
X134196063Y-83159774D01*
X134340226Y-83303937D01*
X134509744Y-83417205D01*
X134698102Y-83495226D01*
X134898061Y-83535000D01*
X134924842Y-83535000D01*
X135042657Y-83652815D01*
X135067236Y-83682764D01*
X135097184Y-83707342D01*
X135097187Y-83707345D01*
X135126559Y-83731450D01*
X135186767Y-83780862D01*
X135323140Y-83853754D01*
X135431709Y-83886688D01*
X135471112Y-83898641D01*
X135485490Y-83900057D01*
X135586439Y-83910000D01*
X135586446Y-83910000D01*
X135624999Y-83913797D01*
X135663552Y-83910000D01*
X137852672Y-83910000D01*
X137920208Y-83992292D01*
X137926564Y-83997508D01*
X137848815Y-84061315D01*
X137769463Y-84158006D01*
X137710498Y-84268320D01*
X137674188Y-84388018D01*
X137661928Y-84512500D01*
X137665000Y-84714250D01*
X137823750Y-84873000D01*
X138873000Y-84873000D01*
X138873000Y-84853000D01*
X139127000Y-84853000D01*
X139127000Y-84873000D01*
X139147000Y-84873000D01*
X139147000Y-85127000D01*
X139127000Y-85127000D01*
X139127000Y-85963750D01*
X139285750Y-86122500D01*
X139700000Y-86125572D01*
X139715000Y-86124095D01*
X139715001Y-90961430D01*
X139715000Y-90961440D01*
X139715000Y-91461447D01*
X139711203Y-91500000D01*
X139715000Y-91538553D01*
X139715000Y-91538561D01*
X139726359Y-91653887D01*
X139771246Y-91801860D01*
X139844138Y-91938233D01*
X139942237Y-92057764D01*
X139972185Y-92082342D01*
X146105563Y-98215721D01*
X146101939Y-98215000D01*
X145898061Y-98215000D01*
X145698102Y-98254774D01*
X145509744Y-98332795D01*
X145340226Y-98446063D01*
X145196063Y-98590226D01*
X145112692Y-98715000D01*
X142928711Y-98715000D01*
X142909774Y-98696063D01*
X142740256Y-98582795D01*
X142551898Y-98504774D01*
X142351939Y-98465000D01*
X142148061Y-98465000D01*
X141948102Y-98504774D01*
X141759744Y-98582795D01*
X141590226Y-98696063D01*
X141446063Y-98840226D01*
X141332795Y-99009744D01*
X141254774Y-99198102D01*
X141215000Y-99398061D01*
X141215000Y-99601939D01*
X141254774Y-99801898D01*
X141332795Y-99990256D01*
X141446063Y-100159774D01*
X141590226Y-100303937D01*
X141759744Y-100417205D01*
X141948102Y-100495226D01*
X142148061Y-100535000D01*
X142351939Y-100535000D01*
X142551898Y-100495226D01*
X142740256Y-100417205D01*
X142909774Y-100303937D01*
X142928711Y-100285000D01*
X145711447Y-100285000D01*
X145750000Y-100288797D01*
X145788553Y-100285000D01*
X145788561Y-100285000D01*
X145861797Y-100277787D01*
X145898061Y-100285000D01*
X146101939Y-100285000D01*
X146301898Y-100245226D01*
X146490256Y-100167205D01*
X146659774Y-100053937D01*
X146803937Y-99909774D01*
X146917205Y-99740256D01*
X146995226Y-99551898D01*
X147035000Y-99351939D01*
X147035000Y-99148061D01*
X147034279Y-99144437D01*
X148417658Y-100527816D01*
X148442236Y-100557764D01*
X148472184Y-100582342D01*
X148472187Y-100582345D01*
X148501559Y-100606450D01*
X148561767Y-100655862D01*
X148698140Y-100728754D01*
X148811672Y-100763194D01*
X148846112Y-100773641D01*
X148860490Y-100775057D01*
X148961439Y-100785000D01*
X148961446Y-100785000D01*
X148999999Y-100788797D01*
X149038552Y-100785000D01*
X157321289Y-100785000D01*
X157340226Y-100803937D01*
X157509744Y-100917205D01*
X157698102Y-100995226D01*
X157898061Y-101035000D01*
X158101939Y-101035000D01*
X158301898Y-100995226D01*
X158490256Y-100917205D01*
X158659774Y-100803937D01*
X158803937Y-100659774D01*
X158917205Y-100490256D01*
X158995226Y-100301898D01*
X159035000Y-100101939D01*
X159035000Y-99898061D01*
X159012511Y-99785000D01*
X163001413Y-99785000D01*
X163004774Y-99801898D01*
X163082795Y-99990256D01*
X163196063Y-100159774D01*
X163340226Y-100303937D01*
X163509744Y-100417205D01*
X163698102Y-100495226D01*
X163898061Y-100535000D01*
X164101939Y-100535000D01*
X164301898Y-100495226D01*
X164490256Y-100417205D01*
X164659774Y-100303937D01*
X164715000Y-100248711D01*
X164715001Y-109174842D01*
X164424843Y-109465000D01*
X164398061Y-109465000D01*
X164198102Y-109504774D01*
X164009744Y-109582795D01*
X163840226Y-109696063D01*
X163696063Y-109840226D01*
X163582795Y-110009744D01*
X163504774Y-110198102D01*
X163465000Y-110398061D01*
X163465000Y-110601939D01*
X163504774Y-110801898D01*
X163582795Y-110990256D01*
X163696063Y-111159774D01*
X163840226Y-111303937D01*
X164009744Y-111417205D01*
X164198102Y-111495226D01*
X164398061Y-111535000D01*
X164601939Y-111535000D01*
X164801898Y-111495226D01*
X164990256Y-111417205D01*
X165159774Y-111303937D01*
X165303937Y-111159774D01*
X165417205Y-110990256D01*
X165495226Y-110801898D01*
X165535000Y-110601939D01*
X165535000Y-110575157D01*
X166027810Y-110082347D01*
X166057764Y-110057764D01*
X166155862Y-109938233D01*
X166228754Y-109801860D01*
X166273642Y-109653887D01*
X166281020Y-109578974D01*
X166285000Y-109538561D01*
X166285000Y-109538556D01*
X166288797Y-109500000D01*
X166285000Y-109461444D01*
X166285000Y-99538555D01*
X166288797Y-99500000D01*
X166285000Y-99461440D01*
X166285000Y-99461439D01*
X166278758Y-99398061D01*
X166273642Y-99346113D01*
X166228754Y-99198140D01*
X166227644Y-99196063D01*
X166155862Y-99061767D01*
X166105170Y-98999999D01*
X166082345Y-98972187D01*
X166082342Y-98972184D01*
X166057764Y-98942236D01*
X166027817Y-98917659D01*
X163832344Y-96722187D01*
X163807763Y-96692235D01*
X163688232Y-96594137D01*
X163551859Y-96521245D01*
X163403886Y-96476358D01*
X163288560Y-96464999D01*
X163288552Y-96464999D01*
X163249999Y-96461202D01*
X163211446Y-96464999D01*
X153427667Y-96464999D01*
X153495226Y-96301898D01*
X153535000Y-96101939D01*
X153535000Y-96075157D01*
X156527816Y-93082342D01*
X156557764Y-93057764D01*
X156582346Y-93027812D01*
X156613167Y-92990256D01*
X156655862Y-92938233D01*
X156728754Y-92801860D01*
X156773641Y-92653887D01*
X156785000Y-92538561D01*
X156785000Y-92538554D01*
X156788797Y-92500001D01*
X156785000Y-92461448D01*
X156785000Y-83538556D01*
X156788797Y-83500000D01*
X156785000Y-83461440D01*
X156785000Y-83461439D01*
X156775871Y-83368750D01*
X156773642Y-83346113D01*
X156728754Y-83198140D01*
X156689660Y-83125000D01*
X156655862Y-83061767D01*
X156557764Y-82942236D01*
X156535000Y-82923554D01*
X156535000Y-82898061D01*
X156495226Y-82698102D01*
X156417205Y-82509744D01*
X156303937Y-82340226D01*
X156159774Y-82196063D01*
X155990256Y-82082795D01*
X155801898Y-82004774D01*
X155601939Y-81965000D01*
X155398061Y-81965000D01*
X155198102Y-82004774D01*
X155009744Y-82082795D01*
X154840226Y-82196063D01*
X154696063Y-82340226D01*
X154582795Y-82509744D01*
X154504774Y-82698102D01*
X154465000Y-82898061D01*
X154465000Y-83101939D01*
X154504774Y-83301898D01*
X154582795Y-83490256D01*
X154696063Y-83659774D01*
X154840226Y-83803937D01*
X155009744Y-83917205D01*
X155198102Y-83995226D01*
X155215000Y-83998587D01*
X155215001Y-92174841D01*
X152424843Y-94965000D01*
X152398061Y-94965000D01*
X152198102Y-95004774D01*
X152009744Y-95082795D01*
X151840226Y-95196063D01*
X151696063Y-95340226D01*
X151582795Y-95509744D01*
X151504774Y-95698102D01*
X151465000Y-95898061D01*
X151465000Y-96101939D01*
X151504774Y-96301898D01*
X151570337Y-96460180D01*
X151285000Y-96174843D01*
X151285000Y-94038556D01*
X151288797Y-94000000D01*
X151285000Y-93961440D01*
X151285000Y-93961439D01*
X151277788Y-93888212D01*
X151273642Y-93846113D01*
X151228754Y-93698140D01*
X151155862Y-93561767D01*
X151057764Y-93442236D01*
X151027811Y-93417654D01*
X150035000Y-92424843D01*
X150035000Y-92398061D01*
X149995226Y-92198102D01*
X149917205Y-92009744D01*
X149803937Y-91840226D01*
X149659774Y-91696063D01*
X149490256Y-91582795D01*
X149301898Y-91504774D01*
X149101939Y-91465000D01*
X148898061Y-91465000D01*
X148698102Y-91504774D01*
X148509744Y-91582795D01*
X148340226Y-91696063D01*
X148196063Y-91840226D01*
X148082795Y-92009744D01*
X148004774Y-92198102D01*
X147972170Y-92362013D01*
X146785000Y-91174843D01*
X146785000Y-79325157D01*
X147027806Y-79082350D01*
X147057764Y-79057764D01*
X147155862Y-78938233D01*
X147228754Y-78801860D01*
X147260217Y-78698141D01*
X147273642Y-78653887D01*
X147282714Y-78561767D01*
X147285000Y-78538561D01*
X147285000Y-78538556D01*
X147288797Y-78500000D01*
X147285000Y-78461440D01*
X147285000Y-77678711D01*
X147303937Y-77659774D01*
X147417205Y-77490256D01*
X147495226Y-77301898D01*
X147535000Y-77101939D01*
X147535000Y-76898061D01*
X147495226Y-76698102D01*
X147417205Y-76509744D01*
X147303937Y-76340226D01*
X147159774Y-76196063D01*
X146990256Y-76082795D01*
X146801898Y-76004774D01*
X146601939Y-75965000D01*
X146398061Y-75965000D01*
X146198102Y-76004774D01*
X146039821Y-76070337D01*
X147325158Y-74785000D01*
X148961447Y-74785000D01*
X149000000Y-74788797D01*
X149038553Y-74785000D01*
X149038561Y-74785000D01*
X149153887Y-74773641D01*
X149301860Y-74728754D01*
X149438233Y-74655862D01*
X149557764Y-74557764D01*
X149582347Y-74527810D01*
X150027805Y-74082351D01*
X150057764Y-74057764D01*
X150155862Y-73938233D01*
X150228754Y-73801860D01*
X150260217Y-73698141D01*
X150273642Y-73653887D01*
X150282714Y-73561767D01*
X150285000Y-73538561D01*
X150285000Y-73538556D01*
X150288797Y-73500000D01*
X150285000Y-73461444D01*
X150285000Y-73178711D01*
X150303937Y-73159774D01*
X150417205Y-72990256D01*
X150495226Y-72801898D01*
X150535000Y-72601939D01*
X150535000Y-72427666D01*
X150698102Y-72495226D01*
X150898061Y-72535000D01*
X151101939Y-72535000D01*
X151301898Y-72495226D01*
X151490256Y-72417205D01*
X151659774Y-72303937D01*
X151750000Y-72213711D01*
X151840226Y-72303937D01*
X152009744Y-72417205D01*
X152198102Y-72495226D01*
X152398061Y-72535000D01*
X152601939Y-72535000D01*
X152801898Y-72495226D01*
X152990256Y-72417205D01*
X153159774Y-72303937D01*
X153303937Y-72159774D01*
X153417205Y-71990256D01*
X153495226Y-71801898D01*
X153535000Y-71601939D01*
X153535000Y-71398061D01*
X153495226Y-71198102D01*
X153417205Y-71009744D01*
X153303937Y-70840226D01*
X153159774Y-70696063D01*
X152990256Y-70582795D01*
X152801898Y-70504774D01*
X152601939Y-70465000D01*
X152575158Y-70465000D01*
X150582347Y-68472190D01*
X150557764Y-68442236D01*
X150438233Y-68344138D01*
X150301860Y-68271246D01*
X150153887Y-68226359D01*
X150038561Y-68215000D01*
X150038553Y-68215000D01*
X150000000Y-68211203D01*
X149961447Y-68215000D01*
X129325158Y-68215000D01*
X126285000Y-65174843D01*
X126285000Y-63038552D01*
X126288797Y-62999999D01*
X126285000Y-62961446D01*
X126285000Y-62961439D01*
X126273641Y-62846113D01*
X126264108Y-62814685D01*
X126228754Y-62698140D01*
X126221166Y-62683944D01*
X126155862Y-62561767D01*
X126057764Y-62442236D01*
X126027816Y-62417658D01*
X124535000Y-60924843D01*
X124535000Y-60898061D01*
X124495226Y-60698102D01*
X124417205Y-60509744D01*
X124303937Y-60340226D01*
X124159774Y-60196063D01*
X123990256Y-60082795D01*
X123801898Y-60004774D01*
X123601939Y-59965000D01*
X123398061Y-59965000D01*
X123198102Y-60004774D01*
X123009744Y-60082795D01*
X122840226Y-60196063D01*
X122696063Y-60340226D01*
X122582795Y-60509744D01*
X122504774Y-60698102D01*
X122465000Y-60898061D01*
X117929485Y-60898061D01*
X118419875Y-60234127D01*
X119147065Y-59495422D01*
X119971073Y-58866559D01*
X120875483Y-58360065D01*
X121842233Y-57986057D01*
X122852030Y-57751999D01*
X123905445Y-57660763D01*
X124002638Y-57660000D01*
X162976662Y-57660000D01*
X164033984Y-57734863D01*
%TD*%
M02*
