%TF.GenerationSoftware,KiCad,Pcbnew,(5.1.6)-1*%
%TF.CreationDate,2021-01-08T17:07:44+01:00*%
%TF.ProjectId,stm32L412K8T6,73746d33-324c-4343-9132-4b3854362e6b,rev?*%
%TF.SameCoordinates,Original*%
%TF.FileFunction,Soldermask,Top*%
%TF.FilePolarity,Negative*%
%FSLAX46Y46*%
G04 Gerber Fmt 4.6, Leading zero omitted, Abs format (unit mm)*
G04 Created by KiCad (PCBNEW (5.1.6)-1) date 2021-01-08 17:07:44*
%MOMM*%
%LPD*%
G01*
G04 APERTURE LIST*
%ADD10R,2.000000X1.100000*%
%ADD11C,1.100000*%
%ADD12R,2.100000X1.600000*%
%ADD13R,2.100000X3.900000*%
%ADD14R,1.100000X1.650000*%
%ADD15R,1.600000X1.100000*%
%ADD16R,1.100000X2.000000*%
%ADD17R,2.700000X3.700000*%
G04 APERTURE END LIST*
D10*
%TO.C,J8*%
X169150000Y-75040000D03*
X169150000Y-69960000D03*
X165850000Y-72500000D03*
%TD*%
%TO.C,J7*%
X168800000Y-84040000D03*
X168800000Y-78960000D03*
X165500000Y-81500000D03*
%TD*%
%TO.C,J3*%
X169000000Y-93000000D03*
X169000000Y-87920000D03*
X165700000Y-90460000D03*
%TD*%
D11*
%TO.C,Y1*%
X146460000Y-94000000D03*
X149000000Y-94000000D03*
%TD*%
D12*
%TO.C,U2*%
X129000000Y-96700000D03*
X129000000Y-101300000D03*
X129000000Y-99000000D03*
D13*
X135300000Y-99000000D03*
%TD*%
%TO.C,U1*%
G36*
G01*
X145475000Y-87100000D02*
X144175000Y-87100000D01*
G75*
G02*
X144025000Y-86950000I0J150000D01*
G01*
X144025000Y-86650000D01*
G75*
G02*
X144175000Y-86500000I150000J0D01*
G01*
X145475000Y-86500000D01*
G75*
G02*
X145625000Y-86650000I0J-150000D01*
G01*
X145625000Y-86950000D01*
G75*
G02*
X145475000Y-87100000I-150000J0D01*
G01*
G37*
G36*
G01*
X145475000Y-86300000D02*
X144175000Y-86300000D01*
G75*
G02*
X144025000Y-86150000I0J150000D01*
G01*
X144025000Y-85850000D01*
G75*
G02*
X144175000Y-85700000I150000J0D01*
G01*
X145475000Y-85700000D01*
G75*
G02*
X145625000Y-85850000I0J-150000D01*
G01*
X145625000Y-86150000D01*
G75*
G02*
X145475000Y-86300000I-150000J0D01*
G01*
G37*
G36*
G01*
X145475000Y-85500000D02*
X144175000Y-85500000D01*
G75*
G02*
X144025000Y-85350000I0J150000D01*
G01*
X144025000Y-85050000D01*
G75*
G02*
X144175000Y-84900000I150000J0D01*
G01*
X145475000Y-84900000D01*
G75*
G02*
X145625000Y-85050000I0J-150000D01*
G01*
X145625000Y-85350000D01*
G75*
G02*
X145475000Y-85500000I-150000J0D01*
G01*
G37*
G36*
G01*
X145475000Y-84700000D02*
X144175000Y-84700000D01*
G75*
G02*
X144025000Y-84550000I0J150000D01*
G01*
X144025000Y-84250000D01*
G75*
G02*
X144175000Y-84100000I150000J0D01*
G01*
X145475000Y-84100000D01*
G75*
G02*
X145625000Y-84250000I0J-150000D01*
G01*
X145625000Y-84550000D01*
G75*
G02*
X145475000Y-84700000I-150000J0D01*
G01*
G37*
G36*
G01*
X145475000Y-83900000D02*
X144175000Y-83900000D01*
G75*
G02*
X144025000Y-83750000I0J150000D01*
G01*
X144025000Y-83450000D01*
G75*
G02*
X144175000Y-83300000I150000J0D01*
G01*
X145475000Y-83300000D01*
G75*
G02*
X145625000Y-83450000I0J-150000D01*
G01*
X145625000Y-83750000D01*
G75*
G02*
X145475000Y-83900000I-150000J0D01*
G01*
G37*
G36*
G01*
X145475000Y-83100000D02*
X144175000Y-83100000D01*
G75*
G02*
X144025000Y-82950000I0J150000D01*
G01*
X144025000Y-82650000D01*
G75*
G02*
X144175000Y-82500000I150000J0D01*
G01*
X145475000Y-82500000D01*
G75*
G02*
X145625000Y-82650000I0J-150000D01*
G01*
X145625000Y-82950000D01*
G75*
G02*
X145475000Y-83100000I-150000J0D01*
G01*
G37*
G36*
G01*
X145475000Y-82300000D02*
X144175000Y-82300000D01*
G75*
G02*
X144025000Y-82150000I0J150000D01*
G01*
X144025000Y-81850000D01*
G75*
G02*
X144175000Y-81700000I150000J0D01*
G01*
X145475000Y-81700000D01*
G75*
G02*
X145625000Y-81850000I0J-150000D01*
G01*
X145625000Y-82150000D01*
G75*
G02*
X145475000Y-82300000I-150000J0D01*
G01*
G37*
G36*
G01*
X145475000Y-81500000D02*
X144175000Y-81500000D01*
G75*
G02*
X144025000Y-81350000I0J150000D01*
G01*
X144025000Y-81050000D01*
G75*
G02*
X144175000Y-80900000I150000J0D01*
G01*
X145475000Y-80900000D01*
G75*
G02*
X145625000Y-81050000I0J-150000D01*
G01*
X145625000Y-81350000D01*
G75*
G02*
X145475000Y-81500000I-150000J0D01*
G01*
G37*
G36*
G01*
X146350000Y-80625000D02*
X146050000Y-80625000D01*
G75*
G02*
X145900000Y-80475000I0J150000D01*
G01*
X145900000Y-79175000D01*
G75*
G02*
X146050000Y-79025000I150000J0D01*
G01*
X146350000Y-79025000D01*
G75*
G02*
X146500000Y-79175000I0J-150000D01*
G01*
X146500000Y-80475000D01*
G75*
G02*
X146350000Y-80625000I-150000J0D01*
G01*
G37*
G36*
G01*
X147150000Y-80625000D02*
X146850000Y-80625000D01*
G75*
G02*
X146700000Y-80475000I0J150000D01*
G01*
X146700000Y-79175000D01*
G75*
G02*
X146850000Y-79025000I150000J0D01*
G01*
X147150000Y-79025000D01*
G75*
G02*
X147300000Y-79175000I0J-150000D01*
G01*
X147300000Y-80475000D01*
G75*
G02*
X147150000Y-80625000I-150000J0D01*
G01*
G37*
G36*
G01*
X147950000Y-80625000D02*
X147650000Y-80625000D01*
G75*
G02*
X147500000Y-80475000I0J150000D01*
G01*
X147500000Y-79175000D01*
G75*
G02*
X147650000Y-79025000I150000J0D01*
G01*
X147950000Y-79025000D01*
G75*
G02*
X148100000Y-79175000I0J-150000D01*
G01*
X148100000Y-80475000D01*
G75*
G02*
X147950000Y-80625000I-150000J0D01*
G01*
G37*
G36*
G01*
X148750000Y-80625000D02*
X148450000Y-80625000D01*
G75*
G02*
X148300000Y-80475000I0J150000D01*
G01*
X148300000Y-79175000D01*
G75*
G02*
X148450000Y-79025000I150000J0D01*
G01*
X148750000Y-79025000D01*
G75*
G02*
X148900000Y-79175000I0J-150000D01*
G01*
X148900000Y-80475000D01*
G75*
G02*
X148750000Y-80625000I-150000J0D01*
G01*
G37*
G36*
G01*
X149550000Y-80625000D02*
X149250000Y-80625000D01*
G75*
G02*
X149100000Y-80475000I0J150000D01*
G01*
X149100000Y-79175000D01*
G75*
G02*
X149250000Y-79025000I150000J0D01*
G01*
X149550000Y-79025000D01*
G75*
G02*
X149700000Y-79175000I0J-150000D01*
G01*
X149700000Y-80475000D01*
G75*
G02*
X149550000Y-80625000I-150000J0D01*
G01*
G37*
G36*
G01*
X150350000Y-80625000D02*
X150050000Y-80625000D01*
G75*
G02*
X149900000Y-80475000I0J150000D01*
G01*
X149900000Y-79175000D01*
G75*
G02*
X150050000Y-79025000I150000J0D01*
G01*
X150350000Y-79025000D01*
G75*
G02*
X150500000Y-79175000I0J-150000D01*
G01*
X150500000Y-80475000D01*
G75*
G02*
X150350000Y-80625000I-150000J0D01*
G01*
G37*
G36*
G01*
X151150000Y-80625000D02*
X150850000Y-80625000D01*
G75*
G02*
X150700000Y-80475000I0J150000D01*
G01*
X150700000Y-79175000D01*
G75*
G02*
X150850000Y-79025000I150000J0D01*
G01*
X151150000Y-79025000D01*
G75*
G02*
X151300000Y-79175000I0J-150000D01*
G01*
X151300000Y-80475000D01*
G75*
G02*
X151150000Y-80625000I-150000J0D01*
G01*
G37*
G36*
G01*
X151950000Y-80625000D02*
X151650000Y-80625000D01*
G75*
G02*
X151500000Y-80475000I0J150000D01*
G01*
X151500000Y-79175000D01*
G75*
G02*
X151650000Y-79025000I150000J0D01*
G01*
X151950000Y-79025000D01*
G75*
G02*
X152100000Y-79175000I0J-150000D01*
G01*
X152100000Y-80475000D01*
G75*
G02*
X151950000Y-80625000I-150000J0D01*
G01*
G37*
G36*
G01*
X153825000Y-81500000D02*
X152525000Y-81500000D01*
G75*
G02*
X152375000Y-81350000I0J150000D01*
G01*
X152375000Y-81050000D01*
G75*
G02*
X152525000Y-80900000I150000J0D01*
G01*
X153825000Y-80900000D01*
G75*
G02*
X153975000Y-81050000I0J-150000D01*
G01*
X153975000Y-81350000D01*
G75*
G02*
X153825000Y-81500000I-150000J0D01*
G01*
G37*
G36*
G01*
X153825000Y-82300000D02*
X152525000Y-82300000D01*
G75*
G02*
X152375000Y-82150000I0J150000D01*
G01*
X152375000Y-81850000D01*
G75*
G02*
X152525000Y-81700000I150000J0D01*
G01*
X153825000Y-81700000D01*
G75*
G02*
X153975000Y-81850000I0J-150000D01*
G01*
X153975000Y-82150000D01*
G75*
G02*
X153825000Y-82300000I-150000J0D01*
G01*
G37*
G36*
G01*
X153825000Y-83100000D02*
X152525000Y-83100000D01*
G75*
G02*
X152375000Y-82950000I0J150000D01*
G01*
X152375000Y-82650000D01*
G75*
G02*
X152525000Y-82500000I150000J0D01*
G01*
X153825000Y-82500000D01*
G75*
G02*
X153975000Y-82650000I0J-150000D01*
G01*
X153975000Y-82950000D01*
G75*
G02*
X153825000Y-83100000I-150000J0D01*
G01*
G37*
G36*
G01*
X153825000Y-83900000D02*
X152525000Y-83900000D01*
G75*
G02*
X152375000Y-83750000I0J150000D01*
G01*
X152375000Y-83450000D01*
G75*
G02*
X152525000Y-83300000I150000J0D01*
G01*
X153825000Y-83300000D01*
G75*
G02*
X153975000Y-83450000I0J-150000D01*
G01*
X153975000Y-83750000D01*
G75*
G02*
X153825000Y-83900000I-150000J0D01*
G01*
G37*
G36*
G01*
X153825000Y-84700000D02*
X152525000Y-84700000D01*
G75*
G02*
X152375000Y-84550000I0J150000D01*
G01*
X152375000Y-84250000D01*
G75*
G02*
X152525000Y-84100000I150000J0D01*
G01*
X153825000Y-84100000D01*
G75*
G02*
X153975000Y-84250000I0J-150000D01*
G01*
X153975000Y-84550000D01*
G75*
G02*
X153825000Y-84700000I-150000J0D01*
G01*
G37*
G36*
G01*
X153825000Y-85500000D02*
X152525000Y-85500000D01*
G75*
G02*
X152375000Y-85350000I0J150000D01*
G01*
X152375000Y-85050000D01*
G75*
G02*
X152525000Y-84900000I150000J0D01*
G01*
X153825000Y-84900000D01*
G75*
G02*
X153975000Y-85050000I0J-150000D01*
G01*
X153975000Y-85350000D01*
G75*
G02*
X153825000Y-85500000I-150000J0D01*
G01*
G37*
G36*
G01*
X153825000Y-86300000D02*
X152525000Y-86300000D01*
G75*
G02*
X152375000Y-86150000I0J150000D01*
G01*
X152375000Y-85850000D01*
G75*
G02*
X152525000Y-85700000I150000J0D01*
G01*
X153825000Y-85700000D01*
G75*
G02*
X153975000Y-85850000I0J-150000D01*
G01*
X153975000Y-86150000D01*
G75*
G02*
X153825000Y-86300000I-150000J0D01*
G01*
G37*
G36*
G01*
X153825000Y-87100000D02*
X152525000Y-87100000D01*
G75*
G02*
X152375000Y-86950000I0J150000D01*
G01*
X152375000Y-86650000D01*
G75*
G02*
X152525000Y-86500000I150000J0D01*
G01*
X153825000Y-86500000D01*
G75*
G02*
X153975000Y-86650000I0J-150000D01*
G01*
X153975000Y-86950000D01*
G75*
G02*
X153825000Y-87100000I-150000J0D01*
G01*
G37*
G36*
G01*
X151950000Y-88975000D02*
X151650000Y-88975000D01*
G75*
G02*
X151500000Y-88825000I0J150000D01*
G01*
X151500000Y-87525000D01*
G75*
G02*
X151650000Y-87375000I150000J0D01*
G01*
X151950000Y-87375000D01*
G75*
G02*
X152100000Y-87525000I0J-150000D01*
G01*
X152100000Y-88825000D01*
G75*
G02*
X151950000Y-88975000I-150000J0D01*
G01*
G37*
G36*
G01*
X151150000Y-88975000D02*
X150850000Y-88975000D01*
G75*
G02*
X150700000Y-88825000I0J150000D01*
G01*
X150700000Y-87525000D01*
G75*
G02*
X150850000Y-87375000I150000J0D01*
G01*
X151150000Y-87375000D01*
G75*
G02*
X151300000Y-87525000I0J-150000D01*
G01*
X151300000Y-88825000D01*
G75*
G02*
X151150000Y-88975000I-150000J0D01*
G01*
G37*
G36*
G01*
X150350000Y-88975000D02*
X150050000Y-88975000D01*
G75*
G02*
X149900000Y-88825000I0J150000D01*
G01*
X149900000Y-87525000D01*
G75*
G02*
X150050000Y-87375000I150000J0D01*
G01*
X150350000Y-87375000D01*
G75*
G02*
X150500000Y-87525000I0J-150000D01*
G01*
X150500000Y-88825000D01*
G75*
G02*
X150350000Y-88975000I-150000J0D01*
G01*
G37*
G36*
G01*
X149550000Y-88975000D02*
X149250000Y-88975000D01*
G75*
G02*
X149100000Y-88825000I0J150000D01*
G01*
X149100000Y-87525000D01*
G75*
G02*
X149250000Y-87375000I150000J0D01*
G01*
X149550000Y-87375000D01*
G75*
G02*
X149700000Y-87525000I0J-150000D01*
G01*
X149700000Y-88825000D01*
G75*
G02*
X149550000Y-88975000I-150000J0D01*
G01*
G37*
G36*
G01*
X148750000Y-88975000D02*
X148450000Y-88975000D01*
G75*
G02*
X148300000Y-88825000I0J150000D01*
G01*
X148300000Y-87525000D01*
G75*
G02*
X148450000Y-87375000I150000J0D01*
G01*
X148750000Y-87375000D01*
G75*
G02*
X148900000Y-87525000I0J-150000D01*
G01*
X148900000Y-88825000D01*
G75*
G02*
X148750000Y-88975000I-150000J0D01*
G01*
G37*
G36*
G01*
X147950000Y-88975000D02*
X147650000Y-88975000D01*
G75*
G02*
X147500000Y-88825000I0J150000D01*
G01*
X147500000Y-87525000D01*
G75*
G02*
X147650000Y-87375000I150000J0D01*
G01*
X147950000Y-87375000D01*
G75*
G02*
X148100000Y-87525000I0J-150000D01*
G01*
X148100000Y-88825000D01*
G75*
G02*
X147950000Y-88975000I-150000J0D01*
G01*
G37*
G36*
G01*
X147150000Y-88975000D02*
X146850000Y-88975000D01*
G75*
G02*
X146700000Y-88825000I0J150000D01*
G01*
X146700000Y-87525000D01*
G75*
G02*
X146850000Y-87375000I150000J0D01*
G01*
X147150000Y-87375000D01*
G75*
G02*
X147300000Y-87525000I0J-150000D01*
G01*
X147300000Y-88825000D01*
G75*
G02*
X147150000Y-88975000I-150000J0D01*
G01*
G37*
G36*
G01*
X146350000Y-88975000D02*
X146050000Y-88975000D01*
G75*
G02*
X145900000Y-88825000I0J150000D01*
G01*
X145900000Y-87525000D01*
G75*
G02*
X146050000Y-87375000I150000J0D01*
G01*
X146350000Y-87375000D01*
G75*
G02*
X146500000Y-87525000I0J-150000D01*
G01*
X146500000Y-88825000D01*
G75*
G02*
X146350000Y-88975000I-150000J0D01*
G01*
G37*
%TD*%
D14*
%TO.C,SW1*%
X164150000Y-60750000D03*
X164150000Y-66000000D03*
X165850000Y-66000000D03*
X165850000Y-60750000D03*
%TD*%
%TO.C,R7*%
G36*
G01*
X160481250Y-65100000D02*
X159518750Y-65100000D01*
G75*
G02*
X159250000Y-64831250I0J268750D01*
G01*
X159250000Y-64293750D01*
G75*
G02*
X159518750Y-64025000I268750J0D01*
G01*
X160481250Y-64025000D01*
G75*
G02*
X160750000Y-64293750I0J-268750D01*
G01*
X160750000Y-64831250D01*
G75*
G02*
X160481250Y-65100000I-268750J0D01*
G01*
G37*
G36*
G01*
X160481250Y-66975000D02*
X159518750Y-66975000D01*
G75*
G02*
X159250000Y-66706250I0J268750D01*
G01*
X159250000Y-66168750D01*
G75*
G02*
X159518750Y-65900000I268750J0D01*
G01*
X160481250Y-65900000D01*
G75*
G02*
X160750000Y-66168750I0J-268750D01*
G01*
X160750000Y-66706250D01*
G75*
G02*
X160481250Y-66975000I-268750J0D01*
G01*
G37*
%TD*%
%TO.C,R6*%
G36*
G01*
X131518750Y-81462500D02*
X132481250Y-81462500D01*
G75*
G02*
X132750000Y-81731250I0J-268750D01*
G01*
X132750000Y-82268750D01*
G75*
G02*
X132481250Y-82537500I-268750J0D01*
G01*
X131518750Y-82537500D01*
G75*
G02*
X131250000Y-82268750I0J268750D01*
G01*
X131250000Y-81731250D01*
G75*
G02*
X131518750Y-81462500I268750J0D01*
G01*
G37*
G36*
G01*
X131518750Y-79587500D02*
X132481250Y-79587500D01*
G75*
G02*
X132750000Y-79856250I0J-268750D01*
G01*
X132750000Y-80393750D01*
G75*
G02*
X132481250Y-80662500I-268750J0D01*
G01*
X131518750Y-80662500D01*
G75*
G02*
X131250000Y-80393750I0J268750D01*
G01*
X131250000Y-79856250D01*
G75*
G02*
X131518750Y-79587500I268750J0D01*
G01*
G37*
%TD*%
%TO.C,R5*%
G36*
G01*
X139518750Y-100900000D02*
X140481250Y-100900000D01*
G75*
G02*
X140750000Y-101168750I0J-268750D01*
G01*
X140750000Y-101706250D01*
G75*
G02*
X140481250Y-101975000I-268750J0D01*
G01*
X139518750Y-101975000D01*
G75*
G02*
X139250000Y-101706250I0J268750D01*
G01*
X139250000Y-101168750D01*
G75*
G02*
X139518750Y-100900000I268750J0D01*
G01*
G37*
G36*
G01*
X139518750Y-99025000D02*
X140481250Y-99025000D01*
G75*
G02*
X140750000Y-99293750I0J-268750D01*
G01*
X140750000Y-99831250D01*
G75*
G02*
X140481250Y-100100000I-268750J0D01*
G01*
X139518750Y-100100000D01*
G75*
G02*
X139250000Y-99831250I0J268750D01*
G01*
X139250000Y-99293750D01*
G75*
G02*
X139518750Y-99025000I268750J0D01*
G01*
G37*
%TD*%
%TO.C,R4*%
G36*
G01*
X127981250Y-89037500D02*
X127018750Y-89037500D01*
G75*
G02*
X126750000Y-88768750I0J268750D01*
G01*
X126750000Y-88231250D01*
G75*
G02*
X127018750Y-87962500I268750J0D01*
G01*
X127981250Y-87962500D01*
G75*
G02*
X128250000Y-88231250I0J-268750D01*
G01*
X128250000Y-88768750D01*
G75*
G02*
X127981250Y-89037500I-268750J0D01*
G01*
G37*
G36*
G01*
X127981250Y-90912500D02*
X127018750Y-90912500D01*
G75*
G02*
X126750000Y-90643750I0J268750D01*
G01*
X126750000Y-90106250D01*
G75*
G02*
X127018750Y-89837500I268750J0D01*
G01*
X127981250Y-89837500D01*
G75*
G02*
X128250000Y-90106250I0J-268750D01*
G01*
X128250000Y-90643750D01*
G75*
G02*
X127981250Y-90912500I-268750J0D01*
G01*
G37*
%TD*%
%TO.C,R3*%
G36*
G01*
X131481250Y-89100000D02*
X130518750Y-89100000D01*
G75*
G02*
X130250000Y-88831250I0J268750D01*
G01*
X130250000Y-88293750D01*
G75*
G02*
X130518750Y-88025000I268750J0D01*
G01*
X131481250Y-88025000D01*
G75*
G02*
X131750000Y-88293750I0J-268750D01*
G01*
X131750000Y-88831250D01*
G75*
G02*
X131481250Y-89100000I-268750J0D01*
G01*
G37*
G36*
G01*
X131481250Y-90975000D02*
X130518750Y-90975000D01*
G75*
G02*
X130250000Y-90706250I0J268750D01*
G01*
X130250000Y-90168750D01*
G75*
G02*
X130518750Y-89900000I268750J0D01*
G01*
X131481250Y-89900000D01*
G75*
G02*
X131750000Y-90168750I0J-268750D01*
G01*
X131750000Y-90706250D01*
G75*
G02*
X131481250Y-90975000I-268750J0D01*
G01*
G37*
%TD*%
D15*
%TO.C,JP1*%
X140000000Y-96500000D03*
X140000000Y-97800000D03*
%TD*%
D16*
%TO.C,J6*%
X165040000Y-100200000D03*
X159960000Y-100200000D03*
X162500000Y-103500000D03*
%TD*%
%TO.C,J5*%
X137000000Y-60000000D03*
X131920000Y-60000000D03*
X134460000Y-63300000D03*
%TD*%
%TO.C,J4*%
X165040000Y-107200000D03*
X159960000Y-107200000D03*
X162500000Y-110500000D03*
%TD*%
%TO.C,J2*%
X126540000Y-60000000D03*
X121460000Y-60000000D03*
X124000000Y-63300000D03*
%TD*%
%TO.C,J1*%
X119730000Y-98000000D03*
X122270000Y-101300000D03*
%TD*%
%TO.C,D2*%
G36*
G01*
X159518750Y-62400000D02*
X160481250Y-62400000D01*
G75*
G02*
X160750000Y-62668750I0J-268750D01*
G01*
X160750000Y-63206250D01*
G75*
G02*
X160481250Y-63475000I-268750J0D01*
G01*
X159518750Y-63475000D01*
G75*
G02*
X159250000Y-63206250I0J268750D01*
G01*
X159250000Y-62668750D01*
G75*
G02*
X159518750Y-62400000I268750J0D01*
G01*
G37*
G36*
G01*
X159518750Y-60525000D02*
X160481250Y-60525000D01*
G75*
G02*
X160750000Y-60793750I0J-268750D01*
G01*
X160750000Y-61331250D01*
G75*
G02*
X160481250Y-61600000I-268750J0D01*
G01*
X159518750Y-61600000D01*
G75*
G02*
X159250000Y-61331250I0J268750D01*
G01*
X159250000Y-60793750D01*
G75*
G02*
X159518750Y-60525000I268750J0D01*
G01*
G37*
%TD*%
%TO.C,C7*%
G36*
G01*
X134900000Y-93981250D02*
X134900000Y-93018750D01*
G75*
G02*
X135168750Y-92750000I268750J0D01*
G01*
X135706250Y-92750000D01*
G75*
G02*
X135975000Y-93018750I0J-268750D01*
G01*
X135975000Y-93981250D01*
G75*
G02*
X135706250Y-94250000I-268750J0D01*
G01*
X135168750Y-94250000D01*
G75*
G02*
X134900000Y-93981250I0J268750D01*
G01*
G37*
G36*
G01*
X133025000Y-93981250D02*
X133025000Y-93018750D01*
G75*
G02*
X133293750Y-92750000I268750J0D01*
G01*
X133831250Y-92750000D01*
G75*
G02*
X134100000Y-93018750I0J-268750D01*
G01*
X134100000Y-93981250D01*
G75*
G02*
X133831250Y-94250000I-268750J0D01*
G01*
X133293750Y-94250000D01*
G75*
G02*
X133025000Y-93981250I0J268750D01*
G01*
G37*
%TD*%
%TO.C,C6*%
G36*
G01*
X125481250Y-95600000D02*
X124518750Y-95600000D01*
G75*
G02*
X124250000Y-95331250I0J268750D01*
G01*
X124250000Y-94793750D01*
G75*
G02*
X124518750Y-94525000I268750J0D01*
G01*
X125481250Y-94525000D01*
G75*
G02*
X125750000Y-94793750I0J-268750D01*
G01*
X125750000Y-95331250D01*
G75*
G02*
X125481250Y-95600000I-268750J0D01*
G01*
G37*
G36*
G01*
X125481250Y-97475000D02*
X124518750Y-97475000D01*
G75*
G02*
X124250000Y-97206250I0J268750D01*
G01*
X124250000Y-96668750D01*
G75*
G02*
X124518750Y-96400000I268750J0D01*
G01*
X125481250Y-96400000D01*
G75*
G02*
X125750000Y-96668750I0J-268750D01*
G01*
X125750000Y-97206250D01*
G75*
G02*
X125481250Y-97475000I-268750J0D01*
G01*
G37*
%TD*%
%TO.C,C5*%
G36*
G01*
X144481250Y-89537500D02*
X143518750Y-89537500D01*
G75*
G02*
X143250000Y-89268750I0J268750D01*
G01*
X143250000Y-88731250D01*
G75*
G02*
X143518750Y-88462500I268750J0D01*
G01*
X144481250Y-88462500D01*
G75*
G02*
X144750000Y-88731250I0J-268750D01*
G01*
X144750000Y-89268750D01*
G75*
G02*
X144481250Y-89537500I-268750J0D01*
G01*
G37*
G36*
G01*
X144481250Y-91412500D02*
X143518750Y-91412500D01*
G75*
G02*
X143250000Y-91143750I0J268750D01*
G01*
X143250000Y-90606250D01*
G75*
G02*
X143518750Y-90337500I268750J0D01*
G01*
X144481250Y-90337500D01*
G75*
G02*
X144750000Y-90606250I0J-268750D01*
G01*
X144750000Y-91143750D01*
G75*
G02*
X144481250Y-91412500I-268750J0D01*
G01*
G37*
%TD*%
%TO.C,C4*%
G36*
G01*
X144718750Y-96087500D02*
X145281250Y-96087500D01*
G75*
G02*
X145525000Y-96331250I0J-243750D01*
G01*
X145525000Y-96818750D01*
G75*
G02*
X145281250Y-97062500I-243750J0D01*
G01*
X144718750Y-97062500D01*
G75*
G02*
X144475000Y-96818750I0J243750D01*
G01*
X144475000Y-96331250D01*
G75*
G02*
X144718750Y-96087500I243750J0D01*
G01*
G37*
G36*
G01*
X144718750Y-94512500D02*
X145281250Y-94512500D01*
G75*
G02*
X145525000Y-94756250I0J-243750D01*
G01*
X145525000Y-95243750D01*
G75*
G02*
X145281250Y-95487500I-243750J0D01*
G01*
X144718750Y-95487500D01*
G75*
G02*
X144475000Y-95243750I0J243750D01*
G01*
X144475000Y-94756250D01*
G75*
G02*
X144718750Y-94512500I243750J0D01*
G01*
G37*
%TD*%
%TO.C,C3*%
G36*
G01*
X154481250Y-89537500D02*
X153518750Y-89537500D01*
G75*
G02*
X153250000Y-89268750I0J268750D01*
G01*
X153250000Y-88731250D01*
G75*
G02*
X153518750Y-88462500I268750J0D01*
G01*
X154481250Y-88462500D01*
G75*
G02*
X154750000Y-88731250I0J-268750D01*
G01*
X154750000Y-89268750D01*
G75*
G02*
X154481250Y-89537500I-268750J0D01*
G01*
G37*
G36*
G01*
X154481250Y-91412500D02*
X153518750Y-91412500D01*
G75*
G02*
X153250000Y-91143750I0J268750D01*
G01*
X153250000Y-90606250D01*
G75*
G02*
X153518750Y-90337500I268750J0D01*
G01*
X154481250Y-90337500D01*
G75*
G02*
X154750000Y-90606250I0J-268750D01*
G01*
X154750000Y-91143750D01*
G75*
G02*
X154481250Y-91412500I-268750J0D01*
G01*
G37*
%TD*%
%TO.C,C2*%
G36*
G01*
X150218750Y-96087500D02*
X150781250Y-96087500D01*
G75*
G02*
X151025000Y-96331250I0J-243750D01*
G01*
X151025000Y-96818750D01*
G75*
G02*
X150781250Y-97062500I-243750J0D01*
G01*
X150218750Y-97062500D01*
G75*
G02*
X149975000Y-96818750I0J243750D01*
G01*
X149975000Y-96331250D01*
G75*
G02*
X150218750Y-96087500I243750J0D01*
G01*
G37*
G36*
G01*
X150218750Y-94512500D02*
X150781250Y-94512500D01*
G75*
G02*
X151025000Y-94756250I0J-243750D01*
G01*
X151025000Y-95243750D01*
G75*
G02*
X150781250Y-95487500I-243750J0D01*
G01*
X150218750Y-95487500D01*
G75*
G02*
X149975000Y-95243750I0J243750D01*
G01*
X149975000Y-94756250D01*
G75*
G02*
X150218750Y-94512500I243750J0D01*
G01*
G37*
%TD*%
%TO.C,C1*%
G36*
G01*
X154481250Y-78100000D02*
X153518750Y-78100000D01*
G75*
G02*
X153250000Y-77831250I0J268750D01*
G01*
X153250000Y-77293750D01*
G75*
G02*
X153518750Y-77025000I268750J0D01*
G01*
X154481250Y-77025000D01*
G75*
G02*
X154750000Y-77293750I0J-268750D01*
G01*
X154750000Y-77831250D01*
G75*
G02*
X154481250Y-78100000I-268750J0D01*
G01*
G37*
G36*
G01*
X154481250Y-79975000D02*
X153518750Y-79975000D01*
G75*
G02*
X153250000Y-79706250I0J268750D01*
G01*
X153250000Y-79168750D01*
G75*
G02*
X153518750Y-78900000I268750J0D01*
G01*
X154481250Y-78900000D01*
G75*
G02*
X154750000Y-79168750I0J-268750D01*
G01*
X154750000Y-79706250D01*
G75*
G02*
X154481250Y-79975000I-268750J0D01*
G01*
G37*
%TD*%
D17*
%TO.C,BT1*%
X149150000Y-114500000D03*
X119850000Y-114500000D03*
%TD*%
M02*
