M48
; DRILL file {KiCad (5.1.6)-1} date 01/08/21 17:07:42
; FORMAT={-:-/ absolute / inch / decimal}
; #@! TF.CreationDate,2021-01-08T17:07:42+01:00
; #@! TF.GenerationSoftware,Kicad,Pcbnew,(5.1.6)-1
; #@! TF.FileFunction,Plated,1,2,PTH
FMAT,2
INCH
T1C0.0157
T2C0.0197
%
G90
G05
T1
X4.6358Y-2.8051
X4.6358Y-2.8937
X4.6358Y-2.9823
X4.6358Y-3.0906
X4.6358Y-3.1791
X4.6358Y-3.2677
X4.6358Y-3.3563
X4.6358Y-3.4449
X4.6358Y-3.5335
X4.6358Y-3.622
X4.6358Y-3.7106
X4.6457Y-4.1142
X4.6457Y-4.2028
X4.6457Y-4.2913
X4.7244Y-2.8051
X4.7244Y-2.8937
X4.7244Y-2.9823
X4.7244Y-3.0906
X4.7244Y-3.1791
X4.7244Y-3.2677
X4.7244Y-3.3563
X4.7244Y-3.4449
X4.7244Y-3.5335
X4.7244Y-3.622
X4.7244Y-3.7106
X4.7343Y-4.2028
X4.7343Y-4.2913
X4.813Y-2.8051
X4.813Y-2.8937
X4.813Y-2.9823
X4.813Y-3.0906
X4.813Y-3.1791
X4.813Y-3.2677
X4.813Y-3.3563
X4.813Y-3.4449
X4.813Y-3.5335
X4.813Y-3.622
X4.813Y-3.7106
X4.8228Y-4.2028
X4.8228Y-4.2913
X4.8622Y-2.4016
X4.8819Y-2.5591
X4.9016Y-2.8051
X4.9016Y-2.8937
X4.9016Y-2.9823
X4.9016Y-3.0906
X4.9016Y-3.1791
X4.9016Y-3.2677
X4.9016Y-3.3563
X4.9016Y-3.4449
X4.9016Y-3.5335
X4.9016Y-3.622
X4.9114Y-4.1142
X4.9114Y-4.2028
X4.9114Y-4.2913
X4.9902Y-2.8051
X4.9902Y-2.8937
X4.9902Y-2.9823
X5.0Y-4.1142
X5.0Y-4.2028
X5.0Y-4.2913
X5.0197Y-4.3898
X5.0197Y-4.4783
X5.0197Y-4.5669
X5.0197Y-4.6654
X5.0197Y-4.7539
X5.0197Y-4.8425
X5.0787Y-2.8051
X5.0787Y-2.8937
X5.0787Y-2.9823
X5.0787Y-3.3071
X5.0886Y-4.1142
X5.0886Y-4.2028
X5.0886Y-4.2913
X5.1083Y-4.3898
X5.1083Y-4.4783
X5.1083Y-4.5669
X5.1083Y-4.6654
X5.1083Y-4.7539
X5.1083Y-4.8425
X5.1969Y-4.1142
X5.1969Y-4.2028
X5.1969Y-4.2913
X5.1969Y-4.3898
X5.1969Y-4.4783
X5.1969Y-4.5669
X5.1969Y-4.6654
X5.1969Y-4.7539
X5.1969Y-4.8425
X5.2165Y-3.3661
X5.2854Y-4.1142
X5.2854Y-4.2028
X5.2854Y-4.2913
X5.2854Y-4.3898
X5.2854Y-4.4783
X5.2854Y-4.5669
X5.2854Y-4.6654
X5.2854Y-4.7539
X5.2854Y-4.8425
X5.2953Y-3.4252
X5.2953Y-3.5138
X5.2953Y-3.6024
X5.315Y-3.248
X5.374Y-4.1142
X5.374Y-4.2028
X5.374Y-4.2913
X5.374Y-4.3898
X5.374Y-4.4783
X5.374Y-4.5669
X5.374Y-4.6654
X5.374Y-4.7539
X5.374Y-4.8425
X5.3839Y-3.4252
X5.3839Y-3.5138
X5.3839Y-3.6024
X5.4035Y-2.8937
X5.4035Y-2.9823
X5.4035Y-3.0709
X5.4626Y-4.1142
X5.4626Y-4.2028
X5.4626Y-4.2913
X5.4626Y-4.3898
X5.4626Y-4.4783
X5.4626Y-4.5669
X5.4626Y-4.6654
X5.4626Y-4.7539
X5.4626Y-4.8425
X5.4724Y-3.4252
X5.4724Y-3.5138
X5.4724Y-3.6024
X5.4921Y-2.8937
X5.4921Y-2.9823
X5.4921Y-3.0709
X5.5512Y-3.2087
X5.5512Y-4.1142
X5.5512Y-4.2028
X5.5512Y-4.2913
X5.5807Y-2.8937
X5.5807Y-2.9823
X5.5807Y-3.0709
X5.6004Y-3.4154
X5.6004Y-3.9173
X5.6102Y-3.1496
X5.6398Y-2.3524
X5.6398Y-2.4409
X5.6398Y-2.5295
X5.6398Y-4.1142
X5.6398Y-4.2028
X5.6398Y-4.2913
X5.7087Y-3.8583
X5.7283Y-2.3524
X5.7283Y-2.4409
X5.7283Y-2.5295
X5.7283Y-3.0709
X5.748Y-3.9075
X5.7677Y-3.0315
X5.8071Y-3.248
X5.8071Y-3.3169
X5.8071Y-3.3858
X5.8169Y-2.3524
X5.8169Y-2.4409
X5.8169Y-2.5295
X5.8661Y-3.6417
X5.876Y-3.248
X5.8858Y-2.8543
X5.9055Y-2.3524
X5.9055Y-2.4409
X5.9055Y-2.5295
X5.9449Y-2.815
X5.9449Y-3.3169
X5.9449Y-3.3858
X5.9843Y-3.0315
X5.9941Y-2.3524
X5.9941Y-2.4409
X5.9941Y-2.5295
X6.0039Y-2.815
X6.0039Y-3.7795
X6.0236Y-4.439
X6.0236Y-4.5276
X6.0236Y-4.6161
X6.063Y-2.8051
X6.063Y-2.8937
X6.063Y-2.9823
X6.0827Y-2.3524
X6.0827Y-2.4409
X6.0827Y-2.5295
X6.1122Y-4.439
X6.1122Y-4.5276
X6.1122Y-4.6161
X6.122Y-3.2677
X6.1516Y-2.8051
X6.1516Y-2.8937
X6.1516Y-2.9823
X6.1516Y-3.1594
X6.1909Y-3.5039
X6.1909Y-3.5925
X6.1909Y-3.6811
X6.2008Y-4.439
X6.2008Y-4.5276
X6.2008Y-4.6161
X6.2205Y-3.937
X6.2402Y-2.8051
X6.2402Y-2.8937
X6.2402Y-2.9823
X6.2795Y-3.5039
X6.2795Y-3.5925
X6.2795Y-3.6811
X6.2894Y-4.439
X6.2894Y-4.5276
X6.2894Y-4.6161
X6.3583Y-3.8583
X6.3681Y-3.5039
X6.3681Y-3.5925
X6.3681Y-3.6811
X6.378Y-4.439
X6.378Y-4.5276
X6.378Y-4.6161
X6.4567Y-3.9173
X6.4665Y-4.439
X6.4665Y-4.5276
X6.4665Y-4.6161
X6.4764Y-4.3504
X6.6929Y-3.2283
T2
X5.7661Y-3.7008
X5.8661Y-3.7008
T0
M30
