%TF.GenerationSoftware,KiCad,Pcbnew,(5.1.6)-1*%
%TF.CreationDate,2021-01-08T17:07:44+01:00*%
%TF.ProjectId,stm32L412K8T6,73746d33-324c-4343-9132-4b3854362e6b,rev?*%
%TF.SameCoordinates,Original*%
%TF.FileFunction,Legend,Bot*%
%TF.FilePolarity,Positive*%
%FSLAX46Y46*%
G04 Gerber Fmt 4.6, Leading zero omitted, Abs format (unit mm)*
G04 Created by KiCad (PCBNEW (5.1.6)-1) date 2021-01-08 17:07:44*
%MOMM*%
%LPD*%
G01*
G04 APERTURE LIST*
%ADD10C,0.300000*%
%ADD11C,0.120000*%
%ADD12C,0.010000*%
G04 APERTURE END LIST*
D10*
X120392857Y-123392857D02*
X120178571Y-123464285D01*
X120107142Y-123535714D01*
X120035714Y-123678571D01*
X120035714Y-123892857D01*
X120107142Y-124035714D01*
X120178571Y-124107142D01*
X120321428Y-124178571D01*
X120892857Y-124178571D01*
X120892857Y-122678571D01*
X120392857Y-122678571D01*
X120250000Y-122750000D01*
X120178571Y-122821428D01*
X120107142Y-122964285D01*
X120107142Y-123107142D01*
X120178571Y-123250000D01*
X120250000Y-123321428D01*
X120392857Y-123392857D01*
X120892857Y-123392857D01*
D11*
%TO.C,D1*%
X139960000Y-83062500D02*
X139960000Y-85747500D01*
X139960000Y-85747500D02*
X138040000Y-85747500D01*
X138040000Y-85747500D02*
X138040000Y-83062500D01*
D12*
%TO.C,G\u002A\u002A\u002A*%
G36*
X122711562Y-57699355D02*
G01*
X121402575Y-58025435D01*
X120195275Y-58550274D01*
X119118899Y-59259193D01*
X118202681Y-60137511D01*
X117706117Y-60793454D01*
X117132872Y-61879351D01*
X116734909Y-63114763D01*
X116519818Y-64458429D01*
X116495189Y-65869091D01*
X116591885Y-66850897D01*
X117057599Y-69203740D01*
X117750092Y-71442667D01*
X118669500Y-73567884D01*
X119815961Y-75579597D01*
X121189610Y-77478013D01*
X122790583Y-79263338D01*
X124619018Y-80935778D01*
X126675050Y-82495540D01*
X127141000Y-82812299D01*
X128143227Y-83447891D01*
X129208649Y-84066253D01*
X130249405Y-84618444D01*
X131134944Y-85037024D01*
X131563702Y-85225302D01*
X131889466Y-85371214D01*
X132053297Y-85448287D01*
X132061581Y-85453223D01*
X132057619Y-85581429D01*
X132023242Y-85909481D01*
X131964367Y-86385838D01*
X131897000Y-86886719D01*
X131796930Y-87547066D01*
X131693523Y-88039011D01*
X131559707Y-88447040D01*
X131368408Y-88855641D01*
X131126964Y-89289805D01*
X130284406Y-90838898D01*
X129492351Y-92466864D01*
X128773512Y-94118475D01*
X128150600Y-95738506D01*
X127646328Y-97271731D01*
X127296416Y-98604000D01*
X127007538Y-100444136D01*
X126961998Y-102264606D01*
X127159568Y-104043661D01*
X127363438Y-104964882D01*
X127765168Y-106259930D01*
X128275286Y-107524676D01*
X128852565Y-108659829D01*
X129001370Y-108909822D01*
X129122629Y-109143082D01*
X129215368Y-109426026D01*
X129288766Y-109808083D01*
X129352002Y-110338680D01*
X129414253Y-111067245D01*
X129422759Y-111179169D01*
X129587039Y-112998352D01*
X129794404Y-114605430D01*
X130054216Y-116040050D01*
X130375835Y-117341856D01*
X130768623Y-118550495D01*
X131241941Y-119705614D01*
X131622915Y-120497151D01*
X132499620Y-121978474D01*
X133512861Y-123249482D01*
X134659871Y-124307251D01*
X135937886Y-125148857D01*
X136104344Y-125237483D01*
X137091465Y-125695092D01*
X137998421Y-125983883D01*
X138914170Y-126124546D01*
X139927671Y-126137770D01*
X139968000Y-126136093D01*
X140928819Y-126037453D01*
X141711268Y-125813335D01*
X142366316Y-125433042D01*
X142944932Y-124865877D01*
X143498084Y-124081144D01*
X143566324Y-123968979D01*
X143819510Y-123482691D01*
X144110697Y-122820929D01*
X144413053Y-122053806D01*
X144699748Y-121251435D01*
X144943952Y-120483928D01*
X145059516Y-120067000D01*
X145206471Y-119495500D01*
X145623196Y-120938967D01*
X146109542Y-122388362D01*
X146663118Y-123602575D01*
X147282090Y-124578865D01*
X147964627Y-125314487D01*
X148708896Y-125806698D01*
X148941420Y-125905545D01*
X149581753Y-126066187D01*
X150372830Y-126147065D01*
X151223774Y-126146746D01*
X152043707Y-126063793D01*
X152527166Y-125962159D01*
X153898242Y-125462896D01*
X155180418Y-124729422D01*
X156364923Y-123768555D01*
X157442989Y-122587114D01*
X158164008Y-121579595D01*
X158688405Y-120673193D01*
X159200162Y-119617474D01*
X159538765Y-118796174D01*
X158544824Y-118796174D01*
X158335842Y-119343385D01*
X158002247Y-120055945D01*
X157526197Y-120858615D01*
X156958538Y-121676732D01*
X156350118Y-122435634D01*
X155902925Y-122915810D01*
X154856881Y-123806323D01*
X153728829Y-124499186D01*
X152552347Y-124979049D01*
X151361010Y-125230557D01*
X150763000Y-125265929D01*
X150147940Y-125245378D01*
X149671787Y-125161462D01*
X149223061Y-124993493D01*
X149175500Y-124971322D01*
X148702272Y-124711532D01*
X148315336Y-124400889D01*
X147973931Y-123990865D01*
X147637296Y-123432932D01*
X147283330Y-122718580D01*
X146971432Y-121968036D01*
X146666236Y-121084562D01*
X146384078Y-120131509D01*
X146141295Y-119172232D01*
X145954222Y-118270081D01*
X145839197Y-117488410D01*
X145810000Y-117004970D01*
X145810000Y-116638000D01*
X144685277Y-116638000D01*
X144599855Y-117368250D01*
X144432153Y-118434328D01*
X144177041Y-119587448D01*
X143856784Y-120749637D01*
X143493649Y-121842927D01*
X143109899Y-122789345D01*
X142966574Y-123087809D01*
X142461723Y-123898911D01*
X141862589Y-124553382D01*
X141213470Y-125003008D01*
X141201210Y-125009122D01*
X140648406Y-125185464D01*
X139944159Y-125269195D01*
X139174305Y-125258340D01*
X138424678Y-125150925D01*
X138146047Y-125079391D01*
X136875448Y-124578322D01*
X135659479Y-123861280D01*
X134553503Y-122966291D01*
X133670270Y-122005154D01*
X133370047Y-121585084D01*
X133032270Y-121050779D01*
X132684126Y-120453107D01*
X132352804Y-119842937D01*
X132065492Y-119271138D01*
X131849377Y-118788578D01*
X131731648Y-118446126D01*
X131718018Y-118352500D01*
X131824562Y-118106136D01*
X132105557Y-117847111D01*
X132141770Y-117822924D01*
X132544534Y-117466297D01*
X132967122Y-116931690D01*
X133366044Y-116287107D01*
X133697811Y-115600549D01*
X133870073Y-115120472D01*
X133997758Y-114671863D01*
X134089477Y-114311719D01*
X134125961Y-114115886D01*
X134126000Y-114113130D01*
X134201766Y-114047743D01*
X134411750Y-114152038D01*
X134869362Y-114407464D01*
X135509784Y-114705557D01*
X136270842Y-115021917D01*
X137090360Y-115332147D01*
X137906164Y-115611848D01*
X138656076Y-115836622D01*
X138805089Y-115876034D01*
X139901418Y-116129036D01*
X141046135Y-116342692D01*
X142163715Y-116505706D01*
X143178634Y-116606780D01*
X143882389Y-116635520D01*
X144685277Y-116638000D01*
X145810000Y-116638000D01*
X146735577Y-116638000D01*
X147926930Y-116584746D01*
X149244095Y-116434669D01*
X150615624Y-116202297D01*
X151970067Y-115902157D01*
X153235975Y-115548775D01*
X154341898Y-115156678D01*
X154636500Y-115031579D01*
X155236257Y-114768581D01*
X155649552Y-114618763D01*
X155923015Y-114594381D01*
X156103275Y-114707691D01*
X156236961Y-114970951D01*
X156370700Y-115396418D01*
X156399495Y-115495000D01*
X156829365Y-116666488D01*
X157367541Y-117611410D01*
X157983382Y-118301974D01*
X158544824Y-118796174D01*
X159538765Y-118796174D01*
X159654693Y-118514986D01*
X160007411Y-117468277D01*
X160100901Y-117124781D01*
X160312563Y-116282147D01*
X160903532Y-116549966D01*
X161469835Y-116721184D01*
X162187075Y-116816424D01*
X162967387Y-116835564D01*
X163722908Y-116778485D01*
X164365774Y-116645066D01*
X164606000Y-116555041D01*
X165459655Y-116066892D01*
X166307390Y-115411448D01*
X167060478Y-114661536D01*
X167356001Y-114297822D01*
X168059051Y-113189864D01*
X168675166Y-111877227D01*
X169196651Y-110396554D01*
X169615811Y-108784490D01*
X169924949Y-107077678D01*
X170116370Y-105312763D01*
X170180339Y-103581619D01*
X169252075Y-103581619D01*
X169188850Y-105166254D01*
X169011953Y-106791896D01*
X168731397Y-108399624D01*
X168357199Y-109930516D01*
X167899372Y-111325653D01*
X167444483Y-112375803D01*
X166798524Y-113454355D01*
X166016756Y-114390928D01*
X165133172Y-115153453D01*
X164181762Y-115709863D01*
X163717000Y-115892322D01*
X163262483Y-115964009D01*
X162667685Y-115953063D01*
X162028577Y-115870133D01*
X161441129Y-115725866D01*
X161135987Y-115605967D01*
X160800412Y-115419187D01*
X160586086Y-115254230D01*
X160544218Y-115183943D01*
X160564704Y-115005232D01*
X160617548Y-114641568D01*
X160693041Y-114158491D01*
X160729129Y-113935975D01*
X160821923Y-113281664D01*
X160910037Y-112509131D01*
X160978540Y-111753948D01*
X160994856Y-111522975D01*
X161005553Y-111372242D01*
X160065680Y-111372242D01*
X159977034Y-112322371D01*
X159885322Y-113137690D01*
X159761158Y-113999295D01*
X159612655Y-114870949D01*
X159447924Y-115716419D01*
X159275079Y-116499471D01*
X159102232Y-117183869D01*
X158937494Y-117733379D01*
X158788977Y-118111766D01*
X158664795Y-118282797D01*
X158641219Y-118289000D01*
X158479567Y-118213841D01*
X158220735Y-118027858D01*
X158156310Y-117974991D01*
X157824528Y-117601425D01*
X157475073Y-117051809D01*
X157144445Y-116398246D01*
X156869142Y-115712841D01*
X156686350Y-115070989D01*
X156603729Y-114674654D01*
X156575075Y-114398902D01*
X156631023Y-114191143D01*
X156802213Y-113998790D01*
X157119282Y-113769251D01*
X157612867Y-113449940D01*
X157641519Y-113431456D01*
X158082288Y-113117498D01*
X158604429Y-112702421D01*
X159109920Y-112264919D01*
X159213108Y-112169781D01*
X160065680Y-111372242D01*
X161005553Y-111372242D01*
X161036994Y-110929222D01*
X161089567Y-110508342D01*
X161177468Y-110179620D01*
X161325587Y-109862341D01*
X161558814Y-109475789D01*
X161689013Y-109272000D01*
X162612650Y-107604648D01*
X163295977Y-105863242D01*
X163737271Y-104060859D01*
X163934810Y-102210580D01*
X163919154Y-101594904D01*
X163009105Y-101594904D01*
X162990256Y-102585615D01*
X162923543Y-103498780D01*
X162808938Y-104256186D01*
X162780607Y-104380708D01*
X162219569Y-106150628D01*
X161425532Y-107849518D01*
X160417049Y-109441543D01*
X159675450Y-110378747D01*
X158439613Y-111622459D01*
X157013428Y-112710844D01*
X155410798Y-113639563D01*
X153645626Y-114404277D01*
X151731815Y-115000646D01*
X149683269Y-115424332D01*
X147513890Y-115670995D01*
X145237582Y-115736296D01*
X142889000Y-115617737D01*
X140636930Y-115317583D01*
X138547821Y-114830500D01*
X136624688Y-114158057D01*
X136002464Y-113854335D01*
X133855240Y-113854335D01*
X133663092Y-114515917D01*
X133261134Y-115630337D01*
X132754215Y-116545118D01*
X132276004Y-117141944D01*
X131965074Y-117461379D01*
X131718879Y-117690518D01*
X131589540Y-117780935D01*
X131588197Y-117781000D01*
X131512749Y-117668258D01*
X131395189Y-117370031D01*
X131258631Y-116946316D01*
X131233500Y-116860250D01*
X130888840Y-115506260D01*
X130639420Y-114145096D01*
X130464502Y-112661470D01*
X130451052Y-112510500D01*
X130399611Y-111912863D01*
X130357265Y-111410124D01*
X130328377Y-111054868D01*
X130317315Y-110899683D01*
X130317311Y-110899427D01*
X130400079Y-110945996D01*
X130624988Y-111139834D01*
X130955227Y-111447955D01*
X131260056Y-111744235D01*
X131770054Y-112223656D01*
X132329285Y-112711537D01*
X132845381Y-113128487D01*
X133029676Y-113265225D01*
X133855240Y-113854335D01*
X136002464Y-113854335D01*
X134870546Y-113301820D01*
X133288412Y-112263358D01*
X131881301Y-111044236D01*
X130652228Y-109646022D01*
X130202486Y-109024305D01*
X129434753Y-107750136D01*
X128788941Y-106377043D01*
X128312565Y-105007871D01*
X128263316Y-104827000D01*
X128061944Y-103780719D01*
X127951947Y-102580852D01*
X127933000Y-101310681D01*
X128004776Y-100053490D01*
X128166952Y-98892560D01*
X128288645Y-98347850D01*
X128377343Y-98099318D01*
X128528372Y-97913782D01*
X128800718Y-97741205D01*
X129248294Y-97533756D01*
X130708548Y-96761961D01*
X132028988Y-95788934D01*
X133192534Y-94635820D01*
X134182106Y-93323767D01*
X134980623Y-91873921D01*
X135571007Y-90307429D01*
X135795763Y-89427449D01*
X135925047Y-88825000D01*
X135534510Y-88825000D01*
X135447989Y-89301250D01*
X135313768Y-89842361D01*
X135092503Y-90524037D01*
X134815021Y-91261852D01*
X134512150Y-91971375D01*
X134346654Y-92317500D01*
X133734730Y-93334619D01*
X132933901Y-94355959D01*
X131999862Y-95317273D01*
X131078000Y-96088039D01*
X130817345Y-96259830D01*
X130433874Y-96485363D01*
X129982213Y-96735852D01*
X129516991Y-96982512D01*
X129092835Y-97196557D01*
X128764374Y-97349200D01*
X128586235Y-97411657D01*
X128570839Y-97409171D01*
X128598198Y-97284293D01*
X128697075Y-96969216D01*
X128851637Y-96512253D01*
X129035903Y-95989960D01*
X129359549Y-95133109D01*
X129735805Y-94208176D01*
X130129863Y-93296161D01*
X130506918Y-92478063D01*
X130777743Y-91936500D01*
X130953781Y-91598972D01*
X131179160Y-91161924D01*
X131302741Y-90920500D01*
X131553053Y-90449678D01*
X131856297Y-89906319D01*
X132060056Y-89555250D01*
X132493391Y-88825000D01*
X135534510Y-88825000D01*
X135925047Y-88825000D01*
X135925391Y-88823398D01*
X145454141Y-88855949D01*
X154982890Y-88888500D01*
X155216345Y-89807816D01*
X155760594Y-91466634D01*
X156510698Y-92981819D01*
X157458687Y-94343686D01*
X158596591Y-95542548D01*
X159916440Y-96568721D01*
X161410263Y-97412519D01*
X161514561Y-97461457D01*
X162550621Y-97941787D01*
X162778736Y-98939643D01*
X162903318Y-99693704D01*
X162980117Y-100604862D01*
X163009105Y-101594904D01*
X163919154Y-101594904D01*
X163886871Y-100325483D01*
X163591730Y-98418647D01*
X163299438Y-97294323D01*
X162320000Y-97294323D01*
X162229261Y-97336676D01*
X161950645Y-97250293D01*
X161474559Y-97031569D01*
X161069393Y-96824452D01*
X159684677Y-95958056D01*
X158464627Y-94899982D01*
X157417868Y-93658965D01*
X156558302Y-92254000D01*
X156067214Y-91214303D01*
X155732752Y-90291664D01*
X155532356Y-89423116D01*
X155523080Y-89364750D01*
X155439674Y-88825000D01*
X156943087Y-88825414D01*
X158446500Y-88825829D01*
X159038879Y-89873164D01*
X159790314Y-91263922D01*
X160504188Y-92704163D01*
X161148237Y-94124057D01*
X161690200Y-95453775D01*
X161954251Y-96183073D01*
X162116563Y-96662760D01*
X162241906Y-97041089D01*
X162311683Y-97261549D01*
X162320000Y-97294323D01*
X163299438Y-97294323D01*
X163277815Y-97211150D01*
X162812489Y-95815810D01*
X162227908Y-94301054D01*
X161559554Y-92746944D01*
X160842907Y-91233541D01*
X160113451Y-89840906D01*
X159673792Y-89079000D01*
X159387347Y-88561244D01*
X159217454Y-88112622D01*
X159199291Y-88016135D01*
X158256000Y-88016135D01*
X158256000Y-88444000D01*
X156866496Y-88444000D01*
X156297348Y-88433695D01*
X155826740Y-88405782D01*
X155509767Y-88364761D01*
X155403110Y-88324459D01*
X155370835Y-88159921D01*
X155333477Y-87791391D01*
X155295083Y-87268712D01*
X155259701Y-86641727D01*
X155250439Y-86444327D01*
X155234632Y-85138542D01*
X155305011Y-83947140D01*
X155456570Y-82898723D01*
X155684299Y-82021896D01*
X155983192Y-81345261D01*
X156195499Y-81046250D01*
X156386266Y-80871604D01*
X156488559Y-80824000D01*
X156602858Y-80942752D01*
X156753546Y-81274244D01*
X156931495Y-81781327D01*
X157127574Y-82426852D01*
X157332656Y-83173670D01*
X157537610Y-83984632D01*
X157733308Y-84822591D01*
X157910620Y-85650397D01*
X158060418Y-86430902D01*
X158173572Y-87126956D01*
X158240953Y-87701412D01*
X158256000Y-88016135D01*
X159199291Y-88016135D01*
X159121733Y-87604133D01*
X159089698Y-87301000D01*
X158941315Y-86141630D01*
X158700246Y-84838966D01*
X158384033Y-83478550D01*
X158079743Y-82375792D01*
X157653505Y-80943085D01*
X157986503Y-81157519D01*
X158498138Y-81528325D01*
X159130825Y-82050339D01*
X159840970Y-82681357D01*
X160584978Y-83379179D01*
X161319254Y-84101602D01*
X162000204Y-84806423D01*
X162584233Y-85451440D01*
X163027746Y-85994451D01*
X163132338Y-86139005D01*
X163332013Y-86444490D01*
X163399283Y-86656496D01*
X163347942Y-86889250D01*
X163250921Y-87120867D01*
X163095025Y-87700607D01*
X163032154Y-88506739D01*
X163030870Y-88634500D01*
X163141614Y-89813335D01*
X163462904Y-91037480D01*
X163968009Y-92261603D01*
X164630199Y-93440373D01*
X165422742Y-94528460D01*
X166318908Y-95480533D01*
X167291966Y-96251262D01*
X167654000Y-96474494D01*
X168031864Y-96700965D01*
X168316305Y-96891871D01*
X168433921Y-96993232D01*
X168492631Y-97178875D01*
X168573853Y-97572028D01*
X168670934Y-98127878D01*
X168777221Y-98801615D01*
X168886061Y-99548427D01*
X168990803Y-100323504D01*
X169084793Y-101082034D01*
X169161378Y-101779206D01*
X169191611Y-102096910D01*
X169252075Y-103581619D01*
X170180339Y-103581619D01*
X170182380Y-103526390D01*
X170115281Y-101755201D01*
X170078344Y-101334697D01*
X169995007Y-100625858D01*
X169873080Y-99768477D01*
X169727827Y-98862238D01*
X169574513Y-98006824D01*
X169547070Y-97865079D01*
X169189314Y-96409343D01*
X168289000Y-96409343D01*
X168196393Y-96383273D01*
X167954115Y-96239282D01*
X167615484Y-96012135D01*
X167233817Y-95736594D01*
X167090696Y-95628052D01*
X166204553Y-94819452D01*
X165374411Y-93822717D01*
X164642889Y-92703359D01*
X164052609Y-91526890D01*
X163646189Y-90358822D01*
X163635217Y-90316554D01*
X163551187Y-89850012D01*
X163500764Y-89282013D01*
X163483134Y-88676053D01*
X163497484Y-88095630D01*
X163543002Y-87604238D01*
X163618873Y-87265375D01*
X163675582Y-87164618D01*
X163816813Y-87185206D01*
X164050469Y-87406135D01*
X164358729Y-87798922D01*
X164723769Y-88335082D01*
X165127769Y-88986131D01*
X165552906Y-89723583D01*
X165981359Y-90518954D01*
X166395305Y-91343759D01*
X166703022Y-92003384D01*
X166887983Y-92438941D01*
X167110795Y-93000373D01*
X167354184Y-93639702D01*
X167600881Y-94308948D01*
X167833615Y-94960130D01*
X168035114Y-95545269D01*
X168188108Y-96016384D01*
X168275325Y-96325496D01*
X168289000Y-96409343D01*
X169189314Y-96409343D01*
X168921394Y-95319159D01*
X168063061Y-92842407D01*
X166984581Y-90454178D01*
X165698459Y-88173831D01*
X164217206Y-86020721D01*
X162553328Y-84014206D01*
X160719335Y-82173642D01*
X158727733Y-80518386D01*
X158050569Y-80026317D01*
X156241273Y-80026317D01*
X156221960Y-80250546D01*
X156091448Y-80533100D01*
X155945089Y-80723821D01*
X155583666Y-81229169D01*
X155301294Y-81896159D01*
X155094998Y-82741503D01*
X154961802Y-83781913D01*
X154898732Y-85034101D01*
X154902811Y-86514781D01*
X154904129Y-86570750D01*
X154949414Y-88444000D01*
X135886884Y-88444000D01*
X135973001Y-88172669D01*
X136001396Y-87959253D01*
X136025522Y-87540073D01*
X136043735Y-86963347D01*
X136051519Y-86462029D01*
X135637913Y-86462029D01*
X135629130Y-87098407D01*
X135608097Y-87576526D01*
X135593521Y-87733287D01*
X135504724Y-88444000D01*
X132655072Y-88444000D01*
X132747545Y-87396250D01*
X132833387Y-86699418D01*
X132974128Y-85870739D01*
X133157001Y-84962794D01*
X133369239Y-84028166D01*
X133598076Y-83119438D01*
X133830745Y-82289193D01*
X134054479Y-81590014D01*
X134256510Y-81074484D01*
X134308035Y-80969092D01*
X134473929Y-80652471D01*
X134816685Y-81170410D01*
X135073291Y-81604024D01*
X135267389Y-82056357D01*
X135408915Y-82574618D01*
X135507804Y-83206016D01*
X135573993Y-83997760D01*
X135616589Y-84971037D01*
X135633912Y-85731528D01*
X135637913Y-86462029D01*
X136051519Y-86462029D01*
X136054388Y-86277299D01*
X136056437Y-85727919D01*
X136030009Y-84464945D01*
X135948644Y-83416894D01*
X135804100Y-82549017D01*
X135588139Y-81826568D01*
X135292520Y-81214799D01*
X134909005Y-80678962D01*
X134840327Y-80599526D01*
X134585547Y-80311553D01*
X134876528Y-79710526D01*
X135187938Y-79143308D01*
X135575225Y-78551483D01*
X136004446Y-77975336D01*
X136441658Y-77455148D01*
X136852918Y-77031204D01*
X137204282Y-76743785D01*
X137461806Y-76633176D01*
X137469728Y-76633000D01*
X137664593Y-76718961D01*
X137914786Y-76928485D01*
X137939382Y-76954099D01*
X138305044Y-77281401D01*
X138843186Y-77684089D01*
X139497984Y-78126214D01*
X140213618Y-78571828D01*
X140934266Y-78984982D01*
X141604107Y-79329729D01*
X141694039Y-79372061D01*
X142723573Y-79820685D01*
X143745631Y-80200221D01*
X144842847Y-80538242D01*
X146097854Y-80862319D01*
X146314073Y-80913606D01*
X146868049Y-81038136D01*
X147349895Y-81128870D01*
X147819260Y-81191183D01*
X148335792Y-81230450D01*
X148959140Y-81252045D01*
X149748953Y-81261344D01*
X150191500Y-81262988D01*
X151232589Y-81255461D01*
X152077973Y-81220342D01*
X152785397Y-81146753D01*
X153412606Y-81023822D01*
X154017344Y-80840672D01*
X154657356Y-80586429D01*
X155272765Y-80306052D01*
X155676886Y-80119843D01*
X155985026Y-79986663D01*
X156131210Y-79935008D01*
X156131737Y-79935000D01*
X156241273Y-80026317D01*
X158050569Y-80026317D01*
X157992802Y-79984340D01*
X156966961Y-79265514D01*
X157465733Y-78743007D01*
X158246538Y-77832762D01*
X158845046Y-76910004D01*
X159291064Y-75958841D01*
X159454775Y-75539000D01*
X159568908Y-75194540D01*
X159642491Y-74863485D01*
X159684548Y-74483860D01*
X159704106Y-73993686D01*
X159709923Y-73359998D01*
X158824349Y-73359998D01*
X158765354Y-74257233D01*
X158617844Y-75008780D01*
X158586323Y-75109000D01*
X158054406Y-76361025D01*
X157347661Y-77446965D01*
X156742744Y-78122336D01*
X155733817Y-78945284D01*
X154556842Y-79592066D01*
X153231254Y-80057879D01*
X151776487Y-80337922D01*
X150211977Y-80427395D01*
X148557159Y-80321494D01*
X148096000Y-80258569D01*
X146185593Y-79892924D01*
X144378475Y-79396135D01*
X142697120Y-78779357D01*
X141164004Y-78053744D01*
X139801602Y-77230452D01*
X138632388Y-76320635D01*
X138199688Y-75873577D01*
X136817956Y-75873577D01*
X136519728Y-76122063D01*
X136282259Y-76299450D01*
X136133504Y-76374774D01*
X135982632Y-76481614D01*
X135733469Y-76764663D01*
X135416048Y-77180931D01*
X135060401Y-77687426D01*
X134696559Y-78241156D01*
X134354556Y-78799129D01*
X134064422Y-79318353D01*
X134027748Y-79389228D01*
X133692850Y-80106011D01*
X133341753Y-80961718D01*
X133003794Y-81875059D01*
X132708310Y-82764746D01*
X132484636Y-83549491D01*
X132409949Y-83872000D01*
X132335144Y-84192147D01*
X132272481Y-84392641D01*
X132266268Y-84404958D01*
X132125705Y-84405611D01*
X131798604Y-84294247D01*
X131318157Y-84086262D01*
X130717556Y-83797054D01*
X130029993Y-83442021D01*
X129288662Y-83036558D01*
X129161184Y-82964578D01*
X127262085Y-81770508D01*
X125466754Y-80410077D01*
X123804141Y-78912112D01*
X122303197Y-77305441D01*
X120992871Y-75618891D01*
X119902115Y-73881291D01*
X119741717Y-73585000D01*
X118966454Y-71973737D01*
X118361328Y-70373680D01*
X117904485Y-68712881D01*
X117574071Y-66919393D01*
X117465716Y-66092000D01*
X117419289Y-64760082D01*
X117590367Y-63497670D01*
X117967181Y-62328939D01*
X118537962Y-61278066D01*
X119290941Y-60369228D01*
X120214347Y-59626601D01*
X120767624Y-59309271D01*
X121966291Y-58812302D01*
X123152373Y-58546113D01*
X124384708Y-58497736D01*
X124437686Y-58500244D01*
X125384758Y-58631916D01*
X126278569Y-58939936D01*
X127156494Y-59443392D01*
X128055910Y-60161372D01*
X128485695Y-60567500D01*
X128895479Y-60979468D01*
X129248106Y-61358487D01*
X129563488Y-61736273D01*
X129861539Y-62144546D01*
X130162172Y-62615023D01*
X130485300Y-63179422D01*
X130850836Y-63869463D01*
X131278694Y-64716863D01*
X131788786Y-65753340D01*
X131954053Y-66092000D01*
X132344739Y-66884212D01*
X132741954Y-67673254D01*
X133116690Y-68402661D01*
X133439936Y-69015973D01*
X133682687Y-69456726D01*
X133683131Y-69457500D01*
X134205327Y-70382406D01*
X134610462Y-71141556D01*
X134920599Y-71781703D01*
X135157801Y-72349602D01*
X135344128Y-72892006D01*
X135411760Y-73120769D01*
X135701677Y-73925026D01*
X136094845Y-74726400D01*
X136256047Y-74995308D01*
X136817956Y-75873577D01*
X138199688Y-75873577D01*
X137678839Y-75335447D01*
X137372516Y-74936363D01*
X136844743Y-74141971D01*
X136477766Y-73438827D01*
X136242535Y-72749434D01*
X136109997Y-71996296D01*
X136065980Y-71451103D01*
X136052677Y-70444732D01*
X136147183Y-69578739D01*
X136369250Y-68755256D01*
X136738628Y-67876414D01*
X136821864Y-67705639D01*
X137108948Y-67171751D01*
X137421480Y-66702201D01*
X137812226Y-66228050D01*
X138333953Y-65680363D01*
X138494445Y-65520500D01*
X139621366Y-64537996D01*
X140818841Y-63764632D01*
X142142298Y-63168870D01*
X143233372Y-62824337D01*
X143777556Y-62686917D01*
X144258820Y-62592224D01*
X144749446Y-62532468D01*
X145321718Y-62499856D01*
X146047919Y-62486599D01*
X146381500Y-62485009D01*
X147185986Y-62488826D01*
X147813175Y-62510254D01*
X148339587Y-62557280D01*
X148841742Y-62637895D01*
X149396163Y-62760089D01*
X149675941Y-62828974D01*
X151316582Y-63352091D01*
X152851597Y-64062297D01*
X154259657Y-64940816D01*
X155519437Y-65968876D01*
X156609608Y-67127703D01*
X157508844Y-68398523D01*
X158195817Y-69762563D01*
X158487532Y-70585483D01*
X158683710Y-71444991D01*
X158796559Y-72396206D01*
X158824349Y-73359998D01*
X159709923Y-73359998D01*
X159710190Y-73330987D01*
X159710758Y-73077000D01*
X159708955Y-72340373D01*
X159694668Y-71791114D01*
X159658817Y-71362615D01*
X159592324Y-70988265D01*
X159486110Y-70601455D01*
X159331096Y-70135577D01*
X159296096Y-70034689D01*
X158618142Y-68463451D01*
X157728217Y-67021724D01*
X156638279Y-65719134D01*
X155360286Y-64565310D01*
X153906196Y-63569880D01*
X152287967Y-62742470D01*
X150517556Y-62092709D01*
X148937154Y-61694413D01*
X148056549Y-61572499D01*
X147016887Y-61520183D01*
X145898606Y-61534053D01*
X144782143Y-61610700D01*
X143747936Y-61746712D01*
X142876420Y-61938680D01*
X142825500Y-61953555D01*
X141197479Y-62546868D01*
X139734434Y-63303229D01*
X138448198Y-64211594D01*
X137350606Y-65260919D01*
X136453491Y-66440159D01*
X135768686Y-67738271D01*
X135365267Y-68915921D01*
X135071362Y-70025342D01*
X134349838Y-68725421D01*
X134062539Y-68192068D01*
X133698082Y-67491654D01*
X133288232Y-66686579D01*
X132864757Y-65839241D01*
X132459644Y-65012500D01*
X131798191Y-63686407D01*
X131196690Y-62572015D01*
X130634698Y-61640083D01*
X130091775Y-60861371D01*
X129547481Y-60206637D01*
X128981374Y-59646640D01*
X128373012Y-59152139D01*
X128352183Y-59136748D01*
X127342345Y-58465351D01*
X126393478Y-57998269D01*
X125448713Y-57714805D01*
X124451181Y-57594263D01*
X124093000Y-57586712D01*
X122711562Y-57699355D01*
G37*
X122711562Y-57699355D02*
X121402575Y-58025435D01*
X120195275Y-58550274D01*
X119118899Y-59259193D01*
X118202681Y-60137511D01*
X117706117Y-60793454D01*
X117132872Y-61879351D01*
X116734909Y-63114763D01*
X116519818Y-64458429D01*
X116495189Y-65869091D01*
X116591885Y-66850897D01*
X117057599Y-69203740D01*
X117750092Y-71442667D01*
X118669500Y-73567884D01*
X119815961Y-75579597D01*
X121189610Y-77478013D01*
X122790583Y-79263338D01*
X124619018Y-80935778D01*
X126675050Y-82495540D01*
X127141000Y-82812299D01*
X128143227Y-83447891D01*
X129208649Y-84066253D01*
X130249405Y-84618444D01*
X131134944Y-85037024D01*
X131563702Y-85225302D01*
X131889466Y-85371214D01*
X132053297Y-85448287D01*
X132061581Y-85453223D01*
X132057619Y-85581429D01*
X132023242Y-85909481D01*
X131964367Y-86385838D01*
X131897000Y-86886719D01*
X131796930Y-87547066D01*
X131693523Y-88039011D01*
X131559707Y-88447040D01*
X131368408Y-88855641D01*
X131126964Y-89289805D01*
X130284406Y-90838898D01*
X129492351Y-92466864D01*
X128773512Y-94118475D01*
X128150600Y-95738506D01*
X127646328Y-97271731D01*
X127296416Y-98604000D01*
X127007538Y-100444136D01*
X126961998Y-102264606D01*
X127159568Y-104043661D01*
X127363438Y-104964882D01*
X127765168Y-106259930D01*
X128275286Y-107524676D01*
X128852565Y-108659829D01*
X129001370Y-108909822D01*
X129122629Y-109143082D01*
X129215368Y-109426026D01*
X129288766Y-109808083D01*
X129352002Y-110338680D01*
X129414253Y-111067245D01*
X129422759Y-111179169D01*
X129587039Y-112998352D01*
X129794404Y-114605430D01*
X130054216Y-116040050D01*
X130375835Y-117341856D01*
X130768623Y-118550495D01*
X131241941Y-119705614D01*
X131622915Y-120497151D01*
X132499620Y-121978474D01*
X133512861Y-123249482D01*
X134659871Y-124307251D01*
X135937886Y-125148857D01*
X136104344Y-125237483D01*
X137091465Y-125695092D01*
X137998421Y-125983883D01*
X138914170Y-126124546D01*
X139927671Y-126137770D01*
X139968000Y-126136093D01*
X140928819Y-126037453D01*
X141711268Y-125813335D01*
X142366316Y-125433042D01*
X142944932Y-124865877D01*
X143498084Y-124081144D01*
X143566324Y-123968979D01*
X143819510Y-123482691D01*
X144110697Y-122820929D01*
X144413053Y-122053806D01*
X144699748Y-121251435D01*
X144943952Y-120483928D01*
X145059516Y-120067000D01*
X145206471Y-119495500D01*
X145623196Y-120938967D01*
X146109542Y-122388362D01*
X146663118Y-123602575D01*
X147282090Y-124578865D01*
X147964627Y-125314487D01*
X148708896Y-125806698D01*
X148941420Y-125905545D01*
X149581753Y-126066187D01*
X150372830Y-126147065D01*
X151223774Y-126146746D01*
X152043707Y-126063793D01*
X152527166Y-125962159D01*
X153898242Y-125462896D01*
X155180418Y-124729422D01*
X156364923Y-123768555D01*
X157442989Y-122587114D01*
X158164008Y-121579595D01*
X158688405Y-120673193D01*
X159200162Y-119617474D01*
X159538765Y-118796174D01*
X158544824Y-118796174D01*
X158335842Y-119343385D01*
X158002247Y-120055945D01*
X157526197Y-120858615D01*
X156958538Y-121676732D01*
X156350118Y-122435634D01*
X155902925Y-122915810D01*
X154856881Y-123806323D01*
X153728829Y-124499186D01*
X152552347Y-124979049D01*
X151361010Y-125230557D01*
X150763000Y-125265929D01*
X150147940Y-125245378D01*
X149671787Y-125161462D01*
X149223061Y-124993493D01*
X149175500Y-124971322D01*
X148702272Y-124711532D01*
X148315336Y-124400889D01*
X147973931Y-123990865D01*
X147637296Y-123432932D01*
X147283330Y-122718580D01*
X146971432Y-121968036D01*
X146666236Y-121084562D01*
X146384078Y-120131509D01*
X146141295Y-119172232D01*
X145954222Y-118270081D01*
X145839197Y-117488410D01*
X145810000Y-117004970D01*
X145810000Y-116638000D01*
X144685277Y-116638000D01*
X144599855Y-117368250D01*
X144432153Y-118434328D01*
X144177041Y-119587448D01*
X143856784Y-120749637D01*
X143493649Y-121842927D01*
X143109899Y-122789345D01*
X142966574Y-123087809D01*
X142461723Y-123898911D01*
X141862589Y-124553382D01*
X141213470Y-125003008D01*
X141201210Y-125009122D01*
X140648406Y-125185464D01*
X139944159Y-125269195D01*
X139174305Y-125258340D01*
X138424678Y-125150925D01*
X138146047Y-125079391D01*
X136875448Y-124578322D01*
X135659479Y-123861280D01*
X134553503Y-122966291D01*
X133670270Y-122005154D01*
X133370047Y-121585084D01*
X133032270Y-121050779D01*
X132684126Y-120453107D01*
X132352804Y-119842937D01*
X132065492Y-119271138D01*
X131849377Y-118788578D01*
X131731648Y-118446126D01*
X131718018Y-118352500D01*
X131824562Y-118106136D01*
X132105557Y-117847111D01*
X132141770Y-117822924D01*
X132544534Y-117466297D01*
X132967122Y-116931690D01*
X133366044Y-116287107D01*
X133697811Y-115600549D01*
X133870073Y-115120472D01*
X133997758Y-114671863D01*
X134089477Y-114311719D01*
X134125961Y-114115886D01*
X134126000Y-114113130D01*
X134201766Y-114047743D01*
X134411750Y-114152038D01*
X134869362Y-114407464D01*
X135509784Y-114705557D01*
X136270842Y-115021917D01*
X137090360Y-115332147D01*
X137906164Y-115611848D01*
X138656076Y-115836622D01*
X138805089Y-115876034D01*
X139901418Y-116129036D01*
X141046135Y-116342692D01*
X142163715Y-116505706D01*
X143178634Y-116606780D01*
X143882389Y-116635520D01*
X144685277Y-116638000D01*
X145810000Y-116638000D01*
X146735577Y-116638000D01*
X147926930Y-116584746D01*
X149244095Y-116434669D01*
X150615624Y-116202297D01*
X151970067Y-115902157D01*
X153235975Y-115548775D01*
X154341898Y-115156678D01*
X154636500Y-115031579D01*
X155236257Y-114768581D01*
X155649552Y-114618763D01*
X155923015Y-114594381D01*
X156103275Y-114707691D01*
X156236961Y-114970951D01*
X156370700Y-115396418D01*
X156399495Y-115495000D01*
X156829365Y-116666488D01*
X157367541Y-117611410D01*
X157983382Y-118301974D01*
X158544824Y-118796174D01*
X159538765Y-118796174D01*
X159654693Y-118514986D01*
X160007411Y-117468277D01*
X160100901Y-117124781D01*
X160312563Y-116282147D01*
X160903532Y-116549966D01*
X161469835Y-116721184D01*
X162187075Y-116816424D01*
X162967387Y-116835564D01*
X163722908Y-116778485D01*
X164365774Y-116645066D01*
X164606000Y-116555041D01*
X165459655Y-116066892D01*
X166307390Y-115411448D01*
X167060478Y-114661536D01*
X167356001Y-114297822D01*
X168059051Y-113189864D01*
X168675166Y-111877227D01*
X169196651Y-110396554D01*
X169615811Y-108784490D01*
X169924949Y-107077678D01*
X170116370Y-105312763D01*
X170180339Y-103581619D01*
X169252075Y-103581619D01*
X169188850Y-105166254D01*
X169011953Y-106791896D01*
X168731397Y-108399624D01*
X168357199Y-109930516D01*
X167899372Y-111325653D01*
X167444483Y-112375803D01*
X166798524Y-113454355D01*
X166016756Y-114390928D01*
X165133172Y-115153453D01*
X164181762Y-115709863D01*
X163717000Y-115892322D01*
X163262483Y-115964009D01*
X162667685Y-115953063D01*
X162028577Y-115870133D01*
X161441129Y-115725866D01*
X161135987Y-115605967D01*
X160800412Y-115419187D01*
X160586086Y-115254230D01*
X160544218Y-115183943D01*
X160564704Y-115005232D01*
X160617548Y-114641568D01*
X160693041Y-114158491D01*
X160729129Y-113935975D01*
X160821923Y-113281664D01*
X160910037Y-112509131D01*
X160978540Y-111753948D01*
X160994856Y-111522975D01*
X161005553Y-111372242D01*
X160065680Y-111372242D01*
X159977034Y-112322371D01*
X159885322Y-113137690D01*
X159761158Y-113999295D01*
X159612655Y-114870949D01*
X159447924Y-115716419D01*
X159275079Y-116499471D01*
X159102232Y-117183869D01*
X158937494Y-117733379D01*
X158788977Y-118111766D01*
X158664795Y-118282797D01*
X158641219Y-118289000D01*
X158479567Y-118213841D01*
X158220735Y-118027858D01*
X158156310Y-117974991D01*
X157824528Y-117601425D01*
X157475073Y-117051809D01*
X157144445Y-116398246D01*
X156869142Y-115712841D01*
X156686350Y-115070989D01*
X156603729Y-114674654D01*
X156575075Y-114398902D01*
X156631023Y-114191143D01*
X156802213Y-113998790D01*
X157119282Y-113769251D01*
X157612867Y-113449940D01*
X157641519Y-113431456D01*
X158082288Y-113117498D01*
X158604429Y-112702421D01*
X159109920Y-112264919D01*
X159213108Y-112169781D01*
X160065680Y-111372242D01*
X161005553Y-111372242D01*
X161036994Y-110929222D01*
X161089567Y-110508342D01*
X161177468Y-110179620D01*
X161325587Y-109862341D01*
X161558814Y-109475789D01*
X161689013Y-109272000D01*
X162612650Y-107604648D01*
X163295977Y-105863242D01*
X163737271Y-104060859D01*
X163934810Y-102210580D01*
X163919154Y-101594904D01*
X163009105Y-101594904D01*
X162990256Y-102585615D01*
X162923543Y-103498780D01*
X162808938Y-104256186D01*
X162780607Y-104380708D01*
X162219569Y-106150628D01*
X161425532Y-107849518D01*
X160417049Y-109441543D01*
X159675450Y-110378747D01*
X158439613Y-111622459D01*
X157013428Y-112710844D01*
X155410798Y-113639563D01*
X153645626Y-114404277D01*
X151731815Y-115000646D01*
X149683269Y-115424332D01*
X147513890Y-115670995D01*
X145237582Y-115736296D01*
X142889000Y-115617737D01*
X140636930Y-115317583D01*
X138547821Y-114830500D01*
X136624688Y-114158057D01*
X136002464Y-113854335D01*
X133855240Y-113854335D01*
X133663092Y-114515917D01*
X133261134Y-115630337D01*
X132754215Y-116545118D01*
X132276004Y-117141944D01*
X131965074Y-117461379D01*
X131718879Y-117690518D01*
X131589540Y-117780935D01*
X131588197Y-117781000D01*
X131512749Y-117668258D01*
X131395189Y-117370031D01*
X131258631Y-116946316D01*
X131233500Y-116860250D01*
X130888840Y-115506260D01*
X130639420Y-114145096D01*
X130464502Y-112661470D01*
X130451052Y-112510500D01*
X130399611Y-111912863D01*
X130357265Y-111410124D01*
X130328377Y-111054868D01*
X130317315Y-110899683D01*
X130317311Y-110899427D01*
X130400079Y-110945996D01*
X130624988Y-111139834D01*
X130955227Y-111447955D01*
X131260056Y-111744235D01*
X131770054Y-112223656D01*
X132329285Y-112711537D01*
X132845381Y-113128487D01*
X133029676Y-113265225D01*
X133855240Y-113854335D01*
X136002464Y-113854335D01*
X134870546Y-113301820D01*
X133288412Y-112263358D01*
X131881301Y-111044236D01*
X130652228Y-109646022D01*
X130202486Y-109024305D01*
X129434753Y-107750136D01*
X128788941Y-106377043D01*
X128312565Y-105007871D01*
X128263316Y-104827000D01*
X128061944Y-103780719D01*
X127951947Y-102580852D01*
X127933000Y-101310681D01*
X128004776Y-100053490D01*
X128166952Y-98892560D01*
X128288645Y-98347850D01*
X128377343Y-98099318D01*
X128528372Y-97913782D01*
X128800718Y-97741205D01*
X129248294Y-97533756D01*
X130708548Y-96761961D01*
X132028988Y-95788934D01*
X133192534Y-94635820D01*
X134182106Y-93323767D01*
X134980623Y-91873921D01*
X135571007Y-90307429D01*
X135795763Y-89427449D01*
X135925047Y-88825000D01*
X135534510Y-88825000D01*
X135447989Y-89301250D01*
X135313768Y-89842361D01*
X135092503Y-90524037D01*
X134815021Y-91261852D01*
X134512150Y-91971375D01*
X134346654Y-92317500D01*
X133734730Y-93334619D01*
X132933901Y-94355959D01*
X131999862Y-95317273D01*
X131078000Y-96088039D01*
X130817345Y-96259830D01*
X130433874Y-96485363D01*
X129982213Y-96735852D01*
X129516991Y-96982512D01*
X129092835Y-97196557D01*
X128764374Y-97349200D01*
X128586235Y-97411657D01*
X128570839Y-97409171D01*
X128598198Y-97284293D01*
X128697075Y-96969216D01*
X128851637Y-96512253D01*
X129035903Y-95989960D01*
X129359549Y-95133109D01*
X129735805Y-94208176D01*
X130129863Y-93296161D01*
X130506918Y-92478063D01*
X130777743Y-91936500D01*
X130953781Y-91598972D01*
X131179160Y-91161924D01*
X131302741Y-90920500D01*
X131553053Y-90449678D01*
X131856297Y-89906319D01*
X132060056Y-89555250D01*
X132493391Y-88825000D01*
X135534510Y-88825000D01*
X135925047Y-88825000D01*
X135925391Y-88823398D01*
X145454141Y-88855949D01*
X154982890Y-88888500D01*
X155216345Y-89807816D01*
X155760594Y-91466634D01*
X156510698Y-92981819D01*
X157458687Y-94343686D01*
X158596591Y-95542548D01*
X159916440Y-96568721D01*
X161410263Y-97412519D01*
X161514561Y-97461457D01*
X162550621Y-97941787D01*
X162778736Y-98939643D01*
X162903318Y-99693704D01*
X162980117Y-100604862D01*
X163009105Y-101594904D01*
X163919154Y-101594904D01*
X163886871Y-100325483D01*
X163591730Y-98418647D01*
X163299438Y-97294323D01*
X162320000Y-97294323D01*
X162229261Y-97336676D01*
X161950645Y-97250293D01*
X161474559Y-97031569D01*
X161069393Y-96824452D01*
X159684677Y-95958056D01*
X158464627Y-94899982D01*
X157417868Y-93658965D01*
X156558302Y-92254000D01*
X156067214Y-91214303D01*
X155732752Y-90291664D01*
X155532356Y-89423116D01*
X155523080Y-89364750D01*
X155439674Y-88825000D01*
X156943087Y-88825414D01*
X158446500Y-88825829D01*
X159038879Y-89873164D01*
X159790314Y-91263922D01*
X160504188Y-92704163D01*
X161148237Y-94124057D01*
X161690200Y-95453775D01*
X161954251Y-96183073D01*
X162116563Y-96662760D01*
X162241906Y-97041089D01*
X162311683Y-97261549D01*
X162320000Y-97294323D01*
X163299438Y-97294323D01*
X163277815Y-97211150D01*
X162812489Y-95815810D01*
X162227908Y-94301054D01*
X161559554Y-92746944D01*
X160842907Y-91233541D01*
X160113451Y-89840906D01*
X159673792Y-89079000D01*
X159387347Y-88561244D01*
X159217454Y-88112622D01*
X159199291Y-88016135D01*
X158256000Y-88016135D01*
X158256000Y-88444000D01*
X156866496Y-88444000D01*
X156297348Y-88433695D01*
X155826740Y-88405782D01*
X155509767Y-88364761D01*
X155403110Y-88324459D01*
X155370835Y-88159921D01*
X155333477Y-87791391D01*
X155295083Y-87268712D01*
X155259701Y-86641727D01*
X155250439Y-86444327D01*
X155234632Y-85138542D01*
X155305011Y-83947140D01*
X155456570Y-82898723D01*
X155684299Y-82021896D01*
X155983192Y-81345261D01*
X156195499Y-81046250D01*
X156386266Y-80871604D01*
X156488559Y-80824000D01*
X156602858Y-80942752D01*
X156753546Y-81274244D01*
X156931495Y-81781327D01*
X157127574Y-82426852D01*
X157332656Y-83173670D01*
X157537610Y-83984632D01*
X157733308Y-84822591D01*
X157910620Y-85650397D01*
X158060418Y-86430902D01*
X158173572Y-87126956D01*
X158240953Y-87701412D01*
X158256000Y-88016135D01*
X159199291Y-88016135D01*
X159121733Y-87604133D01*
X159089698Y-87301000D01*
X158941315Y-86141630D01*
X158700246Y-84838966D01*
X158384033Y-83478550D01*
X158079743Y-82375792D01*
X157653505Y-80943085D01*
X157986503Y-81157519D01*
X158498138Y-81528325D01*
X159130825Y-82050339D01*
X159840970Y-82681357D01*
X160584978Y-83379179D01*
X161319254Y-84101602D01*
X162000204Y-84806423D01*
X162584233Y-85451440D01*
X163027746Y-85994451D01*
X163132338Y-86139005D01*
X163332013Y-86444490D01*
X163399283Y-86656496D01*
X163347942Y-86889250D01*
X163250921Y-87120867D01*
X163095025Y-87700607D01*
X163032154Y-88506739D01*
X163030870Y-88634500D01*
X163141614Y-89813335D01*
X163462904Y-91037480D01*
X163968009Y-92261603D01*
X164630199Y-93440373D01*
X165422742Y-94528460D01*
X166318908Y-95480533D01*
X167291966Y-96251262D01*
X167654000Y-96474494D01*
X168031864Y-96700965D01*
X168316305Y-96891871D01*
X168433921Y-96993232D01*
X168492631Y-97178875D01*
X168573853Y-97572028D01*
X168670934Y-98127878D01*
X168777221Y-98801615D01*
X168886061Y-99548427D01*
X168990803Y-100323504D01*
X169084793Y-101082034D01*
X169161378Y-101779206D01*
X169191611Y-102096910D01*
X169252075Y-103581619D01*
X170180339Y-103581619D01*
X170182380Y-103526390D01*
X170115281Y-101755201D01*
X170078344Y-101334697D01*
X169995007Y-100625858D01*
X169873080Y-99768477D01*
X169727827Y-98862238D01*
X169574513Y-98006824D01*
X169547070Y-97865079D01*
X169189314Y-96409343D01*
X168289000Y-96409343D01*
X168196393Y-96383273D01*
X167954115Y-96239282D01*
X167615484Y-96012135D01*
X167233817Y-95736594D01*
X167090696Y-95628052D01*
X166204553Y-94819452D01*
X165374411Y-93822717D01*
X164642889Y-92703359D01*
X164052609Y-91526890D01*
X163646189Y-90358822D01*
X163635217Y-90316554D01*
X163551187Y-89850012D01*
X163500764Y-89282013D01*
X163483134Y-88676053D01*
X163497484Y-88095630D01*
X163543002Y-87604238D01*
X163618873Y-87265375D01*
X163675582Y-87164618D01*
X163816813Y-87185206D01*
X164050469Y-87406135D01*
X164358729Y-87798922D01*
X164723769Y-88335082D01*
X165127769Y-88986131D01*
X165552906Y-89723583D01*
X165981359Y-90518954D01*
X166395305Y-91343759D01*
X166703022Y-92003384D01*
X166887983Y-92438941D01*
X167110795Y-93000373D01*
X167354184Y-93639702D01*
X167600881Y-94308948D01*
X167833615Y-94960130D01*
X168035114Y-95545269D01*
X168188108Y-96016384D01*
X168275325Y-96325496D01*
X168289000Y-96409343D01*
X169189314Y-96409343D01*
X168921394Y-95319159D01*
X168063061Y-92842407D01*
X166984581Y-90454178D01*
X165698459Y-88173831D01*
X164217206Y-86020721D01*
X162553328Y-84014206D01*
X160719335Y-82173642D01*
X158727733Y-80518386D01*
X158050569Y-80026317D01*
X156241273Y-80026317D01*
X156221960Y-80250546D01*
X156091448Y-80533100D01*
X155945089Y-80723821D01*
X155583666Y-81229169D01*
X155301294Y-81896159D01*
X155094998Y-82741503D01*
X154961802Y-83781913D01*
X154898732Y-85034101D01*
X154902811Y-86514781D01*
X154904129Y-86570750D01*
X154949414Y-88444000D01*
X135886884Y-88444000D01*
X135973001Y-88172669D01*
X136001396Y-87959253D01*
X136025522Y-87540073D01*
X136043735Y-86963347D01*
X136051519Y-86462029D01*
X135637913Y-86462029D01*
X135629130Y-87098407D01*
X135608097Y-87576526D01*
X135593521Y-87733287D01*
X135504724Y-88444000D01*
X132655072Y-88444000D01*
X132747545Y-87396250D01*
X132833387Y-86699418D01*
X132974128Y-85870739D01*
X133157001Y-84962794D01*
X133369239Y-84028166D01*
X133598076Y-83119438D01*
X133830745Y-82289193D01*
X134054479Y-81590014D01*
X134256510Y-81074484D01*
X134308035Y-80969092D01*
X134473929Y-80652471D01*
X134816685Y-81170410D01*
X135073291Y-81604024D01*
X135267389Y-82056357D01*
X135408915Y-82574618D01*
X135507804Y-83206016D01*
X135573993Y-83997760D01*
X135616589Y-84971037D01*
X135633912Y-85731528D01*
X135637913Y-86462029D01*
X136051519Y-86462029D01*
X136054388Y-86277299D01*
X136056437Y-85727919D01*
X136030009Y-84464945D01*
X135948644Y-83416894D01*
X135804100Y-82549017D01*
X135588139Y-81826568D01*
X135292520Y-81214799D01*
X134909005Y-80678962D01*
X134840327Y-80599526D01*
X134585547Y-80311553D01*
X134876528Y-79710526D01*
X135187938Y-79143308D01*
X135575225Y-78551483D01*
X136004446Y-77975336D01*
X136441658Y-77455148D01*
X136852918Y-77031204D01*
X137204282Y-76743785D01*
X137461806Y-76633176D01*
X137469728Y-76633000D01*
X137664593Y-76718961D01*
X137914786Y-76928485D01*
X137939382Y-76954099D01*
X138305044Y-77281401D01*
X138843186Y-77684089D01*
X139497984Y-78126214D01*
X140213618Y-78571828D01*
X140934266Y-78984982D01*
X141604107Y-79329729D01*
X141694039Y-79372061D01*
X142723573Y-79820685D01*
X143745631Y-80200221D01*
X144842847Y-80538242D01*
X146097854Y-80862319D01*
X146314073Y-80913606D01*
X146868049Y-81038136D01*
X147349895Y-81128870D01*
X147819260Y-81191183D01*
X148335792Y-81230450D01*
X148959140Y-81252045D01*
X149748953Y-81261344D01*
X150191500Y-81262988D01*
X151232589Y-81255461D01*
X152077973Y-81220342D01*
X152785397Y-81146753D01*
X153412606Y-81023822D01*
X154017344Y-80840672D01*
X154657356Y-80586429D01*
X155272765Y-80306052D01*
X155676886Y-80119843D01*
X155985026Y-79986663D01*
X156131210Y-79935008D01*
X156131737Y-79935000D01*
X156241273Y-80026317D01*
X158050569Y-80026317D01*
X157992802Y-79984340D01*
X156966961Y-79265514D01*
X157465733Y-78743007D01*
X158246538Y-77832762D01*
X158845046Y-76910004D01*
X159291064Y-75958841D01*
X159454775Y-75539000D01*
X159568908Y-75194540D01*
X159642491Y-74863485D01*
X159684548Y-74483860D01*
X159704106Y-73993686D01*
X159709923Y-73359998D01*
X158824349Y-73359998D01*
X158765354Y-74257233D01*
X158617844Y-75008780D01*
X158586323Y-75109000D01*
X158054406Y-76361025D01*
X157347661Y-77446965D01*
X156742744Y-78122336D01*
X155733817Y-78945284D01*
X154556842Y-79592066D01*
X153231254Y-80057879D01*
X151776487Y-80337922D01*
X150211977Y-80427395D01*
X148557159Y-80321494D01*
X148096000Y-80258569D01*
X146185593Y-79892924D01*
X144378475Y-79396135D01*
X142697120Y-78779357D01*
X141164004Y-78053744D01*
X139801602Y-77230452D01*
X138632388Y-76320635D01*
X138199688Y-75873577D01*
X136817956Y-75873577D01*
X136519728Y-76122063D01*
X136282259Y-76299450D01*
X136133504Y-76374774D01*
X135982632Y-76481614D01*
X135733469Y-76764663D01*
X135416048Y-77180931D01*
X135060401Y-77687426D01*
X134696559Y-78241156D01*
X134354556Y-78799129D01*
X134064422Y-79318353D01*
X134027748Y-79389228D01*
X133692850Y-80106011D01*
X133341753Y-80961718D01*
X133003794Y-81875059D01*
X132708310Y-82764746D01*
X132484636Y-83549491D01*
X132409949Y-83872000D01*
X132335144Y-84192147D01*
X132272481Y-84392641D01*
X132266268Y-84404958D01*
X132125705Y-84405611D01*
X131798604Y-84294247D01*
X131318157Y-84086262D01*
X130717556Y-83797054D01*
X130029993Y-83442021D01*
X129288662Y-83036558D01*
X129161184Y-82964578D01*
X127262085Y-81770508D01*
X125466754Y-80410077D01*
X123804141Y-78912112D01*
X122303197Y-77305441D01*
X120992871Y-75618891D01*
X119902115Y-73881291D01*
X119741717Y-73585000D01*
X118966454Y-71973737D01*
X118361328Y-70373680D01*
X117904485Y-68712881D01*
X117574071Y-66919393D01*
X117465716Y-66092000D01*
X117419289Y-64760082D01*
X117590367Y-63497670D01*
X117967181Y-62328939D01*
X118537962Y-61278066D01*
X119290941Y-60369228D01*
X120214347Y-59626601D01*
X120767624Y-59309271D01*
X121966291Y-58812302D01*
X123152373Y-58546113D01*
X124384708Y-58497736D01*
X124437686Y-58500244D01*
X125384758Y-58631916D01*
X126278569Y-58939936D01*
X127156494Y-59443392D01*
X128055910Y-60161372D01*
X128485695Y-60567500D01*
X128895479Y-60979468D01*
X129248106Y-61358487D01*
X129563488Y-61736273D01*
X129861539Y-62144546D01*
X130162172Y-62615023D01*
X130485300Y-63179422D01*
X130850836Y-63869463D01*
X131278694Y-64716863D01*
X131788786Y-65753340D01*
X131954053Y-66092000D01*
X132344739Y-66884212D01*
X132741954Y-67673254D01*
X133116690Y-68402661D01*
X133439936Y-69015973D01*
X133682687Y-69456726D01*
X133683131Y-69457500D01*
X134205327Y-70382406D01*
X134610462Y-71141556D01*
X134920599Y-71781703D01*
X135157801Y-72349602D01*
X135344128Y-72892006D01*
X135411760Y-73120769D01*
X135701677Y-73925026D01*
X136094845Y-74726400D01*
X136256047Y-74995308D01*
X136817956Y-75873577D01*
X138199688Y-75873577D01*
X137678839Y-75335447D01*
X137372516Y-74936363D01*
X136844743Y-74141971D01*
X136477766Y-73438827D01*
X136242535Y-72749434D01*
X136109997Y-71996296D01*
X136065980Y-71451103D01*
X136052677Y-70444732D01*
X136147183Y-69578739D01*
X136369250Y-68755256D01*
X136738628Y-67876414D01*
X136821864Y-67705639D01*
X137108948Y-67171751D01*
X137421480Y-66702201D01*
X137812226Y-66228050D01*
X138333953Y-65680363D01*
X138494445Y-65520500D01*
X139621366Y-64537996D01*
X140818841Y-63764632D01*
X142142298Y-63168870D01*
X143233372Y-62824337D01*
X143777556Y-62686917D01*
X144258820Y-62592224D01*
X144749446Y-62532468D01*
X145321718Y-62499856D01*
X146047919Y-62486599D01*
X146381500Y-62485009D01*
X147185986Y-62488826D01*
X147813175Y-62510254D01*
X148339587Y-62557280D01*
X148841742Y-62637895D01*
X149396163Y-62760089D01*
X149675941Y-62828974D01*
X151316582Y-63352091D01*
X152851597Y-64062297D01*
X154259657Y-64940816D01*
X155519437Y-65968876D01*
X156609608Y-67127703D01*
X157508844Y-68398523D01*
X158195817Y-69762563D01*
X158487532Y-70585483D01*
X158683710Y-71444991D01*
X158796559Y-72396206D01*
X158824349Y-73359998D01*
X159709923Y-73359998D01*
X159710190Y-73330987D01*
X159710758Y-73077000D01*
X159708955Y-72340373D01*
X159694668Y-71791114D01*
X159658817Y-71362615D01*
X159592324Y-70988265D01*
X159486110Y-70601455D01*
X159331096Y-70135577D01*
X159296096Y-70034689D01*
X158618142Y-68463451D01*
X157728217Y-67021724D01*
X156638279Y-65719134D01*
X155360286Y-64565310D01*
X153906196Y-63569880D01*
X152287967Y-62742470D01*
X150517556Y-62092709D01*
X148937154Y-61694413D01*
X148056549Y-61572499D01*
X147016887Y-61520183D01*
X145898606Y-61534053D01*
X144782143Y-61610700D01*
X143747936Y-61746712D01*
X142876420Y-61938680D01*
X142825500Y-61953555D01*
X141197479Y-62546868D01*
X139734434Y-63303229D01*
X138448198Y-64211594D01*
X137350606Y-65260919D01*
X136453491Y-66440159D01*
X135768686Y-67738271D01*
X135365267Y-68915921D01*
X135071362Y-70025342D01*
X134349838Y-68725421D01*
X134062539Y-68192068D01*
X133698082Y-67491654D01*
X133288232Y-66686579D01*
X132864757Y-65839241D01*
X132459644Y-65012500D01*
X131798191Y-63686407D01*
X131196690Y-62572015D01*
X130634698Y-61640083D01*
X130091775Y-60861371D01*
X129547481Y-60206637D01*
X128981374Y-59646640D01*
X128373012Y-59152139D01*
X128352183Y-59136748D01*
X127342345Y-58465351D01*
X126393478Y-57998269D01*
X125448713Y-57714805D01*
X124451181Y-57594263D01*
X124093000Y-57586712D01*
X122711562Y-57699355D01*
G36*
X138584491Y-81805519D02*
G01*
X138201308Y-81943198D01*
X137863703Y-82190108D01*
X137514403Y-82543463D01*
X137391516Y-82698746D01*
X137050707Y-83358975D01*
X136935044Y-84041818D01*
X137023561Y-84707088D01*
X137295292Y-85314597D01*
X137729271Y-85824157D01*
X138304530Y-86195580D01*
X139000103Y-86388677D01*
X139326115Y-86406915D01*
X139804858Y-86366778D01*
X140239029Y-86269916D01*
X140412500Y-86200519D01*
X140935624Y-85864384D01*
X141303185Y-85461011D01*
X141505515Y-85115309D01*
X141609011Y-84787064D01*
X141227955Y-84787064D01*
X141086278Y-85090580D01*
X140772028Y-85455319D01*
X140200518Y-85881262D01*
X139584406Y-86119174D01*
X139411235Y-86146546D01*
X139227163Y-86119968D01*
X138907223Y-86039672D01*
X138803346Y-86009507D01*
X138448425Y-85837652D01*
X138069532Y-85555622D01*
X137730923Y-85224731D01*
X137496856Y-84906293D01*
X137428000Y-84697134D01*
X137538331Y-84544244D01*
X137743699Y-84507000D01*
X138018319Y-84423164D01*
X138292494Y-84145931D01*
X138395575Y-83999000D01*
X138613309Y-83697679D01*
X138812447Y-83547538D01*
X139094837Y-83496200D01*
X139383396Y-83491000D01*
X139777414Y-83504503D01*
X140016517Y-83579703D01*
X140199604Y-83768628D01*
X140349000Y-83999000D01*
X140635990Y-84366479D01*
X140909211Y-84504701D01*
X140950481Y-84507000D01*
X141184636Y-84582190D01*
X141227955Y-84787064D01*
X141609011Y-84787064D01*
X141714497Y-84452513D01*
X141714953Y-83867920D01*
X141365000Y-83867920D01*
X141280852Y-84074394D01*
X141083842Y-84122890D01*
X140857125Y-84016967D01*
X140718599Y-83840250D01*
X140420363Y-83370056D01*
X140080923Y-83103841D01*
X139623583Y-82994075D01*
X139335310Y-82983000D01*
X138921573Y-82992990D01*
X138663511Y-83056779D01*
X138462819Y-83225091D01*
X138221191Y-83548650D01*
X138210973Y-83563142D01*
X137873831Y-83946887D01*
X137595428Y-84103181D01*
X137405790Y-84056946D01*
X137334942Y-83833104D01*
X137412909Y-83456576D01*
X137604175Y-83059486D01*
X138034736Y-82533729D01*
X138597184Y-82215863D01*
X139310760Y-82095645D01*
X139417963Y-82094000D01*
X140052754Y-82201831D01*
X140611559Y-82496156D01*
X141046351Y-82933218D01*
X141309104Y-83469259D01*
X141365000Y-83867920D01*
X141714953Y-83867920D01*
X141715041Y-83756340D01*
X141527901Y-83083456D01*
X141173833Y-82490524D01*
X140673589Y-82034211D01*
X140308983Y-81848459D01*
X139785990Y-81734604D01*
X139172291Y-81722038D01*
X138584491Y-81805519D01*
G37*
X138584491Y-81805519D02*
X138201308Y-81943198D01*
X137863703Y-82190108D01*
X137514403Y-82543463D01*
X137391516Y-82698746D01*
X137050707Y-83358975D01*
X136935044Y-84041818D01*
X137023561Y-84707088D01*
X137295292Y-85314597D01*
X137729271Y-85824157D01*
X138304530Y-86195580D01*
X139000103Y-86388677D01*
X139326115Y-86406915D01*
X139804858Y-86366778D01*
X140239029Y-86269916D01*
X140412500Y-86200519D01*
X140935624Y-85864384D01*
X141303185Y-85461011D01*
X141505515Y-85115309D01*
X141609011Y-84787064D01*
X141227955Y-84787064D01*
X141086278Y-85090580D01*
X140772028Y-85455319D01*
X140200518Y-85881262D01*
X139584406Y-86119174D01*
X139411235Y-86146546D01*
X139227163Y-86119968D01*
X138907223Y-86039672D01*
X138803346Y-86009507D01*
X138448425Y-85837652D01*
X138069532Y-85555622D01*
X137730923Y-85224731D01*
X137496856Y-84906293D01*
X137428000Y-84697134D01*
X137538331Y-84544244D01*
X137743699Y-84507000D01*
X138018319Y-84423164D01*
X138292494Y-84145931D01*
X138395575Y-83999000D01*
X138613309Y-83697679D01*
X138812447Y-83547538D01*
X139094837Y-83496200D01*
X139383396Y-83491000D01*
X139777414Y-83504503D01*
X140016517Y-83579703D01*
X140199604Y-83768628D01*
X140349000Y-83999000D01*
X140635990Y-84366479D01*
X140909211Y-84504701D01*
X140950481Y-84507000D01*
X141184636Y-84582190D01*
X141227955Y-84787064D01*
X141609011Y-84787064D01*
X141714497Y-84452513D01*
X141714953Y-83867920D01*
X141365000Y-83867920D01*
X141280852Y-84074394D01*
X141083842Y-84122890D01*
X140857125Y-84016967D01*
X140718599Y-83840250D01*
X140420363Y-83370056D01*
X140080923Y-83103841D01*
X139623583Y-82994075D01*
X139335310Y-82983000D01*
X138921573Y-82992990D01*
X138663511Y-83056779D01*
X138462819Y-83225091D01*
X138221191Y-83548650D01*
X138210973Y-83563142D01*
X137873831Y-83946887D01*
X137595428Y-84103181D01*
X137405790Y-84056946D01*
X137334942Y-83833104D01*
X137412909Y-83456576D01*
X137604175Y-83059486D01*
X138034736Y-82533729D01*
X138597184Y-82215863D01*
X139310760Y-82095645D01*
X139417963Y-82094000D01*
X140052754Y-82201831D01*
X140611559Y-82496156D01*
X141046351Y-82933218D01*
X141309104Y-83469259D01*
X141365000Y-83867920D01*
X141714953Y-83867920D01*
X141715041Y-83756340D01*
X141527901Y-83083456D01*
X141173833Y-82490524D01*
X140673589Y-82034211D01*
X140308983Y-81848459D01*
X139785990Y-81734604D01*
X139172291Y-81722038D01*
X138584491Y-81805519D01*
G36*
X141971440Y-68491842D02*
G01*
X141519898Y-68802610D01*
X141208462Y-69264164D01*
X141070323Y-69830365D01*
X141111684Y-70349531D01*
X141330527Y-70898320D01*
X141715218Y-71267312D01*
X142079297Y-71431213D01*
X142687675Y-71508558D01*
X143277122Y-71332685D01*
X143716549Y-71026165D01*
X144144231Y-70650655D01*
X146151866Y-71167296D01*
X147000212Y-71385164D01*
X147923191Y-71621466D01*
X148822366Y-71851042D01*
X149599304Y-72048735D01*
X149767046Y-72091278D01*
X151374591Y-72498620D01*
X151447081Y-72951948D01*
X151646202Y-73472211D01*
X152020876Y-73869412D01*
X152512060Y-74117856D01*
X153060711Y-74191850D01*
X153607785Y-74065700D01*
X153786893Y-73970179D01*
X154216321Y-73568107D01*
X154454306Y-73061346D01*
X154503532Y-72509005D01*
X154366686Y-71970194D01*
X154046453Y-71504022D01*
X153662136Y-71224193D01*
X153102127Y-71068810D01*
X152520849Y-71140239D01*
X151984670Y-71426888D01*
X151856357Y-71539569D01*
X151456436Y-71927188D01*
X149426968Y-71409524D01*
X148579530Y-71193637D01*
X147662181Y-70960392D01*
X146770954Y-70734178D01*
X146001884Y-70539388D01*
X145815102Y-70492180D01*
X145165408Y-70325719D01*
X144720608Y-70200231D01*
X144438934Y-70096084D01*
X144278619Y-69993645D01*
X144197892Y-69873282D01*
X144154986Y-69715362D01*
X144154188Y-69711500D01*
X143916107Y-69096219D01*
X143504479Y-68659664D01*
X142941311Y-68419902D01*
X142529900Y-68378000D01*
X141971440Y-68491842D01*
G37*
X141971440Y-68491842D02*
X141519898Y-68802610D01*
X141208462Y-69264164D01*
X141070323Y-69830365D01*
X141111684Y-70349531D01*
X141330527Y-70898320D01*
X141715218Y-71267312D01*
X142079297Y-71431213D01*
X142687675Y-71508558D01*
X143277122Y-71332685D01*
X143716549Y-71026165D01*
X144144231Y-70650655D01*
X146151866Y-71167296D01*
X147000212Y-71385164D01*
X147923191Y-71621466D01*
X148822366Y-71851042D01*
X149599304Y-72048735D01*
X149767046Y-72091278D01*
X151374591Y-72498620D01*
X151447081Y-72951948D01*
X151646202Y-73472211D01*
X152020876Y-73869412D01*
X152512060Y-74117856D01*
X153060711Y-74191850D01*
X153607785Y-74065700D01*
X153786893Y-73970179D01*
X154216321Y-73568107D01*
X154454306Y-73061346D01*
X154503532Y-72509005D01*
X154366686Y-71970194D01*
X154046453Y-71504022D01*
X153662136Y-71224193D01*
X153102127Y-71068810D01*
X152520849Y-71140239D01*
X151984670Y-71426888D01*
X151856357Y-71539569D01*
X151456436Y-71927188D01*
X149426968Y-71409524D01*
X148579530Y-71193637D01*
X147662181Y-70960392D01*
X146770954Y-70734178D01*
X146001884Y-70539388D01*
X145815102Y-70492180D01*
X145165408Y-70325719D01*
X144720608Y-70200231D01*
X144438934Y-70096084D01*
X144278619Y-69993645D01*
X144197892Y-69873282D01*
X144154986Y-69715362D01*
X144154188Y-69711500D01*
X143916107Y-69096219D01*
X143504479Y-68659664D01*
X142941311Y-68419902D01*
X142529900Y-68378000D01*
X141971440Y-68491842D01*
%TD*%
M02*
