%TF.GenerationSoftware,KiCad,Pcbnew,(5.1.6)-1*%
%TF.CreationDate,2020-12-12T17:11:39+01:00*%
%TF.ProjectId,stm32L412K8T6,73746d33-324c-4343-9132-4b3854362e6b,rev?*%
%TF.SameCoordinates,Original*%
%TF.FileFunction,Legend,Top*%
%TF.FilePolarity,Positive*%
%FSLAX46Y46*%
G04 Gerber Fmt 4.6, Leading zero omitted, Abs format (unit mm)*
G04 Created by KiCad (PCBNEW (5.1.6)-1) date 2020-12-12 17:11:39*
%MOMM*%
%LPD*%
G01*
G04 APERTURE LIST*
%ADD10C,0.250000*%
%ADD11C,0.200000*%
%ADD12C,0.010000*%
%ADD13C,0.120000*%
%ADD14C,0.150000*%
G04 APERTURE END LIST*
D10*
X213952380Y-109571428D02*
X213476190Y-109904761D01*
X213952380Y-110142857D02*
X212952380Y-110142857D01*
X212952380Y-109761904D01*
X213000000Y-109666666D01*
X213047619Y-109619047D01*
X213142857Y-109571428D01*
X213285714Y-109571428D01*
X213380952Y-109619047D01*
X213428571Y-109666666D01*
X213476190Y-109761904D01*
X213476190Y-110142857D01*
X213666666Y-109190476D02*
X213666666Y-108714285D01*
X213952380Y-109285714D02*
X212952380Y-108952380D01*
X213952380Y-108619047D01*
X213952380Y-107714285D02*
X213476190Y-108047619D01*
X213952380Y-108285714D02*
X212952380Y-108285714D01*
X212952380Y-107904761D01*
X213000000Y-107809523D01*
X213047619Y-107761904D01*
X213142857Y-107714285D01*
X213285714Y-107714285D01*
X213380952Y-107761904D01*
X213428571Y-107809523D01*
X213476190Y-107904761D01*
X213476190Y-108285714D01*
X213857142Y-106714285D02*
X213904761Y-106761904D01*
X213952380Y-106904761D01*
X213952380Y-107000000D01*
X213904761Y-107142857D01*
X213809523Y-107238095D01*
X213714285Y-107285714D01*
X213523809Y-107333333D01*
X213380952Y-107333333D01*
X213190476Y-107285714D01*
X213095238Y-107238095D01*
X213000000Y-107142857D01*
X212952380Y-107000000D01*
X212952380Y-106904761D01*
X213000000Y-106761904D01*
X213047619Y-106714285D01*
X213428571Y-106285714D02*
X213428571Y-105952380D01*
X213952380Y-105809523D02*
X213952380Y-106285714D01*
X212952380Y-106285714D01*
X212952380Y-105809523D01*
X213952380Y-105380952D02*
X212952380Y-105380952D01*
X212952380Y-105142857D01*
X213000000Y-105000000D01*
X213095238Y-104904761D01*
X213190476Y-104857142D01*
X213380952Y-104809523D01*
X213523809Y-104809523D01*
X213714285Y-104857142D01*
X213809523Y-104904761D01*
X213904761Y-105000000D01*
X213952380Y-105142857D01*
X213952380Y-105380952D01*
X212952380Y-103761904D02*
X213952380Y-103428571D01*
X212952380Y-103095238D01*
X213952380Y-102238095D02*
X213952380Y-102809523D01*
X213952380Y-102523809D02*
X212952380Y-102523809D01*
X213095238Y-102619047D01*
X213190476Y-102714285D01*
X213238095Y-102809523D01*
X213857142Y-101809523D02*
X213904761Y-101761904D01*
X213952380Y-101809523D01*
X213904761Y-101857142D01*
X213857142Y-101809523D01*
X213952380Y-101809523D01*
X212952380Y-101142857D02*
X212952380Y-101047619D01*
X213000000Y-100952380D01*
X213047619Y-100904761D01*
X213142857Y-100857142D01*
X213333333Y-100809523D01*
X213571428Y-100809523D01*
X213761904Y-100857142D01*
X213857142Y-100904761D01*
X213904761Y-100952380D01*
X213952380Y-101047619D01*
X213952380Y-101142857D01*
X213904761Y-101238095D01*
X213857142Y-101285714D01*
X213761904Y-101333333D01*
X213571428Y-101380952D01*
X213333333Y-101380952D01*
X213142857Y-101333333D01*
X213047619Y-101285714D01*
X213000000Y-101238095D01*
X212952380Y-101142857D01*
D11*
X194738095Y-118397619D02*
X195309523Y-118397619D01*
X195023809Y-119497619D02*
X195023809Y-118397619D01*
X195547619Y-118397619D02*
X196214285Y-119497619D01*
X196214285Y-118397619D02*
X195547619Y-119497619D01*
X202333333Y-121497619D02*
X202000000Y-120973809D01*
X201761904Y-121497619D02*
X201761904Y-120397619D01*
X202142857Y-120397619D01*
X202238095Y-120450000D01*
X202285714Y-120502380D01*
X202333333Y-120607142D01*
X202333333Y-120764285D01*
X202285714Y-120869047D01*
X202238095Y-120921428D01*
X202142857Y-120973809D01*
X201761904Y-120973809D01*
X202666666Y-120397619D02*
X203333333Y-121497619D01*
X203333333Y-120397619D02*
X202666666Y-121497619D01*
X178988095Y-120950000D02*
X178892857Y-120897619D01*
X178750000Y-120897619D01*
X178607142Y-120950000D01*
X178511904Y-121054761D01*
X178464285Y-121159523D01*
X178416666Y-121369047D01*
X178416666Y-121526190D01*
X178464285Y-121735714D01*
X178511904Y-121840476D01*
X178607142Y-121945238D01*
X178750000Y-121997619D01*
X178845238Y-121997619D01*
X178988095Y-121945238D01*
X179035714Y-121892857D01*
X179035714Y-121526190D01*
X178845238Y-121526190D01*
X179464285Y-121997619D02*
X179464285Y-120897619D01*
X180035714Y-121997619D01*
X180035714Y-120897619D01*
X180511904Y-121997619D02*
X180511904Y-120897619D01*
X180750000Y-120897619D01*
X180892857Y-120950000D01*
X180988095Y-121054761D01*
X181035714Y-121159523D01*
X181083333Y-121369047D01*
X181083333Y-121526190D01*
X181035714Y-121735714D01*
X180988095Y-121840476D01*
X180892857Y-121945238D01*
X180750000Y-121997619D01*
X180511904Y-121997619D01*
X196238095Y-123950000D02*
X196142857Y-123897619D01*
X196000000Y-123897619D01*
X195857142Y-123950000D01*
X195761904Y-124054761D01*
X195714285Y-124159523D01*
X195666666Y-124369047D01*
X195666666Y-124526190D01*
X195714285Y-124735714D01*
X195761904Y-124840476D01*
X195857142Y-124945238D01*
X196000000Y-124997619D01*
X196095238Y-124997619D01*
X196238095Y-124945238D01*
X196285714Y-124892857D01*
X196285714Y-124526190D01*
X196095238Y-124526190D01*
X196714285Y-124997619D02*
X196714285Y-123897619D01*
X197285714Y-124997619D01*
X197285714Y-123897619D01*
X197761904Y-124997619D02*
X197761904Y-123897619D01*
X198000000Y-123897619D01*
X198142857Y-123950000D01*
X198238095Y-124054761D01*
X198285714Y-124159523D01*
X198333333Y-124369047D01*
X198333333Y-124526190D01*
X198285714Y-124735714D01*
X198238095Y-124840476D01*
X198142857Y-124945238D01*
X198000000Y-124997619D01*
X197761904Y-124997619D01*
X185285714Y-124945238D02*
X185428571Y-124997619D01*
X185666666Y-124997619D01*
X185761904Y-124945238D01*
X185809523Y-124892857D01*
X185857142Y-124788095D01*
X185857142Y-124683333D01*
X185809523Y-124578571D01*
X185761904Y-124526190D01*
X185666666Y-124473809D01*
X185476190Y-124421428D01*
X185380952Y-124369047D01*
X185333333Y-124316666D01*
X185285714Y-124211904D01*
X185285714Y-124107142D01*
X185333333Y-124002380D01*
X185380952Y-123950000D01*
X185476190Y-123897619D01*
X185714285Y-123897619D01*
X185857142Y-123950000D01*
X186285714Y-124997619D02*
X186285714Y-123897619D01*
X186523809Y-123897619D01*
X186666666Y-123950000D01*
X186761904Y-124054761D01*
X186809523Y-124159523D01*
X186857142Y-124369047D01*
X186857142Y-124526190D01*
X186809523Y-124735714D01*
X186761904Y-124840476D01*
X186666666Y-124945238D01*
X186523809Y-124997619D01*
X186285714Y-124997619D01*
X187238095Y-124683333D02*
X187714285Y-124683333D01*
X187142857Y-124997619D02*
X187476190Y-123897619D01*
X187809523Y-124997619D01*
X185559523Y-118445238D02*
X185702380Y-118497619D01*
X185940476Y-118497619D01*
X186035714Y-118445238D01*
X186083333Y-118392857D01*
X186130952Y-118288095D01*
X186130952Y-118183333D01*
X186083333Y-118078571D01*
X186035714Y-118026190D01*
X185940476Y-117973809D01*
X185750000Y-117921428D01*
X185654761Y-117869047D01*
X185607142Y-117816666D01*
X185559523Y-117711904D01*
X185559523Y-117607142D01*
X185607142Y-117502380D01*
X185654761Y-117450000D01*
X185750000Y-117397619D01*
X185988095Y-117397619D01*
X186130952Y-117450000D01*
X187130952Y-118392857D02*
X187083333Y-118445238D01*
X186940476Y-118497619D01*
X186845238Y-118497619D01*
X186702380Y-118445238D01*
X186607142Y-118340476D01*
X186559523Y-118235714D01*
X186511904Y-118026190D01*
X186511904Y-117869047D01*
X186559523Y-117659523D01*
X186607142Y-117554761D01*
X186702380Y-117450000D01*
X186845238Y-117397619D01*
X186940476Y-117397619D01*
X187083333Y-117450000D01*
X187130952Y-117502380D01*
X188035714Y-118497619D02*
X187559523Y-118497619D01*
X187559523Y-117397619D01*
X182738095Y-104270238D02*
X182880952Y-104322619D01*
X183119047Y-104322619D01*
X183214285Y-104270238D01*
X183261904Y-104217857D01*
X183309523Y-104113095D01*
X183309523Y-104008333D01*
X183261904Y-103903571D01*
X183214285Y-103851190D01*
X183119047Y-103798809D01*
X182928571Y-103746428D01*
X182833333Y-103694047D01*
X182785714Y-103641666D01*
X182738095Y-103536904D01*
X182738095Y-103432142D01*
X182785714Y-103327380D01*
X182833333Y-103275000D01*
X182928571Y-103222619D01*
X183166666Y-103222619D01*
X183309523Y-103275000D01*
X183642857Y-103222619D02*
X183880952Y-104322619D01*
X184071428Y-103536904D01*
X184261904Y-104322619D01*
X184500000Y-103222619D01*
X185452380Y-104217857D02*
X185404761Y-104270238D01*
X185261904Y-104322619D01*
X185166666Y-104322619D01*
X185023809Y-104270238D01*
X184928571Y-104165476D01*
X184880952Y-104060714D01*
X184833333Y-103851190D01*
X184833333Y-103694047D01*
X184880952Y-103484523D01*
X184928571Y-103379761D01*
X185023809Y-103275000D01*
X185166666Y-103222619D01*
X185261904Y-103222619D01*
X185404761Y-103275000D01*
X185452380Y-103327380D01*
X186357142Y-104322619D02*
X185880952Y-104322619D01*
X185880952Y-103222619D01*
X186690476Y-104322619D02*
X186690476Y-103222619D01*
X187261904Y-104322619D02*
X186833333Y-103694047D01*
X187261904Y-103222619D02*
X186690476Y-103851190D01*
X183130952Y-102695238D02*
X183273809Y-102747619D01*
X183511904Y-102747619D01*
X183607142Y-102695238D01*
X183654761Y-102642857D01*
X183702380Y-102538095D01*
X183702380Y-102433333D01*
X183654761Y-102328571D01*
X183607142Y-102276190D01*
X183511904Y-102223809D01*
X183321428Y-102171428D01*
X183226190Y-102119047D01*
X183178571Y-102066666D01*
X183130952Y-101961904D01*
X183130952Y-101857142D01*
X183178571Y-101752380D01*
X183226190Y-101700000D01*
X183321428Y-101647619D01*
X183559523Y-101647619D01*
X183702380Y-101700000D01*
X184035714Y-101647619D02*
X184273809Y-102747619D01*
X184464285Y-101961904D01*
X184654761Y-102747619D01*
X184892857Y-101647619D01*
X185273809Y-102747619D02*
X185273809Y-101647619D01*
X185511904Y-101647619D01*
X185654761Y-101700000D01*
X185750000Y-101804761D01*
X185797619Y-101909523D01*
X185845238Y-102119047D01*
X185845238Y-102276190D01*
X185797619Y-102485714D01*
X185750000Y-102590476D01*
X185654761Y-102695238D01*
X185511904Y-102747619D01*
X185273809Y-102747619D01*
X186273809Y-102747619D02*
X186273809Y-101647619D01*
X186940476Y-101647619D02*
X187130952Y-101647619D01*
X187226190Y-101700000D01*
X187321428Y-101804761D01*
X187369047Y-102014285D01*
X187369047Y-102380952D01*
X187321428Y-102590476D01*
X187226190Y-102695238D01*
X187130952Y-102747619D01*
X186940476Y-102747619D01*
X186845238Y-102695238D01*
X186750000Y-102590476D01*
X186702380Y-102380952D01*
X186702380Y-102014285D01*
X186750000Y-101804761D01*
X186845238Y-101700000D01*
X186940476Y-101647619D01*
X183619047Y-100945238D02*
X183761904Y-100997619D01*
X184000000Y-100997619D01*
X184095238Y-100945238D01*
X184142857Y-100892857D01*
X184190476Y-100788095D01*
X184190476Y-100683333D01*
X184142857Y-100578571D01*
X184095238Y-100526190D01*
X184000000Y-100473809D01*
X183809523Y-100421428D01*
X183714285Y-100369047D01*
X183666666Y-100316666D01*
X183619047Y-100211904D01*
X183619047Y-100107142D01*
X183666666Y-100002380D01*
X183714285Y-99950000D01*
X183809523Y-99897619D01*
X184047619Y-99897619D01*
X184190476Y-99950000D01*
X184523809Y-99897619D02*
X184761904Y-100997619D01*
X184952380Y-100211904D01*
X185142857Y-100997619D01*
X185380952Y-99897619D01*
X185952380Y-99897619D02*
X186142857Y-99897619D01*
X186238095Y-99950000D01*
X186333333Y-100054761D01*
X186380952Y-100264285D01*
X186380952Y-100630952D01*
X186333333Y-100840476D01*
X186238095Y-100945238D01*
X186142857Y-100997619D01*
X185952380Y-100997619D01*
X185857142Y-100945238D01*
X185761904Y-100840476D01*
X185714285Y-100630952D01*
X185714285Y-100264285D01*
X185761904Y-100054761D01*
X185857142Y-99950000D01*
X185952380Y-99897619D01*
X177273809Y-99897619D02*
X177892857Y-99897619D01*
X177559523Y-100316666D01*
X177702380Y-100316666D01*
X177797619Y-100369047D01*
X177845238Y-100421428D01*
X177892857Y-100526190D01*
X177892857Y-100788095D01*
X177845238Y-100892857D01*
X177797619Y-100945238D01*
X177702380Y-100997619D01*
X177416666Y-100997619D01*
X177321428Y-100945238D01*
X177273809Y-100892857D01*
X178321428Y-100892857D02*
X178369047Y-100945238D01*
X178321428Y-100997619D01*
X178273809Y-100945238D01*
X178321428Y-100892857D01*
X178321428Y-100997619D01*
X178702380Y-99897619D02*
X179321428Y-99897619D01*
X178988095Y-100316666D01*
X179130952Y-100316666D01*
X179226190Y-100369047D01*
X179273809Y-100421428D01*
X179321428Y-100526190D01*
X179321428Y-100788095D01*
X179273809Y-100892857D01*
X179226190Y-100945238D01*
X179130952Y-100997619D01*
X178845238Y-100997619D01*
X178750000Y-100945238D01*
X178702380Y-100892857D01*
X179607142Y-99897619D02*
X179940476Y-100997619D01*
X180273809Y-99897619D01*
X176857142Y-102747619D02*
X176857142Y-101647619D01*
X177428571Y-102747619D01*
X177428571Y-101647619D01*
X178476190Y-102747619D02*
X178142857Y-102223809D01*
X177904761Y-102747619D02*
X177904761Y-101647619D01*
X178285714Y-101647619D01*
X178380952Y-101700000D01*
X178428571Y-101752380D01*
X178476190Y-101857142D01*
X178476190Y-102014285D01*
X178428571Y-102119047D01*
X178380952Y-102171428D01*
X178285714Y-102223809D01*
X177904761Y-102223809D01*
X178857142Y-102695238D02*
X179000000Y-102747619D01*
X179238095Y-102747619D01*
X179333333Y-102695238D01*
X179380952Y-102642857D01*
X179428571Y-102538095D01*
X179428571Y-102433333D01*
X179380952Y-102328571D01*
X179333333Y-102276190D01*
X179238095Y-102223809D01*
X179047619Y-102171428D01*
X178952380Y-102119047D01*
X178904761Y-102066666D01*
X178857142Y-101961904D01*
X178857142Y-101857142D01*
X178904761Y-101752380D01*
X178952380Y-101700000D01*
X179047619Y-101647619D01*
X179285714Y-101647619D01*
X179428571Y-101700000D01*
X179714285Y-101647619D02*
X180285714Y-101647619D01*
X180000000Y-102747619D02*
X180000000Y-101647619D01*
X177738095Y-103450000D02*
X177642857Y-103397619D01*
X177500000Y-103397619D01*
X177357142Y-103450000D01*
X177261904Y-103554761D01*
X177214285Y-103659523D01*
X177166666Y-103869047D01*
X177166666Y-104026190D01*
X177214285Y-104235714D01*
X177261904Y-104340476D01*
X177357142Y-104445238D01*
X177500000Y-104497619D01*
X177595238Y-104497619D01*
X177738095Y-104445238D01*
X177785714Y-104392857D01*
X177785714Y-104026190D01*
X177595238Y-104026190D01*
X178214285Y-104497619D02*
X178214285Y-103397619D01*
X178785714Y-104497619D01*
X178785714Y-103397619D01*
X179261904Y-104497619D02*
X179261904Y-103397619D01*
X179500000Y-103397619D01*
X179642857Y-103450000D01*
X179738095Y-103554761D01*
X179785714Y-103659523D01*
X179833333Y-103869047D01*
X179833333Y-104026190D01*
X179785714Y-104235714D01*
X179738095Y-104340476D01*
X179642857Y-104445238D01*
X179500000Y-104497619D01*
X179261904Y-104497619D01*
D10*
X202452380Y-104619047D02*
X203166666Y-104619047D01*
X203309523Y-104666666D01*
X203404761Y-104761904D01*
X203452380Y-104904761D01*
X203452380Y-105000000D01*
X203452380Y-103666666D02*
X203452380Y-104142857D01*
X202452380Y-104142857D01*
X203357142Y-102761904D02*
X203404761Y-102809523D01*
X203452380Y-102952380D01*
X203452380Y-103047619D01*
X203404761Y-103190476D01*
X203309523Y-103285714D01*
X203214285Y-103333333D01*
X203023809Y-103380952D01*
X202880952Y-103380952D01*
X202690476Y-103333333D01*
X202595238Y-103285714D01*
X202500000Y-103190476D01*
X202452380Y-103047619D01*
X202452380Y-102952380D01*
X202500000Y-102809523D01*
X202547619Y-102761904D01*
X202452380Y-102047619D02*
X203166666Y-102047619D01*
X203309523Y-102095238D01*
X203404761Y-102190476D01*
X203452380Y-102333333D01*
X203452380Y-102428571D01*
X203452380Y-101095238D02*
X203452380Y-101571428D01*
X202452380Y-101571428D01*
X203357142Y-100190476D02*
X203404761Y-100238095D01*
X203452380Y-100380952D01*
X203452380Y-100476190D01*
X203404761Y-100619047D01*
X203309523Y-100714285D01*
X203214285Y-100761904D01*
X203023809Y-100809523D01*
X202880952Y-100809523D01*
X202690476Y-100761904D01*
X202595238Y-100714285D01*
X202500000Y-100619047D01*
X202452380Y-100476190D01*
X202452380Y-100380952D01*
X202500000Y-100238095D01*
X202547619Y-100190476D01*
X202452380Y-99476190D02*
X203166666Y-99476190D01*
X203309523Y-99523809D01*
X203404761Y-99619047D01*
X203452380Y-99761904D01*
X203452380Y-99857142D01*
X203452380Y-98523809D02*
X203452380Y-99000000D01*
X202452380Y-99000000D01*
X203357142Y-97619047D02*
X203404761Y-97666666D01*
X203452380Y-97809523D01*
X203452380Y-97904761D01*
X203404761Y-98047619D01*
X203309523Y-98142857D01*
X203214285Y-98190476D01*
X203023809Y-98238095D01*
X202880952Y-98238095D01*
X202690476Y-98190476D01*
X202595238Y-98142857D01*
X202500000Y-98047619D01*
X202452380Y-97904761D01*
X202452380Y-97809523D01*
X202500000Y-97666666D01*
X202547619Y-97619047D01*
X202452380Y-96904761D02*
X203166666Y-96904761D01*
X203309523Y-96952380D01*
X203404761Y-97047619D01*
X203452380Y-97190476D01*
X203452380Y-97285714D01*
X203452380Y-95952380D02*
X203452380Y-96428571D01*
X202452380Y-96428571D01*
X203357142Y-95047619D02*
X203404761Y-95095238D01*
X203452380Y-95238095D01*
X203452380Y-95333333D01*
X203404761Y-95476190D01*
X203309523Y-95571428D01*
X203214285Y-95619047D01*
X203023809Y-95666666D01*
X202880952Y-95666666D01*
X202690476Y-95619047D01*
X202595238Y-95571428D01*
X202500000Y-95476190D01*
X202452380Y-95333333D01*
X202452380Y-95238095D01*
X202500000Y-95095238D01*
X202547619Y-95047619D01*
D12*
%TO.C,G\u002A\u002A\u002A*%
G36*
X183652127Y-105309660D02*
G01*
X184100856Y-105408810D01*
X184542525Y-105567333D01*
X184753023Y-105665609D01*
X185091404Y-105865700D01*
X185422143Y-106118042D01*
X185736347Y-106413177D01*
X186025122Y-106741646D01*
X186279572Y-107093991D01*
X186490803Y-107460751D01*
X186543050Y-107569206D01*
X186624702Y-107769610D01*
X186705510Y-108008888D01*
X186778637Y-108264533D01*
X186837248Y-108514036D01*
X186850368Y-108581027D01*
X186875054Y-108706601D01*
X186897545Y-108808062D01*
X186914517Y-108870986D01*
X186920159Y-108883801D01*
X186954964Y-108896984D01*
X187030139Y-108914023D01*
X187129585Y-108931284D01*
X187132139Y-108931671D01*
X187567968Y-109025950D01*
X187988510Y-109173177D01*
X188385424Y-109369678D01*
X188750370Y-109611780D01*
X188843374Y-109685337D01*
X188927853Y-109760056D01*
X188972398Y-109816256D01*
X188986078Y-109866766D01*
X188985202Y-109885944D01*
X188976604Y-109928823D01*
X188953262Y-109951793D01*
X188901138Y-109960803D01*
X188806215Y-109961802D01*
X188717332Y-109959639D01*
X188586419Y-109954643D01*
X188428246Y-109947461D01*
X188257580Y-109938738D01*
X188176660Y-109934257D01*
X187717765Y-109908153D01*
X187670873Y-109985807D01*
X187613689Y-110057554D01*
X187518779Y-110151888D01*
X187397162Y-110259577D01*
X187259859Y-110371390D01*
X187117889Y-110478095D01*
X186982271Y-110570461D01*
X186945930Y-110593110D01*
X186712789Y-110734812D01*
X186586195Y-111043439D01*
X186515173Y-111201221D01*
X186423741Y-111382652D01*
X186325378Y-111561804D01*
X186258853Y-111673191D01*
X186184798Y-111795894D01*
X186126977Y-111899969D01*
X186090699Y-111975218D01*
X186081268Y-112011443D01*
X186082189Y-112012680D01*
X186479026Y-112293047D01*
X186871230Y-112523015D01*
X187273508Y-112710234D01*
X187700567Y-112862355D01*
X187737113Y-112873499D01*
X187849407Y-112905593D01*
X187947645Y-112928130D01*
X188046373Y-112942746D01*
X188160133Y-112951082D01*
X188303470Y-112954774D01*
X188464893Y-112955485D01*
X188668057Y-112953586D01*
X188827840Y-112946258D01*
X188957694Y-112930768D01*
X189071072Y-112904381D01*
X189181425Y-112864363D01*
X189302205Y-112807982D01*
X189375084Y-112770511D01*
X189520535Y-112677761D01*
X189643237Y-112560239D01*
X189748153Y-112409938D01*
X189840247Y-112218853D01*
X189924482Y-111978977D01*
X189974581Y-111803575D01*
X190015901Y-111622940D01*
X190044540Y-111432239D01*
X190060712Y-111222648D01*
X190064633Y-110985342D01*
X190056518Y-110711496D01*
X190036583Y-110392285D01*
X190015346Y-110132990D01*
X189988159Y-109771879D01*
X189970778Y-109422906D01*
X189963145Y-109094187D01*
X189965206Y-108793836D01*
X189976903Y-108529966D01*
X189998180Y-108310693D01*
X190028981Y-108144130D01*
X190029155Y-108143458D01*
X190105926Y-107892844D01*
X190192108Y-107693774D01*
X190286041Y-107548353D01*
X190386066Y-107458681D01*
X190490522Y-107426863D01*
X190579705Y-107446035D01*
X190640905Y-107483671D01*
X190685306Y-107539902D01*
X190716601Y-107625222D01*
X190738483Y-107750120D01*
X190754643Y-107925088D01*
X190756209Y-107947538D01*
X190769510Y-108109549D01*
X190786302Y-108265546D01*
X190804944Y-108404730D01*
X190823796Y-108516302D01*
X190841216Y-108589461D01*
X190855564Y-108613408D01*
X190857201Y-108612255D01*
X190867973Y-108577688D01*
X190885531Y-108497949D01*
X190906519Y-108388601D01*
X190911788Y-108359146D01*
X191015060Y-107921444D01*
X191166898Y-107490254D01*
X191360366Y-107083892D01*
X191458374Y-106915282D01*
X191578584Y-106742514D01*
X191723345Y-106568699D01*
X191882513Y-106403311D01*
X192045946Y-106255820D01*
X192203499Y-106135699D01*
X192345029Y-106052419D01*
X192410318Y-106026381D01*
X192509093Y-106021098D01*
X192599567Y-106058730D01*
X192662895Y-106129275D01*
X192677287Y-106168089D01*
X192684587Y-106206964D01*
X192686872Y-106249133D01*
X192682587Y-106303391D01*
X192670176Y-106378533D01*
X192648083Y-106483353D01*
X192614753Y-106626646D01*
X192568630Y-106817207D01*
X192546447Y-106907837D01*
X192495696Y-107118058D01*
X192447081Y-107325354D01*
X192402489Y-107521065D01*
X192363808Y-107696531D01*
X192332928Y-107843091D01*
X192311738Y-107952086D01*
X192302124Y-108014856D01*
X192302474Y-108026559D01*
X192321376Y-108008339D01*
X192362507Y-107953323D01*
X192397002Y-107903108D01*
X192524859Y-107733898D01*
X192690740Y-107548671D01*
X192882483Y-107360478D01*
X193001624Y-107254359D01*
X193197865Y-107098155D01*
X193365141Y-106992067D01*
X193506312Y-106935047D01*
X193624239Y-106926049D01*
X193721780Y-106964027D01*
X193745113Y-106982305D01*
X193795628Y-107064050D01*
X193812952Y-107181946D01*
X193797320Y-107322199D01*
X193748969Y-107471015D01*
X193736297Y-107498714D01*
X193616301Y-107749669D01*
X193520370Y-107953007D01*
X193445594Y-108115458D01*
X193389065Y-108243753D01*
X193347875Y-108344621D01*
X193319116Y-108424792D01*
X193299880Y-108490995D01*
X193291429Y-108528129D01*
X193281074Y-108604740D01*
X193269809Y-108732799D01*
X193258272Y-108902051D01*
X193247099Y-109102241D01*
X193236927Y-109323115D01*
X193229152Y-109531166D01*
X193210481Y-110002743D01*
X193186930Y-110422726D01*
X193157377Y-110801112D01*
X193120699Y-111147899D01*
X193075775Y-111473082D01*
X193021482Y-111786659D01*
X192956700Y-112098626D01*
X192926076Y-112231652D01*
X192776198Y-112798630D01*
X192605495Y-113315258D01*
X192410455Y-113789984D01*
X192187566Y-114231256D01*
X191933315Y-114647522D01*
X191902954Y-114692630D01*
X191706269Y-114955511D01*
X191502001Y-115171468D01*
X191281767Y-115345589D01*
X191037189Y-115482962D01*
X190759885Y-115588676D01*
X190441475Y-115667820D01*
X190239190Y-115702871D01*
X189983290Y-115734164D01*
X189738410Y-115746967D01*
X189484839Y-115741333D01*
X189202870Y-115717316D01*
X189104871Y-115705934D01*
X188532345Y-115609678D01*
X187993505Y-115464647D01*
X187486344Y-115270132D01*
X187008855Y-115025420D01*
X186775571Y-114880702D01*
X186687022Y-114824746D01*
X186619032Y-114786274D01*
X186584303Y-114772377D01*
X186582612Y-114772978D01*
X186581539Y-114807561D01*
X186591760Y-114880868D01*
X186599299Y-114920327D01*
X186625712Y-115086240D01*
X186647897Y-115299674D01*
X186665116Y-115546541D01*
X186676628Y-115812751D01*
X186681694Y-116084218D01*
X186679575Y-116346851D01*
X186677703Y-116413548D01*
X186653670Y-116843483D01*
X186608867Y-117236050D01*
X186539484Y-117610189D01*
X186441708Y-117984838D01*
X186311728Y-118378938D01*
X186246913Y-118554036D01*
X186109884Y-118867053D01*
X185930839Y-119201207D01*
X185716661Y-119546091D01*
X185474232Y-119891300D01*
X185210434Y-120226426D01*
X184934390Y-120538681D01*
X184756070Y-120726081D01*
X184604763Y-120879041D01*
X184468690Y-121008266D01*
X184336072Y-121124464D01*
X184195133Y-121238344D01*
X184034093Y-121360614D01*
X184013494Y-121375888D01*
X183742243Y-121568251D01*
X183482142Y-121733453D01*
X183210539Y-121885034D01*
X182921497Y-122028625D01*
X182583251Y-122189013D01*
X182534580Y-122391999D01*
X182464435Y-122613320D01*
X182372974Y-122784987D01*
X182307805Y-122862950D01*
X182283890Y-122889701D01*
X182266890Y-122921715D01*
X182256625Y-122967443D01*
X182252912Y-123035340D01*
X182255571Y-123133859D01*
X182264421Y-123271452D01*
X182279280Y-123456573D01*
X182291918Y-123604556D01*
X182310471Y-123822265D01*
X182331549Y-124073753D01*
X182352848Y-124331298D01*
X182372062Y-124567174D01*
X182376319Y-124620109D01*
X182391388Y-124793501D01*
X182406790Y-124945094D01*
X182421270Y-125064326D01*
X182433579Y-125140633D01*
X182440728Y-125163436D01*
X182474272Y-125176090D01*
X182554840Y-125198939D01*
X182673734Y-125229746D01*
X182822257Y-125266271D01*
X182991712Y-125306278D01*
X183032195Y-125315614D01*
X183249491Y-125365953D01*
X183500653Y-125424868D01*
X183764079Y-125487249D01*
X184018166Y-125547981D01*
X184212598Y-125594960D01*
X184408819Y-125642527D01*
X184602316Y-125689143D01*
X184780575Y-125731814D01*
X184931082Y-125767549D01*
X185041323Y-125793353D01*
X185058707Y-125797349D01*
X185203845Y-125836254D01*
X185296463Y-125875973D01*
X185340894Y-125919585D01*
X185341468Y-125970169D01*
X185331421Y-125991287D01*
X185313235Y-126010296D01*
X185278457Y-126024801D01*
X185219169Y-126035791D01*
X185127455Y-126044256D01*
X184995398Y-126051183D01*
X184815081Y-126057563D01*
X184796327Y-126058141D01*
X184291072Y-126073572D01*
X184465161Y-126224991D01*
X184571757Y-126330800D01*
X184631150Y-126420316D01*
X184642038Y-126490273D01*
X184603121Y-126537409D01*
X184591799Y-126542776D01*
X184545860Y-126543796D01*
X184458557Y-126531162D01*
X184343468Y-126507231D01*
X184243632Y-126482366D01*
X184121416Y-126450587D01*
X184021775Y-126426198D01*
X183956237Y-126411923D01*
X183936008Y-126409694D01*
X183947412Y-126437084D01*
X183983621Y-126505597D01*
X184038740Y-126604390D01*
X184095871Y-126703755D01*
X184179571Y-126855329D01*
X184228841Y-126966116D01*
X184245250Y-127043124D01*
X184230366Y-127093361D01*
X184189550Y-127122308D01*
X184145917Y-127115899D01*
X184060045Y-127082039D01*
X183939070Y-127023933D01*
X183790129Y-126944786D01*
X183772812Y-126935193D01*
X183637414Y-126859946D01*
X183464459Y-126763897D01*
X183267052Y-126654318D01*
X183058297Y-126538483D01*
X182851299Y-126423665D01*
X182761982Y-126374138D01*
X182476276Y-126215325D01*
X182238372Y-126082149D01*
X182045130Y-125972781D01*
X181893408Y-125885392D01*
X181780064Y-125818154D01*
X181701956Y-125769238D01*
X181655944Y-125736813D01*
X181639665Y-125720757D01*
X181634450Y-125699904D01*
X181627746Y-125650812D01*
X181619232Y-125569578D01*
X181608590Y-125452296D01*
X181595500Y-125295061D01*
X181579642Y-125093969D01*
X181560697Y-124845114D01*
X181538344Y-124544593D01*
X181512264Y-124188499D01*
X181496749Y-123974909D01*
X181479027Y-123734323D01*
X181464298Y-123548319D01*
X181451474Y-123409911D01*
X181447710Y-123379246D01*
X181679177Y-123379246D01*
X181686272Y-123500363D01*
X181697912Y-123644405D01*
X181710014Y-123793559D01*
X181725066Y-123988904D01*
X181741926Y-124215066D01*
X181759456Y-124456669D01*
X181776516Y-124698338D01*
X181782734Y-124788407D01*
X181798241Y-124998706D01*
X181814382Y-125189563D01*
X181830231Y-125352003D01*
X181844862Y-125477049D01*
X181857347Y-125555726D01*
X181864281Y-125578360D01*
X181894916Y-125600314D01*
X181969435Y-125646307D01*
X182080976Y-125712473D01*
X182222680Y-125794949D01*
X182387687Y-125889867D01*
X182569137Y-125993364D01*
X182760172Y-126101575D01*
X182953930Y-126210633D01*
X183143552Y-126316676D01*
X183322178Y-126415836D01*
X183482948Y-126504250D01*
X183619003Y-126578052D01*
X183723483Y-126633378D01*
X183789528Y-126666361D01*
X183808957Y-126674052D01*
X183805134Y-126654257D01*
X183796353Y-126636816D01*
X183770315Y-126591272D01*
X183724645Y-126512571D01*
X183680901Y-126437691D01*
X183630501Y-126341851D01*
X183596365Y-126258155D01*
X183586842Y-126214525D01*
X183611702Y-126157693D01*
X183682909Y-126128423D01*
X183795401Y-126127845D01*
X183896710Y-126145280D01*
X183983517Y-126162736D01*
X184044538Y-126170686D01*
X184062957Y-126169072D01*
X184049429Y-126145868D01*
X184002487Y-126102814D01*
X183986688Y-126090269D01*
X183919244Y-126014385D01*
X183895695Y-125934079D01*
X183916496Y-125863524D01*
X183977939Y-125818369D01*
X184022046Y-125800220D01*
X184024814Y-125788273D01*
X183980520Y-125776651D01*
X183928163Y-125767248D01*
X183858181Y-125753259D01*
X183745020Y-125728552D01*
X183599314Y-125695635D01*
X183431699Y-125657014D01*
X183252811Y-125615196D01*
X183073284Y-125572688D01*
X182903753Y-125531997D01*
X182754854Y-125495630D01*
X182637222Y-125466094D01*
X182561493Y-125445896D01*
X182548656Y-125442070D01*
X182459038Y-125417859D01*
X182360955Y-125396618D01*
X182358561Y-125396180D01*
X182313209Y-125384862D01*
X182277376Y-125364448D01*
X182249124Y-125327565D01*
X182226515Y-125266843D01*
X182207612Y-125174912D01*
X182190478Y-125044400D01*
X182173176Y-124867936D01*
X182153766Y-124638150D01*
X182151281Y-124607594D01*
X182135798Y-124419817D01*
X182121147Y-124247602D01*
X182108363Y-124102681D01*
X182098478Y-123996785D01*
X182092849Y-123944046D01*
X182086037Y-123874876D01*
X182077254Y-123761736D01*
X182067801Y-123622278D01*
X182061490Y-123518597D01*
X182051811Y-123381869D01*
X182040534Y-123269611D01*
X182029206Y-123195102D01*
X182021144Y-123171601D01*
X181983733Y-123172426D01*
X181914318Y-123191125D01*
X181881425Y-123202886D01*
X181805130Y-123229919D01*
X181752873Y-123244449D01*
X181743290Y-123245316D01*
X181711287Y-123244693D01*
X181690633Y-123260649D01*
X181680280Y-123302421D01*
X181679177Y-123379246D01*
X181447710Y-123379246D01*
X181439469Y-123312116D01*
X181427193Y-123247947D01*
X181413560Y-123210422D01*
X181397481Y-123192553D01*
X181377868Y-123187358D01*
X181374075Y-123187232D01*
X181279645Y-123163155D01*
X181163439Y-123099862D01*
X181037918Y-123007435D01*
X180915543Y-122895953D01*
X180808774Y-122775498D01*
X180739974Y-122674246D01*
X180688131Y-122583227D01*
X180941601Y-122583227D01*
X180963769Y-122632580D01*
X181021844Y-122702566D01*
X181103179Y-122781653D01*
X181195132Y-122858306D01*
X181285056Y-122920993D01*
X181347619Y-122953568D01*
X181494522Y-122987498D01*
X181662410Y-122988243D01*
X181825344Y-122957503D01*
X181927384Y-122915536D01*
X182052730Y-122821304D01*
X182172738Y-122688402D01*
X182270115Y-122538506D01*
X182318889Y-122424828D01*
X182343457Y-122341050D01*
X182356279Y-122286084D01*
X182356580Y-122274926D01*
X182327973Y-122279158D01*
X182257003Y-122296713D01*
X182156118Y-122324396D01*
X182093561Y-122342438D01*
X181949698Y-122380885D01*
X181780738Y-122420223D01*
X181600393Y-122457862D01*
X181422375Y-122491214D01*
X181260396Y-122517690D01*
X181128167Y-122534701D01*
X181048264Y-122539787D01*
X180969603Y-122549642D01*
X180941735Y-122580076D01*
X180941601Y-122583227D01*
X180688131Y-122583227D01*
X180680970Y-122570656D01*
X180420188Y-122569617D01*
X180243949Y-122564916D01*
X180041014Y-122553186D01*
X179831977Y-122536124D01*
X179637431Y-122515422D01*
X179477968Y-122492777D01*
X179470126Y-122491422D01*
X179403880Y-122481041D01*
X179363127Y-122486530D01*
X179337057Y-122519464D01*
X179314861Y-122591417D01*
X179293697Y-122680314D01*
X179256820Y-122778870D01*
X179196782Y-122886495D01*
X179163773Y-122932787D01*
X179063284Y-123060171D01*
X179095028Y-124319970D01*
X179102333Y-124592882D01*
X179109945Y-124846353D01*
X179117603Y-125073793D01*
X179125048Y-125268609D01*
X179132021Y-125424209D01*
X179138263Y-125534002D01*
X179143513Y-125591397D01*
X179145329Y-125598263D01*
X179176918Y-125611018D01*
X179255790Y-125637005D01*
X179374190Y-125673840D01*
X179524363Y-125719143D01*
X179698555Y-125770529D01*
X179832307Y-125809328D01*
X180043497Y-125870395D01*
X180259066Y-125933124D01*
X180465496Y-125993554D01*
X180649270Y-126047722D01*
X180796871Y-126091668D01*
X180842049Y-126105283D01*
X181110532Y-126186670D01*
X181329149Y-126253449D01*
X181502812Y-126307654D01*
X181636436Y-126351319D01*
X181734934Y-126386476D01*
X181803220Y-126415162D01*
X181846207Y-126439408D01*
X181868809Y-126461249D01*
X181875939Y-126482719D01*
X181872512Y-126505852D01*
X181864859Y-126528647D01*
X181850334Y-126559475D01*
X181826283Y-126580195D01*
X181783520Y-126591951D01*
X181712858Y-126595884D01*
X181605110Y-126593136D01*
X181451091Y-126584848D01*
X181425140Y-126583300D01*
X181289215Y-126575980D01*
X181175324Y-126571423D01*
X181094687Y-126569965D01*
X181058525Y-126571941D01*
X181057803Y-126572327D01*
X181071863Y-126596708D01*
X181119046Y-126654750D01*
X181191555Y-126737234D01*
X181264018Y-126816185D01*
X181383962Y-126953814D01*
X181457165Y-127060613D01*
X181484736Y-127139135D01*
X181467782Y-127191934D01*
X181436027Y-127212610D01*
X181391550Y-127207993D01*
X181306924Y-127179423D01*
X181192715Y-127130903D01*
X181087595Y-127080634D01*
X180968710Y-127022141D01*
X180870410Y-126975508D01*
X180803111Y-126945556D01*
X180777302Y-126937001D01*
X180785147Y-126966286D01*
X180812390Y-127040143D01*
X180854629Y-127147082D01*
X180902084Y-127262733D01*
X180963230Y-127415500D01*
X180999414Y-127522240D01*
X181012951Y-127591091D01*
X181006448Y-127629700D01*
X180967604Y-127672865D01*
X180914282Y-127680149D01*
X180835538Y-127650494D01*
X180756719Y-127605528D01*
X180579694Y-127496497D01*
X180363627Y-127362698D01*
X180118624Y-127210443D01*
X179854790Y-127046047D01*
X179582232Y-126875822D01*
X179311056Y-126706082D01*
X179051368Y-126543140D01*
X178813273Y-126393309D01*
X178606879Y-126262902D01*
X178566573Y-126237347D01*
X178253695Y-126038819D01*
X178235737Y-125747569D01*
X178230646Y-125649230D01*
X178224107Y-125498300D01*
X178216455Y-125303883D01*
X178208028Y-125075085D01*
X178199159Y-124821008D01*
X178190185Y-124550758D01*
X178181751Y-124283504D01*
X178148777Y-123210075D01*
X178374449Y-123210075D01*
X178394489Y-123777668D01*
X178401462Y-123982140D01*
X178409506Y-124229457D01*
X178418031Y-124500768D01*
X178426448Y-124777219D01*
X178434167Y-125039957D01*
X178436246Y-125112851D01*
X178443888Y-125361016D01*
X178451416Y-125553811D01*
X178459324Y-125697587D01*
X178468106Y-125798697D01*
X178478256Y-125863493D01*
X178490269Y-125898325D01*
X178498046Y-125907146D01*
X178557238Y-125945706D01*
X178656271Y-126009263D01*
X178785766Y-126091871D01*
X178936341Y-126187584D01*
X179098615Y-126290456D01*
X179263207Y-126394541D01*
X179420736Y-126493893D01*
X179561821Y-126582567D01*
X179677082Y-126654615D01*
X179690089Y-126662705D01*
X179833428Y-126752122D01*
X179978744Y-126843356D01*
X180108629Y-126925443D01*
X180202072Y-126985099D01*
X180296533Y-127040666D01*
X180375928Y-127077832D01*
X180424996Y-127089620D01*
X180428752Y-127088785D01*
X180454450Y-127086288D01*
X180449873Y-127095784D01*
X180460897Y-127121108D01*
X180506710Y-127164388D01*
X180572453Y-127213442D01*
X180643271Y-127256086D01*
X180648754Y-127258877D01*
X180640271Y-127234220D01*
X180612721Y-127165567D01*
X180570977Y-127064914D01*
X180542091Y-126996380D01*
X180493036Y-126876444D01*
X180454818Y-126775051D01*
X180432838Y-126706939D01*
X180429619Y-126689503D01*
X180454324Y-126630582D01*
X180513863Y-126588889D01*
X180586369Y-126576648D01*
X180617952Y-126584230D01*
X180668170Y-126598496D01*
X180685610Y-126592691D01*
X180703257Y-126595969D01*
X180742497Y-126629101D01*
X180785955Y-126664401D01*
X180798058Y-126658863D01*
X180780889Y-126621584D01*
X180736532Y-126561663D01*
X180723619Y-126546670D01*
X180675112Y-126481980D01*
X180664983Y-126430865D01*
X180676896Y-126390668D01*
X180688893Y-126351448D01*
X180678157Y-126324196D01*
X180634400Y-126299976D01*
X180547333Y-126269852D01*
X180532224Y-126265013D01*
X180429948Y-126233399D01*
X180293312Y-126192575D01*
X180143053Y-126148690D01*
X180045633Y-126120790D01*
X179771621Y-126042680D01*
X179547567Y-125977725D01*
X179368256Y-125924042D01*
X179228472Y-125879745D01*
X179123003Y-125842951D01*
X179046631Y-125811775D01*
X178994144Y-125784334D01*
X178960325Y-125758741D01*
X178939961Y-125733114D01*
X178932745Y-125718651D01*
X178922395Y-125662639D01*
X178912716Y-125545127D01*
X178903719Y-125366335D01*
X178895411Y-125126485D01*
X178887802Y-124825798D01*
X178880901Y-124464494D01*
X178880208Y-124422418D01*
X178875701Y-124154597D01*
X178871232Y-123906775D01*
X178866943Y-123685576D01*
X178862976Y-123497624D01*
X178859473Y-123349543D01*
X178856576Y-123247956D01*
X178854426Y-123199487D01*
X178853951Y-123196297D01*
X178824824Y-123196950D01*
X178756508Y-123206042D01*
X178692638Y-123216602D01*
X178588629Y-123229228D01*
X178494475Y-123231200D01*
X178456110Y-123227013D01*
X178374449Y-123210075D01*
X178148777Y-123210075D01*
X178145724Y-123110689D01*
X178024554Y-123011579D01*
X177912388Y-122889933D01*
X177827689Y-122744596D01*
X177779294Y-122647006D01*
X177736548Y-122592088D01*
X177685374Y-122564618D01*
X177654030Y-122556782D01*
X177528804Y-122524958D01*
X177365987Y-122474383D01*
X177180358Y-122410414D01*
X176986695Y-122338412D01*
X176799774Y-122263734D01*
X176634375Y-122191739D01*
X176590403Y-122171101D01*
X176089108Y-121899393D01*
X175622666Y-121582676D01*
X175193826Y-121223458D01*
X174805333Y-120824247D01*
X174459935Y-120387550D01*
X174205132Y-119993621D01*
X174137614Y-119879564D01*
X174078110Y-119780862D01*
X174035595Y-119712326D01*
X174023719Y-119694293D01*
X174005483Y-119674843D01*
X173976805Y-119661988D01*
X173928879Y-119655321D01*
X173852903Y-119654434D01*
X173740073Y-119658921D01*
X173581586Y-119668376D01*
X173532083Y-119671581D01*
X173213136Y-119685248D01*
X172896572Y-119685348D01*
X172590661Y-119672694D01*
X172303672Y-119648101D01*
X172043873Y-119612381D01*
X171819533Y-119566349D01*
X171638923Y-119510819D01*
X171563822Y-119477849D01*
X171468723Y-119423733D01*
X171412883Y-119371749D01*
X171381303Y-119305480D01*
X171371060Y-119266839D01*
X171377841Y-119177518D01*
X171432637Y-119087539D01*
X171527040Y-119004110D01*
X171652642Y-118934440D01*
X171801034Y-118885740D01*
X171820397Y-118881561D01*
X171887421Y-118859832D01*
X171923113Y-118833609D01*
X171919853Y-118812398D01*
X171881465Y-118805407D01*
X171833022Y-118796063D01*
X171749894Y-118771699D01*
X171661029Y-118741452D01*
X171474325Y-118656533D01*
X171337319Y-118557694D01*
X171250748Y-118449604D01*
X171215350Y-118336927D01*
X171223286Y-118282806D01*
X171426091Y-118282806D01*
X171427081Y-118333738D01*
X171476089Y-118393396D01*
X171565806Y-118456140D01*
X171688924Y-118516329D01*
X171766875Y-118545836D01*
X171889921Y-118582121D01*
X172049333Y-118620454D01*
X172229650Y-118657996D01*
X172415408Y-118691909D01*
X172591145Y-118719357D01*
X172741399Y-118737502D01*
X172844199Y-118743539D01*
X172961348Y-118758476D01*
X173036010Y-118800852D01*
X173062757Y-118867551D01*
X173062766Y-118868982D01*
X173054940Y-118907875D01*
X173026672Y-118937502D01*
X172970770Y-118959719D01*
X172880046Y-118976383D01*
X172747312Y-118989351D01*
X172565378Y-119000481D01*
X172550784Y-119001230D01*
X172335028Y-119017174D01*
X172135608Y-119041331D01*
X171958736Y-119072068D01*
X171810625Y-119107750D01*
X171697485Y-119146746D01*
X171625532Y-119187422D01*
X171600975Y-119228145D01*
X171609010Y-119248810D01*
X171665524Y-119289924D01*
X171767499Y-119332377D01*
X171903689Y-119372637D01*
X172062844Y-119407172D01*
X172166797Y-119423973D01*
X172271379Y-119433702D01*
X172427700Y-119441212D01*
X172630648Y-119446454D01*
X172875110Y-119449376D01*
X173155974Y-119449929D01*
X173468127Y-119448062D01*
X173806457Y-119443725D01*
X173940957Y-119441416D01*
X174122284Y-119438092D01*
X174276872Y-119712898D01*
X174585864Y-120205818D01*
X174932338Y-120652525D01*
X175316464Y-121053151D01*
X175738409Y-121407828D01*
X176198343Y-121716687D01*
X176696433Y-121979859D01*
X177232849Y-122197477D01*
X177610971Y-122317068D01*
X177745778Y-122359009D01*
X177849520Y-122398808D01*
X177912559Y-122432489D01*
X177926494Y-122447205D01*
X177990683Y-122594778D01*
X178041596Y-122697974D01*
X178087840Y-122769392D01*
X178138027Y-122821629D01*
X178200766Y-122867284D01*
X178223374Y-122881612D01*
X178391259Y-122953055D01*
X178575050Y-122975464D01*
X178756298Y-122948085D01*
X178856051Y-122907497D01*
X178975308Y-122823564D01*
X179057797Y-122710781D01*
X179111634Y-122556515D01*
X179125657Y-122487872D01*
X179146390Y-122378994D01*
X179169882Y-122306352D01*
X179206344Y-122264828D01*
X179265985Y-122249303D01*
X179359015Y-122254659D01*
X179495644Y-122275779D01*
X179535343Y-122282503D01*
X179734306Y-122308220D01*
X179973065Y-122326230D01*
X180237198Y-122336531D01*
X180512281Y-122339126D01*
X180783890Y-122334012D01*
X181037604Y-122321191D01*
X181258997Y-122300662D01*
X181382475Y-122282522D01*
X181971724Y-122147216D01*
X182536923Y-121956215D01*
X183077016Y-121710284D01*
X183590948Y-121410186D01*
X184077662Y-121056684D01*
X184536104Y-120650542D01*
X184965217Y-120192524D01*
X185363947Y-119683393D01*
X185717562Y-119146589D01*
X185959560Y-118691320D01*
X186156404Y-118202663D01*
X186307855Y-117685110D01*
X186413673Y-117143154D01*
X186473617Y-116581287D01*
X186487449Y-116004003D01*
X186454928Y-115415794D01*
X186375815Y-114821153D01*
X186249870Y-114224573D01*
X186076854Y-113630546D01*
X186020622Y-113467200D01*
X185976532Y-113350406D01*
X185920386Y-113211991D01*
X185856915Y-113062441D01*
X185790846Y-112912244D01*
X185726909Y-112771887D01*
X185669832Y-112651855D01*
X185624343Y-112562636D01*
X185595173Y-112514716D01*
X185588730Y-112509417D01*
X185559578Y-112526437D01*
X185496200Y-112571938D01*
X185410027Y-112637575D01*
X185368531Y-112670133D01*
X185229741Y-112771187D01*
X185058598Y-112882647D01*
X184872635Y-112994193D01*
X184689388Y-113095504D01*
X184526392Y-113176261D01*
X184459864Y-113204946D01*
X184376942Y-113235691D01*
X184328168Y-113243135D01*
X184295248Y-113227896D01*
X184278203Y-113211082D01*
X184247182Y-113148811D01*
X184271228Y-113087827D01*
X184351050Y-113027036D01*
X184418868Y-112993337D01*
X184833813Y-112777363D01*
X185218772Y-112512305D01*
X185408814Y-112344005D01*
X185745644Y-112344005D01*
X185918303Y-112700693D01*
X186035410Y-112960261D01*
X186153011Y-113252602D01*
X186263407Y-113556513D01*
X186358898Y-113850790D01*
X186431786Y-114114229D01*
X186432227Y-114116031D01*
X186466193Y-114241284D01*
X186501195Y-114347941D01*
X186531213Y-114418292D01*
X186539258Y-114430850D01*
X186598436Y-114487523D01*
X186697927Y-114564147D01*
X186826925Y-114653587D01*
X186974624Y-114748711D01*
X187130219Y-114842385D01*
X187282904Y-114927476D01*
X187324543Y-114949244D01*
X187771332Y-115151575D01*
X188239572Y-115312526D01*
X188718713Y-115429997D01*
X189198207Y-115501886D01*
X189667502Y-115526090D01*
X190100392Y-115502315D01*
X190472284Y-115440699D01*
X190801401Y-115344014D01*
X191092914Y-115210412D01*
X191310093Y-115070106D01*
X191420118Y-114969682D01*
X191547306Y-114822545D01*
X191685281Y-114638175D01*
X191827672Y-114426054D01*
X191968104Y-114195663D01*
X192100205Y-113956484D01*
X192214636Y-113724441D01*
X192389255Y-113314049D01*
X192539126Y-112890832D01*
X192667505Y-112443266D01*
X192777646Y-111959826D01*
X192872807Y-111428987D01*
X192884837Y-111352066D01*
X192916828Y-111134893D01*
X192943209Y-110931893D01*
X192964876Y-110731644D01*
X192982726Y-110522725D01*
X192997654Y-110293713D01*
X193010558Y-110033189D01*
X193022334Y-109729731D01*
X193029752Y-109505817D01*
X193041068Y-109189125D01*
X193053288Y-108930657D01*
X193066651Y-108726918D01*
X193081396Y-108574411D01*
X193097759Y-108469639D01*
X193101408Y-108453440D01*
X193152020Y-108288244D01*
X193235437Y-108075680D01*
X193351993Y-107814953D01*
X193484481Y-107540522D01*
X193559493Y-107374786D01*
X193597023Y-107255351D01*
X193596967Y-107182140D01*
X193559219Y-107155072D01*
X193483676Y-107174069D01*
X193370232Y-107239051D01*
X193225360Y-107344788D01*
X192915152Y-107621204D01*
X192637105Y-107942046D01*
X192396655Y-108295385D01*
X192317611Y-108422275D01*
X192247499Y-108529104D01*
X192193170Y-108605835D01*
X192161477Y-108642427D01*
X192158732Y-108643968D01*
X192115140Y-108632740D01*
X192081100Y-108605096D01*
X192055943Y-108542316D01*
X192049460Y-108428046D01*
X192061806Y-108261266D01*
X192093133Y-108040959D01*
X192143594Y-107766107D01*
X192213343Y-107435691D01*
X192302531Y-107048693D01*
X192335491Y-106911543D01*
X192380637Y-106721468D01*
X192419118Y-106551922D01*
X192449061Y-106411805D01*
X192468593Y-106310018D01*
X192475841Y-106255460D01*
X192474948Y-106248921D01*
X192436467Y-106248232D01*
X192365091Y-106283740D01*
X192269352Y-106349336D01*
X192157784Y-106438915D01*
X192038917Y-106546371D01*
X191983935Y-106600326D01*
X191809148Y-106795618D01*
X191642292Y-107017109D01*
X191498304Y-107243730D01*
X191415075Y-107402733D01*
X191323722Y-107629261D01*
X191237339Y-107901248D01*
X191159807Y-108202439D01*
X191095008Y-108516578D01*
X191046822Y-108827410D01*
X191024809Y-109037363D01*
X191009188Y-109186393D01*
X190988484Y-109283360D01*
X190958812Y-109337917D01*
X190916286Y-109359714D01*
X190894326Y-109361422D01*
X190860947Y-109354965D01*
X190832722Y-109329501D01*
X190805597Y-109275887D01*
X190775516Y-109184981D01*
X190738424Y-109047640D01*
X190716357Y-108960207D01*
X190656905Y-108699650D01*
X190609020Y-108444971D01*
X190575079Y-108211240D01*
X190557458Y-108013527D01*
X190555487Y-107940219D01*
X190550736Y-107798689D01*
X190535263Y-107710877D01*
X190507237Y-107669532D01*
X190485744Y-107663973D01*
X190431026Y-107693025D01*
X190372142Y-107780978D01*
X190308310Y-107929032D01*
X190302387Y-107945096D01*
X190229195Y-108208737D01*
X190181855Y-108527342D01*
X190160367Y-108900887D01*
X190164733Y-109329353D01*
X190194954Y-109812717D01*
X190204370Y-109918883D01*
X190221160Y-110135544D01*
X190235435Y-110387740D01*
X190246013Y-110649300D01*
X190251714Y-110894049D01*
X190252364Y-110981713D01*
X190248673Y-111268332D01*
X190234938Y-111508106D01*
X190208693Y-111715368D01*
X190167474Y-111904447D01*
X190108818Y-112089676D01*
X190030259Y-112285384D01*
X190026863Y-112293187D01*
X189926162Y-112504201D01*
X189826094Y-112666813D01*
X189716498Y-112793227D01*
X189587210Y-112895645D01*
X189465671Y-112966978D01*
X189274514Y-113058113D01*
X189092094Y-113122288D01*
X188903482Y-113162391D01*
X188693747Y-113181310D01*
X188447958Y-113181929D01*
X188368487Y-113179127D01*
X188143783Y-113165380D01*
X187947731Y-113142012D01*
X187762966Y-113105116D01*
X187572122Y-113050784D01*
X187357836Y-112975108D01*
X187215390Y-112919669D01*
X186848456Y-112753160D01*
X186477876Y-112547185D01*
X186158060Y-112336707D01*
X185913455Y-112161921D01*
X185829550Y-112252963D01*
X185745644Y-112344005D01*
X185408814Y-112344005D01*
X185568980Y-112202163D01*
X185879671Y-111850936D01*
X186035098Y-111637088D01*
X186109438Y-111520564D01*
X186186877Y-111388414D01*
X186261995Y-111251318D01*
X186329377Y-111119953D01*
X186383603Y-111004998D01*
X186419258Y-110917132D01*
X186430924Y-110867033D01*
X186428871Y-110860894D01*
X186396867Y-110861442D01*
X186321260Y-110875387D01*
X186213441Y-110900322D01*
X186088099Y-110932936D01*
X185813147Y-110999343D01*
X185541249Y-111045964D01*
X185258071Y-111074191D01*
X184949279Y-111085413D01*
X184600537Y-111081022D01*
X184571840Y-111080084D01*
X184227532Y-111062819D01*
X183930565Y-111036165D01*
X183683130Y-111000449D01*
X183487419Y-110955997D01*
X183345625Y-110903135D01*
X183330851Y-110895436D01*
X183207230Y-110797097D01*
X183123025Y-110664569D01*
X183085013Y-110511105D01*
X183086276Y-110444299D01*
X183310697Y-110444299D01*
X183315236Y-110525903D01*
X183317540Y-110538702D01*
X183342978Y-110604039D01*
X183394767Y-110655795D01*
X183480717Y-110697908D01*
X183608637Y-110734320D01*
X183767478Y-110765712D01*
X184114315Y-110819695D01*
X184424454Y-110852775D01*
X184714429Y-110865818D01*
X185000773Y-110859692D01*
X185229691Y-110842408D01*
X185648890Y-110784841D01*
X186043939Y-110696087D01*
X186406977Y-110578556D01*
X186730144Y-110434655D01*
X186921562Y-110323971D01*
X187001597Y-110267317D01*
X187054709Y-110219810D01*
X187069447Y-110191700D01*
X187069412Y-110191638D01*
X187075160Y-110175839D01*
X187091020Y-110179818D01*
X187131562Y-110169424D01*
X187195336Y-110126246D01*
X187239881Y-110086877D01*
X187307075Y-110025818D01*
X187358103Y-109986583D01*
X187374988Y-109978676D01*
X187397840Y-109955308D01*
X187398264Y-109949825D01*
X187371262Y-109939319D01*
X187295611Y-109933811D01*
X187179345Y-109933059D01*
X187030496Y-109936822D01*
X186857097Y-109944859D01*
X186667180Y-109956928D01*
X186468780Y-109972787D01*
X186388522Y-109980169D01*
X186082077Y-110015256D01*
X185756639Y-110062584D01*
X185441231Y-110117676D01*
X185265005Y-110153431D01*
X185149861Y-110178064D01*
X185046926Y-110199621D01*
X184977139Y-110213721D01*
X184973602Y-110214398D01*
X184916019Y-110228544D01*
X184817813Y-110255915D01*
X184692985Y-110292503D01*
X184562314Y-110332199D01*
X184389260Y-110381921D01*
X184262831Y-110408244D01*
X184176887Y-110410838D01*
X184125288Y-110389373D01*
X184101894Y-110343518D01*
X184098824Y-110307277D01*
X184112814Y-110235018D01*
X184161408Y-110184326D01*
X184254541Y-110146150D01*
X184284826Y-110137791D01*
X184361439Y-110116882D01*
X184474477Y-110084838D01*
X184605522Y-110046914D01*
X184679489Y-110025189D01*
X184806597Y-109988414D01*
X184920180Y-109956943D01*
X185004469Y-109935075D01*
X185035032Y-109928238D01*
X185100054Y-109915252D01*
X185199077Y-109894465D01*
X185307671Y-109871028D01*
X185552973Y-109820881D01*
X185791274Y-109780182D01*
X186032258Y-109748102D01*
X186285604Y-109723810D01*
X186560994Y-109706479D01*
X186868111Y-109695279D01*
X187216635Y-109689381D01*
X187444217Y-109688056D01*
X187719405Y-109687460D01*
X187941158Y-109686516D01*
X188112923Y-109684145D01*
X188238149Y-109679271D01*
X188320283Y-109670815D01*
X188362772Y-109657699D01*
X188369066Y-109638845D01*
X188342610Y-109613174D01*
X188286854Y-109579610D01*
X188205244Y-109537074D01*
X188101229Y-109484488D01*
X188098963Y-109483336D01*
X187741747Y-109331698D01*
X187353539Y-109224981D01*
X186930797Y-109162410D01*
X186544961Y-109143386D01*
X186315842Y-109146855D01*
X186079210Y-109160438D01*
X185847601Y-109182649D01*
X185633556Y-109212003D01*
X185449612Y-109247014D01*
X185308308Y-109286198D01*
X185293449Y-109291625D01*
X185233985Y-109307623D01*
X185169337Y-109319309D01*
X185094469Y-109336849D01*
X184987615Y-109371067D01*
X184858219Y-109417960D01*
X184715725Y-109473525D01*
X184569579Y-109533760D01*
X184429224Y-109594662D01*
X184304105Y-109652227D01*
X184203667Y-109702452D01*
X184137353Y-109741335D01*
X184114608Y-109764874D01*
X184115051Y-109766157D01*
X184108938Y-109782083D01*
X184093190Y-109778522D01*
X184053471Y-109785183D01*
X183983635Y-109815619D01*
X183896617Y-109861986D01*
X183805356Y-109916438D01*
X183722787Y-109971132D01*
X183661847Y-110018222D01*
X183635472Y-110049864D01*
X183636470Y-110055476D01*
X183637310Y-110066503D01*
X183621814Y-110058568D01*
X183583801Y-110061878D01*
X183529117Y-110092416D01*
X183475124Y-110136286D01*
X183439183Y-110179593D01*
X183436721Y-110206713D01*
X183428978Y-110222296D01*
X183403657Y-110225577D01*
X183367434Y-110242217D01*
X183370147Y-110273474D01*
X183372964Y-110305878D01*
X183362003Y-110304550D01*
X183337675Y-110314698D01*
X183319375Y-110367589D01*
X183310697Y-110444299D01*
X183086276Y-110444299D01*
X183086775Y-110417937D01*
X183123264Y-110256258D01*
X183195604Y-110111707D01*
X183309333Y-109977272D01*
X183469989Y-109845943D01*
X183612058Y-109752884D01*
X184065043Y-109501964D01*
X184533509Y-109290798D01*
X185008598Y-109122127D01*
X185481451Y-108998693D01*
X185943209Y-108923238D01*
X186372638Y-108898481D01*
X186509707Y-108897968D01*
X186599744Y-108894975D01*
X186652604Y-108887325D01*
X186678140Y-108872838D01*
X186686208Y-108849337D01*
X186686757Y-108829040D01*
X186678309Y-108740300D01*
X186655997Y-108617928D01*
X186623134Y-108473452D01*
X186583035Y-108318398D01*
X186539011Y-108164294D01*
X186494377Y-108022667D01*
X186452446Y-107905045D01*
X186416531Y-107822954D01*
X186389945Y-107787921D01*
X186387363Y-107787424D01*
X186334250Y-107813539D01*
X186301578Y-107873263D01*
X186303287Y-107933629D01*
X186347302Y-108085515D01*
X186350748Y-108214982D01*
X186317814Y-108333727D01*
X186238271Y-108463154D01*
X186130311Y-108549033D01*
X186005865Y-108589275D01*
X185876865Y-108581788D01*
X185755241Y-108524480D01*
X185675113Y-108446359D01*
X185628014Y-108396096D01*
X185584776Y-108389581D01*
X185538956Y-108408445D01*
X185476947Y-108430385D01*
X185434452Y-108414754D01*
X185417470Y-108398161D01*
X185387579Y-108331843D01*
X185390824Y-108292384D01*
X185419211Y-108257439D01*
X185487306Y-108195044D01*
X185587308Y-108111707D01*
X185711419Y-108013931D01*
X185848240Y-107910875D01*
X185986851Y-107806304D01*
X186107501Y-107710746D01*
X186202795Y-107630434D01*
X186265335Y-107571601D01*
X186287727Y-107540522D01*
X186270857Y-107488650D01*
X186224910Y-107399855D01*
X186156814Y-107285008D01*
X186073494Y-107154976D01*
X185981877Y-107020631D01*
X185888889Y-106892840D01*
X185815332Y-106799179D01*
X185495042Y-106454760D01*
X185143010Y-106160064D01*
X184763265Y-105916821D01*
X184359839Y-105726759D01*
X183936762Y-105591608D01*
X183498064Y-105513097D01*
X183047777Y-105492957D01*
X182803376Y-105506762D01*
X182372424Y-105576577D01*
X181953872Y-105703699D01*
X181552860Y-105884495D01*
X181174528Y-106115333D01*
X180824019Y-106392581D01*
X180506471Y-106712605D01*
X180227025Y-107071775D01*
X179990823Y-107466458D01*
X179968816Y-107509660D01*
X179783052Y-107943598D01*
X179648727Y-108397692D01*
X179566268Y-108865324D01*
X179536102Y-109339876D01*
X179558659Y-109814730D01*
X179634365Y-110283268D01*
X179760632Y-110730210D01*
X179848662Y-110960842D01*
X179948992Y-111185551D01*
X180051354Y-111382066D01*
X180093960Y-111453180D01*
X180151276Y-111565266D01*
X180167855Y-111651533D01*
X180143825Y-111705869D01*
X180088298Y-111722418D01*
X180037405Y-111708291D01*
X179985892Y-111658865D01*
X179922811Y-111563576D01*
X179921627Y-111561585D01*
X179826064Y-111400752D01*
X179679857Y-111480750D01*
X179556289Y-111550608D01*
X179431206Y-111625156D01*
X179314124Y-111698236D01*
X179214559Y-111763690D01*
X179142025Y-111815363D01*
X179106039Y-111847097D01*
X179104269Y-111853194D01*
X179133393Y-111871602D01*
X179204552Y-111912370D01*
X179308793Y-111970488D01*
X179437164Y-112040944D01*
X179525238Y-112088786D01*
X179688234Y-112178868D01*
X179804743Y-112248105D01*
X179880408Y-112300361D01*
X179920871Y-112339498D01*
X179931859Y-112367171D01*
X179909699Y-112431502D01*
X179883978Y-112458304D01*
X179854177Y-112465885D01*
X179804353Y-112456259D01*
X179727143Y-112426549D01*
X179615181Y-112373876D01*
X179461105Y-112295362D01*
X179443105Y-112285983D01*
X178941234Y-112043077D01*
X178458271Y-111849201D01*
X177983672Y-111700579D01*
X177514166Y-111594760D01*
X177311355Y-111566914D01*
X177073558Y-111549297D01*
X176817498Y-111541910D01*
X176559901Y-111544752D01*
X176317491Y-111557821D01*
X176106993Y-111581117D01*
X176027755Y-111594814D01*
X175602462Y-111708095D01*
X175180374Y-111875536D01*
X174775639Y-112090723D01*
X174452599Y-112308806D01*
X174224724Y-112499867D01*
X173984031Y-112737202D01*
X173739440Y-113010045D01*
X173499869Y-113307628D01*
X173274236Y-113619183D01*
X173071461Y-113933944D01*
X172988757Y-114076059D01*
X172834041Y-114366530D01*
X172684238Y-114675560D01*
X172543410Y-114992786D01*
X172415621Y-115307845D01*
X172304932Y-115610374D01*
X172215406Y-115890008D01*
X172151104Y-116136386D01*
X172123144Y-116284401D01*
X172103425Y-116497651D01*
X172099839Y-116743694D01*
X172111292Y-117000003D01*
X172136689Y-117244054D01*
X172174933Y-117453324D01*
X172181185Y-117478311D01*
X172223576Y-117619464D01*
X172273192Y-117751744D01*
X172324305Y-117862809D01*
X172371186Y-117940320D01*
X172408109Y-117971937D01*
X172410392Y-117972114D01*
X172454483Y-117942737D01*
X172508283Y-117857971D01*
X172569943Y-117722864D01*
X172637610Y-117542466D01*
X172709436Y-117321826D01*
X172783570Y-117065991D01*
X172858161Y-116780011D01*
X172879817Y-116691312D01*
X172932346Y-116491774D01*
X172979808Y-116351864D01*
X173022922Y-116269806D01*
X173061390Y-116243803D01*
X173099210Y-116253413D01*
X173127958Y-116287288D01*
X173149305Y-116352999D01*
X173164923Y-116458117D01*
X173176483Y-116610211D01*
X173185207Y-116804510D01*
X173206125Y-117176411D01*
X173239921Y-117522452D01*
X173285335Y-117834474D01*
X173341108Y-118104317D01*
X173405977Y-118323822D01*
X173429235Y-118383987D01*
X173482614Y-118512211D01*
X173540408Y-118373329D01*
X173578445Y-118258334D01*
X173619888Y-118091987D01*
X173663033Y-117884409D01*
X173706175Y-117645725D01*
X173747607Y-117386056D01*
X173785625Y-117115526D01*
X173818524Y-116844258D01*
X173844597Y-116582374D01*
X173847156Y-116552430D01*
X173863838Y-116397651D01*
X173885224Y-116295665D01*
X173914616Y-116237561D01*
X173955317Y-116214426D01*
X173972956Y-116212940D01*
X174015620Y-116224051D01*
X174048557Y-116263651D01*
X174075687Y-116341139D01*
X174100932Y-116465916D01*
X174114590Y-116552430D01*
X174142772Y-116727034D01*
X174180423Y-116940147D01*
X174224061Y-117173759D01*
X174270205Y-117409864D01*
X174315372Y-117630453D01*
X174356080Y-117817519D01*
X174374183Y-117894957D01*
X174414465Y-118043538D01*
X174460682Y-118186052D01*
X174508120Y-118310645D01*
X174552065Y-118405460D01*
X174587804Y-118458643D01*
X174601196Y-118465917D01*
X174639171Y-118437277D01*
X174686993Y-118356639D01*
X174740867Y-118231931D01*
X174796996Y-118071080D01*
X174809453Y-118031031D01*
X174867501Y-117813062D01*
X174925223Y-117544753D01*
X174980701Y-117237469D01*
X175032017Y-116902570D01*
X175077254Y-116551420D01*
X175108474Y-116259234D01*
X175140363Y-115955793D01*
X175173448Y-115701536D01*
X175210118Y-115483935D01*
X175252760Y-115290462D01*
X175282535Y-115184283D01*
X175493716Y-115184283D01*
X175516093Y-115176998D01*
X175567300Y-115117044D01*
X175647704Y-115004456D01*
X175716978Y-114901276D01*
X175828918Y-114738880D01*
X175964872Y-114552348D01*
X176109519Y-114362137D01*
X176247540Y-114188704D01*
X176280220Y-114149159D01*
X176399040Y-114004853D01*
X176478281Y-113903248D01*
X176518039Y-113842808D01*
X176518413Y-113821999D01*
X176479499Y-113839287D01*
X176401393Y-113893137D01*
X176291097Y-113976671D01*
X176035627Y-114211022D01*
X175814434Y-114489662D01*
X175635449Y-114802175D01*
X175595914Y-114889776D01*
X175533992Y-115040707D01*
X175499804Y-115138864D01*
X175493716Y-115184283D01*
X175282535Y-115184283D01*
X175303762Y-115108590D01*
X175359448Y-114942621D01*
X175502982Y-114618800D01*
X175692002Y-114312414D01*
X175917385Y-114035249D01*
X176170008Y-113799085D01*
X176340186Y-113675920D01*
X176658600Y-113506158D01*
X177004682Y-113388107D01*
X177374690Y-113322013D01*
X177764883Y-113308121D01*
X178171522Y-113346677D01*
X178590865Y-113437927D01*
X178830342Y-113512304D01*
X178998664Y-113578073D01*
X179112764Y-113640757D01*
X179172032Y-113699751D01*
X179175864Y-113754447D01*
X179123650Y-113804237D01*
X179122760Y-113804756D01*
X179073016Y-113817898D01*
X179000769Y-113805555D01*
X178904624Y-113770809D01*
X178513049Y-113640216D01*
X178106408Y-113557762D01*
X177698606Y-113525349D01*
X177303548Y-113544881D01*
X177277499Y-113548142D01*
X177209930Y-113559695D01*
X177152206Y-113579515D01*
X177092850Y-113615178D01*
X177020387Y-113674259D01*
X176923341Y-113764334D01*
X176865069Y-113820405D01*
X176525945Y-114178420D01*
X176191542Y-114590455D01*
X175867630Y-115048816D01*
X175559978Y-115545808D01*
X175523187Y-115609854D01*
X175340361Y-115930789D01*
X175294448Y-116419070D01*
X175252512Y-116803060D01*
X175201361Y-117167041D01*
X175142412Y-117504934D01*
X175077085Y-117810655D01*
X175006797Y-118078124D01*
X174932967Y-118301258D01*
X174857012Y-118473976D01*
X174791136Y-118577476D01*
X174694134Y-118661234D01*
X174592052Y-118685776D01*
X174492249Y-118652116D01*
X174402089Y-118561270D01*
X174376493Y-118520317D01*
X174327478Y-118412726D01*
X174272407Y-118257761D01*
X174215187Y-118068820D01*
X174159722Y-117859300D01*
X174109918Y-117642599D01*
X174086240Y-117524605D01*
X174058826Y-117386348D01*
X174033534Y-117270732D01*
X174013419Y-117191029D01*
X174002599Y-117161338D01*
X173991391Y-117180590D01*
X173974811Y-117250319D01*
X173955004Y-117359815D01*
X173934112Y-117498370D01*
X173931923Y-117514317D01*
X173892270Y-117770934D01*
X173845800Y-118013527D01*
X173795206Y-118230730D01*
X173743184Y-118411179D01*
X173692430Y-118543507D01*
X173683617Y-118561376D01*
X173605184Y-118673767D01*
X173520307Y-118726274D01*
X173433043Y-118719676D01*
X173347448Y-118654756D01*
X173267577Y-118532293D01*
X173241883Y-118476356D01*
X173201024Y-118357201D01*
X173157433Y-118192419D01*
X173114293Y-117997770D01*
X173074788Y-117789018D01*
X173042100Y-117581924D01*
X173019412Y-117392251D01*
X173016606Y-117360819D01*
X173005056Y-117256082D01*
X172991687Y-117184408D01*
X172979076Y-117158868D01*
X172977057Y-117160212D01*
X172959577Y-117200011D01*
X172932014Y-117282855D01*
X172899727Y-117392383D01*
X172893029Y-117416586D01*
X172810507Y-117677277D01*
X172718601Y-117893727D01*
X172620791Y-118057987D01*
X172601261Y-118083340D01*
X172504606Y-118166812D01*
X172401087Y-118189284D01*
X172293899Y-118150510D01*
X172243093Y-118110996D01*
X172184365Y-118065394D01*
X172123896Y-118042105D01*
X172048052Y-118040482D01*
X171943198Y-118059876D01*
X171825476Y-118091159D01*
X171667838Y-118142366D01*
X171541584Y-118196802D01*
X171456043Y-118249990D01*
X171426091Y-118282806D01*
X171223286Y-118282806D01*
X171231861Y-118224330D01*
X171301021Y-118116479D01*
X171423566Y-118018039D01*
X171537355Y-117959038D01*
X171704330Y-117885949D01*
X171605404Y-117835013D01*
X171492670Y-117759269D01*
X171396252Y-117662409D01*
X171330854Y-117560821D01*
X171313624Y-117509816D01*
X171316629Y-117433330D01*
X171517229Y-117433330D01*
X171519101Y-117493532D01*
X171566205Y-117552301D01*
X171661872Y-117613345D01*
X171809433Y-117680371D01*
X171853919Y-117698143D01*
X171954078Y-117735807D01*
X172010632Y-117750995D01*
X172032870Y-117743953D01*
X172030081Y-117714927D01*
X172026011Y-117702700D01*
X172011105Y-117647621D01*
X171989186Y-117551512D01*
X171964656Y-117433815D01*
X171961363Y-117417220D01*
X171938809Y-117305793D01*
X171920506Y-117220758D01*
X171909802Y-117177546D01*
X171908849Y-117175253D01*
X171878672Y-117177484D01*
X171815826Y-117203680D01*
X171735975Y-117245254D01*
X171654784Y-117293618D01*
X171587917Y-117340186D01*
X171557257Y-117367988D01*
X171517229Y-117433330D01*
X171316629Y-117433330D01*
X171318120Y-117395392D01*
X171371846Y-117279004D01*
X171467894Y-117168664D01*
X171599357Y-117072385D01*
X171752683Y-117000546D01*
X171889109Y-116951378D01*
X171903173Y-116559012D01*
X171910094Y-116398021D01*
X171919878Y-116270390D01*
X171935823Y-116157627D01*
X171961229Y-116041237D01*
X171999395Y-115902729D01*
X172050244Y-115734569D01*
X172123577Y-115517515D01*
X172219558Y-115265192D01*
X172332245Y-114990844D01*
X172455694Y-114707716D01*
X172583965Y-114429053D01*
X172711114Y-114168099D01*
X172831198Y-113938101D01*
X172938276Y-113752302D01*
X172943047Y-113744626D01*
X173273070Y-113254199D01*
X173614916Y-112822764D01*
X173970970Y-112448442D01*
X174343618Y-112129357D01*
X174735243Y-111863630D01*
X175148230Y-111649383D01*
X175584964Y-111484740D01*
X175929785Y-111392622D01*
X176061879Y-111365619D01*
X176187654Y-111346555D01*
X176321723Y-111334216D01*
X176478697Y-111327388D01*
X176673187Y-111324855D01*
X176746192Y-111324753D01*
X177153651Y-111337762D01*
X177529001Y-111378412D01*
X177892370Y-111449900D01*
X178263886Y-111555423D01*
X178324804Y-111575469D01*
X178502908Y-111635626D01*
X178635972Y-111679732D01*
X178733837Y-111707990D01*
X178806342Y-111720600D01*
X178863327Y-111717764D01*
X178914633Y-111699683D01*
X178970099Y-111666557D01*
X179039566Y-111618589D01*
X179079946Y-111590909D01*
X179213074Y-111504179D01*
X179359489Y-111413761D01*
X179491738Y-111336516D01*
X179516144Y-111322998D01*
X179618603Y-111261850D01*
X179685917Y-111210829D01*
X179709984Y-111176227D01*
X179709380Y-111172886D01*
X179569652Y-110780898D01*
X179464060Y-110424812D01*
X179390615Y-110092849D01*
X179347326Y-109773228D01*
X179332206Y-109454171D01*
X179343263Y-109123897D01*
X179349544Y-109042218D01*
X179386431Y-108697697D01*
X179437489Y-108395327D01*
X179507532Y-108116372D01*
X179601374Y-107842097D01*
X179723830Y-107553767D01*
X179742355Y-107513732D01*
X179897425Y-107208161D01*
X180062685Y-106940911D01*
X180253554Y-106688836D01*
X180414651Y-106504664D01*
X180624321Y-106287237D01*
X180823116Y-106107377D01*
X181029060Y-105950983D01*
X181260176Y-105803955D01*
X181439362Y-105702970D01*
X181864772Y-105505914D01*
X182302661Y-105368011D01*
X182749122Y-105289305D01*
X183200246Y-105269840D01*
X183652127Y-105309660D01*
G37*
X183652127Y-105309660D02*
X184100856Y-105408810D01*
X184542525Y-105567333D01*
X184753023Y-105665609D01*
X185091404Y-105865700D01*
X185422143Y-106118042D01*
X185736347Y-106413177D01*
X186025122Y-106741646D01*
X186279572Y-107093991D01*
X186490803Y-107460751D01*
X186543050Y-107569206D01*
X186624702Y-107769610D01*
X186705510Y-108008888D01*
X186778637Y-108264533D01*
X186837248Y-108514036D01*
X186850368Y-108581027D01*
X186875054Y-108706601D01*
X186897545Y-108808062D01*
X186914517Y-108870986D01*
X186920159Y-108883801D01*
X186954964Y-108896984D01*
X187030139Y-108914023D01*
X187129585Y-108931284D01*
X187132139Y-108931671D01*
X187567968Y-109025950D01*
X187988510Y-109173177D01*
X188385424Y-109369678D01*
X188750370Y-109611780D01*
X188843374Y-109685337D01*
X188927853Y-109760056D01*
X188972398Y-109816256D01*
X188986078Y-109866766D01*
X188985202Y-109885944D01*
X188976604Y-109928823D01*
X188953262Y-109951793D01*
X188901138Y-109960803D01*
X188806215Y-109961802D01*
X188717332Y-109959639D01*
X188586419Y-109954643D01*
X188428246Y-109947461D01*
X188257580Y-109938738D01*
X188176660Y-109934257D01*
X187717765Y-109908153D01*
X187670873Y-109985807D01*
X187613689Y-110057554D01*
X187518779Y-110151888D01*
X187397162Y-110259577D01*
X187259859Y-110371390D01*
X187117889Y-110478095D01*
X186982271Y-110570461D01*
X186945930Y-110593110D01*
X186712789Y-110734812D01*
X186586195Y-111043439D01*
X186515173Y-111201221D01*
X186423741Y-111382652D01*
X186325378Y-111561804D01*
X186258853Y-111673191D01*
X186184798Y-111795894D01*
X186126977Y-111899969D01*
X186090699Y-111975218D01*
X186081268Y-112011443D01*
X186082189Y-112012680D01*
X186479026Y-112293047D01*
X186871230Y-112523015D01*
X187273508Y-112710234D01*
X187700567Y-112862355D01*
X187737113Y-112873499D01*
X187849407Y-112905593D01*
X187947645Y-112928130D01*
X188046373Y-112942746D01*
X188160133Y-112951082D01*
X188303470Y-112954774D01*
X188464893Y-112955485D01*
X188668057Y-112953586D01*
X188827840Y-112946258D01*
X188957694Y-112930768D01*
X189071072Y-112904381D01*
X189181425Y-112864363D01*
X189302205Y-112807982D01*
X189375084Y-112770511D01*
X189520535Y-112677761D01*
X189643237Y-112560239D01*
X189748153Y-112409938D01*
X189840247Y-112218853D01*
X189924482Y-111978977D01*
X189974581Y-111803575D01*
X190015901Y-111622940D01*
X190044540Y-111432239D01*
X190060712Y-111222648D01*
X190064633Y-110985342D01*
X190056518Y-110711496D01*
X190036583Y-110392285D01*
X190015346Y-110132990D01*
X189988159Y-109771879D01*
X189970778Y-109422906D01*
X189963145Y-109094187D01*
X189965206Y-108793836D01*
X189976903Y-108529966D01*
X189998180Y-108310693D01*
X190028981Y-108144130D01*
X190029155Y-108143458D01*
X190105926Y-107892844D01*
X190192108Y-107693774D01*
X190286041Y-107548353D01*
X190386066Y-107458681D01*
X190490522Y-107426863D01*
X190579705Y-107446035D01*
X190640905Y-107483671D01*
X190685306Y-107539902D01*
X190716601Y-107625222D01*
X190738483Y-107750120D01*
X190754643Y-107925088D01*
X190756209Y-107947538D01*
X190769510Y-108109549D01*
X190786302Y-108265546D01*
X190804944Y-108404730D01*
X190823796Y-108516302D01*
X190841216Y-108589461D01*
X190855564Y-108613408D01*
X190857201Y-108612255D01*
X190867973Y-108577688D01*
X190885531Y-108497949D01*
X190906519Y-108388601D01*
X190911788Y-108359146D01*
X191015060Y-107921444D01*
X191166898Y-107490254D01*
X191360366Y-107083892D01*
X191458374Y-106915282D01*
X191578584Y-106742514D01*
X191723345Y-106568699D01*
X191882513Y-106403311D01*
X192045946Y-106255820D01*
X192203499Y-106135699D01*
X192345029Y-106052419D01*
X192410318Y-106026381D01*
X192509093Y-106021098D01*
X192599567Y-106058730D01*
X192662895Y-106129275D01*
X192677287Y-106168089D01*
X192684587Y-106206964D01*
X192686872Y-106249133D01*
X192682587Y-106303391D01*
X192670176Y-106378533D01*
X192648083Y-106483353D01*
X192614753Y-106626646D01*
X192568630Y-106817207D01*
X192546447Y-106907837D01*
X192495696Y-107118058D01*
X192447081Y-107325354D01*
X192402489Y-107521065D01*
X192363808Y-107696531D01*
X192332928Y-107843091D01*
X192311738Y-107952086D01*
X192302124Y-108014856D01*
X192302474Y-108026559D01*
X192321376Y-108008339D01*
X192362507Y-107953323D01*
X192397002Y-107903108D01*
X192524859Y-107733898D01*
X192690740Y-107548671D01*
X192882483Y-107360478D01*
X193001624Y-107254359D01*
X193197865Y-107098155D01*
X193365141Y-106992067D01*
X193506312Y-106935047D01*
X193624239Y-106926049D01*
X193721780Y-106964027D01*
X193745113Y-106982305D01*
X193795628Y-107064050D01*
X193812952Y-107181946D01*
X193797320Y-107322199D01*
X193748969Y-107471015D01*
X193736297Y-107498714D01*
X193616301Y-107749669D01*
X193520370Y-107953007D01*
X193445594Y-108115458D01*
X193389065Y-108243753D01*
X193347875Y-108344621D01*
X193319116Y-108424792D01*
X193299880Y-108490995D01*
X193291429Y-108528129D01*
X193281074Y-108604740D01*
X193269809Y-108732799D01*
X193258272Y-108902051D01*
X193247099Y-109102241D01*
X193236927Y-109323115D01*
X193229152Y-109531166D01*
X193210481Y-110002743D01*
X193186930Y-110422726D01*
X193157377Y-110801112D01*
X193120699Y-111147899D01*
X193075775Y-111473082D01*
X193021482Y-111786659D01*
X192956700Y-112098626D01*
X192926076Y-112231652D01*
X192776198Y-112798630D01*
X192605495Y-113315258D01*
X192410455Y-113789984D01*
X192187566Y-114231256D01*
X191933315Y-114647522D01*
X191902954Y-114692630D01*
X191706269Y-114955511D01*
X191502001Y-115171468D01*
X191281767Y-115345589D01*
X191037189Y-115482962D01*
X190759885Y-115588676D01*
X190441475Y-115667820D01*
X190239190Y-115702871D01*
X189983290Y-115734164D01*
X189738410Y-115746967D01*
X189484839Y-115741333D01*
X189202870Y-115717316D01*
X189104871Y-115705934D01*
X188532345Y-115609678D01*
X187993505Y-115464647D01*
X187486344Y-115270132D01*
X187008855Y-115025420D01*
X186775571Y-114880702D01*
X186687022Y-114824746D01*
X186619032Y-114786274D01*
X186584303Y-114772377D01*
X186582612Y-114772978D01*
X186581539Y-114807561D01*
X186591760Y-114880868D01*
X186599299Y-114920327D01*
X186625712Y-115086240D01*
X186647897Y-115299674D01*
X186665116Y-115546541D01*
X186676628Y-115812751D01*
X186681694Y-116084218D01*
X186679575Y-116346851D01*
X186677703Y-116413548D01*
X186653670Y-116843483D01*
X186608867Y-117236050D01*
X186539484Y-117610189D01*
X186441708Y-117984838D01*
X186311728Y-118378938D01*
X186246913Y-118554036D01*
X186109884Y-118867053D01*
X185930839Y-119201207D01*
X185716661Y-119546091D01*
X185474232Y-119891300D01*
X185210434Y-120226426D01*
X184934390Y-120538681D01*
X184756070Y-120726081D01*
X184604763Y-120879041D01*
X184468690Y-121008266D01*
X184336072Y-121124464D01*
X184195133Y-121238344D01*
X184034093Y-121360614D01*
X184013494Y-121375888D01*
X183742243Y-121568251D01*
X183482142Y-121733453D01*
X183210539Y-121885034D01*
X182921497Y-122028625D01*
X182583251Y-122189013D01*
X182534580Y-122391999D01*
X182464435Y-122613320D01*
X182372974Y-122784987D01*
X182307805Y-122862950D01*
X182283890Y-122889701D01*
X182266890Y-122921715D01*
X182256625Y-122967443D01*
X182252912Y-123035340D01*
X182255571Y-123133859D01*
X182264421Y-123271452D01*
X182279280Y-123456573D01*
X182291918Y-123604556D01*
X182310471Y-123822265D01*
X182331549Y-124073753D01*
X182352848Y-124331298D01*
X182372062Y-124567174D01*
X182376319Y-124620109D01*
X182391388Y-124793501D01*
X182406790Y-124945094D01*
X182421270Y-125064326D01*
X182433579Y-125140633D01*
X182440728Y-125163436D01*
X182474272Y-125176090D01*
X182554840Y-125198939D01*
X182673734Y-125229746D01*
X182822257Y-125266271D01*
X182991712Y-125306278D01*
X183032195Y-125315614D01*
X183249491Y-125365953D01*
X183500653Y-125424868D01*
X183764079Y-125487249D01*
X184018166Y-125547981D01*
X184212598Y-125594960D01*
X184408819Y-125642527D01*
X184602316Y-125689143D01*
X184780575Y-125731814D01*
X184931082Y-125767549D01*
X185041323Y-125793353D01*
X185058707Y-125797349D01*
X185203845Y-125836254D01*
X185296463Y-125875973D01*
X185340894Y-125919585D01*
X185341468Y-125970169D01*
X185331421Y-125991287D01*
X185313235Y-126010296D01*
X185278457Y-126024801D01*
X185219169Y-126035791D01*
X185127455Y-126044256D01*
X184995398Y-126051183D01*
X184815081Y-126057563D01*
X184796327Y-126058141D01*
X184291072Y-126073572D01*
X184465161Y-126224991D01*
X184571757Y-126330800D01*
X184631150Y-126420316D01*
X184642038Y-126490273D01*
X184603121Y-126537409D01*
X184591799Y-126542776D01*
X184545860Y-126543796D01*
X184458557Y-126531162D01*
X184343468Y-126507231D01*
X184243632Y-126482366D01*
X184121416Y-126450587D01*
X184021775Y-126426198D01*
X183956237Y-126411923D01*
X183936008Y-126409694D01*
X183947412Y-126437084D01*
X183983621Y-126505597D01*
X184038740Y-126604390D01*
X184095871Y-126703755D01*
X184179571Y-126855329D01*
X184228841Y-126966116D01*
X184245250Y-127043124D01*
X184230366Y-127093361D01*
X184189550Y-127122308D01*
X184145917Y-127115899D01*
X184060045Y-127082039D01*
X183939070Y-127023933D01*
X183790129Y-126944786D01*
X183772812Y-126935193D01*
X183637414Y-126859946D01*
X183464459Y-126763897D01*
X183267052Y-126654318D01*
X183058297Y-126538483D01*
X182851299Y-126423665D01*
X182761982Y-126374138D01*
X182476276Y-126215325D01*
X182238372Y-126082149D01*
X182045130Y-125972781D01*
X181893408Y-125885392D01*
X181780064Y-125818154D01*
X181701956Y-125769238D01*
X181655944Y-125736813D01*
X181639665Y-125720757D01*
X181634450Y-125699904D01*
X181627746Y-125650812D01*
X181619232Y-125569578D01*
X181608590Y-125452296D01*
X181595500Y-125295061D01*
X181579642Y-125093969D01*
X181560697Y-124845114D01*
X181538344Y-124544593D01*
X181512264Y-124188499D01*
X181496749Y-123974909D01*
X181479027Y-123734323D01*
X181464298Y-123548319D01*
X181451474Y-123409911D01*
X181447710Y-123379246D01*
X181679177Y-123379246D01*
X181686272Y-123500363D01*
X181697912Y-123644405D01*
X181710014Y-123793559D01*
X181725066Y-123988904D01*
X181741926Y-124215066D01*
X181759456Y-124456669D01*
X181776516Y-124698338D01*
X181782734Y-124788407D01*
X181798241Y-124998706D01*
X181814382Y-125189563D01*
X181830231Y-125352003D01*
X181844862Y-125477049D01*
X181857347Y-125555726D01*
X181864281Y-125578360D01*
X181894916Y-125600314D01*
X181969435Y-125646307D01*
X182080976Y-125712473D01*
X182222680Y-125794949D01*
X182387687Y-125889867D01*
X182569137Y-125993364D01*
X182760172Y-126101575D01*
X182953930Y-126210633D01*
X183143552Y-126316676D01*
X183322178Y-126415836D01*
X183482948Y-126504250D01*
X183619003Y-126578052D01*
X183723483Y-126633378D01*
X183789528Y-126666361D01*
X183808957Y-126674052D01*
X183805134Y-126654257D01*
X183796353Y-126636816D01*
X183770315Y-126591272D01*
X183724645Y-126512571D01*
X183680901Y-126437691D01*
X183630501Y-126341851D01*
X183596365Y-126258155D01*
X183586842Y-126214525D01*
X183611702Y-126157693D01*
X183682909Y-126128423D01*
X183795401Y-126127845D01*
X183896710Y-126145280D01*
X183983517Y-126162736D01*
X184044538Y-126170686D01*
X184062957Y-126169072D01*
X184049429Y-126145868D01*
X184002487Y-126102814D01*
X183986688Y-126090269D01*
X183919244Y-126014385D01*
X183895695Y-125934079D01*
X183916496Y-125863524D01*
X183977939Y-125818369D01*
X184022046Y-125800220D01*
X184024814Y-125788273D01*
X183980520Y-125776651D01*
X183928163Y-125767248D01*
X183858181Y-125753259D01*
X183745020Y-125728552D01*
X183599314Y-125695635D01*
X183431699Y-125657014D01*
X183252811Y-125615196D01*
X183073284Y-125572688D01*
X182903753Y-125531997D01*
X182754854Y-125495630D01*
X182637222Y-125466094D01*
X182561493Y-125445896D01*
X182548656Y-125442070D01*
X182459038Y-125417859D01*
X182360955Y-125396618D01*
X182358561Y-125396180D01*
X182313209Y-125384862D01*
X182277376Y-125364448D01*
X182249124Y-125327565D01*
X182226515Y-125266843D01*
X182207612Y-125174912D01*
X182190478Y-125044400D01*
X182173176Y-124867936D01*
X182153766Y-124638150D01*
X182151281Y-124607594D01*
X182135798Y-124419817D01*
X182121147Y-124247602D01*
X182108363Y-124102681D01*
X182098478Y-123996785D01*
X182092849Y-123944046D01*
X182086037Y-123874876D01*
X182077254Y-123761736D01*
X182067801Y-123622278D01*
X182061490Y-123518597D01*
X182051811Y-123381869D01*
X182040534Y-123269611D01*
X182029206Y-123195102D01*
X182021144Y-123171601D01*
X181983733Y-123172426D01*
X181914318Y-123191125D01*
X181881425Y-123202886D01*
X181805130Y-123229919D01*
X181752873Y-123244449D01*
X181743290Y-123245316D01*
X181711287Y-123244693D01*
X181690633Y-123260649D01*
X181680280Y-123302421D01*
X181679177Y-123379246D01*
X181447710Y-123379246D01*
X181439469Y-123312116D01*
X181427193Y-123247947D01*
X181413560Y-123210422D01*
X181397481Y-123192553D01*
X181377868Y-123187358D01*
X181374075Y-123187232D01*
X181279645Y-123163155D01*
X181163439Y-123099862D01*
X181037918Y-123007435D01*
X180915543Y-122895953D01*
X180808774Y-122775498D01*
X180739974Y-122674246D01*
X180688131Y-122583227D01*
X180941601Y-122583227D01*
X180963769Y-122632580D01*
X181021844Y-122702566D01*
X181103179Y-122781653D01*
X181195132Y-122858306D01*
X181285056Y-122920993D01*
X181347619Y-122953568D01*
X181494522Y-122987498D01*
X181662410Y-122988243D01*
X181825344Y-122957503D01*
X181927384Y-122915536D01*
X182052730Y-122821304D01*
X182172738Y-122688402D01*
X182270115Y-122538506D01*
X182318889Y-122424828D01*
X182343457Y-122341050D01*
X182356279Y-122286084D01*
X182356580Y-122274926D01*
X182327973Y-122279158D01*
X182257003Y-122296713D01*
X182156118Y-122324396D01*
X182093561Y-122342438D01*
X181949698Y-122380885D01*
X181780738Y-122420223D01*
X181600393Y-122457862D01*
X181422375Y-122491214D01*
X181260396Y-122517690D01*
X181128167Y-122534701D01*
X181048264Y-122539787D01*
X180969603Y-122549642D01*
X180941735Y-122580076D01*
X180941601Y-122583227D01*
X180688131Y-122583227D01*
X180680970Y-122570656D01*
X180420188Y-122569617D01*
X180243949Y-122564916D01*
X180041014Y-122553186D01*
X179831977Y-122536124D01*
X179637431Y-122515422D01*
X179477968Y-122492777D01*
X179470126Y-122491422D01*
X179403880Y-122481041D01*
X179363127Y-122486530D01*
X179337057Y-122519464D01*
X179314861Y-122591417D01*
X179293697Y-122680314D01*
X179256820Y-122778870D01*
X179196782Y-122886495D01*
X179163773Y-122932787D01*
X179063284Y-123060171D01*
X179095028Y-124319970D01*
X179102333Y-124592882D01*
X179109945Y-124846353D01*
X179117603Y-125073793D01*
X179125048Y-125268609D01*
X179132021Y-125424209D01*
X179138263Y-125534002D01*
X179143513Y-125591397D01*
X179145329Y-125598263D01*
X179176918Y-125611018D01*
X179255790Y-125637005D01*
X179374190Y-125673840D01*
X179524363Y-125719143D01*
X179698555Y-125770529D01*
X179832307Y-125809328D01*
X180043497Y-125870395D01*
X180259066Y-125933124D01*
X180465496Y-125993554D01*
X180649270Y-126047722D01*
X180796871Y-126091668D01*
X180842049Y-126105283D01*
X181110532Y-126186670D01*
X181329149Y-126253449D01*
X181502812Y-126307654D01*
X181636436Y-126351319D01*
X181734934Y-126386476D01*
X181803220Y-126415162D01*
X181846207Y-126439408D01*
X181868809Y-126461249D01*
X181875939Y-126482719D01*
X181872512Y-126505852D01*
X181864859Y-126528647D01*
X181850334Y-126559475D01*
X181826283Y-126580195D01*
X181783520Y-126591951D01*
X181712858Y-126595884D01*
X181605110Y-126593136D01*
X181451091Y-126584848D01*
X181425140Y-126583300D01*
X181289215Y-126575980D01*
X181175324Y-126571423D01*
X181094687Y-126569965D01*
X181058525Y-126571941D01*
X181057803Y-126572327D01*
X181071863Y-126596708D01*
X181119046Y-126654750D01*
X181191555Y-126737234D01*
X181264018Y-126816185D01*
X181383962Y-126953814D01*
X181457165Y-127060613D01*
X181484736Y-127139135D01*
X181467782Y-127191934D01*
X181436027Y-127212610D01*
X181391550Y-127207993D01*
X181306924Y-127179423D01*
X181192715Y-127130903D01*
X181087595Y-127080634D01*
X180968710Y-127022141D01*
X180870410Y-126975508D01*
X180803111Y-126945556D01*
X180777302Y-126937001D01*
X180785147Y-126966286D01*
X180812390Y-127040143D01*
X180854629Y-127147082D01*
X180902084Y-127262733D01*
X180963230Y-127415500D01*
X180999414Y-127522240D01*
X181012951Y-127591091D01*
X181006448Y-127629700D01*
X180967604Y-127672865D01*
X180914282Y-127680149D01*
X180835538Y-127650494D01*
X180756719Y-127605528D01*
X180579694Y-127496497D01*
X180363627Y-127362698D01*
X180118624Y-127210443D01*
X179854790Y-127046047D01*
X179582232Y-126875822D01*
X179311056Y-126706082D01*
X179051368Y-126543140D01*
X178813273Y-126393309D01*
X178606879Y-126262902D01*
X178566573Y-126237347D01*
X178253695Y-126038819D01*
X178235737Y-125747569D01*
X178230646Y-125649230D01*
X178224107Y-125498300D01*
X178216455Y-125303883D01*
X178208028Y-125075085D01*
X178199159Y-124821008D01*
X178190185Y-124550758D01*
X178181751Y-124283504D01*
X178148777Y-123210075D01*
X178374449Y-123210075D01*
X178394489Y-123777668D01*
X178401462Y-123982140D01*
X178409506Y-124229457D01*
X178418031Y-124500768D01*
X178426448Y-124777219D01*
X178434167Y-125039957D01*
X178436246Y-125112851D01*
X178443888Y-125361016D01*
X178451416Y-125553811D01*
X178459324Y-125697587D01*
X178468106Y-125798697D01*
X178478256Y-125863493D01*
X178490269Y-125898325D01*
X178498046Y-125907146D01*
X178557238Y-125945706D01*
X178656271Y-126009263D01*
X178785766Y-126091871D01*
X178936341Y-126187584D01*
X179098615Y-126290456D01*
X179263207Y-126394541D01*
X179420736Y-126493893D01*
X179561821Y-126582567D01*
X179677082Y-126654615D01*
X179690089Y-126662705D01*
X179833428Y-126752122D01*
X179978744Y-126843356D01*
X180108629Y-126925443D01*
X180202072Y-126985099D01*
X180296533Y-127040666D01*
X180375928Y-127077832D01*
X180424996Y-127089620D01*
X180428752Y-127088785D01*
X180454450Y-127086288D01*
X180449873Y-127095784D01*
X180460897Y-127121108D01*
X180506710Y-127164388D01*
X180572453Y-127213442D01*
X180643271Y-127256086D01*
X180648754Y-127258877D01*
X180640271Y-127234220D01*
X180612721Y-127165567D01*
X180570977Y-127064914D01*
X180542091Y-126996380D01*
X180493036Y-126876444D01*
X180454818Y-126775051D01*
X180432838Y-126706939D01*
X180429619Y-126689503D01*
X180454324Y-126630582D01*
X180513863Y-126588889D01*
X180586369Y-126576648D01*
X180617952Y-126584230D01*
X180668170Y-126598496D01*
X180685610Y-126592691D01*
X180703257Y-126595969D01*
X180742497Y-126629101D01*
X180785955Y-126664401D01*
X180798058Y-126658863D01*
X180780889Y-126621584D01*
X180736532Y-126561663D01*
X180723619Y-126546670D01*
X180675112Y-126481980D01*
X180664983Y-126430865D01*
X180676896Y-126390668D01*
X180688893Y-126351448D01*
X180678157Y-126324196D01*
X180634400Y-126299976D01*
X180547333Y-126269852D01*
X180532224Y-126265013D01*
X180429948Y-126233399D01*
X180293312Y-126192575D01*
X180143053Y-126148690D01*
X180045633Y-126120790D01*
X179771621Y-126042680D01*
X179547567Y-125977725D01*
X179368256Y-125924042D01*
X179228472Y-125879745D01*
X179123003Y-125842951D01*
X179046631Y-125811775D01*
X178994144Y-125784334D01*
X178960325Y-125758741D01*
X178939961Y-125733114D01*
X178932745Y-125718651D01*
X178922395Y-125662639D01*
X178912716Y-125545127D01*
X178903719Y-125366335D01*
X178895411Y-125126485D01*
X178887802Y-124825798D01*
X178880901Y-124464494D01*
X178880208Y-124422418D01*
X178875701Y-124154597D01*
X178871232Y-123906775D01*
X178866943Y-123685576D01*
X178862976Y-123497624D01*
X178859473Y-123349543D01*
X178856576Y-123247956D01*
X178854426Y-123199487D01*
X178853951Y-123196297D01*
X178824824Y-123196950D01*
X178756508Y-123206042D01*
X178692638Y-123216602D01*
X178588629Y-123229228D01*
X178494475Y-123231200D01*
X178456110Y-123227013D01*
X178374449Y-123210075D01*
X178148777Y-123210075D01*
X178145724Y-123110689D01*
X178024554Y-123011579D01*
X177912388Y-122889933D01*
X177827689Y-122744596D01*
X177779294Y-122647006D01*
X177736548Y-122592088D01*
X177685374Y-122564618D01*
X177654030Y-122556782D01*
X177528804Y-122524958D01*
X177365987Y-122474383D01*
X177180358Y-122410414D01*
X176986695Y-122338412D01*
X176799774Y-122263734D01*
X176634375Y-122191739D01*
X176590403Y-122171101D01*
X176089108Y-121899393D01*
X175622666Y-121582676D01*
X175193826Y-121223458D01*
X174805333Y-120824247D01*
X174459935Y-120387550D01*
X174205132Y-119993621D01*
X174137614Y-119879564D01*
X174078110Y-119780862D01*
X174035595Y-119712326D01*
X174023719Y-119694293D01*
X174005483Y-119674843D01*
X173976805Y-119661988D01*
X173928879Y-119655321D01*
X173852903Y-119654434D01*
X173740073Y-119658921D01*
X173581586Y-119668376D01*
X173532083Y-119671581D01*
X173213136Y-119685248D01*
X172896572Y-119685348D01*
X172590661Y-119672694D01*
X172303672Y-119648101D01*
X172043873Y-119612381D01*
X171819533Y-119566349D01*
X171638923Y-119510819D01*
X171563822Y-119477849D01*
X171468723Y-119423733D01*
X171412883Y-119371749D01*
X171381303Y-119305480D01*
X171371060Y-119266839D01*
X171377841Y-119177518D01*
X171432637Y-119087539D01*
X171527040Y-119004110D01*
X171652642Y-118934440D01*
X171801034Y-118885740D01*
X171820397Y-118881561D01*
X171887421Y-118859832D01*
X171923113Y-118833609D01*
X171919853Y-118812398D01*
X171881465Y-118805407D01*
X171833022Y-118796063D01*
X171749894Y-118771699D01*
X171661029Y-118741452D01*
X171474325Y-118656533D01*
X171337319Y-118557694D01*
X171250748Y-118449604D01*
X171215350Y-118336927D01*
X171223286Y-118282806D01*
X171426091Y-118282806D01*
X171427081Y-118333738D01*
X171476089Y-118393396D01*
X171565806Y-118456140D01*
X171688924Y-118516329D01*
X171766875Y-118545836D01*
X171889921Y-118582121D01*
X172049333Y-118620454D01*
X172229650Y-118657996D01*
X172415408Y-118691909D01*
X172591145Y-118719357D01*
X172741399Y-118737502D01*
X172844199Y-118743539D01*
X172961348Y-118758476D01*
X173036010Y-118800852D01*
X173062757Y-118867551D01*
X173062766Y-118868982D01*
X173054940Y-118907875D01*
X173026672Y-118937502D01*
X172970770Y-118959719D01*
X172880046Y-118976383D01*
X172747312Y-118989351D01*
X172565378Y-119000481D01*
X172550784Y-119001230D01*
X172335028Y-119017174D01*
X172135608Y-119041331D01*
X171958736Y-119072068D01*
X171810625Y-119107750D01*
X171697485Y-119146746D01*
X171625532Y-119187422D01*
X171600975Y-119228145D01*
X171609010Y-119248810D01*
X171665524Y-119289924D01*
X171767499Y-119332377D01*
X171903689Y-119372637D01*
X172062844Y-119407172D01*
X172166797Y-119423973D01*
X172271379Y-119433702D01*
X172427700Y-119441212D01*
X172630648Y-119446454D01*
X172875110Y-119449376D01*
X173155974Y-119449929D01*
X173468127Y-119448062D01*
X173806457Y-119443725D01*
X173940957Y-119441416D01*
X174122284Y-119438092D01*
X174276872Y-119712898D01*
X174585864Y-120205818D01*
X174932338Y-120652525D01*
X175316464Y-121053151D01*
X175738409Y-121407828D01*
X176198343Y-121716687D01*
X176696433Y-121979859D01*
X177232849Y-122197477D01*
X177610971Y-122317068D01*
X177745778Y-122359009D01*
X177849520Y-122398808D01*
X177912559Y-122432489D01*
X177926494Y-122447205D01*
X177990683Y-122594778D01*
X178041596Y-122697974D01*
X178087840Y-122769392D01*
X178138027Y-122821629D01*
X178200766Y-122867284D01*
X178223374Y-122881612D01*
X178391259Y-122953055D01*
X178575050Y-122975464D01*
X178756298Y-122948085D01*
X178856051Y-122907497D01*
X178975308Y-122823564D01*
X179057797Y-122710781D01*
X179111634Y-122556515D01*
X179125657Y-122487872D01*
X179146390Y-122378994D01*
X179169882Y-122306352D01*
X179206344Y-122264828D01*
X179265985Y-122249303D01*
X179359015Y-122254659D01*
X179495644Y-122275779D01*
X179535343Y-122282503D01*
X179734306Y-122308220D01*
X179973065Y-122326230D01*
X180237198Y-122336531D01*
X180512281Y-122339126D01*
X180783890Y-122334012D01*
X181037604Y-122321191D01*
X181258997Y-122300662D01*
X181382475Y-122282522D01*
X181971724Y-122147216D01*
X182536923Y-121956215D01*
X183077016Y-121710284D01*
X183590948Y-121410186D01*
X184077662Y-121056684D01*
X184536104Y-120650542D01*
X184965217Y-120192524D01*
X185363947Y-119683393D01*
X185717562Y-119146589D01*
X185959560Y-118691320D01*
X186156404Y-118202663D01*
X186307855Y-117685110D01*
X186413673Y-117143154D01*
X186473617Y-116581287D01*
X186487449Y-116004003D01*
X186454928Y-115415794D01*
X186375815Y-114821153D01*
X186249870Y-114224573D01*
X186076854Y-113630546D01*
X186020622Y-113467200D01*
X185976532Y-113350406D01*
X185920386Y-113211991D01*
X185856915Y-113062441D01*
X185790846Y-112912244D01*
X185726909Y-112771887D01*
X185669832Y-112651855D01*
X185624343Y-112562636D01*
X185595173Y-112514716D01*
X185588730Y-112509417D01*
X185559578Y-112526437D01*
X185496200Y-112571938D01*
X185410027Y-112637575D01*
X185368531Y-112670133D01*
X185229741Y-112771187D01*
X185058598Y-112882647D01*
X184872635Y-112994193D01*
X184689388Y-113095504D01*
X184526392Y-113176261D01*
X184459864Y-113204946D01*
X184376942Y-113235691D01*
X184328168Y-113243135D01*
X184295248Y-113227896D01*
X184278203Y-113211082D01*
X184247182Y-113148811D01*
X184271228Y-113087827D01*
X184351050Y-113027036D01*
X184418868Y-112993337D01*
X184833813Y-112777363D01*
X185218772Y-112512305D01*
X185408814Y-112344005D01*
X185745644Y-112344005D01*
X185918303Y-112700693D01*
X186035410Y-112960261D01*
X186153011Y-113252602D01*
X186263407Y-113556513D01*
X186358898Y-113850790D01*
X186431786Y-114114229D01*
X186432227Y-114116031D01*
X186466193Y-114241284D01*
X186501195Y-114347941D01*
X186531213Y-114418292D01*
X186539258Y-114430850D01*
X186598436Y-114487523D01*
X186697927Y-114564147D01*
X186826925Y-114653587D01*
X186974624Y-114748711D01*
X187130219Y-114842385D01*
X187282904Y-114927476D01*
X187324543Y-114949244D01*
X187771332Y-115151575D01*
X188239572Y-115312526D01*
X188718713Y-115429997D01*
X189198207Y-115501886D01*
X189667502Y-115526090D01*
X190100392Y-115502315D01*
X190472284Y-115440699D01*
X190801401Y-115344014D01*
X191092914Y-115210412D01*
X191310093Y-115070106D01*
X191420118Y-114969682D01*
X191547306Y-114822545D01*
X191685281Y-114638175D01*
X191827672Y-114426054D01*
X191968104Y-114195663D01*
X192100205Y-113956484D01*
X192214636Y-113724441D01*
X192389255Y-113314049D01*
X192539126Y-112890832D01*
X192667505Y-112443266D01*
X192777646Y-111959826D01*
X192872807Y-111428987D01*
X192884837Y-111352066D01*
X192916828Y-111134893D01*
X192943209Y-110931893D01*
X192964876Y-110731644D01*
X192982726Y-110522725D01*
X192997654Y-110293713D01*
X193010558Y-110033189D01*
X193022334Y-109729731D01*
X193029752Y-109505817D01*
X193041068Y-109189125D01*
X193053288Y-108930657D01*
X193066651Y-108726918D01*
X193081396Y-108574411D01*
X193097759Y-108469639D01*
X193101408Y-108453440D01*
X193152020Y-108288244D01*
X193235437Y-108075680D01*
X193351993Y-107814953D01*
X193484481Y-107540522D01*
X193559493Y-107374786D01*
X193597023Y-107255351D01*
X193596967Y-107182140D01*
X193559219Y-107155072D01*
X193483676Y-107174069D01*
X193370232Y-107239051D01*
X193225360Y-107344788D01*
X192915152Y-107621204D01*
X192637105Y-107942046D01*
X192396655Y-108295385D01*
X192317611Y-108422275D01*
X192247499Y-108529104D01*
X192193170Y-108605835D01*
X192161477Y-108642427D01*
X192158732Y-108643968D01*
X192115140Y-108632740D01*
X192081100Y-108605096D01*
X192055943Y-108542316D01*
X192049460Y-108428046D01*
X192061806Y-108261266D01*
X192093133Y-108040959D01*
X192143594Y-107766107D01*
X192213343Y-107435691D01*
X192302531Y-107048693D01*
X192335491Y-106911543D01*
X192380637Y-106721468D01*
X192419118Y-106551922D01*
X192449061Y-106411805D01*
X192468593Y-106310018D01*
X192475841Y-106255460D01*
X192474948Y-106248921D01*
X192436467Y-106248232D01*
X192365091Y-106283740D01*
X192269352Y-106349336D01*
X192157784Y-106438915D01*
X192038917Y-106546371D01*
X191983935Y-106600326D01*
X191809148Y-106795618D01*
X191642292Y-107017109D01*
X191498304Y-107243730D01*
X191415075Y-107402733D01*
X191323722Y-107629261D01*
X191237339Y-107901248D01*
X191159807Y-108202439D01*
X191095008Y-108516578D01*
X191046822Y-108827410D01*
X191024809Y-109037363D01*
X191009188Y-109186393D01*
X190988484Y-109283360D01*
X190958812Y-109337917D01*
X190916286Y-109359714D01*
X190894326Y-109361422D01*
X190860947Y-109354965D01*
X190832722Y-109329501D01*
X190805597Y-109275887D01*
X190775516Y-109184981D01*
X190738424Y-109047640D01*
X190716357Y-108960207D01*
X190656905Y-108699650D01*
X190609020Y-108444971D01*
X190575079Y-108211240D01*
X190557458Y-108013527D01*
X190555487Y-107940219D01*
X190550736Y-107798689D01*
X190535263Y-107710877D01*
X190507237Y-107669532D01*
X190485744Y-107663973D01*
X190431026Y-107693025D01*
X190372142Y-107780978D01*
X190308310Y-107929032D01*
X190302387Y-107945096D01*
X190229195Y-108208737D01*
X190181855Y-108527342D01*
X190160367Y-108900887D01*
X190164733Y-109329353D01*
X190194954Y-109812717D01*
X190204370Y-109918883D01*
X190221160Y-110135544D01*
X190235435Y-110387740D01*
X190246013Y-110649300D01*
X190251714Y-110894049D01*
X190252364Y-110981713D01*
X190248673Y-111268332D01*
X190234938Y-111508106D01*
X190208693Y-111715368D01*
X190167474Y-111904447D01*
X190108818Y-112089676D01*
X190030259Y-112285384D01*
X190026863Y-112293187D01*
X189926162Y-112504201D01*
X189826094Y-112666813D01*
X189716498Y-112793227D01*
X189587210Y-112895645D01*
X189465671Y-112966978D01*
X189274514Y-113058113D01*
X189092094Y-113122288D01*
X188903482Y-113162391D01*
X188693747Y-113181310D01*
X188447958Y-113181929D01*
X188368487Y-113179127D01*
X188143783Y-113165380D01*
X187947731Y-113142012D01*
X187762966Y-113105116D01*
X187572122Y-113050784D01*
X187357836Y-112975108D01*
X187215390Y-112919669D01*
X186848456Y-112753160D01*
X186477876Y-112547185D01*
X186158060Y-112336707D01*
X185913455Y-112161921D01*
X185829550Y-112252963D01*
X185745644Y-112344005D01*
X185408814Y-112344005D01*
X185568980Y-112202163D01*
X185879671Y-111850936D01*
X186035098Y-111637088D01*
X186109438Y-111520564D01*
X186186877Y-111388414D01*
X186261995Y-111251318D01*
X186329377Y-111119953D01*
X186383603Y-111004998D01*
X186419258Y-110917132D01*
X186430924Y-110867033D01*
X186428871Y-110860894D01*
X186396867Y-110861442D01*
X186321260Y-110875387D01*
X186213441Y-110900322D01*
X186088099Y-110932936D01*
X185813147Y-110999343D01*
X185541249Y-111045964D01*
X185258071Y-111074191D01*
X184949279Y-111085413D01*
X184600537Y-111081022D01*
X184571840Y-111080084D01*
X184227532Y-111062819D01*
X183930565Y-111036165D01*
X183683130Y-111000449D01*
X183487419Y-110955997D01*
X183345625Y-110903135D01*
X183330851Y-110895436D01*
X183207230Y-110797097D01*
X183123025Y-110664569D01*
X183085013Y-110511105D01*
X183086276Y-110444299D01*
X183310697Y-110444299D01*
X183315236Y-110525903D01*
X183317540Y-110538702D01*
X183342978Y-110604039D01*
X183394767Y-110655795D01*
X183480717Y-110697908D01*
X183608637Y-110734320D01*
X183767478Y-110765712D01*
X184114315Y-110819695D01*
X184424454Y-110852775D01*
X184714429Y-110865818D01*
X185000773Y-110859692D01*
X185229691Y-110842408D01*
X185648890Y-110784841D01*
X186043939Y-110696087D01*
X186406977Y-110578556D01*
X186730144Y-110434655D01*
X186921562Y-110323971D01*
X187001597Y-110267317D01*
X187054709Y-110219810D01*
X187069447Y-110191700D01*
X187069412Y-110191638D01*
X187075160Y-110175839D01*
X187091020Y-110179818D01*
X187131562Y-110169424D01*
X187195336Y-110126246D01*
X187239881Y-110086877D01*
X187307075Y-110025818D01*
X187358103Y-109986583D01*
X187374988Y-109978676D01*
X187397840Y-109955308D01*
X187398264Y-109949825D01*
X187371262Y-109939319D01*
X187295611Y-109933811D01*
X187179345Y-109933059D01*
X187030496Y-109936822D01*
X186857097Y-109944859D01*
X186667180Y-109956928D01*
X186468780Y-109972787D01*
X186388522Y-109980169D01*
X186082077Y-110015256D01*
X185756639Y-110062584D01*
X185441231Y-110117676D01*
X185265005Y-110153431D01*
X185149861Y-110178064D01*
X185046926Y-110199621D01*
X184977139Y-110213721D01*
X184973602Y-110214398D01*
X184916019Y-110228544D01*
X184817813Y-110255915D01*
X184692985Y-110292503D01*
X184562314Y-110332199D01*
X184389260Y-110381921D01*
X184262831Y-110408244D01*
X184176887Y-110410838D01*
X184125288Y-110389373D01*
X184101894Y-110343518D01*
X184098824Y-110307277D01*
X184112814Y-110235018D01*
X184161408Y-110184326D01*
X184254541Y-110146150D01*
X184284826Y-110137791D01*
X184361439Y-110116882D01*
X184474477Y-110084838D01*
X184605522Y-110046914D01*
X184679489Y-110025189D01*
X184806597Y-109988414D01*
X184920180Y-109956943D01*
X185004469Y-109935075D01*
X185035032Y-109928238D01*
X185100054Y-109915252D01*
X185199077Y-109894465D01*
X185307671Y-109871028D01*
X185552973Y-109820881D01*
X185791274Y-109780182D01*
X186032258Y-109748102D01*
X186285604Y-109723810D01*
X186560994Y-109706479D01*
X186868111Y-109695279D01*
X187216635Y-109689381D01*
X187444217Y-109688056D01*
X187719405Y-109687460D01*
X187941158Y-109686516D01*
X188112923Y-109684145D01*
X188238149Y-109679271D01*
X188320283Y-109670815D01*
X188362772Y-109657699D01*
X188369066Y-109638845D01*
X188342610Y-109613174D01*
X188286854Y-109579610D01*
X188205244Y-109537074D01*
X188101229Y-109484488D01*
X188098963Y-109483336D01*
X187741747Y-109331698D01*
X187353539Y-109224981D01*
X186930797Y-109162410D01*
X186544961Y-109143386D01*
X186315842Y-109146855D01*
X186079210Y-109160438D01*
X185847601Y-109182649D01*
X185633556Y-109212003D01*
X185449612Y-109247014D01*
X185308308Y-109286198D01*
X185293449Y-109291625D01*
X185233985Y-109307623D01*
X185169337Y-109319309D01*
X185094469Y-109336849D01*
X184987615Y-109371067D01*
X184858219Y-109417960D01*
X184715725Y-109473525D01*
X184569579Y-109533760D01*
X184429224Y-109594662D01*
X184304105Y-109652227D01*
X184203667Y-109702452D01*
X184137353Y-109741335D01*
X184114608Y-109764874D01*
X184115051Y-109766157D01*
X184108938Y-109782083D01*
X184093190Y-109778522D01*
X184053471Y-109785183D01*
X183983635Y-109815619D01*
X183896617Y-109861986D01*
X183805356Y-109916438D01*
X183722787Y-109971132D01*
X183661847Y-110018222D01*
X183635472Y-110049864D01*
X183636470Y-110055476D01*
X183637310Y-110066503D01*
X183621814Y-110058568D01*
X183583801Y-110061878D01*
X183529117Y-110092416D01*
X183475124Y-110136286D01*
X183439183Y-110179593D01*
X183436721Y-110206713D01*
X183428978Y-110222296D01*
X183403657Y-110225577D01*
X183367434Y-110242217D01*
X183370147Y-110273474D01*
X183372964Y-110305878D01*
X183362003Y-110304550D01*
X183337675Y-110314698D01*
X183319375Y-110367589D01*
X183310697Y-110444299D01*
X183086276Y-110444299D01*
X183086775Y-110417937D01*
X183123264Y-110256258D01*
X183195604Y-110111707D01*
X183309333Y-109977272D01*
X183469989Y-109845943D01*
X183612058Y-109752884D01*
X184065043Y-109501964D01*
X184533509Y-109290798D01*
X185008598Y-109122127D01*
X185481451Y-108998693D01*
X185943209Y-108923238D01*
X186372638Y-108898481D01*
X186509707Y-108897968D01*
X186599744Y-108894975D01*
X186652604Y-108887325D01*
X186678140Y-108872838D01*
X186686208Y-108849337D01*
X186686757Y-108829040D01*
X186678309Y-108740300D01*
X186655997Y-108617928D01*
X186623134Y-108473452D01*
X186583035Y-108318398D01*
X186539011Y-108164294D01*
X186494377Y-108022667D01*
X186452446Y-107905045D01*
X186416531Y-107822954D01*
X186389945Y-107787921D01*
X186387363Y-107787424D01*
X186334250Y-107813539D01*
X186301578Y-107873263D01*
X186303287Y-107933629D01*
X186347302Y-108085515D01*
X186350748Y-108214982D01*
X186317814Y-108333727D01*
X186238271Y-108463154D01*
X186130311Y-108549033D01*
X186005865Y-108589275D01*
X185876865Y-108581788D01*
X185755241Y-108524480D01*
X185675113Y-108446359D01*
X185628014Y-108396096D01*
X185584776Y-108389581D01*
X185538956Y-108408445D01*
X185476947Y-108430385D01*
X185434452Y-108414754D01*
X185417470Y-108398161D01*
X185387579Y-108331843D01*
X185390824Y-108292384D01*
X185419211Y-108257439D01*
X185487306Y-108195044D01*
X185587308Y-108111707D01*
X185711419Y-108013931D01*
X185848240Y-107910875D01*
X185986851Y-107806304D01*
X186107501Y-107710746D01*
X186202795Y-107630434D01*
X186265335Y-107571601D01*
X186287727Y-107540522D01*
X186270857Y-107488650D01*
X186224910Y-107399855D01*
X186156814Y-107285008D01*
X186073494Y-107154976D01*
X185981877Y-107020631D01*
X185888889Y-106892840D01*
X185815332Y-106799179D01*
X185495042Y-106454760D01*
X185143010Y-106160064D01*
X184763265Y-105916821D01*
X184359839Y-105726759D01*
X183936762Y-105591608D01*
X183498064Y-105513097D01*
X183047777Y-105492957D01*
X182803376Y-105506762D01*
X182372424Y-105576577D01*
X181953872Y-105703699D01*
X181552860Y-105884495D01*
X181174528Y-106115333D01*
X180824019Y-106392581D01*
X180506471Y-106712605D01*
X180227025Y-107071775D01*
X179990823Y-107466458D01*
X179968816Y-107509660D01*
X179783052Y-107943598D01*
X179648727Y-108397692D01*
X179566268Y-108865324D01*
X179536102Y-109339876D01*
X179558659Y-109814730D01*
X179634365Y-110283268D01*
X179760632Y-110730210D01*
X179848662Y-110960842D01*
X179948992Y-111185551D01*
X180051354Y-111382066D01*
X180093960Y-111453180D01*
X180151276Y-111565266D01*
X180167855Y-111651533D01*
X180143825Y-111705869D01*
X180088298Y-111722418D01*
X180037405Y-111708291D01*
X179985892Y-111658865D01*
X179922811Y-111563576D01*
X179921627Y-111561585D01*
X179826064Y-111400752D01*
X179679857Y-111480750D01*
X179556289Y-111550608D01*
X179431206Y-111625156D01*
X179314124Y-111698236D01*
X179214559Y-111763690D01*
X179142025Y-111815363D01*
X179106039Y-111847097D01*
X179104269Y-111853194D01*
X179133393Y-111871602D01*
X179204552Y-111912370D01*
X179308793Y-111970488D01*
X179437164Y-112040944D01*
X179525238Y-112088786D01*
X179688234Y-112178868D01*
X179804743Y-112248105D01*
X179880408Y-112300361D01*
X179920871Y-112339498D01*
X179931859Y-112367171D01*
X179909699Y-112431502D01*
X179883978Y-112458304D01*
X179854177Y-112465885D01*
X179804353Y-112456259D01*
X179727143Y-112426549D01*
X179615181Y-112373876D01*
X179461105Y-112295362D01*
X179443105Y-112285983D01*
X178941234Y-112043077D01*
X178458271Y-111849201D01*
X177983672Y-111700579D01*
X177514166Y-111594760D01*
X177311355Y-111566914D01*
X177073558Y-111549297D01*
X176817498Y-111541910D01*
X176559901Y-111544752D01*
X176317491Y-111557821D01*
X176106993Y-111581117D01*
X176027755Y-111594814D01*
X175602462Y-111708095D01*
X175180374Y-111875536D01*
X174775639Y-112090723D01*
X174452599Y-112308806D01*
X174224724Y-112499867D01*
X173984031Y-112737202D01*
X173739440Y-113010045D01*
X173499869Y-113307628D01*
X173274236Y-113619183D01*
X173071461Y-113933944D01*
X172988757Y-114076059D01*
X172834041Y-114366530D01*
X172684238Y-114675560D01*
X172543410Y-114992786D01*
X172415621Y-115307845D01*
X172304932Y-115610374D01*
X172215406Y-115890008D01*
X172151104Y-116136386D01*
X172123144Y-116284401D01*
X172103425Y-116497651D01*
X172099839Y-116743694D01*
X172111292Y-117000003D01*
X172136689Y-117244054D01*
X172174933Y-117453324D01*
X172181185Y-117478311D01*
X172223576Y-117619464D01*
X172273192Y-117751744D01*
X172324305Y-117862809D01*
X172371186Y-117940320D01*
X172408109Y-117971937D01*
X172410392Y-117972114D01*
X172454483Y-117942737D01*
X172508283Y-117857971D01*
X172569943Y-117722864D01*
X172637610Y-117542466D01*
X172709436Y-117321826D01*
X172783570Y-117065991D01*
X172858161Y-116780011D01*
X172879817Y-116691312D01*
X172932346Y-116491774D01*
X172979808Y-116351864D01*
X173022922Y-116269806D01*
X173061390Y-116243803D01*
X173099210Y-116253413D01*
X173127958Y-116287288D01*
X173149305Y-116352999D01*
X173164923Y-116458117D01*
X173176483Y-116610211D01*
X173185207Y-116804510D01*
X173206125Y-117176411D01*
X173239921Y-117522452D01*
X173285335Y-117834474D01*
X173341108Y-118104317D01*
X173405977Y-118323822D01*
X173429235Y-118383987D01*
X173482614Y-118512211D01*
X173540408Y-118373329D01*
X173578445Y-118258334D01*
X173619888Y-118091987D01*
X173663033Y-117884409D01*
X173706175Y-117645725D01*
X173747607Y-117386056D01*
X173785625Y-117115526D01*
X173818524Y-116844258D01*
X173844597Y-116582374D01*
X173847156Y-116552430D01*
X173863838Y-116397651D01*
X173885224Y-116295665D01*
X173914616Y-116237561D01*
X173955317Y-116214426D01*
X173972956Y-116212940D01*
X174015620Y-116224051D01*
X174048557Y-116263651D01*
X174075687Y-116341139D01*
X174100932Y-116465916D01*
X174114590Y-116552430D01*
X174142772Y-116727034D01*
X174180423Y-116940147D01*
X174224061Y-117173759D01*
X174270205Y-117409864D01*
X174315372Y-117630453D01*
X174356080Y-117817519D01*
X174374183Y-117894957D01*
X174414465Y-118043538D01*
X174460682Y-118186052D01*
X174508120Y-118310645D01*
X174552065Y-118405460D01*
X174587804Y-118458643D01*
X174601196Y-118465917D01*
X174639171Y-118437277D01*
X174686993Y-118356639D01*
X174740867Y-118231931D01*
X174796996Y-118071080D01*
X174809453Y-118031031D01*
X174867501Y-117813062D01*
X174925223Y-117544753D01*
X174980701Y-117237469D01*
X175032017Y-116902570D01*
X175077254Y-116551420D01*
X175108474Y-116259234D01*
X175140363Y-115955793D01*
X175173448Y-115701536D01*
X175210118Y-115483935D01*
X175252760Y-115290462D01*
X175282535Y-115184283D01*
X175493716Y-115184283D01*
X175516093Y-115176998D01*
X175567300Y-115117044D01*
X175647704Y-115004456D01*
X175716978Y-114901276D01*
X175828918Y-114738880D01*
X175964872Y-114552348D01*
X176109519Y-114362137D01*
X176247540Y-114188704D01*
X176280220Y-114149159D01*
X176399040Y-114004853D01*
X176478281Y-113903248D01*
X176518039Y-113842808D01*
X176518413Y-113821999D01*
X176479499Y-113839287D01*
X176401393Y-113893137D01*
X176291097Y-113976671D01*
X176035627Y-114211022D01*
X175814434Y-114489662D01*
X175635449Y-114802175D01*
X175595914Y-114889776D01*
X175533992Y-115040707D01*
X175499804Y-115138864D01*
X175493716Y-115184283D01*
X175282535Y-115184283D01*
X175303762Y-115108590D01*
X175359448Y-114942621D01*
X175502982Y-114618800D01*
X175692002Y-114312414D01*
X175917385Y-114035249D01*
X176170008Y-113799085D01*
X176340186Y-113675920D01*
X176658600Y-113506158D01*
X177004682Y-113388107D01*
X177374690Y-113322013D01*
X177764883Y-113308121D01*
X178171522Y-113346677D01*
X178590865Y-113437927D01*
X178830342Y-113512304D01*
X178998664Y-113578073D01*
X179112764Y-113640757D01*
X179172032Y-113699751D01*
X179175864Y-113754447D01*
X179123650Y-113804237D01*
X179122760Y-113804756D01*
X179073016Y-113817898D01*
X179000769Y-113805555D01*
X178904624Y-113770809D01*
X178513049Y-113640216D01*
X178106408Y-113557762D01*
X177698606Y-113525349D01*
X177303548Y-113544881D01*
X177277499Y-113548142D01*
X177209930Y-113559695D01*
X177152206Y-113579515D01*
X177092850Y-113615178D01*
X177020387Y-113674259D01*
X176923341Y-113764334D01*
X176865069Y-113820405D01*
X176525945Y-114178420D01*
X176191542Y-114590455D01*
X175867630Y-115048816D01*
X175559978Y-115545808D01*
X175523187Y-115609854D01*
X175340361Y-115930789D01*
X175294448Y-116419070D01*
X175252512Y-116803060D01*
X175201361Y-117167041D01*
X175142412Y-117504934D01*
X175077085Y-117810655D01*
X175006797Y-118078124D01*
X174932967Y-118301258D01*
X174857012Y-118473976D01*
X174791136Y-118577476D01*
X174694134Y-118661234D01*
X174592052Y-118685776D01*
X174492249Y-118652116D01*
X174402089Y-118561270D01*
X174376493Y-118520317D01*
X174327478Y-118412726D01*
X174272407Y-118257761D01*
X174215187Y-118068820D01*
X174159722Y-117859300D01*
X174109918Y-117642599D01*
X174086240Y-117524605D01*
X174058826Y-117386348D01*
X174033534Y-117270732D01*
X174013419Y-117191029D01*
X174002599Y-117161338D01*
X173991391Y-117180590D01*
X173974811Y-117250319D01*
X173955004Y-117359815D01*
X173934112Y-117498370D01*
X173931923Y-117514317D01*
X173892270Y-117770934D01*
X173845800Y-118013527D01*
X173795206Y-118230730D01*
X173743184Y-118411179D01*
X173692430Y-118543507D01*
X173683617Y-118561376D01*
X173605184Y-118673767D01*
X173520307Y-118726274D01*
X173433043Y-118719676D01*
X173347448Y-118654756D01*
X173267577Y-118532293D01*
X173241883Y-118476356D01*
X173201024Y-118357201D01*
X173157433Y-118192419D01*
X173114293Y-117997770D01*
X173074788Y-117789018D01*
X173042100Y-117581924D01*
X173019412Y-117392251D01*
X173016606Y-117360819D01*
X173005056Y-117256082D01*
X172991687Y-117184408D01*
X172979076Y-117158868D01*
X172977057Y-117160212D01*
X172959577Y-117200011D01*
X172932014Y-117282855D01*
X172899727Y-117392383D01*
X172893029Y-117416586D01*
X172810507Y-117677277D01*
X172718601Y-117893727D01*
X172620791Y-118057987D01*
X172601261Y-118083340D01*
X172504606Y-118166812D01*
X172401087Y-118189284D01*
X172293899Y-118150510D01*
X172243093Y-118110996D01*
X172184365Y-118065394D01*
X172123896Y-118042105D01*
X172048052Y-118040482D01*
X171943198Y-118059876D01*
X171825476Y-118091159D01*
X171667838Y-118142366D01*
X171541584Y-118196802D01*
X171456043Y-118249990D01*
X171426091Y-118282806D01*
X171223286Y-118282806D01*
X171231861Y-118224330D01*
X171301021Y-118116479D01*
X171423566Y-118018039D01*
X171537355Y-117959038D01*
X171704330Y-117885949D01*
X171605404Y-117835013D01*
X171492670Y-117759269D01*
X171396252Y-117662409D01*
X171330854Y-117560821D01*
X171313624Y-117509816D01*
X171316629Y-117433330D01*
X171517229Y-117433330D01*
X171519101Y-117493532D01*
X171566205Y-117552301D01*
X171661872Y-117613345D01*
X171809433Y-117680371D01*
X171853919Y-117698143D01*
X171954078Y-117735807D01*
X172010632Y-117750995D01*
X172032870Y-117743953D01*
X172030081Y-117714927D01*
X172026011Y-117702700D01*
X172011105Y-117647621D01*
X171989186Y-117551512D01*
X171964656Y-117433815D01*
X171961363Y-117417220D01*
X171938809Y-117305793D01*
X171920506Y-117220758D01*
X171909802Y-117177546D01*
X171908849Y-117175253D01*
X171878672Y-117177484D01*
X171815826Y-117203680D01*
X171735975Y-117245254D01*
X171654784Y-117293618D01*
X171587917Y-117340186D01*
X171557257Y-117367988D01*
X171517229Y-117433330D01*
X171316629Y-117433330D01*
X171318120Y-117395392D01*
X171371846Y-117279004D01*
X171467894Y-117168664D01*
X171599357Y-117072385D01*
X171752683Y-117000546D01*
X171889109Y-116951378D01*
X171903173Y-116559012D01*
X171910094Y-116398021D01*
X171919878Y-116270390D01*
X171935823Y-116157627D01*
X171961229Y-116041237D01*
X171999395Y-115902729D01*
X172050244Y-115734569D01*
X172123577Y-115517515D01*
X172219558Y-115265192D01*
X172332245Y-114990844D01*
X172455694Y-114707716D01*
X172583965Y-114429053D01*
X172711114Y-114168099D01*
X172831198Y-113938101D01*
X172938276Y-113752302D01*
X172943047Y-113744626D01*
X173273070Y-113254199D01*
X173614916Y-112822764D01*
X173970970Y-112448442D01*
X174343618Y-112129357D01*
X174735243Y-111863630D01*
X175148230Y-111649383D01*
X175584964Y-111484740D01*
X175929785Y-111392622D01*
X176061879Y-111365619D01*
X176187654Y-111346555D01*
X176321723Y-111334216D01*
X176478697Y-111327388D01*
X176673187Y-111324855D01*
X176746192Y-111324753D01*
X177153651Y-111337762D01*
X177529001Y-111378412D01*
X177892370Y-111449900D01*
X178263886Y-111555423D01*
X178324804Y-111575469D01*
X178502908Y-111635626D01*
X178635972Y-111679732D01*
X178733837Y-111707990D01*
X178806342Y-111720600D01*
X178863327Y-111717764D01*
X178914633Y-111699683D01*
X178970099Y-111666557D01*
X179039566Y-111618589D01*
X179079946Y-111590909D01*
X179213074Y-111504179D01*
X179359489Y-111413761D01*
X179491738Y-111336516D01*
X179516144Y-111322998D01*
X179618603Y-111261850D01*
X179685917Y-111210829D01*
X179709984Y-111176227D01*
X179709380Y-111172886D01*
X179569652Y-110780898D01*
X179464060Y-110424812D01*
X179390615Y-110092849D01*
X179347326Y-109773228D01*
X179332206Y-109454171D01*
X179343263Y-109123897D01*
X179349544Y-109042218D01*
X179386431Y-108697697D01*
X179437489Y-108395327D01*
X179507532Y-108116372D01*
X179601374Y-107842097D01*
X179723830Y-107553767D01*
X179742355Y-107513732D01*
X179897425Y-107208161D01*
X180062685Y-106940911D01*
X180253554Y-106688836D01*
X180414651Y-106504664D01*
X180624321Y-106287237D01*
X180823116Y-106107377D01*
X181029060Y-105950983D01*
X181260176Y-105803955D01*
X181439362Y-105702970D01*
X181864772Y-105505914D01*
X182302661Y-105368011D01*
X182749122Y-105289305D01*
X183200246Y-105269840D01*
X183652127Y-105309660D01*
G36*
X179519429Y-126474787D02*
G01*
X179505207Y-126490219D01*
X179490985Y-126474787D01*
X179505207Y-126459356D01*
X179519429Y-126474787D01*
G37*
X179519429Y-126474787D02*
X179505207Y-126490219D01*
X179490985Y-126474787D01*
X179505207Y-126459356D01*
X179519429Y-126474787D01*
G36*
X179434098Y-126443925D02*
G01*
X179419877Y-126459356D01*
X179405655Y-126443925D01*
X179419877Y-126428493D01*
X179434098Y-126443925D01*
G37*
X179434098Y-126443925D02*
X179419877Y-126459356D01*
X179405655Y-126443925D01*
X179419877Y-126428493D01*
X179434098Y-126443925D01*
G36*
X180258958Y-126289611D02*
G01*
X180244737Y-126305042D01*
X180230515Y-126289611D01*
X180244737Y-126274180D01*
X180258958Y-126289611D01*
G37*
X180258958Y-126289611D02*
X180244737Y-126305042D01*
X180230515Y-126289611D01*
X180244737Y-126274180D01*
X180258958Y-126289611D01*
G36*
X178950560Y-125826671D02*
G01*
X178936338Y-125842102D01*
X178922116Y-125826671D01*
X178936338Y-125811239D01*
X178950560Y-125826671D01*
G37*
X178950560Y-125826671D02*
X178936338Y-125842102D01*
X178922116Y-125826671D01*
X178936338Y-125811239D01*
X178950560Y-125826671D01*
G36*
X183586842Y-126382199D02*
G01*
X183572620Y-126397631D01*
X183558399Y-126382199D01*
X183572620Y-126366768D01*
X183586842Y-126382199D01*
G37*
X183586842Y-126382199D02*
X183572620Y-126397631D01*
X183558399Y-126382199D01*
X183572620Y-126366768D01*
X183586842Y-126382199D01*
G36*
X183473068Y-126258748D02*
G01*
X183458846Y-126274180D01*
X183444625Y-126258748D01*
X183458846Y-126243317D01*
X183473068Y-126258748D01*
G37*
X183473068Y-126258748D02*
X183458846Y-126274180D01*
X183444625Y-126258748D01*
X183458846Y-126243317D01*
X183473068Y-126258748D01*
G36*
X182676652Y-125980984D02*
G01*
X182662430Y-125996415D01*
X182648208Y-125980984D01*
X182662430Y-125965553D01*
X182676652Y-125980984D01*
G37*
X182676652Y-125980984D02*
X182662430Y-125996415D01*
X182648208Y-125980984D01*
X182662430Y-125965553D01*
X182676652Y-125980984D01*
G36*
X182858908Y-107452668D02*
G01*
X182950568Y-107493837D01*
X183076503Y-107562244D01*
X183241787Y-107659664D01*
X183407458Y-107760732D01*
X183577729Y-107865506D01*
X183738701Y-107964533D01*
X183881261Y-108052207D01*
X183996291Y-108122923D01*
X184074677Y-108171075D01*
X184094038Y-108182951D01*
X184189006Y-108251323D01*
X184231734Y-108310732D01*
X184225197Y-108367070D01*
X184202545Y-108397950D01*
X184163887Y-108428541D01*
X184117120Y-108429354D01*
X184054309Y-108408155D01*
X183987919Y-108385018D01*
X183950140Y-108377426D01*
X183947366Y-108378698D01*
X183932666Y-108410162D01*
X183901443Y-108477124D01*
X183885498Y-108511340D01*
X183795962Y-108640141D01*
X183674178Y-108723132D01*
X183530774Y-108755068D01*
X183416634Y-108742663D01*
X183308275Y-108687832D01*
X183211843Y-108589578D01*
X183142314Y-108466115D01*
X183118500Y-108380075D01*
X183115283Y-108282640D01*
X183138025Y-108173154D01*
X183190464Y-108037806D01*
X183238350Y-107937206D01*
X183219464Y-107914710D01*
X183160611Y-107869552D01*
X183071635Y-107808885D01*
X182990922Y-107757426D01*
X182870999Y-107680459D01*
X182793803Y-107623465D01*
X182751093Y-107578995D01*
X182734628Y-107539605D01*
X182733538Y-107524851D01*
X182738837Y-107474828D01*
X182758116Y-107444939D01*
X182796448Y-107436960D01*
X182858908Y-107452668D01*
G37*
X182858908Y-107452668D02*
X182950568Y-107493837D01*
X183076503Y-107562244D01*
X183241787Y-107659664D01*
X183407458Y-107760732D01*
X183577729Y-107865506D01*
X183738701Y-107964533D01*
X183881261Y-108052207D01*
X183996291Y-108122923D01*
X184074677Y-108171075D01*
X184094038Y-108182951D01*
X184189006Y-108251323D01*
X184231734Y-108310732D01*
X184225197Y-108367070D01*
X184202545Y-108397950D01*
X184163887Y-108428541D01*
X184117120Y-108429354D01*
X184054309Y-108408155D01*
X183987919Y-108385018D01*
X183950140Y-108377426D01*
X183947366Y-108378698D01*
X183932666Y-108410162D01*
X183901443Y-108477124D01*
X183885498Y-108511340D01*
X183795962Y-108640141D01*
X183674178Y-108723132D01*
X183530774Y-108755068D01*
X183416634Y-108742663D01*
X183308275Y-108687832D01*
X183211843Y-108589578D01*
X183142314Y-108466115D01*
X183118500Y-108380075D01*
X183115283Y-108282640D01*
X183138025Y-108173154D01*
X183190464Y-108037806D01*
X183238350Y-107937206D01*
X183219464Y-107914710D01*
X183160611Y-107869552D01*
X183071635Y-107808885D01*
X182990922Y-107757426D01*
X182870999Y-107680459D01*
X182793803Y-107623465D01*
X182751093Y-107578995D01*
X182734628Y-107539605D01*
X182733538Y-107524851D01*
X182738837Y-107474828D01*
X182758116Y-107444939D01*
X182796448Y-107436960D01*
X182858908Y-107452668D01*
D13*
%TO.C,BT1*%
X196500000Y-87650000D02*
X196500000Y-85650000D01*
X197500000Y-86650000D02*
X195500000Y-86650000D01*
X210850000Y-111000000D02*
X206350000Y-111000000D01*
X210850000Y-88300000D02*
X206350000Y-88300000D01*
X210850000Y-88300000D02*
X210850000Y-111000000D01*
X206350000Y-114200000D02*
X204800000Y-114200000D01*
X206350000Y-111000000D02*
X206350000Y-114200000D01*
X206350000Y-85100000D02*
X204800000Y-85100000D01*
X206350000Y-88300000D02*
X206350000Y-85100000D01*
X198650000Y-85100000D02*
X200200000Y-85100000D01*
X198650000Y-88300000D02*
X198650000Y-85100000D01*
X194150000Y-90100000D02*
X195950000Y-88300000D01*
X195950000Y-88300000D02*
X198650000Y-88300000D01*
X194150000Y-111000000D02*
X194150000Y-90100000D01*
X194150000Y-111000000D02*
X198650000Y-111000000D01*
X198650000Y-114200000D02*
X200200000Y-114200000D01*
X198650000Y-111000000D02*
X198650000Y-114200000D01*
%TO.C,JP1*%
X200000000Y-80400000D02*
X200000000Y-77600000D01*
X200000000Y-77600000D02*
X202000000Y-77600000D01*
X202000000Y-77600000D02*
X202000000Y-80400000D01*
X202000000Y-80400000D02*
X200000000Y-80400000D01*
%TO.C,C1*%
X186210000Y-74321078D02*
X186210000Y-73803922D01*
X184790000Y-74321078D02*
X184790000Y-73803922D01*
%TO.C,B*%
X193050000Y-66000000D02*
X193975000Y-66000000D01*
X189175000Y-63875000D02*
X189175000Y-64425000D01*
X194075000Y-63875000D02*
X194075000Y-64425000D01*
X189275000Y-62300000D02*
X193975000Y-62300000D01*
X189275000Y-66000000D02*
X190200000Y-66000000D01*
%TO.C,Y1*%
X181713999Y-81806102D02*
X182208974Y-82301076D01*
X181197811Y-80342391D02*
X181713999Y-81806102D01*
X183510051Y-80010051D02*
X184005025Y-80505025D01*
X182046339Y-79493863D02*
X183510051Y-80010051D01*
X180419994Y-81120208D02*
X182824157Y-78716045D01*
X172712530Y-73412744D02*
X180419994Y-81120208D01*
X175116693Y-71008581D02*
X172712530Y-73412744D01*
X182824157Y-78716045D02*
X175116693Y-71008581D01*
%TO.C,J6*%
X186730000Y-91650000D02*
X187940000Y-91650000D01*
X184070000Y-95710000D02*
X184070000Y-98920000D01*
X184070000Y-90980000D02*
X184070000Y-94190000D01*
X184070000Y-98920000D02*
X186730000Y-98920000D01*
X186730000Y-98250000D02*
X186730000Y-98920000D01*
X186730000Y-93170000D02*
X186730000Y-96730000D01*
X186730000Y-90980000D02*
X186730000Y-91650000D01*
X184070000Y-90980000D02*
X186730000Y-90980000D01*
%TO.C,J5*%
X184355777Y-123403229D02*
X183500178Y-124258829D01*
X183365828Y-118651472D02*
X181096015Y-116381659D01*
X186710443Y-121996087D02*
X184440630Y-119726274D01*
X181096015Y-116381659D02*
X179215111Y-118262563D01*
X179688873Y-118736325D02*
X179215111Y-118262563D01*
X183280975Y-122328427D02*
X180763675Y-119811127D01*
X184829539Y-123876991D02*
X184355777Y-123403229D01*
X186710443Y-121996087D02*
X184829539Y-123876991D01*
%TO.C,J4*%
X180480000Y-91640000D02*
X181690000Y-91640000D01*
X177820000Y-95700000D02*
X177820000Y-98910000D01*
X177820000Y-90970000D02*
X177820000Y-94180000D01*
X177820000Y-98910000D02*
X180480000Y-98910000D01*
X180480000Y-98240000D02*
X180480000Y-98910000D01*
X180480000Y-93160000D02*
X180480000Y-96720000D01*
X180480000Y-90970000D02*
X180480000Y-91640000D01*
X177820000Y-90970000D02*
X180480000Y-90970000D01*
%TO.C,J2*%
X201903229Y-118144223D02*
X202758829Y-118999822D01*
X197151472Y-119134172D02*
X194881659Y-121403985D01*
X200496087Y-115789557D02*
X198226274Y-118059370D01*
X194881659Y-121403985D02*
X196762563Y-123284889D01*
X197236325Y-122811127D02*
X196762563Y-123284889D01*
X200828427Y-119219025D02*
X198311127Y-121736325D01*
X202376991Y-117670461D02*
X201903229Y-118144223D01*
X200496087Y-115789557D02*
X202376991Y-117670461D01*
%TO.C,J1*%
X174360000Y-63280000D02*
X174360000Y-64490000D01*
X170300000Y-60620000D02*
X169630000Y-60620000D01*
X175030000Y-60620000D02*
X171820000Y-60620000D01*
X169630000Y-60620000D02*
X169630000Y-63280000D01*
X172840000Y-63280000D02*
X169630000Y-63280000D01*
X175030000Y-63280000D02*
X174360000Y-63280000D01*
X175030000Y-60620000D02*
X175030000Y-63280000D01*
%TO.C,U1*%
X187940437Y-74350089D02*
X187010592Y-75279934D01*
X187728305Y-74137957D02*
X187940437Y-74350089D01*
X187940437Y-73925825D02*
X187728305Y-74137957D01*
X192833616Y-69032646D02*
X193045748Y-69244778D01*
X192621484Y-69244778D02*
X192833616Y-69032646D01*
X192833616Y-79243268D02*
X192621484Y-79031136D01*
X193045748Y-79031136D02*
X192833616Y-79243268D01*
X197938927Y-74137957D02*
X197726795Y-73925825D01*
X197726795Y-74350089D02*
X197938927Y-74137957D01*
%TO.C,U2*%
X172500000Y-72410000D02*
X166490000Y-72410000D01*
X170250000Y-65590000D02*
X166490000Y-65590000D01*
X166490000Y-72410000D02*
X166490000Y-71150000D01*
X166490000Y-65590000D02*
X166490000Y-66850000D01*
%TO.C,R7*%
X189210000Y-83258578D02*
X189210000Y-82741422D01*
X187790000Y-83258578D02*
X187790000Y-82741422D01*
%TO.C,R6*%
X200210000Y-68321078D02*
X200210000Y-67803922D01*
X198790000Y-68321078D02*
X198790000Y-67803922D01*
%TO.C,R5*%
X199460000Y-79321078D02*
X199460000Y-78803922D01*
X198040000Y-79321078D02*
X198040000Y-78803922D01*
%TO.C,R4*%
X190290000Y-104241422D02*
X190290000Y-104758578D01*
X191710000Y-104241422D02*
X191710000Y-104758578D01*
%TO.C,R3*%
X187790000Y-104303922D02*
X187790000Y-104821078D01*
X189210000Y-104303922D02*
X189210000Y-104821078D01*
%TO.C,D1*%
X202960000Y-69747500D02*
X202960000Y-67062500D01*
X201040000Y-69747500D02*
X202960000Y-69747500D01*
X201040000Y-67062500D02*
X201040000Y-69747500D01*
%TO.C,C7*%
X173890000Y-67741422D02*
X173890000Y-68258578D01*
X175310000Y-67741422D02*
X175310000Y-68258578D01*
%TO.C,C6*%
X167058578Y-62690000D02*
X166541422Y-62690000D01*
X167058578Y-64110000D02*
X166541422Y-64110000D01*
%TO.C,C5*%
X192541422Y-82110000D02*
X193058578Y-82110000D01*
X192541422Y-80690000D02*
X193058578Y-80690000D01*
%TO.C,C4*%
X183490000Y-84649721D02*
X183490000Y-84975279D01*
X184510000Y-84649721D02*
X184510000Y-84975279D01*
%TO.C,C3*%
X199290000Y-73741422D02*
X199290000Y-74258578D01*
X200710000Y-73741422D02*
X200710000Y-74258578D01*
%TO.C,C2*%
X185490000Y-82837221D02*
X185490000Y-83162779D01*
X186510000Y-82837221D02*
X186510000Y-83162779D01*
%TO.C,BT1*%
D14*
X209678571Y-90785714D02*
X209726190Y-90642857D01*
X209773809Y-90595238D01*
X209869047Y-90547619D01*
X210011904Y-90547619D01*
X210107142Y-90595238D01*
X210154761Y-90642857D01*
X210202380Y-90738095D01*
X210202380Y-91119047D01*
X209202380Y-91119047D01*
X209202380Y-90785714D01*
X209250000Y-90690476D01*
X209297619Y-90642857D01*
X209392857Y-90595238D01*
X209488095Y-90595238D01*
X209583333Y-90642857D01*
X209630952Y-90690476D01*
X209678571Y-90785714D01*
X209678571Y-91119047D01*
X209202380Y-90261904D02*
X209202380Y-89690476D01*
X210202380Y-89976190D02*
X209202380Y-89976190D01*
X210202380Y-88833333D02*
X210202380Y-89404761D01*
X210202380Y-89119047D02*
X209202380Y-89119047D01*
X209345238Y-89214285D01*
X209440476Y-89309523D01*
X209488095Y-89404761D01*
%TO.C,JP1*%
X198652380Y-79833333D02*
X199366666Y-79833333D01*
X199509523Y-79880952D01*
X199604761Y-79976190D01*
X199652380Y-80119047D01*
X199652380Y-80214285D01*
X199652380Y-79357142D02*
X198652380Y-79357142D01*
X198652380Y-78976190D01*
X198700000Y-78880952D01*
X198747619Y-78833333D01*
X198842857Y-78785714D01*
X198985714Y-78785714D01*
X199080952Y-78833333D01*
X199128571Y-78880952D01*
X199176190Y-78976190D01*
X199176190Y-79357142D01*
X199652380Y-77833333D02*
X199652380Y-78404761D01*
X199652380Y-78119047D02*
X198652380Y-78119047D01*
X198795238Y-78214285D01*
X198890476Y-78309523D01*
X198938095Y-78404761D01*
%TO.C,C1*%
X184207142Y-74229166D02*
X184254761Y-74276785D01*
X184302380Y-74419642D01*
X184302380Y-74514880D01*
X184254761Y-74657738D01*
X184159523Y-74752976D01*
X184064285Y-74800595D01*
X183873809Y-74848214D01*
X183730952Y-74848214D01*
X183540476Y-74800595D01*
X183445238Y-74752976D01*
X183350000Y-74657738D01*
X183302380Y-74514880D01*
X183302380Y-74419642D01*
X183350000Y-74276785D01*
X183397619Y-74229166D01*
X184302380Y-73276785D02*
X184302380Y-73848214D01*
X184302380Y-73562500D02*
X183302380Y-73562500D01*
X183445238Y-73657738D01*
X183540476Y-73752976D01*
X183588095Y-73848214D01*
%TO.C,B*%
X186428571Y-64428571D02*
X186476190Y-64285714D01*
X186523809Y-64238095D01*
X186619047Y-64190476D01*
X186761904Y-64190476D01*
X186857142Y-64238095D01*
X186904761Y-64285714D01*
X186952380Y-64380952D01*
X186952380Y-64761904D01*
X185952380Y-64761904D01*
X185952380Y-64428571D01*
X186000000Y-64333333D01*
X186047619Y-64285714D01*
X186142857Y-64238095D01*
X186238095Y-64238095D01*
X186333333Y-64285714D01*
X186380952Y-64333333D01*
X186428571Y-64428571D01*
X186428571Y-64761904D01*
%TO.C,U1*%
X191824026Y-74401522D02*
X192396446Y-74973942D01*
X192497461Y-75007614D01*
X192564805Y-75007614D01*
X192665820Y-74973942D01*
X192800507Y-74839255D01*
X192834179Y-74738240D01*
X192834179Y-74670896D01*
X192800507Y-74569881D01*
X192228087Y-73997461D01*
X193642301Y-73997461D02*
X193238240Y-74401522D01*
X193440270Y-74199492D02*
X192733164Y-73492385D01*
X192766835Y-73660744D01*
X192766835Y-73795431D01*
X192733164Y-73896446D01*
%TO.C,U2*%
X164502380Y-72961904D02*
X165311904Y-72961904D01*
X165407142Y-72914285D01*
X165454761Y-72866666D01*
X165502380Y-72771428D01*
X165502380Y-72580952D01*
X165454761Y-72485714D01*
X165407142Y-72438095D01*
X165311904Y-72390476D01*
X164502380Y-72390476D01*
X164597619Y-71961904D02*
X164550000Y-71914285D01*
X164502380Y-71819047D01*
X164502380Y-71580952D01*
X164550000Y-71485714D01*
X164597619Y-71438095D01*
X164692857Y-71390476D01*
X164788095Y-71390476D01*
X164930952Y-71438095D01*
X165502380Y-72009523D01*
X165502380Y-71390476D01*
%TO.C,R7*%
X189202380Y-85916666D02*
X188726190Y-86250000D01*
X189202380Y-86488095D02*
X188202380Y-86488095D01*
X188202380Y-86107142D01*
X188250000Y-86011904D01*
X188297619Y-85964285D01*
X188392857Y-85916666D01*
X188535714Y-85916666D01*
X188630952Y-85964285D01*
X188678571Y-86011904D01*
X188726190Y-86107142D01*
X188726190Y-86488095D01*
X188202380Y-85583333D02*
X188202380Y-84916666D01*
X189202380Y-85345238D01*
%TO.C,R6*%
X198952380Y-65416666D02*
X198476190Y-65750000D01*
X198952380Y-65988095D02*
X197952380Y-65988095D01*
X197952380Y-65607142D01*
X198000000Y-65511904D01*
X198047619Y-65464285D01*
X198142857Y-65416666D01*
X198285714Y-65416666D01*
X198380952Y-65464285D01*
X198428571Y-65511904D01*
X198476190Y-65607142D01*
X198476190Y-65988095D01*
X197952380Y-64559523D02*
X197952380Y-64750000D01*
X198000000Y-64845238D01*
X198047619Y-64892857D01*
X198190476Y-64988095D01*
X198380952Y-65035714D01*
X198761904Y-65035714D01*
X198857142Y-64988095D01*
X198904761Y-64940476D01*
X198952380Y-64845238D01*
X198952380Y-64654761D01*
X198904761Y-64559523D01*
X198857142Y-64511904D01*
X198761904Y-64464285D01*
X198523809Y-64464285D01*
X198428571Y-64511904D01*
X198380952Y-64559523D01*
X198333333Y-64654761D01*
X198333333Y-64845238D01*
X198380952Y-64940476D01*
X198428571Y-64988095D01*
X198523809Y-65035714D01*
%TO.C,R5*%
X198952380Y-82041666D02*
X198476190Y-82375000D01*
X198952380Y-82613095D02*
X197952380Y-82613095D01*
X197952380Y-82232142D01*
X198000000Y-82136904D01*
X198047619Y-82089285D01*
X198142857Y-82041666D01*
X198285714Y-82041666D01*
X198380952Y-82089285D01*
X198428571Y-82136904D01*
X198476190Y-82232142D01*
X198476190Y-82613095D01*
X197952380Y-81136904D02*
X197952380Y-81613095D01*
X198428571Y-81660714D01*
X198380952Y-81613095D01*
X198333333Y-81517857D01*
X198333333Y-81279761D01*
X198380952Y-81184523D01*
X198428571Y-81136904D01*
X198523809Y-81089285D01*
X198761904Y-81089285D01*
X198857142Y-81136904D01*
X198904761Y-81184523D01*
X198952380Y-81279761D01*
X198952380Y-81517857D01*
X198904761Y-81613095D01*
X198857142Y-81660714D01*
%TO.C,D1*%
X200952380Y-65988095D02*
X199952380Y-65988095D01*
X199952380Y-65750000D01*
X200000000Y-65607142D01*
X200095238Y-65511904D01*
X200190476Y-65464285D01*
X200380952Y-65416666D01*
X200523809Y-65416666D01*
X200714285Y-65464285D01*
X200809523Y-65511904D01*
X200904761Y-65607142D01*
X200952380Y-65750000D01*
X200952380Y-65988095D01*
X200952380Y-64464285D02*
X200952380Y-65035714D01*
X200952380Y-64750000D02*
X199952380Y-64750000D01*
X200095238Y-64845238D01*
X200190476Y-64940476D01*
X200238095Y-65035714D01*
%TO.C,C7*%
X173457142Y-68229166D02*
X173504761Y-68276785D01*
X173552380Y-68419642D01*
X173552380Y-68514880D01*
X173504761Y-68657738D01*
X173409523Y-68752976D01*
X173314285Y-68800595D01*
X173123809Y-68848214D01*
X172980952Y-68848214D01*
X172790476Y-68800595D01*
X172695238Y-68752976D01*
X172600000Y-68657738D01*
X172552380Y-68514880D01*
X172552380Y-68419642D01*
X172600000Y-68276785D01*
X172647619Y-68229166D01*
X172552380Y-67895833D02*
X172552380Y-67229166D01*
X173552380Y-67657738D01*
%TO.C,C6*%
X167107142Y-61416666D02*
X167154761Y-61464285D01*
X167202380Y-61607142D01*
X167202380Y-61702380D01*
X167154761Y-61845238D01*
X167059523Y-61940476D01*
X166964285Y-61988095D01*
X166773809Y-62035714D01*
X166630952Y-62035714D01*
X166440476Y-61988095D01*
X166345238Y-61940476D01*
X166250000Y-61845238D01*
X166202380Y-61702380D01*
X166202380Y-61607142D01*
X166250000Y-61464285D01*
X166297619Y-61416666D01*
X166202380Y-60559523D02*
X166202380Y-60750000D01*
X166250000Y-60845238D01*
X166297619Y-60892857D01*
X166440476Y-60988095D01*
X166630952Y-61035714D01*
X167011904Y-61035714D01*
X167107142Y-60988095D01*
X167154761Y-60940476D01*
X167202380Y-60845238D01*
X167202380Y-60654761D01*
X167154761Y-60559523D01*
X167107142Y-60511904D01*
X167011904Y-60464285D01*
X166773809Y-60464285D01*
X166678571Y-60511904D01*
X166630952Y-60559523D01*
X166583333Y-60654761D01*
X166583333Y-60845238D01*
X166630952Y-60940476D01*
X166678571Y-60988095D01*
X166773809Y-61035714D01*
%TO.C,C5*%
X193107142Y-83666666D02*
X193154761Y-83714285D01*
X193202380Y-83857142D01*
X193202380Y-83952380D01*
X193154761Y-84095238D01*
X193059523Y-84190476D01*
X192964285Y-84238095D01*
X192773809Y-84285714D01*
X192630952Y-84285714D01*
X192440476Y-84238095D01*
X192345238Y-84190476D01*
X192250000Y-84095238D01*
X192202380Y-83952380D01*
X192202380Y-83857142D01*
X192250000Y-83714285D01*
X192297619Y-83666666D01*
X192202380Y-82761904D02*
X192202380Y-83238095D01*
X192678571Y-83285714D01*
X192630952Y-83238095D01*
X192583333Y-83142857D01*
X192583333Y-82904761D01*
X192630952Y-82809523D01*
X192678571Y-82761904D01*
X192773809Y-82714285D01*
X193011904Y-82714285D01*
X193107142Y-82761904D01*
X193154761Y-82809523D01*
X193202380Y-82904761D01*
X193202380Y-83142857D01*
X193154761Y-83238095D01*
X193107142Y-83285714D01*
%TO.C,C4*%
X184357142Y-87666666D02*
X184404761Y-87714285D01*
X184452380Y-87857142D01*
X184452380Y-87952380D01*
X184404761Y-88095238D01*
X184309523Y-88190476D01*
X184214285Y-88238095D01*
X184023809Y-88285714D01*
X183880952Y-88285714D01*
X183690476Y-88238095D01*
X183595238Y-88190476D01*
X183500000Y-88095238D01*
X183452380Y-87952380D01*
X183452380Y-87857142D01*
X183500000Y-87714285D01*
X183547619Y-87666666D01*
X183785714Y-86809523D02*
X184452380Y-86809523D01*
X183404761Y-87047619D02*
X184119047Y-87285714D01*
X184119047Y-86666666D01*
%TO.C,C3*%
X200357142Y-71479166D02*
X200404761Y-71526785D01*
X200452380Y-71669642D01*
X200452380Y-71764880D01*
X200404761Y-71907738D01*
X200309523Y-72002976D01*
X200214285Y-72050595D01*
X200023809Y-72098214D01*
X199880952Y-72098214D01*
X199690476Y-72050595D01*
X199595238Y-72002976D01*
X199500000Y-71907738D01*
X199452380Y-71764880D01*
X199452380Y-71669642D01*
X199500000Y-71526785D01*
X199547619Y-71479166D01*
X199452380Y-71145833D02*
X199452380Y-70526785D01*
X199833333Y-70860119D01*
X199833333Y-70717261D01*
X199880952Y-70622023D01*
X199928571Y-70574404D01*
X200023809Y-70526785D01*
X200261904Y-70526785D01*
X200357142Y-70574404D01*
X200404761Y-70622023D01*
X200452380Y-70717261D01*
X200452380Y-71002976D01*
X200404761Y-71098214D01*
X200357142Y-71145833D01*
%TO.C,C2*%
X186357142Y-85916666D02*
X186404761Y-85964285D01*
X186452380Y-86107142D01*
X186452380Y-86202380D01*
X186404761Y-86345238D01*
X186309523Y-86440476D01*
X186214285Y-86488095D01*
X186023809Y-86535714D01*
X185880952Y-86535714D01*
X185690476Y-86488095D01*
X185595238Y-86440476D01*
X185500000Y-86345238D01*
X185452380Y-86202380D01*
X185452380Y-86107142D01*
X185500000Y-85964285D01*
X185547619Y-85916666D01*
X185547619Y-85535714D02*
X185500000Y-85488095D01*
X185452380Y-85392857D01*
X185452380Y-85154761D01*
X185500000Y-85059523D01*
X185547619Y-85011904D01*
X185642857Y-84964285D01*
X185738095Y-84964285D01*
X185880952Y-85011904D01*
X186452380Y-85583333D01*
X186452380Y-84964285D01*
%TD*%
M02*
