%TF.GenerationSoftware,KiCad,Pcbnew,(5.1.6)-1*%
%TF.CreationDate,2020-12-12T17:11:39+01:00*%
%TF.ProjectId,stm32L412K8T6,73746d33-324c-4343-9132-4b3854362e6b,rev?*%
%TF.SameCoordinates,Original*%
%TF.FileFunction,Profile,NP*%
%FSLAX46Y46*%
G04 Gerber Fmt 4.6, Leading zero omitted, Abs format (unit mm)*
G04 Created by KiCad (PCBNEW (5.1.6)-1) date 2020-12-12 17:11:39*
%MOMM*%
%LPD*%
G01*
G04 APERTURE LIST*
%TA.AperFunction,Profile*%
%ADD10C,0.050000*%
%TD*%
G04 APERTURE END LIST*
D10*
X175900000Y-60600000D02*
X177700000Y-63700000D01*
X194800000Y-61300000D02*
X194349999Y-60599999D01*
X196900000Y-61900000D02*
X194800000Y-61300000D01*
X199600000Y-63200000D02*
X196900000Y-61900000D01*
X201000000Y-64100000D02*
X199600000Y-63200000D01*
X202600000Y-65600000D02*
X201000000Y-64100000D01*
X203500000Y-66700000D02*
X202600000Y-65600000D01*
X204300000Y-68100000D02*
X203500000Y-66700000D01*
X204800000Y-69100000D02*
X204300000Y-68100000D01*
X205400000Y-70800000D02*
X204800000Y-69100000D01*
X205500000Y-72600000D02*
X205400000Y-70800000D01*
X205400000Y-74300000D02*
X205500000Y-72600000D01*
X205300000Y-75000000D02*
X205400000Y-74300000D01*
X204500000Y-76800000D02*
X205300000Y-75000000D01*
X202800000Y-79000000D02*
X204500000Y-76800000D01*
X204400000Y-80100000D02*
X202800000Y-79000000D01*
X207300000Y-82600000D02*
X204400000Y-80100000D01*
X209600000Y-85100000D02*
X207300000Y-82600000D01*
X211600000Y-88000000D02*
X209600000Y-85100000D01*
X213300000Y-91200000D02*
X211600000Y-88000000D01*
X214200000Y-93500000D02*
X213300000Y-91200000D01*
X214900000Y-95800000D02*
X214200000Y-93500000D01*
X215400000Y-98000000D02*
X214900000Y-95800000D01*
X215800000Y-100900000D02*
X215400000Y-98000000D01*
X216000000Y-103600000D02*
X215800000Y-100900000D01*
X215700000Y-106400000D02*
X216000000Y-103600000D01*
X215400000Y-108500000D02*
X215700000Y-106400000D01*
X215000000Y-109800000D02*
X215400000Y-108500000D01*
X214500000Y-111300000D02*
X215000000Y-109800000D01*
X213900000Y-112700000D02*
X214500000Y-111300000D01*
X213400000Y-113500000D02*
X213900000Y-112700000D01*
X212700000Y-114500000D02*
X213400000Y-113500000D01*
X211800000Y-115300000D02*
X212700000Y-114500000D01*
X211000000Y-115900000D02*
X211800000Y-115300000D01*
X210500000Y-116200000D02*
X211000000Y-115900000D01*
X210000000Y-116400000D02*
X210500000Y-116200000D01*
X209000000Y-116600000D02*
X210000000Y-116400000D01*
X208100000Y-116600000D02*
X209000000Y-116600000D01*
X207200000Y-116500000D02*
X208100000Y-116600000D01*
X206600000Y-116400000D02*
X207200000Y-116500000D01*
X206000000Y-116100000D02*
X206600000Y-116400000D01*
X205600000Y-117700000D02*
X206000000Y-116100000D01*
X205100000Y-119000000D02*
X205600000Y-117700000D01*
X204300000Y-120600000D02*
X205100000Y-119000000D01*
X203300000Y-122200000D02*
X204300000Y-120600000D01*
X202400000Y-123200000D02*
X203300000Y-122200000D01*
X201500000Y-124000000D02*
X202400000Y-123200000D01*
X200000000Y-125000000D02*
X201500000Y-124000000D01*
X198600000Y-125600000D02*
X200000000Y-125000000D01*
X197500000Y-125900000D02*
X198600000Y-125600000D01*
X196300000Y-126000000D02*
X197500000Y-125900000D01*
X195100000Y-125900000D02*
X196300000Y-126000000D01*
X194500000Y-125700000D02*
X195100000Y-125900000D01*
X194100000Y-125400000D02*
X194500000Y-125700000D01*
X193300000Y-124800000D02*
X194100000Y-125400000D01*
X192300000Y-123600000D02*
X193300000Y-124800000D01*
X191700000Y-122200000D02*
X192300000Y-123600000D01*
X191100000Y-120500000D02*
X191700000Y-122200000D01*
X190900000Y-119500000D02*
X191100000Y-120500000D01*
X190600000Y-120600000D02*
X190900000Y-119500000D01*
X190100000Y-121900000D02*
X190600000Y-120600000D01*
X189400000Y-123500000D02*
X190100000Y-121900000D01*
X188600000Y-124700000D02*
X189400000Y-123500000D01*
X188000000Y-125200000D02*
X188600000Y-124700000D01*
X187400000Y-125600000D02*
X188000000Y-125200000D01*
X186500000Y-125800000D02*
X187400000Y-125600000D01*
X185300000Y-125900000D02*
X186500000Y-125800000D01*
X183700000Y-125800000D02*
X185300000Y-125900000D01*
X182400000Y-125300000D02*
X183700000Y-125800000D01*
X181200000Y-124700000D02*
X182400000Y-125300000D01*
X180100000Y-123900000D02*
X181200000Y-124700000D01*
X179000000Y-122900000D02*
X180100000Y-123900000D01*
X177800000Y-121300000D02*
X179000000Y-122900000D01*
X176900000Y-119600000D02*
X177800000Y-121300000D01*
X176400000Y-118500000D02*
X176900000Y-119600000D01*
X175900000Y-116900000D02*
X176400000Y-118500000D01*
X175600000Y-115500000D02*
X175900000Y-116900000D01*
X175200000Y-113600000D02*
X175600000Y-115500000D01*
X175000000Y-111300000D02*
X175200000Y-113600000D01*
X174800000Y-109100000D02*
X175000000Y-111300000D01*
X174300000Y-108200000D02*
X174800000Y-109100000D01*
X173600000Y-106700000D02*
X174300000Y-108200000D01*
X172800000Y-104400000D02*
X173600000Y-106700000D01*
X172500000Y-102100000D02*
X172800000Y-104400000D01*
X172500000Y-100800000D02*
X172500000Y-102100000D01*
X172800000Y-98400000D02*
X172500000Y-100800000D01*
X173300000Y-96700000D02*
X172800000Y-98400000D01*
X174100000Y-94500000D02*
X173300000Y-96700000D01*
X174900000Y-92400000D02*
X174100000Y-94500000D01*
X175900000Y-90400000D02*
X174900000Y-92400000D01*
X177200000Y-88000000D02*
X175900000Y-90400000D01*
X177400000Y-86900000D02*
X177200000Y-88000000D01*
X177600000Y-85800000D02*
X177400000Y-86900000D01*
X177600000Y-85200000D02*
X177600000Y-85800000D01*
X176800000Y-84800000D02*
X177600000Y-85200000D01*
X175200000Y-84000000D02*
X176800000Y-84800000D01*
X173500000Y-83000000D02*
X175200000Y-84000000D01*
X172400000Y-82300000D02*
X173500000Y-83000000D01*
X170000000Y-80500000D02*
X172400000Y-82300000D01*
X168400000Y-79000000D02*
X170000000Y-80500000D01*
X166900000Y-77400000D02*
X168400000Y-79000000D01*
X165700000Y-75800000D02*
X166900000Y-77400000D01*
X164900000Y-74600000D02*
X165700000Y-75800000D01*
X164000000Y-72900000D02*
X164900000Y-74600000D01*
X163300000Y-71300000D02*
X164000000Y-72900000D01*
X162600000Y-69100000D02*
X163300000Y-71300000D01*
X162400000Y-67700000D02*
X162600000Y-69100000D01*
X162100000Y-66300000D02*
X162400000Y-67700000D01*
X162100000Y-64100000D02*
X162100000Y-66300000D01*
X162400000Y-62400000D02*
X162100000Y-64100000D01*
X162900000Y-61000000D02*
X162400000Y-62400000D01*
X163700000Y-59800000D02*
X162900000Y-61000000D01*
X164900000Y-58700000D02*
X163700000Y-59800000D01*
X166100000Y-58000000D02*
X164900000Y-58700000D01*
X167400000Y-57500000D02*
X166100000Y-58000000D01*
X168500000Y-57300000D02*
X167400000Y-57500000D01*
X169300000Y-57200000D02*
X168500000Y-57300000D01*
X169900000Y-57200000D02*
X169300000Y-57200000D01*
X170800000Y-57300000D02*
X169900000Y-57200000D01*
X171600000Y-57500000D02*
X170800000Y-57300000D01*
X172600000Y-57900000D02*
X171600000Y-57500000D01*
X173500000Y-58400000D02*
X172600000Y-57900000D01*
X174300000Y-58900000D02*
X173500000Y-58400000D01*
X174900000Y-59500000D02*
X174300000Y-58900000D01*
X175400000Y-60000000D02*
X174900000Y-59500000D01*
X175900000Y-60600000D02*
X175400000Y-60000000D01*
X179000000Y-66300000D02*
X177700000Y-63700000D01*
X180100000Y-68300000D02*
X179000000Y-66300000D01*
X180700000Y-69500000D02*
X180100000Y-68300000D01*
X180800000Y-68900000D02*
X180700000Y-69500000D01*
X181200000Y-67700000D02*
X180800000Y-68900000D01*
X181700000Y-66600000D02*
X181200000Y-67700000D01*
X182300000Y-65700000D02*
X181700000Y-66600000D01*
X183000000Y-64800000D02*
X182300000Y-65700000D01*
X183400000Y-64400000D02*
X183000000Y-64800000D01*
X184600000Y-63300000D02*
X183400000Y-64400000D01*
X185900000Y-62600000D02*
X184600000Y-63300000D01*
X187600000Y-61800000D02*
X185900000Y-62600000D01*
X188800000Y-61500000D02*
X187600000Y-61800000D01*
X190706272Y-60480443D02*
X188800000Y-61500000D01*
X193600000Y-58350000D02*
G75*
G03*
X193600000Y-58350000I-1000000J0D01*
G01*
X190706273Y-60480443D02*
G75*
G02*
X194349999Y-60599999I1893727J2130443D01*
G01*
M02*
