M48
; DRILL file {KiCad (5.1.6)-1} date 12/12/20 17:11:36
; FORMAT={-:-/ absolute / inch / decimal}
; #@! TF.CreationDate,2020-12-12T17:11:36+01:00
; #@! TF.GenerationSoftware,Kicad,Pcbnew,(5.1.6)-1
; #@! TF.FileFunction,Plated,1,2,PTH
FMAT,2
INCH
T1C0.0157
T2C0.0197
%
G90
G05
T1
X6.6535Y-2.9528
X6.7323Y-2.9134
X6.7323Y-3.0315
X6.811Y-2.9921
X6.811Y-3.1102
X6.8898Y-3.0709
X6.8898Y-3.189
X6.9291Y-4.0157
X6.9291Y-4.1339
X6.9488Y-2.5689
X6.9685Y-3.1496
X6.9685Y-3.2677
X6.9882Y-3.6713
X7.0472Y-4.0157
X7.0472Y-4.1339
X7.0472Y-4.252
X7.0472Y-4.3701
X7.0472Y-4.4882
X7.1654Y-4.0157
X7.1654Y-4.1339
X7.1654Y-4.252
X7.1654Y-4.3701
X7.1654Y-4.4882
X7.2047Y-3.4744
X7.2343Y-3.6417
X7.3268Y-3.1811
X7.3524Y-2.6969
X7.3524Y-3.5728
X7.3622Y-4.1437
X7.372Y-2.7559
X7.3917Y-3.1299
X7.4126Y-2.7571
X7.4705Y-4.2224
X7.5098Y-3.2874
X7.5197Y-2.9232
X7.5689Y-2.9724
X7.5787Y-2.6673
X7.7067Y-2.5787
X7.7067Y-2.6772
X7.7067Y-4.5768
X7.7165Y-3.2677
X7.7559Y-4.5571
X7.7657Y-2.7657
X7.815Y-2.7854
X7.8346Y-3.2677
X7.8346Y-3.8189
X7.8346Y-3.9189
X7.8346Y-4.0189
X7.8346Y-4.1189
X7.8346Y-4.2189
X7.9346Y-3.8189
X7.9346Y-3.9189
X7.9346Y-4.0189
X7.9346Y-4.1189
X7.9346Y-4.2189
X7.9921Y-2.8346
X7.9921Y-2.9528
X8.0346Y-3.8189
X8.0346Y-3.9189
X8.0346Y-4.0189
X8.0346Y-4.1189
X8.0346Y-4.2189
X8.1346Y-3.8189
X8.1346Y-3.9189
X8.1346Y-4.0189
X8.1346Y-4.1189
X8.1346Y-4.2189
T2
X7.1931Y-3.2597
X7.2638Y-3.189
T0
M30
