%TF.GenerationSoftware,KiCad,Pcbnew,(5.1.6)-1*%
%TF.CreationDate,2020-12-12T17:11:38+01:00*%
%TF.ProjectId,stm32L412K8T6,73746d33-324c-4343-9132-4b3854362e6b,rev?*%
%TF.SameCoordinates,Original*%
%TF.FileFunction,Copper,L1,Top*%
%TF.FilePolarity,Positive*%
%FSLAX46Y46*%
G04 Gerber Fmt 4.6, Leading zero omitted, Abs format (unit mm)*
G04 Created by KiCad (PCBNEW (5.1.6)-1) date 2020-12-12 17:11:38*
%MOMM*%
%LPD*%
G01*
G04 APERTURE LIST*
%TA.AperFunction,SMDPad,CuDef*%
%ADD10R,3.600000X2.600000*%
%TD*%
%TA.AperFunction,SMDPad,CuDef*%
%ADD11R,1.500000X1.000000*%
%TD*%
%TA.AperFunction,SMDPad,CuDef*%
%ADD12R,1.550000X1.000000*%
%TD*%
%TA.AperFunction,ComponentPad*%
%ADD13C,1.000000*%
%TD*%
%TA.AperFunction,SMDPad,CuDef*%
%ADD14R,1.900000X1.000000*%
%TD*%
%TA.AperFunction,SMDPad,CuDef*%
%ADD15C,0.100000*%
%TD*%
%TA.AperFunction,SMDPad,CuDef*%
%ADD16R,1.000000X1.900000*%
%TD*%
%TA.AperFunction,SMDPad,CuDef*%
%ADD17R,2.000000X1.500000*%
%TD*%
%TA.AperFunction,SMDPad,CuDef*%
%ADD18R,2.000000X3.800000*%
%TD*%
%TA.AperFunction,ViaPad*%
%ADD19C,0.800000*%
%TD*%
%TA.AperFunction,Conductor*%
%ADD20C,0.500000*%
%TD*%
%TA.AperFunction,Conductor*%
%ADD21C,0.300000*%
%TD*%
%TA.AperFunction,Conductor*%
%ADD22C,0.254000*%
%TD*%
G04 APERTURE END LIST*
D10*
%TO.P,BT1,2*%
%TO.N,GND*%
X202500000Y-114300000D03*
%TO.P,BT1,1*%
%TO.N,+3V3*%
X202500000Y-85000000D03*
%TD*%
D11*
%TO.P,JP1,1*%
%TO.N,+3V3*%
X201000000Y-79650000D03*
%TO.P,JP1,2*%
%TO.N,BOOT0*%
X201000000Y-78350000D03*
%TD*%
%TO.P,C1,2*%
%TO.N,GND*%
%TA.AperFunction,SMDPad,CuDef*%
G36*
G01*
X185956250Y-73612500D02*
X185043750Y-73612500D01*
G75*
G02*
X184800000Y-73368750I0J243750D01*
G01*
X184800000Y-72881250D01*
G75*
G02*
X185043750Y-72637500I243750J0D01*
G01*
X185956250Y-72637500D01*
G75*
G02*
X186200000Y-72881250I0J-243750D01*
G01*
X186200000Y-73368750D01*
G75*
G02*
X185956250Y-73612500I-243750J0D01*
G01*
G37*
%TD.AperFunction*%
%TO.P,C1,1*%
%TO.N,+3V3*%
%TA.AperFunction,SMDPad,CuDef*%
G36*
G01*
X185956250Y-75487500D02*
X185043750Y-75487500D01*
G75*
G02*
X184800000Y-75243750I0J243750D01*
G01*
X184800000Y-74756250D01*
G75*
G02*
X185043750Y-74512500I243750J0D01*
G01*
X185956250Y-74512500D01*
G75*
G02*
X186200000Y-74756250I0J-243750D01*
G01*
X186200000Y-75243750D01*
G75*
G02*
X185956250Y-75487500I-243750J0D01*
G01*
G37*
%TD.AperFunction*%
%TD*%
D12*
%TO.P,B,1*%
%TO.N,BUTTON*%
X189000000Y-65000000D03*
X194250000Y-65000000D03*
%TO.P,B,2*%
%TO.N,GND*%
X194250000Y-63300000D03*
X189000000Y-63300000D03*
%TD*%
D13*
%TO.P,Y1,2*%
%TO.N,14_OSC_IN*%
X182703949Y-82796051D03*
%TO.P,Y1,1*%
%TO.N,15_OSC_OUT*%
X184500000Y-81000000D03*
%TD*%
D14*
%TO.P,J6,3*%
%TO.N,SWCLK*%
X187050000Y-97490000D03*
%TO.P,J6,1*%
%TO.N,SWO*%
X187050000Y-92410000D03*
%TO.P,J6,2*%
%TO.N,SWDIO*%
X183750000Y-94950000D03*
%TD*%
%TA.AperFunction,SMDPad,CuDef*%
D15*
%TO.P,J5,3*%
%TO.N,GND*%
G36*
X180318198Y-118474695D02*
G01*
X181025305Y-119181802D01*
X179681802Y-120525305D01*
X178974695Y-119818198D01*
X180318198Y-118474695D01*
G37*
%TD.AperFunction*%
%TA.AperFunction,SMDPad,CuDef*%
%TO.P,J5,1*%
%TO.N,SDA*%
G36*
X183910300Y-122066797D02*
G01*
X184617407Y-122773904D01*
X183273904Y-124117407D01*
X182566797Y-123410300D01*
X183910300Y-122066797D01*
G37*
%TD.AperFunction*%
%TA.AperFunction,SMDPad,CuDef*%
%TO.P,J5,2*%
%TO.N,SCL*%
G36*
X184447701Y-117937294D02*
G01*
X185154808Y-118644401D01*
X183811305Y-119987904D01*
X183104198Y-119280797D01*
X184447701Y-117937294D01*
G37*
%TD.AperFunction*%
%TD*%
D14*
%TO.P,J4,3*%
%TO.N,GND*%
X180800000Y-97480000D03*
%TO.P,J4,1*%
%TO.N,+3V3*%
X180800000Y-92400000D03*
%TO.P,J4,2*%
%TO.N,NRST*%
X177500000Y-94940000D03*
%TD*%
%TA.AperFunction,SMDPad,CuDef*%
D15*
%TO.P,J2,3*%
%TO.N,GND*%
G36*
X196974695Y-122181802D02*
G01*
X197681802Y-121474695D01*
X199025305Y-122818198D01*
X198318198Y-123525305D01*
X196974695Y-122181802D01*
G37*
%TD.AperFunction*%
%TA.AperFunction,SMDPad,CuDef*%
%TO.P,J2,1*%
%TO.N,RX*%
G36*
X200566797Y-118589700D02*
G01*
X201273904Y-117882593D01*
X202617407Y-119226096D01*
X201910300Y-119933203D01*
X200566797Y-118589700D01*
G37*
%TD.AperFunction*%
%TA.AperFunction,SMDPad,CuDef*%
%TO.P,J2,2*%
%TO.N,TX*%
G36*
X196437294Y-118052299D02*
G01*
X197144401Y-117345192D01*
X198487904Y-118688695D01*
X197780797Y-119395802D01*
X196437294Y-118052299D01*
G37*
%TD.AperFunction*%
%TD*%
D16*
%TO.P,J1,1*%
%TO.N,GND*%
X173600000Y-63600000D03*
%TO.P,J1,2*%
%TO.N,INPUT*%
X171060000Y-60300000D03*
%TD*%
%TO.P,U1,1*%
%TO.N,+3V3*%
%TA.AperFunction,SMDPad,CuDef*%
G36*
G01*
X187459604Y-75728947D02*
X187282828Y-75552170D01*
G75*
G02*
X187282828Y-75375394I88388J88388D01*
G01*
X188166711Y-74491511D01*
G75*
G02*
X188343487Y-74491511I88388J-88388D01*
G01*
X188520264Y-74668288D01*
G75*
G02*
X188520264Y-74845064I-88388J-88388D01*
G01*
X187636381Y-75728947D01*
G75*
G02*
X187459605Y-75728947I-88388J88388D01*
G01*
G37*
%TD.AperFunction*%
%TO.P,U1,2*%
%TO.N,14_OSC_IN*%
%TA.AperFunction,SMDPad,CuDef*%
G36*
G01*
X188025290Y-76294632D02*
X187848514Y-76117855D01*
G75*
G02*
X187848514Y-75941079I88388J88388D01*
G01*
X188732397Y-75057196D01*
G75*
G02*
X188909173Y-75057196I88388J-88388D01*
G01*
X189085950Y-75233973D01*
G75*
G02*
X189085950Y-75410749I-88388J-88388D01*
G01*
X188202067Y-76294632D01*
G75*
G02*
X188025291Y-76294632I-88388J88388D01*
G01*
G37*
%TD.AperFunction*%
%TO.P,U1,3*%
%TO.N,15_OSC_OUT*%
%TA.AperFunction,SMDPad,CuDef*%
G36*
G01*
X188590975Y-76860318D02*
X188414199Y-76683541D01*
G75*
G02*
X188414199Y-76506765I88388J88388D01*
G01*
X189298082Y-75622882D01*
G75*
G02*
X189474858Y-75622882I88388J-88388D01*
G01*
X189651635Y-75799659D01*
G75*
G02*
X189651635Y-75976435I-88388J-88388D01*
G01*
X188767752Y-76860318D01*
G75*
G02*
X188590976Y-76860318I-88388J88388D01*
G01*
G37*
%TD.AperFunction*%
%TO.P,U1,4*%
%TO.N,NRST*%
%TA.AperFunction,SMDPad,CuDef*%
G36*
G01*
X189156660Y-77426003D02*
X188979884Y-77249226D01*
G75*
G02*
X188979884Y-77072450I88388J88388D01*
G01*
X189863767Y-76188567D01*
G75*
G02*
X190040543Y-76188567I88388J-88388D01*
G01*
X190217320Y-76365344D01*
G75*
G02*
X190217320Y-76542120I-88388J-88388D01*
G01*
X189333437Y-77426003D01*
G75*
G02*
X189156661Y-77426003I-88388J88388D01*
G01*
G37*
%TD.AperFunction*%
%TO.P,U1,5*%
%TO.N,+3V3*%
%TA.AperFunction,SMDPad,CuDef*%
G36*
G01*
X189722346Y-77991689D02*
X189545570Y-77814912D01*
G75*
G02*
X189545570Y-77638136I88388J88388D01*
G01*
X190429453Y-76754253D01*
G75*
G02*
X190606229Y-76754253I88388J-88388D01*
G01*
X190783006Y-76931030D01*
G75*
G02*
X190783006Y-77107806I-88388J-88388D01*
G01*
X189899123Y-77991689D01*
G75*
G02*
X189722347Y-77991689I-88388J88388D01*
G01*
G37*
%TD.AperFunction*%
%TO.P,U1,6*%
%TO.N,N/C*%
%TA.AperFunction,SMDPad,CuDef*%
G36*
G01*
X190288031Y-78557374D02*
X190111255Y-78380597D01*
G75*
G02*
X190111255Y-78203821I88388J88388D01*
G01*
X190995138Y-77319938D01*
G75*
G02*
X191171914Y-77319938I88388J-88388D01*
G01*
X191348691Y-77496715D01*
G75*
G02*
X191348691Y-77673491I-88388J-88388D01*
G01*
X190464808Y-78557374D01*
G75*
G02*
X190288032Y-78557374I-88388J88388D01*
G01*
G37*
%TD.AperFunction*%
%TO.P,U1,7*%
%TA.AperFunction,SMDPad,CuDef*%
G36*
G01*
X190853717Y-79123059D02*
X190676941Y-78946282D01*
G75*
G02*
X190676941Y-78769506I88388J88388D01*
G01*
X191560824Y-77885623D01*
G75*
G02*
X191737600Y-77885623I88388J-88388D01*
G01*
X191914377Y-78062400D01*
G75*
G02*
X191914377Y-78239176I-88388J-88388D01*
G01*
X191030494Y-79123059D01*
G75*
G02*
X190853718Y-79123059I-88388J88388D01*
G01*
G37*
%TD.AperFunction*%
%TO.P,U1,8*%
%TA.AperFunction,SMDPad,CuDef*%
G36*
G01*
X191419402Y-79688745D02*
X191242626Y-79511968D01*
G75*
G02*
X191242626Y-79335192I88388J88388D01*
G01*
X192126509Y-78451309D01*
G75*
G02*
X192303285Y-78451309I88388J-88388D01*
G01*
X192480062Y-78628086D01*
G75*
G02*
X192480062Y-78804862I-88388J-88388D01*
G01*
X191596179Y-79688745D01*
G75*
G02*
X191419403Y-79688745I-88388J88388D01*
G01*
G37*
%TD.AperFunction*%
%TO.P,U1,9*%
%TA.AperFunction,SMDPad,CuDef*%
G36*
G01*
X194071053Y-79688745D02*
X193187170Y-78804862D01*
G75*
G02*
X193187170Y-78628086I88388J88388D01*
G01*
X193363947Y-78451309D01*
G75*
G02*
X193540723Y-78451309I88388J-88388D01*
G01*
X194424606Y-79335192D01*
G75*
G02*
X194424606Y-79511968I-88388J-88388D01*
G01*
X194247829Y-79688745D01*
G75*
G02*
X194071053Y-79688745I-88388J88388D01*
G01*
G37*
%TD.AperFunction*%
%TO.P,U1,10*%
%TA.AperFunction,SMDPad,CuDef*%
G36*
G01*
X194636738Y-79123059D02*
X193752855Y-78239176D01*
G75*
G02*
X193752855Y-78062400I88388J88388D01*
G01*
X193929632Y-77885623D01*
G75*
G02*
X194106408Y-77885623I88388J-88388D01*
G01*
X194990291Y-78769506D01*
G75*
G02*
X194990291Y-78946282I-88388J-88388D01*
G01*
X194813514Y-79123059D01*
G75*
G02*
X194636738Y-79123059I-88388J88388D01*
G01*
G37*
%TD.AperFunction*%
%TO.P,U1,11*%
%TA.AperFunction,SMDPad,CuDef*%
G36*
G01*
X195202424Y-78557374D02*
X194318541Y-77673491D01*
G75*
G02*
X194318541Y-77496715I88388J88388D01*
G01*
X194495318Y-77319938D01*
G75*
G02*
X194672094Y-77319938I88388J-88388D01*
G01*
X195555977Y-78203821D01*
G75*
G02*
X195555977Y-78380597I-88388J-88388D01*
G01*
X195379200Y-78557374D01*
G75*
G02*
X195202424Y-78557374I-88388J88388D01*
G01*
G37*
%TD.AperFunction*%
%TO.P,U1,12*%
%TA.AperFunction,SMDPad,CuDef*%
G36*
G01*
X195768109Y-77991689D02*
X194884226Y-77107806D01*
G75*
G02*
X194884226Y-76931030I88388J88388D01*
G01*
X195061003Y-76754253D01*
G75*
G02*
X195237779Y-76754253I88388J-88388D01*
G01*
X196121662Y-77638136D01*
G75*
G02*
X196121662Y-77814912I-88388J-88388D01*
G01*
X195944885Y-77991689D01*
G75*
G02*
X195768109Y-77991689I-88388J88388D01*
G01*
G37*
%TD.AperFunction*%
%TO.P,U1,13*%
%TA.AperFunction,SMDPad,CuDef*%
G36*
G01*
X196333795Y-77426003D02*
X195449912Y-76542120D01*
G75*
G02*
X195449912Y-76365344I88388J88388D01*
G01*
X195626689Y-76188567D01*
G75*
G02*
X195803465Y-76188567I88388J-88388D01*
G01*
X196687348Y-77072450D01*
G75*
G02*
X196687348Y-77249226I-88388J-88388D01*
G01*
X196510571Y-77426003D01*
G75*
G02*
X196333795Y-77426003I-88388J88388D01*
G01*
G37*
%TD.AperFunction*%
%TO.P,U1,14*%
%TO.N,BOOT0*%
%TA.AperFunction,SMDPad,CuDef*%
G36*
G01*
X196899480Y-76860318D02*
X196015597Y-75976435D01*
G75*
G02*
X196015597Y-75799659I88388J88388D01*
G01*
X196192374Y-75622882D01*
G75*
G02*
X196369150Y-75622882I88388J-88388D01*
G01*
X197253033Y-76506765D01*
G75*
G02*
X197253033Y-76683541I-88388J-88388D01*
G01*
X197076256Y-76860318D01*
G75*
G02*
X196899480Y-76860318I-88388J88388D01*
G01*
G37*
%TD.AperFunction*%
%TO.P,U1,15*%
%TO.N,N/C*%
%TA.AperFunction,SMDPad,CuDef*%
G36*
G01*
X197465165Y-76294632D02*
X196581282Y-75410749D01*
G75*
G02*
X196581282Y-75233973I88388J88388D01*
G01*
X196758059Y-75057196D01*
G75*
G02*
X196934835Y-75057196I88388J-88388D01*
G01*
X197818718Y-75941079D01*
G75*
G02*
X197818718Y-76117855I-88388J-88388D01*
G01*
X197641941Y-76294632D01*
G75*
G02*
X197465165Y-76294632I-88388J88388D01*
G01*
G37*
%TD.AperFunction*%
%TO.P,U1,16*%
%TO.N,GND*%
%TA.AperFunction,SMDPad,CuDef*%
G36*
G01*
X198030851Y-75728947D02*
X197146968Y-74845064D01*
G75*
G02*
X197146968Y-74668288I88388J88388D01*
G01*
X197323745Y-74491511D01*
G75*
G02*
X197500521Y-74491511I88388J-88388D01*
G01*
X198384404Y-75375394D01*
G75*
G02*
X198384404Y-75552170I-88388J-88388D01*
G01*
X198207627Y-75728947D01*
G75*
G02*
X198030851Y-75728947I-88388J88388D01*
G01*
G37*
%TD.AperFunction*%
%TO.P,U1,17*%
%TO.N,+3V3*%
%TA.AperFunction,SMDPad,CuDef*%
G36*
G01*
X197323744Y-73784403D02*
X197146968Y-73607626D01*
G75*
G02*
X197146968Y-73430850I88388J88388D01*
G01*
X198030851Y-72546967D01*
G75*
G02*
X198207627Y-72546967I88388J-88388D01*
G01*
X198384404Y-72723744D01*
G75*
G02*
X198384404Y-72900520I-88388J-88388D01*
G01*
X197500521Y-73784403D01*
G75*
G02*
X197323745Y-73784403I-88388J88388D01*
G01*
G37*
%TD.AperFunction*%
%TO.P,U1,18*%
%TO.N,N/C*%
%TA.AperFunction,SMDPad,CuDef*%
G36*
G01*
X196758058Y-73218718D02*
X196581282Y-73041941D01*
G75*
G02*
X196581282Y-72865165I88388J88388D01*
G01*
X197465165Y-71981282D01*
G75*
G02*
X197641941Y-71981282I88388J-88388D01*
G01*
X197818718Y-72158059D01*
G75*
G02*
X197818718Y-72334835I-88388J-88388D01*
G01*
X196934835Y-73218718D01*
G75*
G02*
X196758059Y-73218718I-88388J88388D01*
G01*
G37*
%TD.AperFunction*%
%TO.P,U1,19*%
%TO.N,RX*%
%TA.AperFunction,SMDPad,CuDef*%
G36*
G01*
X196192373Y-72653032D02*
X196015597Y-72476255D01*
G75*
G02*
X196015597Y-72299479I88388J88388D01*
G01*
X196899480Y-71415596D01*
G75*
G02*
X197076256Y-71415596I88388J-88388D01*
G01*
X197253033Y-71592373D01*
G75*
G02*
X197253033Y-71769149I-88388J-88388D01*
G01*
X196369150Y-72653032D01*
G75*
G02*
X196192374Y-72653032I-88388J88388D01*
G01*
G37*
%TD.AperFunction*%
%TO.P,U1,20*%
%TO.N,TX*%
%TA.AperFunction,SMDPad,CuDef*%
G36*
G01*
X195626688Y-72087347D02*
X195449912Y-71910570D01*
G75*
G02*
X195449912Y-71733794I88388J88388D01*
G01*
X196333795Y-70849911D01*
G75*
G02*
X196510571Y-70849911I88388J-88388D01*
G01*
X196687348Y-71026688D01*
G75*
G02*
X196687348Y-71203464I-88388J-88388D01*
G01*
X195803465Y-72087347D01*
G75*
G02*
X195626689Y-72087347I-88388J88388D01*
G01*
G37*
%TD.AperFunction*%
%TO.P,U1,21*%
%TO.N,N/C*%
%TA.AperFunction,SMDPad,CuDef*%
G36*
G01*
X195061002Y-71521661D02*
X194884226Y-71344884D01*
G75*
G02*
X194884226Y-71168108I88388J88388D01*
G01*
X195768109Y-70284225D01*
G75*
G02*
X195944885Y-70284225I88388J-88388D01*
G01*
X196121662Y-70461002D01*
G75*
G02*
X196121662Y-70637778I-88388J-88388D01*
G01*
X195237779Y-71521661D01*
G75*
G02*
X195061003Y-71521661I-88388J88388D01*
G01*
G37*
%TD.AperFunction*%
%TO.P,U1,22*%
%TO.N,BUTTON*%
%TA.AperFunction,SMDPad,CuDef*%
G36*
G01*
X194495317Y-70955976D02*
X194318541Y-70779199D01*
G75*
G02*
X194318541Y-70602423I88388J88388D01*
G01*
X195202424Y-69718540D01*
G75*
G02*
X195379200Y-69718540I88388J-88388D01*
G01*
X195555977Y-69895317D01*
G75*
G02*
X195555977Y-70072093I-88388J-88388D01*
G01*
X194672094Y-70955976D01*
G75*
G02*
X194495318Y-70955976I-88388J88388D01*
G01*
G37*
%TD.AperFunction*%
%TO.P,U1,23*%
%TO.N,SWDIO*%
%TA.AperFunction,SMDPad,CuDef*%
G36*
G01*
X193929631Y-70390291D02*
X193752855Y-70213514D01*
G75*
G02*
X193752855Y-70036738I88388J88388D01*
G01*
X194636738Y-69152855D01*
G75*
G02*
X194813514Y-69152855I88388J-88388D01*
G01*
X194990291Y-69329632D01*
G75*
G02*
X194990291Y-69506408I-88388J-88388D01*
G01*
X194106408Y-70390291D01*
G75*
G02*
X193929632Y-70390291I-88388J88388D01*
G01*
G37*
%TD.AperFunction*%
%TO.P,U1,24*%
%TO.N,SWCLK*%
%TA.AperFunction,SMDPad,CuDef*%
G36*
G01*
X193363946Y-69824605D02*
X193187170Y-69647828D01*
G75*
G02*
X193187170Y-69471052I88388J88388D01*
G01*
X194071053Y-68587169D01*
G75*
G02*
X194247829Y-68587169I88388J-88388D01*
G01*
X194424606Y-68763946D01*
G75*
G02*
X194424606Y-68940722I-88388J-88388D01*
G01*
X193540723Y-69824605D01*
G75*
G02*
X193363947Y-69824605I-88388J88388D01*
G01*
G37*
%TD.AperFunction*%
%TO.P,U1,25*%
%TO.N,N/C*%
%TA.AperFunction,SMDPad,CuDef*%
G36*
G01*
X192126509Y-69824605D02*
X191242626Y-68940722D01*
G75*
G02*
X191242626Y-68763946I88388J88388D01*
G01*
X191419403Y-68587169D01*
G75*
G02*
X191596179Y-68587169I88388J-88388D01*
G01*
X192480062Y-69471052D01*
G75*
G02*
X192480062Y-69647828I-88388J-88388D01*
G01*
X192303285Y-69824605D01*
G75*
G02*
X192126509Y-69824605I-88388J88388D01*
G01*
G37*
%TD.AperFunction*%
%TO.P,U1,26*%
%TO.N,SWO*%
%TA.AperFunction,SMDPad,CuDef*%
G36*
G01*
X191560824Y-70390291D02*
X190676941Y-69506408D01*
G75*
G02*
X190676941Y-69329632I88388J88388D01*
G01*
X190853718Y-69152855D01*
G75*
G02*
X191030494Y-69152855I88388J-88388D01*
G01*
X191914377Y-70036738D01*
G75*
G02*
X191914377Y-70213514I-88388J-88388D01*
G01*
X191737600Y-70390291D01*
G75*
G02*
X191560824Y-70390291I-88388J88388D01*
G01*
G37*
%TD.AperFunction*%
%TO.P,U1,27*%
%TO.N,LED_RED*%
%TA.AperFunction,SMDPad,CuDef*%
G36*
G01*
X190995138Y-70955976D02*
X190111255Y-70072093D01*
G75*
G02*
X190111255Y-69895317I88388J88388D01*
G01*
X190288032Y-69718540D01*
G75*
G02*
X190464808Y-69718540I88388J-88388D01*
G01*
X191348691Y-70602423D01*
G75*
G02*
X191348691Y-70779199I-88388J-88388D01*
G01*
X191171914Y-70955976D01*
G75*
G02*
X190995138Y-70955976I-88388J88388D01*
G01*
G37*
%TD.AperFunction*%
%TO.P,U1,28*%
%TO.N,LED_GREEN*%
%TA.AperFunction,SMDPad,CuDef*%
G36*
G01*
X190429453Y-71521661D02*
X189545570Y-70637778D01*
G75*
G02*
X189545570Y-70461002I88388J88388D01*
G01*
X189722347Y-70284225D01*
G75*
G02*
X189899123Y-70284225I88388J-88388D01*
G01*
X190783006Y-71168108D01*
G75*
G02*
X190783006Y-71344884I-88388J-88388D01*
G01*
X190606229Y-71521661D01*
G75*
G02*
X190429453Y-71521661I-88388J88388D01*
G01*
G37*
%TD.AperFunction*%
%TO.P,U1,29*%
%TO.N,SCL*%
%TA.AperFunction,SMDPad,CuDef*%
G36*
G01*
X189863767Y-72087347D02*
X188979884Y-71203464D01*
G75*
G02*
X188979884Y-71026688I88388J88388D01*
G01*
X189156661Y-70849911D01*
G75*
G02*
X189333437Y-70849911I88388J-88388D01*
G01*
X190217320Y-71733794D01*
G75*
G02*
X190217320Y-71910570I-88388J-88388D01*
G01*
X190040543Y-72087347D01*
G75*
G02*
X189863767Y-72087347I-88388J88388D01*
G01*
G37*
%TD.AperFunction*%
%TO.P,U1,30*%
%TO.N,SDA*%
%TA.AperFunction,SMDPad,CuDef*%
G36*
G01*
X189298082Y-72653032D02*
X188414199Y-71769149D01*
G75*
G02*
X188414199Y-71592373I88388J88388D01*
G01*
X188590976Y-71415596D01*
G75*
G02*
X188767752Y-71415596I88388J-88388D01*
G01*
X189651635Y-72299479D01*
G75*
G02*
X189651635Y-72476255I-88388J-88388D01*
G01*
X189474858Y-72653032D01*
G75*
G02*
X189298082Y-72653032I-88388J88388D01*
G01*
G37*
%TD.AperFunction*%
%TO.P,U1,31*%
%TO.N,N/C*%
%TA.AperFunction,SMDPad,CuDef*%
G36*
G01*
X188732397Y-73218718D02*
X187848514Y-72334835D01*
G75*
G02*
X187848514Y-72158059I88388J88388D01*
G01*
X188025291Y-71981282D01*
G75*
G02*
X188202067Y-71981282I88388J-88388D01*
G01*
X189085950Y-72865165D01*
G75*
G02*
X189085950Y-73041941I-88388J-88388D01*
G01*
X188909173Y-73218718D01*
G75*
G02*
X188732397Y-73218718I-88388J88388D01*
G01*
G37*
%TD.AperFunction*%
%TO.P,U1,32*%
%TO.N,GND*%
%TA.AperFunction,SMDPad,CuDef*%
G36*
G01*
X188166711Y-73784403D02*
X187282828Y-72900520D01*
G75*
G02*
X187282828Y-72723744I88388J88388D01*
G01*
X187459605Y-72546967D01*
G75*
G02*
X187636381Y-72546967I88388J-88388D01*
G01*
X188520264Y-73430850D01*
G75*
G02*
X188520264Y-73607626I-88388J-88388D01*
G01*
X188343487Y-73784403D01*
G75*
G02*
X188166711Y-73784403I-88388J88388D01*
G01*
G37*
%TD.AperFunction*%
%TD*%
D17*
%TO.P,U2,1*%
%TO.N,GND*%
X171550000Y-71300000D03*
%TO.P,U2,3*%
%TO.N,INPUT*%
X171550000Y-66700000D03*
%TO.P,U2,2*%
%TO.N,+3V3*%
X171550000Y-69000000D03*
D18*
X165250000Y-69000000D03*
%TD*%
%TO.P,R7,2*%
%TO.N,Net-(D2-Pad2)*%
%TA.AperFunction,SMDPad,CuDef*%
G36*
G01*
X188956250Y-82550000D02*
X188043750Y-82550000D01*
G75*
G02*
X187800000Y-82306250I0J243750D01*
G01*
X187800000Y-81818750D01*
G75*
G02*
X188043750Y-81575000I243750J0D01*
G01*
X188956250Y-81575000D01*
G75*
G02*
X189200000Y-81818750I0J-243750D01*
G01*
X189200000Y-82306250D01*
G75*
G02*
X188956250Y-82550000I-243750J0D01*
G01*
G37*
%TD.AperFunction*%
%TO.P,R7,1*%
%TO.N,LED_GREEN*%
%TA.AperFunction,SMDPad,CuDef*%
G36*
G01*
X188956250Y-84425000D02*
X188043750Y-84425000D01*
G75*
G02*
X187800000Y-84181250I0J243750D01*
G01*
X187800000Y-83693750D01*
G75*
G02*
X188043750Y-83450000I243750J0D01*
G01*
X188956250Y-83450000D01*
G75*
G02*
X189200000Y-83693750I0J-243750D01*
G01*
X189200000Y-84181250D01*
G75*
G02*
X188956250Y-84425000I-243750J0D01*
G01*
G37*
%TD.AperFunction*%
%TD*%
%TO.P,R6,2*%
%TO.N,Net-(D1-Pad2)*%
%TA.AperFunction,SMDPad,CuDef*%
G36*
G01*
X199956250Y-67612500D02*
X199043750Y-67612500D01*
G75*
G02*
X198800000Y-67368750I0J243750D01*
G01*
X198800000Y-66881250D01*
G75*
G02*
X199043750Y-66637500I243750J0D01*
G01*
X199956250Y-66637500D01*
G75*
G02*
X200200000Y-66881250I0J-243750D01*
G01*
X200200000Y-67368750D01*
G75*
G02*
X199956250Y-67612500I-243750J0D01*
G01*
G37*
%TD.AperFunction*%
%TO.P,R6,1*%
%TO.N,LED_RED*%
%TA.AperFunction,SMDPad,CuDef*%
G36*
G01*
X199956250Y-69487500D02*
X199043750Y-69487500D01*
G75*
G02*
X198800000Y-69243750I0J243750D01*
G01*
X198800000Y-68756250D01*
G75*
G02*
X199043750Y-68512500I243750J0D01*
G01*
X199956250Y-68512500D01*
G75*
G02*
X200200000Y-68756250I0J-243750D01*
G01*
X200200000Y-69243750D01*
G75*
G02*
X199956250Y-69487500I-243750J0D01*
G01*
G37*
%TD.AperFunction*%
%TD*%
%TO.P,R5,2*%
%TO.N,GND*%
%TA.AperFunction,SMDPad,CuDef*%
G36*
G01*
X199206250Y-78612500D02*
X198293750Y-78612500D01*
G75*
G02*
X198050000Y-78368750I0J243750D01*
G01*
X198050000Y-77881250D01*
G75*
G02*
X198293750Y-77637500I243750J0D01*
G01*
X199206250Y-77637500D01*
G75*
G02*
X199450000Y-77881250I0J-243750D01*
G01*
X199450000Y-78368750D01*
G75*
G02*
X199206250Y-78612500I-243750J0D01*
G01*
G37*
%TD.AperFunction*%
%TO.P,R5,1*%
%TO.N,BOOT0*%
%TA.AperFunction,SMDPad,CuDef*%
G36*
G01*
X199206250Y-80487500D02*
X198293750Y-80487500D01*
G75*
G02*
X198050000Y-80243750I0J243750D01*
G01*
X198050000Y-79756250D01*
G75*
G02*
X198293750Y-79512500I243750J0D01*
G01*
X199206250Y-79512500D01*
G75*
G02*
X199450000Y-79756250I0J-243750D01*
G01*
X199450000Y-80243750D01*
G75*
G02*
X199206250Y-80487500I-243750J0D01*
G01*
G37*
%TD.AperFunction*%
%TD*%
%TO.P,R4,2*%
%TO.N,SCL*%
%TA.AperFunction,SMDPad,CuDef*%
G36*
G01*
X190543750Y-104950000D02*
X191456250Y-104950000D01*
G75*
G02*
X191700000Y-105193750I0J-243750D01*
G01*
X191700000Y-105681250D01*
G75*
G02*
X191456250Y-105925000I-243750J0D01*
G01*
X190543750Y-105925000D01*
G75*
G02*
X190300000Y-105681250I0J243750D01*
G01*
X190300000Y-105193750D01*
G75*
G02*
X190543750Y-104950000I243750J0D01*
G01*
G37*
%TD.AperFunction*%
%TO.P,R4,1*%
%TO.N,+3V3*%
%TA.AperFunction,SMDPad,CuDef*%
G36*
G01*
X190543750Y-103075000D02*
X191456250Y-103075000D01*
G75*
G02*
X191700000Y-103318750I0J-243750D01*
G01*
X191700000Y-103806250D01*
G75*
G02*
X191456250Y-104050000I-243750J0D01*
G01*
X190543750Y-104050000D01*
G75*
G02*
X190300000Y-103806250I0J243750D01*
G01*
X190300000Y-103318750D01*
G75*
G02*
X190543750Y-103075000I243750J0D01*
G01*
G37*
%TD.AperFunction*%
%TD*%
%TO.P,R3,2*%
%TO.N,SDA*%
%TA.AperFunction,SMDPad,CuDef*%
G36*
G01*
X188043750Y-105012500D02*
X188956250Y-105012500D01*
G75*
G02*
X189200000Y-105256250I0J-243750D01*
G01*
X189200000Y-105743750D01*
G75*
G02*
X188956250Y-105987500I-243750J0D01*
G01*
X188043750Y-105987500D01*
G75*
G02*
X187800000Y-105743750I0J243750D01*
G01*
X187800000Y-105256250D01*
G75*
G02*
X188043750Y-105012500I243750J0D01*
G01*
G37*
%TD.AperFunction*%
%TO.P,R3,1*%
%TO.N,+3V3*%
%TA.AperFunction,SMDPad,CuDef*%
G36*
G01*
X188043750Y-103137500D02*
X188956250Y-103137500D01*
G75*
G02*
X189200000Y-103381250I0J-243750D01*
G01*
X189200000Y-103868750D01*
G75*
G02*
X188956250Y-104112500I-243750J0D01*
G01*
X188043750Y-104112500D01*
G75*
G02*
X187800000Y-103868750I0J243750D01*
G01*
X187800000Y-103381250D01*
G75*
G02*
X188043750Y-103137500I243750J0D01*
G01*
G37*
%TD.AperFunction*%
%TD*%
%TO.P,D1,2*%
%TO.N,Net-(D1-Pad2)*%
%TA.AperFunction,SMDPad,CuDef*%
G36*
G01*
X202456250Y-67612500D02*
X201543750Y-67612500D01*
G75*
G02*
X201300000Y-67368750I0J243750D01*
G01*
X201300000Y-66881250D01*
G75*
G02*
X201543750Y-66637500I243750J0D01*
G01*
X202456250Y-66637500D01*
G75*
G02*
X202700000Y-66881250I0J-243750D01*
G01*
X202700000Y-67368750D01*
G75*
G02*
X202456250Y-67612500I-243750J0D01*
G01*
G37*
%TD.AperFunction*%
%TO.P,D1,1*%
%TO.N,GND*%
%TA.AperFunction,SMDPad,CuDef*%
G36*
G01*
X202456250Y-69487500D02*
X201543750Y-69487500D01*
G75*
G02*
X201300000Y-69243750I0J243750D01*
G01*
X201300000Y-68756250D01*
G75*
G02*
X201543750Y-68512500I243750J0D01*
G01*
X202456250Y-68512500D01*
G75*
G02*
X202700000Y-68756250I0J-243750D01*
G01*
X202700000Y-69243750D01*
G75*
G02*
X202456250Y-69487500I-243750J0D01*
G01*
G37*
%TD.AperFunction*%
%TD*%
%TO.P,C7,2*%
%TO.N,GND*%
%TA.AperFunction,SMDPad,CuDef*%
G36*
G01*
X174143750Y-68450000D02*
X175056250Y-68450000D01*
G75*
G02*
X175300000Y-68693750I0J-243750D01*
G01*
X175300000Y-69181250D01*
G75*
G02*
X175056250Y-69425000I-243750J0D01*
G01*
X174143750Y-69425000D01*
G75*
G02*
X173900000Y-69181250I0J243750D01*
G01*
X173900000Y-68693750D01*
G75*
G02*
X174143750Y-68450000I243750J0D01*
G01*
G37*
%TD.AperFunction*%
%TO.P,C7,1*%
%TO.N,+3V3*%
%TA.AperFunction,SMDPad,CuDef*%
G36*
G01*
X174143750Y-66575000D02*
X175056250Y-66575000D01*
G75*
G02*
X175300000Y-66818750I0J-243750D01*
G01*
X175300000Y-67306250D01*
G75*
G02*
X175056250Y-67550000I-243750J0D01*
G01*
X174143750Y-67550000D01*
G75*
G02*
X173900000Y-67306250I0J243750D01*
G01*
X173900000Y-66818750D01*
G75*
G02*
X174143750Y-66575000I243750J0D01*
G01*
G37*
%TD.AperFunction*%
%TD*%
%TO.P,C6,2*%
%TO.N,GND*%
%TA.AperFunction,SMDPad,CuDef*%
G36*
G01*
X166350000Y-62943750D02*
X166350000Y-63856250D01*
G75*
G02*
X166106250Y-64100000I-243750J0D01*
G01*
X165618750Y-64100000D01*
G75*
G02*
X165375000Y-63856250I0J243750D01*
G01*
X165375000Y-62943750D01*
G75*
G02*
X165618750Y-62700000I243750J0D01*
G01*
X166106250Y-62700000D01*
G75*
G02*
X166350000Y-62943750I0J-243750D01*
G01*
G37*
%TD.AperFunction*%
%TO.P,C6,1*%
%TO.N,INPUT*%
%TA.AperFunction,SMDPad,CuDef*%
G36*
G01*
X168225000Y-62943750D02*
X168225000Y-63856250D01*
G75*
G02*
X167981250Y-64100000I-243750J0D01*
G01*
X167493750Y-64100000D01*
G75*
G02*
X167250000Y-63856250I0J243750D01*
G01*
X167250000Y-62943750D01*
G75*
G02*
X167493750Y-62700000I243750J0D01*
G01*
X167981250Y-62700000D01*
G75*
G02*
X168225000Y-62943750I0J-243750D01*
G01*
G37*
%TD.AperFunction*%
%TD*%
%TO.P,C5,2*%
%TO.N,GND*%
%TA.AperFunction,SMDPad,CuDef*%
G36*
G01*
X193250000Y-81856250D02*
X193250000Y-80943750D01*
G75*
G02*
X193493750Y-80700000I243750J0D01*
G01*
X193981250Y-80700000D01*
G75*
G02*
X194225000Y-80943750I0J-243750D01*
G01*
X194225000Y-81856250D01*
G75*
G02*
X193981250Y-82100000I-243750J0D01*
G01*
X193493750Y-82100000D01*
G75*
G02*
X193250000Y-81856250I0J243750D01*
G01*
G37*
%TD.AperFunction*%
%TO.P,C5,1*%
%TO.N,+3V3*%
%TA.AperFunction,SMDPad,CuDef*%
G36*
G01*
X191375000Y-81856250D02*
X191375000Y-80943750D01*
G75*
G02*
X191618750Y-80700000I243750J0D01*
G01*
X192106250Y-80700000D01*
G75*
G02*
X192350000Y-80943750I0J-243750D01*
G01*
X192350000Y-81856250D01*
G75*
G02*
X192106250Y-82100000I-243750J0D01*
G01*
X191618750Y-82100000D01*
G75*
G02*
X191375000Y-81856250I0J243750D01*
G01*
G37*
%TD.AperFunction*%
%TD*%
%TO.P,C4,2*%
%TO.N,GND*%
%TA.AperFunction,SMDPad,CuDef*%
G36*
G01*
X183743750Y-85162500D02*
X184256250Y-85162500D01*
G75*
G02*
X184475000Y-85381250I0J-218750D01*
G01*
X184475000Y-85818750D01*
G75*
G02*
X184256250Y-86037500I-218750J0D01*
G01*
X183743750Y-86037500D01*
G75*
G02*
X183525000Y-85818750I0J218750D01*
G01*
X183525000Y-85381250D01*
G75*
G02*
X183743750Y-85162500I218750J0D01*
G01*
G37*
%TD.AperFunction*%
%TO.P,C4,1*%
%TO.N,14_OSC_IN*%
%TA.AperFunction,SMDPad,CuDef*%
G36*
G01*
X183743750Y-83587500D02*
X184256250Y-83587500D01*
G75*
G02*
X184475000Y-83806250I0J-218750D01*
G01*
X184475000Y-84243750D01*
G75*
G02*
X184256250Y-84462500I-218750J0D01*
G01*
X183743750Y-84462500D01*
G75*
G02*
X183525000Y-84243750I0J218750D01*
G01*
X183525000Y-83806250D01*
G75*
G02*
X183743750Y-83587500I218750J0D01*
G01*
G37*
%TD.AperFunction*%
%TD*%
%TO.P,C3,2*%
%TO.N,GND*%
%TA.AperFunction,SMDPad,CuDef*%
G36*
G01*
X199543750Y-74450000D02*
X200456250Y-74450000D01*
G75*
G02*
X200700000Y-74693750I0J-243750D01*
G01*
X200700000Y-75181250D01*
G75*
G02*
X200456250Y-75425000I-243750J0D01*
G01*
X199543750Y-75425000D01*
G75*
G02*
X199300000Y-75181250I0J243750D01*
G01*
X199300000Y-74693750D01*
G75*
G02*
X199543750Y-74450000I243750J0D01*
G01*
G37*
%TD.AperFunction*%
%TO.P,C3,1*%
%TO.N,+3V3*%
%TA.AperFunction,SMDPad,CuDef*%
G36*
G01*
X199543750Y-72575000D02*
X200456250Y-72575000D01*
G75*
G02*
X200700000Y-72818750I0J-243750D01*
G01*
X200700000Y-73306250D01*
G75*
G02*
X200456250Y-73550000I-243750J0D01*
G01*
X199543750Y-73550000D01*
G75*
G02*
X199300000Y-73306250I0J243750D01*
G01*
X199300000Y-72818750D01*
G75*
G02*
X199543750Y-72575000I243750J0D01*
G01*
G37*
%TD.AperFunction*%
%TD*%
%TO.P,C2,2*%
%TO.N,GND*%
%TA.AperFunction,SMDPad,CuDef*%
G36*
G01*
X185743750Y-83350000D02*
X186256250Y-83350000D01*
G75*
G02*
X186475000Y-83568750I0J-218750D01*
G01*
X186475000Y-84006250D01*
G75*
G02*
X186256250Y-84225000I-218750J0D01*
G01*
X185743750Y-84225000D01*
G75*
G02*
X185525000Y-84006250I0J218750D01*
G01*
X185525000Y-83568750D01*
G75*
G02*
X185743750Y-83350000I218750J0D01*
G01*
G37*
%TD.AperFunction*%
%TO.P,C2,1*%
%TO.N,15_OSC_OUT*%
%TA.AperFunction,SMDPad,CuDef*%
G36*
G01*
X185743750Y-81775000D02*
X186256250Y-81775000D01*
G75*
G02*
X186475000Y-81993750I0J-218750D01*
G01*
X186475000Y-82431250D01*
G75*
G02*
X186256250Y-82650000I-218750J0D01*
G01*
X185743750Y-82650000D01*
G75*
G02*
X185525000Y-82431250I0J218750D01*
G01*
X185525000Y-81993750D01*
G75*
G02*
X185743750Y-81775000I218750J0D01*
G01*
G37*
%TD.AperFunction*%
%TD*%
D19*
%TO.N,GND*%
X199000000Y-97000000D03*
X171000000Y-74000000D03*
X171000000Y-77000000D03*
X173000000Y-79000000D03*
X175000000Y-81000000D03*
X177000000Y-83000000D03*
X177000000Y-80000000D03*
X175000000Y-78000000D03*
X173000000Y-76000000D03*
X169000000Y-75000000D03*
X176000000Y-102000000D03*
X179000000Y-102000000D03*
X179000000Y-105000000D03*
X176000000Y-105000000D03*
X182000000Y-105000000D03*
X182000000Y-102000000D03*
X179000000Y-108000000D03*
X182000000Y-108000000D03*
X179000000Y-111000000D03*
X182000000Y-111000000D03*
X179000000Y-114000000D03*
X182000000Y-114000000D03*
X203000000Y-75000000D03*
X203000000Y-72000000D03*
X196000000Y-83000000D03*
X199000000Y-83000000D03*
X201540000Y-97000000D03*
X204080000Y-97000000D03*
X206620000Y-97000000D03*
X199000000Y-99540000D03*
X201540000Y-99540000D03*
X204080000Y-99540000D03*
X206620000Y-99540000D03*
X199000000Y-102080000D03*
X201540000Y-102080000D03*
X204080000Y-102080000D03*
X206620000Y-102080000D03*
X199000000Y-104620000D03*
X201540000Y-104620000D03*
X204080000Y-104620000D03*
X206620000Y-104620000D03*
X199000000Y-107160000D03*
X201540000Y-107160000D03*
X204080000Y-107160000D03*
X206620000Y-107160000D03*
X176500000Y-65250000D03*
%TO.N,BUTTON*%
X195750000Y-68000000D03*
X195750000Y-65500000D03*
%TO.N,Net-(D2-Pad2)*%
X186100000Y-80800000D03*
%TO.N,TX*%
X197250000Y-70250000D03*
X195750000Y-116250000D03*
%TO.N,RX*%
X197000000Y-115750000D03*
X198500000Y-70750000D03*
%TO.N,NRST*%
X187750000Y-79500000D03*
X177500000Y-93250000D03*
%TO.N,SCL*%
X189750000Y-107250000D03*
X188280331Y-70030331D03*
%TO.N,SDA*%
X187000000Y-105250000D03*
X187250000Y-70000000D03*
%TO.N,SWCLK*%
X191000000Y-74250000D03*
X183000000Y-88250000D03*
%TO.N,SWDIO*%
X183750000Y-92500000D03*
X192250000Y-75500000D03*
%TO.N,SWO*%
X192500000Y-67750000D03*
X186750000Y-90750000D03*
%TO.N,LED_GREEN*%
X186750000Y-68500000D03*
X190750000Y-83500000D03*
%TD*%
D20*
%TO.N,+3V3*%
X165250000Y-69000000D02*
X171550000Y-69000000D01*
X171550000Y-69000000D02*
X172000000Y-69000000D01*
X173937500Y-67062500D02*
X174600000Y-67062500D01*
X172000000Y-69000000D02*
X173937500Y-67062500D01*
X174600000Y-67062500D02*
X176562500Y-67062500D01*
X176562500Y-67062500D02*
X179000000Y-69500000D01*
X179000000Y-90600000D02*
X180800000Y-92400000D01*
X202500000Y-81150000D02*
X201000000Y-79650000D01*
X202500000Y-85000000D02*
X202500000Y-81150000D01*
X202500000Y-92062500D02*
X191000000Y-103562500D01*
X202500000Y-85000000D02*
X202500000Y-92062500D01*
X188562500Y-103562500D02*
X188500000Y-103625000D01*
X191000000Y-103562500D02*
X188562500Y-103562500D01*
X180800000Y-92400000D02*
X180900000Y-92400000D01*
X180800000Y-92400000D02*
X180800000Y-94800000D01*
X180800000Y-94800000D02*
X183500000Y-97500000D01*
X183500000Y-97500000D02*
X183500000Y-100750000D01*
X186375000Y-103625000D02*
X188500000Y-103625000D01*
X183500000Y-100750000D02*
X186375000Y-103625000D01*
X179000000Y-73500000D02*
X180500000Y-75000000D01*
X179000000Y-73500000D02*
X179000000Y-90600000D01*
X179000000Y-69500000D02*
X179000000Y-73500000D01*
X180500000Y-75000000D02*
X185500000Y-75000000D01*
X199896815Y-73165685D02*
X200000000Y-73062500D01*
X197765686Y-73165685D02*
X199896815Y-73165685D01*
D21*
X187791317Y-75000000D02*
X187901546Y-75110229D01*
X185500000Y-75000000D02*
X187791317Y-75000000D01*
X187901546Y-75110229D02*
X187901546Y-75098454D01*
X187901546Y-75098454D02*
X188750000Y-74250000D01*
X188750000Y-74250000D02*
X189500000Y-74250000D01*
X189500000Y-74250000D02*
X191000000Y-75750000D01*
X191000000Y-76537259D02*
X190164288Y-77372971D01*
X191000000Y-75750000D02*
X191000000Y-76537259D01*
X191862500Y-81400000D02*
X191150000Y-81400000D01*
X191150000Y-81400000D02*
X189000000Y-79250000D01*
X189000000Y-78537259D02*
X190164288Y-77372971D01*
X189000000Y-79250000D02*
X189000000Y-78537259D01*
X191000000Y-76537259D02*
X192537259Y-76537259D01*
X192537259Y-76537259D02*
X193000000Y-76074518D01*
X194856853Y-76074518D02*
X197765686Y-73165685D01*
X193000000Y-76074518D02*
X194856853Y-76074518D01*
D20*
%TO.N,INPUT*%
X171060000Y-60300000D02*
X169700000Y-60300000D01*
X167737500Y-62262500D02*
X167737500Y-63400000D01*
X169700000Y-60300000D02*
X167737500Y-62262500D01*
X167737500Y-63400000D02*
X170400000Y-63400000D01*
X171550000Y-64550000D02*
X171550000Y-66700000D01*
X170400000Y-63400000D02*
X171550000Y-64550000D01*
D21*
%TO.N,BUTTON*%
X189000000Y-65000000D02*
X194250000Y-65000000D01*
X194937259Y-70337258D02*
X194937259Y-70312741D01*
X194937259Y-70312741D02*
X195750000Y-69500000D01*
X195750000Y-69500000D02*
X195750000Y-68000000D01*
X195750000Y-65500000D02*
X195250000Y-65000000D01*
X195250000Y-65000000D02*
X194250000Y-65000000D01*
%TO.N,Net-(D1-Pad2)*%
X199500000Y-67125000D02*
X202000000Y-67125000D01*
%TO.N,Net-(D2-Pad2)*%
X188500000Y-82062500D02*
X187300000Y-80862500D01*
X187300000Y-80862500D02*
X186162500Y-80862500D01*
X186162500Y-80862500D02*
X186100000Y-80800000D01*
%TO.N,TX*%
X196068630Y-71468629D02*
X196068630Y-71431370D01*
X196068630Y-71431370D02*
X197250000Y-70250000D01*
X195750000Y-116657898D02*
X197462599Y-118370497D01*
X195750000Y-116250000D02*
X195750000Y-116657898D01*
%TO.N,RX*%
X201592102Y-118907898D02*
X200157898Y-118907898D01*
X200157898Y-118907898D02*
X197000000Y-115750000D01*
X197918629Y-70750000D02*
X196634315Y-72034314D01*
X198500000Y-70750000D02*
X197918629Y-70750000D01*
%TO.N,NRST*%
X189598602Y-76807285D02*
X187750000Y-78655887D01*
X187750000Y-78655887D02*
X187750000Y-79500000D01*
X177500000Y-93250000D02*
X177500000Y-94940000D01*
%TO.N,SCL*%
X184129503Y-118962599D02*
X181500000Y-121592102D01*
X181500000Y-121592102D02*
X181500000Y-123750000D01*
X181500000Y-123750000D02*
X182500000Y-124750000D01*
X182500000Y-124750000D02*
X185250000Y-124750000D01*
X185250000Y-124750000D02*
X189500000Y-120500000D01*
X189500000Y-120500000D02*
X189500000Y-108750000D01*
X191000000Y-107250000D02*
X191000000Y-105437500D01*
X189500000Y-108750000D02*
X191000000Y-107250000D01*
X189598602Y-71468629D02*
X189000000Y-70870027D01*
X189750000Y-107250000D02*
X191000000Y-107250000D01*
X188280331Y-70150358D02*
X189598602Y-71468629D01*
X188280331Y-70030331D02*
X188280331Y-70150358D01*
%TO.N,SDA*%
X188500000Y-118184204D02*
X183592102Y-123092102D01*
X188500000Y-105500000D02*
X188500000Y-118184204D01*
X188500000Y-105500000D02*
X187250000Y-105500000D01*
X187250000Y-105500000D02*
X187000000Y-105250000D01*
X187250000Y-70251397D02*
X189032917Y-72034314D01*
X187250000Y-70000000D02*
X187250000Y-70251397D01*
%TO.N,SWCLK*%
X193805888Y-69205887D02*
X191000000Y-72011775D01*
X191000000Y-72011775D02*
X191000000Y-74250000D01*
X183000000Y-88250000D02*
X185250000Y-90500000D01*
X185250000Y-95690000D02*
X187050000Y-97490000D01*
X185250000Y-90500000D02*
X185250000Y-95690000D01*
%TO.N,SWDIO*%
X183750000Y-94950000D02*
X183750000Y-92500000D01*
X192250000Y-75500000D02*
X191750000Y-75000000D01*
X191750000Y-72393146D02*
X194371573Y-69771573D01*
X191750000Y-75000000D02*
X191750000Y-72393146D01*
%TO.N,SWO*%
X191295659Y-69771573D02*
X190500000Y-68975914D01*
X190500000Y-68975914D02*
X190500000Y-68500000D01*
X190500000Y-68500000D02*
X191250000Y-67750000D01*
X191250000Y-67750000D02*
X192500000Y-67750000D01*
X186750000Y-92110000D02*
X187050000Y-92410000D01*
X186750000Y-90750000D02*
X186750000Y-92110000D01*
%TO.N,15_OSC_OUT*%
X185712500Y-82212500D02*
X184500000Y-81000000D01*
X186000000Y-82212500D02*
X185712500Y-82212500D01*
X189032917Y-76467083D02*
X189032917Y-76241600D01*
X184500000Y-81000000D02*
X189032917Y-76467083D01*
%TO.N,14_OSC_IN*%
X182771051Y-82796051D02*
X184000000Y-84025000D01*
X182703949Y-82796051D02*
X182771051Y-82796051D01*
X188467232Y-75774766D02*
X188467232Y-75675914D01*
X182703949Y-81538049D02*
X188467232Y-75774766D01*
X182703949Y-82796051D02*
X182703949Y-81538049D01*
%TO.N,BOOT0*%
X197073970Y-76681255D02*
X197073970Y-76823970D01*
X196634315Y-76241600D02*
X197073970Y-76681255D01*
X197250000Y-79500000D02*
X197750000Y-80000000D01*
X197750000Y-80000000D02*
X198750000Y-80000000D01*
X196634315Y-76241600D02*
X197250000Y-76857285D01*
X197250000Y-76857285D02*
X197250000Y-79500000D01*
X200400000Y-78350000D02*
X198750000Y-80000000D01*
X201000000Y-78350000D02*
X200400000Y-78350000D01*
%TO.N,LED_GREEN*%
X187860002Y-68500000D02*
X186750000Y-68500000D01*
X190164288Y-70902943D02*
X190164288Y-70804286D01*
X190164288Y-70804286D02*
X187860002Y-68500000D01*
X190750000Y-83500000D02*
X190250000Y-84000000D01*
X190187500Y-83937500D02*
X188500000Y-83937500D01*
X190250000Y-84000000D02*
X190187500Y-83937500D01*
%TO.N,LED_RED*%
X191250000Y-67000000D02*
X197500000Y-67000000D01*
X189750000Y-68500000D02*
X191250000Y-67000000D01*
X197500000Y-67000000D02*
X199500000Y-69000000D01*
X190729973Y-70337258D02*
X189750000Y-69357285D01*
X189750000Y-69357285D02*
X189750000Y-68500000D01*
%TD*%
D22*
%TO.N,GND*%
G36*
X202394493Y-79524774D02*
G01*
X202437661Y-79551821D01*
X203996384Y-80623445D01*
X206840144Y-83074963D01*
X209082955Y-85512802D01*
X211035040Y-88343327D01*
X212699269Y-91475997D01*
X213576054Y-93716672D01*
X214261681Y-95969448D01*
X214750089Y-98118442D01*
X215143344Y-100969541D01*
X215337388Y-103589130D01*
X215044992Y-106318159D01*
X214753958Y-108355396D01*
X214371440Y-109598579D01*
X213882557Y-111065230D01*
X213313384Y-112393302D01*
X212849450Y-113135596D01*
X212203684Y-114058120D01*
X211382039Y-114788471D01*
X210631240Y-115351571D01*
X210205784Y-115606845D01*
X209811147Y-115764700D01*
X208934649Y-115940000D01*
X208136553Y-115940000D01*
X207290758Y-115846023D01*
X206806395Y-115765296D01*
X206317547Y-115520872D01*
X206283277Y-115500352D01*
X206229033Y-115480971D01*
X206175166Y-115460358D01*
X206167838Y-115459107D01*
X206160847Y-115456609D01*
X206103856Y-115448182D01*
X206047012Y-115438476D01*
X206039583Y-115438678D01*
X206032237Y-115437592D01*
X205974699Y-115440445D01*
X205917054Y-115442015D01*
X205909806Y-115443663D01*
X205902388Y-115444031D01*
X205846485Y-115458061D01*
X205790281Y-115470841D01*
X205783499Y-115473869D01*
X205776291Y-115475678D01*
X205724198Y-115500346D01*
X205671567Y-115523844D01*
X205665503Y-115528139D01*
X205658790Y-115531318D01*
X205612515Y-115565671D01*
X205565476Y-115598989D01*
X205560368Y-115604383D01*
X205554402Y-115608812D01*
X205515717Y-115651534D01*
X205476082Y-115693387D01*
X205472124Y-115699675D01*
X205467138Y-115705181D01*
X205437518Y-115754651D01*
X205406823Y-115803412D01*
X205404170Y-115810345D01*
X205400351Y-115816723D01*
X205380955Y-115871009D01*
X205360358Y-115924834D01*
X205353633Y-115964221D01*
X204969500Y-117500754D01*
X204495433Y-118733329D01*
X203723703Y-120276790D01*
X202770873Y-121801320D01*
X201934035Y-122731141D01*
X201095772Y-123476264D01*
X199684318Y-124417234D01*
X198382137Y-124975312D01*
X197384802Y-125247313D01*
X196299999Y-125337713D01*
X195233655Y-125248851D01*
X194810318Y-125107739D01*
X194521942Y-124891458D01*
X194521935Y-124891451D01*
X193757675Y-124318257D01*
X192892557Y-123280116D01*
X197399490Y-123280116D01*
X197399490Y-123504622D01*
X197867013Y-123976490D01*
X197963704Y-124055843D01*
X198074019Y-124114807D01*
X198193717Y-124151116D01*
X198318198Y-124163377D01*
X198442679Y-124151116D01*
X198562378Y-124114807D01*
X198672692Y-124055843D01*
X198769383Y-123976490D01*
X198918708Y-123822820D01*
X198918708Y-123598314D01*
X198000000Y-122679605D01*
X197399490Y-123280116D01*
X192892557Y-123280116D01*
X192868693Y-123251480D01*
X192410259Y-122181802D01*
X196336623Y-122181802D01*
X196348884Y-122306283D01*
X196385193Y-122425981D01*
X196444157Y-122536296D01*
X196523510Y-122632987D01*
X196995378Y-123100510D01*
X197219884Y-123100510D01*
X197820395Y-122500000D01*
X198179605Y-122500000D01*
X199098314Y-123418708D01*
X199322820Y-123418708D01*
X199476490Y-123269383D01*
X199555843Y-123172692D01*
X199614807Y-123062378D01*
X199651116Y-122942679D01*
X199663377Y-122818198D01*
X199651116Y-122693717D01*
X199614807Y-122574019D01*
X199555843Y-122463704D01*
X199476490Y-122367013D01*
X199004622Y-121899490D01*
X198780116Y-121899490D01*
X198179605Y-122500000D01*
X197820395Y-122500000D01*
X196901686Y-121581292D01*
X196677180Y-121581292D01*
X196523510Y-121730617D01*
X196444157Y-121827308D01*
X196385193Y-121937622D01*
X196348884Y-122057321D01*
X196336623Y-122181802D01*
X192410259Y-122181802D01*
X192315167Y-121959922D01*
X192038906Y-121177180D01*
X197081292Y-121177180D01*
X197081292Y-121401686D01*
X198000000Y-122320395D01*
X198600510Y-121719884D01*
X198600510Y-121495378D01*
X198132987Y-121023510D01*
X198036296Y-120944157D01*
X197925981Y-120885193D01*
X197806283Y-120848884D01*
X197681802Y-120836623D01*
X197557321Y-120848884D01*
X197437622Y-120885193D01*
X197327308Y-120944157D01*
X197230617Y-121023510D01*
X197081292Y-121177180D01*
X192038906Y-121177180D01*
X191737986Y-120324575D01*
X191558153Y-119425414D01*
X191557897Y-119416365D01*
X191545429Y-119361792D01*
X191540825Y-119338774D01*
X191538200Y-119330153D01*
X191528940Y-119289623D01*
X191519310Y-119268115D01*
X191512444Y-119245566D01*
X191492803Y-119208913D01*
X191475812Y-119170965D01*
X191462169Y-119151747D01*
X191451038Y-119130974D01*
X191424625Y-119098857D01*
X191400556Y-119064952D01*
X191383430Y-119048768D01*
X191368457Y-119030562D01*
X191336276Y-119004208D01*
X191306064Y-118975658D01*
X191286111Y-118963127D01*
X191267873Y-118948191D01*
X191231178Y-118928627D01*
X191195968Y-118906513D01*
X191173947Y-118898113D01*
X191153151Y-118887025D01*
X191113349Y-118874997D01*
X191074497Y-118860176D01*
X191051260Y-118856233D01*
X191028702Y-118849416D01*
X190987319Y-118845384D01*
X190946320Y-118838427D01*
X190922762Y-118839093D01*
X190899307Y-118836808D01*
X190857925Y-118840927D01*
X190816364Y-118842103D01*
X190793393Y-118847351D01*
X190769938Y-118849686D01*
X190730157Y-118861799D01*
X190689622Y-118871060D01*
X190668112Y-118880691D01*
X190645566Y-118887556D01*
X190608914Y-118907196D01*
X190570965Y-118924188D01*
X190551746Y-118937831D01*
X190530974Y-118948962D01*
X190498862Y-118975372D01*
X190464951Y-118999444D01*
X190448764Y-119016573D01*
X190430562Y-119031543D01*
X190404215Y-119063716D01*
X190375657Y-119093936D01*
X190363123Y-119113893D01*
X190348191Y-119132127D01*
X190328628Y-119168818D01*
X190306513Y-119204032D01*
X190298113Y-119226053D01*
X190287025Y-119246849D01*
X190285000Y-119253550D01*
X190285000Y-116148061D01*
X194715000Y-116148061D01*
X194715000Y-116351939D01*
X194754774Y-116551898D01*
X194832795Y-116740256D01*
X194946063Y-116909774D01*
X195050181Y-117013892D01*
X195094138Y-117096131D01*
X195192237Y-117215662D01*
X195222185Y-117240240D01*
X195834356Y-117852411D01*
X195811482Y-117927817D01*
X195799222Y-118052299D01*
X195811482Y-118176781D01*
X195847792Y-118296479D01*
X195906757Y-118406793D01*
X195986109Y-118503484D01*
X197329612Y-119846987D01*
X197426303Y-119926339D01*
X197536617Y-119985304D01*
X197656315Y-120021614D01*
X197780797Y-120033874D01*
X197905279Y-120021614D01*
X198024977Y-119985304D01*
X198135291Y-119926339D01*
X198231982Y-119846987D01*
X198939089Y-119139880D01*
X199018441Y-119043189D01*
X199075773Y-118935931D01*
X199575556Y-119435714D01*
X199600134Y-119465662D01*
X199630082Y-119490240D01*
X199630085Y-119490243D01*
X199659457Y-119514348D01*
X199719665Y-119563760D01*
X199822991Y-119618988D01*
X199856038Y-119636652D01*
X200004010Y-119681539D01*
X200018388Y-119682955D01*
X200119337Y-119692898D01*
X200119344Y-119692898D01*
X200157897Y-119696695D01*
X200196450Y-119692898D01*
X200767625Y-119692898D01*
X201459115Y-120384388D01*
X201555806Y-120463740D01*
X201666120Y-120522705D01*
X201785818Y-120559015D01*
X201910300Y-120571275D01*
X202034782Y-120559015D01*
X202154480Y-120522705D01*
X202264794Y-120463740D01*
X202361485Y-120384388D01*
X203068592Y-119677281D01*
X203147944Y-119580590D01*
X203206909Y-119470276D01*
X203243219Y-119350578D01*
X203255479Y-119226096D01*
X203243219Y-119101614D01*
X203206909Y-118981916D01*
X203147944Y-118871602D01*
X203068592Y-118774911D01*
X201725089Y-117431408D01*
X201628398Y-117352056D01*
X201518084Y-117293091D01*
X201398386Y-117256781D01*
X201273904Y-117244521D01*
X201149422Y-117256781D01*
X201029724Y-117293091D01*
X200919410Y-117352056D01*
X200822719Y-117431408D01*
X200307142Y-117946985D01*
X198035000Y-115674843D01*
X198035000Y-115648061D01*
X198025441Y-115600000D01*
X200061928Y-115600000D01*
X200074188Y-115724482D01*
X200110498Y-115844180D01*
X200169463Y-115954494D01*
X200248815Y-116051185D01*
X200345506Y-116130537D01*
X200455820Y-116189502D01*
X200575518Y-116225812D01*
X200700000Y-116238072D01*
X202214250Y-116235000D01*
X202373000Y-116076250D01*
X202373000Y-114427000D01*
X202627000Y-114427000D01*
X202627000Y-116076250D01*
X202785750Y-116235000D01*
X204300000Y-116238072D01*
X204424482Y-116225812D01*
X204544180Y-116189502D01*
X204654494Y-116130537D01*
X204751185Y-116051185D01*
X204830537Y-115954494D01*
X204889502Y-115844180D01*
X204925812Y-115724482D01*
X204938072Y-115600000D01*
X204935000Y-114585750D01*
X204776250Y-114427000D01*
X202627000Y-114427000D01*
X202373000Y-114427000D01*
X200223750Y-114427000D01*
X200065000Y-114585750D01*
X200061928Y-115600000D01*
X198025441Y-115600000D01*
X197995226Y-115448102D01*
X197917205Y-115259744D01*
X197803937Y-115090226D01*
X197659774Y-114946063D01*
X197490256Y-114832795D01*
X197301898Y-114754774D01*
X197101939Y-114715000D01*
X196898061Y-114715000D01*
X196698102Y-114754774D01*
X196509744Y-114832795D01*
X196340226Y-114946063D01*
X196196063Y-115090226D01*
X196082795Y-115259744D01*
X196080027Y-115266426D01*
X196051898Y-115254774D01*
X195851939Y-115215000D01*
X195648061Y-115215000D01*
X195448102Y-115254774D01*
X195259744Y-115332795D01*
X195090226Y-115446063D01*
X194946063Y-115590226D01*
X194832795Y-115759744D01*
X194754774Y-115948102D01*
X194715000Y-116148061D01*
X190285000Y-116148061D01*
X190285000Y-113000000D01*
X200061928Y-113000000D01*
X200065000Y-114014250D01*
X200223750Y-114173000D01*
X202373000Y-114173000D01*
X202373000Y-112523750D01*
X202627000Y-112523750D01*
X202627000Y-114173000D01*
X204776250Y-114173000D01*
X204935000Y-114014250D01*
X204938072Y-113000000D01*
X204925812Y-112875518D01*
X204889502Y-112755820D01*
X204830537Y-112645506D01*
X204751185Y-112548815D01*
X204654494Y-112469463D01*
X204544180Y-112410498D01*
X204424482Y-112374188D01*
X204300000Y-112361928D01*
X202785750Y-112365000D01*
X202627000Y-112523750D01*
X202373000Y-112523750D01*
X202214250Y-112365000D01*
X200700000Y-112361928D01*
X200575518Y-112374188D01*
X200455820Y-112410498D01*
X200345506Y-112469463D01*
X200248815Y-112548815D01*
X200169463Y-112645506D01*
X200110498Y-112755820D01*
X200074188Y-112875518D01*
X200061928Y-113000000D01*
X190285000Y-113000000D01*
X190285000Y-109075157D01*
X191527816Y-107832342D01*
X191557764Y-107807764D01*
X191587926Y-107771013D01*
X191613167Y-107740256D01*
X191655862Y-107688233D01*
X191728754Y-107551860D01*
X191773641Y-107403887D01*
X191788798Y-107250000D01*
X191785000Y-107211439D01*
X191785000Y-106498589D01*
X191793709Y-106495947D01*
X191946164Y-106414458D01*
X192079792Y-106304792D01*
X192189458Y-106171164D01*
X192270947Y-106018709D01*
X192321128Y-105853285D01*
X192338072Y-105681250D01*
X192338072Y-105193750D01*
X192321128Y-105021715D01*
X192270947Y-104856291D01*
X192189458Y-104703836D01*
X192079792Y-104570208D01*
X191994244Y-104500000D01*
X192079792Y-104429792D01*
X192189458Y-104296164D01*
X192270947Y-104143709D01*
X192321128Y-103978285D01*
X192338072Y-103806250D01*
X192338072Y-103476006D01*
X203095049Y-92719030D01*
X203128817Y-92691317D01*
X203239411Y-92556559D01*
X203321589Y-92402813D01*
X203356843Y-92286597D01*
X203372195Y-92235991D01*
X203375923Y-92198140D01*
X203385000Y-92105977D01*
X203385000Y-92105969D01*
X203389281Y-92062500D01*
X203385000Y-92019031D01*
X203385000Y-86938072D01*
X204300000Y-86938072D01*
X204424482Y-86925812D01*
X204544180Y-86889502D01*
X204654494Y-86830537D01*
X204751185Y-86751185D01*
X204830537Y-86654494D01*
X204889502Y-86544180D01*
X204925812Y-86424482D01*
X204938072Y-86300000D01*
X204938072Y-83700000D01*
X204925812Y-83575518D01*
X204889502Y-83455820D01*
X204830537Y-83345506D01*
X204751185Y-83248815D01*
X204654494Y-83169463D01*
X204544180Y-83110498D01*
X204424482Y-83074188D01*
X204300000Y-83061928D01*
X203385000Y-83061928D01*
X203385000Y-81193465D01*
X203389281Y-81149999D01*
X203385000Y-81106533D01*
X203385000Y-81106523D01*
X203372195Y-80976510D01*
X203321589Y-80809687D01*
X203239411Y-80655941D01*
X203179012Y-80582345D01*
X203156532Y-80554953D01*
X203156530Y-80554951D01*
X203128817Y-80521183D01*
X203095049Y-80493470D01*
X202388072Y-79786493D01*
X202388072Y-79518719D01*
X202394493Y-79524774D01*
G37*
X202394493Y-79524774D02*
X202437661Y-79551821D01*
X203996384Y-80623445D01*
X206840144Y-83074963D01*
X209082955Y-85512802D01*
X211035040Y-88343327D01*
X212699269Y-91475997D01*
X213576054Y-93716672D01*
X214261681Y-95969448D01*
X214750089Y-98118442D01*
X215143344Y-100969541D01*
X215337388Y-103589130D01*
X215044992Y-106318159D01*
X214753958Y-108355396D01*
X214371440Y-109598579D01*
X213882557Y-111065230D01*
X213313384Y-112393302D01*
X212849450Y-113135596D01*
X212203684Y-114058120D01*
X211382039Y-114788471D01*
X210631240Y-115351571D01*
X210205784Y-115606845D01*
X209811147Y-115764700D01*
X208934649Y-115940000D01*
X208136553Y-115940000D01*
X207290758Y-115846023D01*
X206806395Y-115765296D01*
X206317547Y-115520872D01*
X206283277Y-115500352D01*
X206229033Y-115480971D01*
X206175166Y-115460358D01*
X206167838Y-115459107D01*
X206160847Y-115456609D01*
X206103856Y-115448182D01*
X206047012Y-115438476D01*
X206039583Y-115438678D01*
X206032237Y-115437592D01*
X205974699Y-115440445D01*
X205917054Y-115442015D01*
X205909806Y-115443663D01*
X205902388Y-115444031D01*
X205846485Y-115458061D01*
X205790281Y-115470841D01*
X205783499Y-115473869D01*
X205776291Y-115475678D01*
X205724198Y-115500346D01*
X205671567Y-115523844D01*
X205665503Y-115528139D01*
X205658790Y-115531318D01*
X205612515Y-115565671D01*
X205565476Y-115598989D01*
X205560368Y-115604383D01*
X205554402Y-115608812D01*
X205515717Y-115651534D01*
X205476082Y-115693387D01*
X205472124Y-115699675D01*
X205467138Y-115705181D01*
X205437518Y-115754651D01*
X205406823Y-115803412D01*
X205404170Y-115810345D01*
X205400351Y-115816723D01*
X205380955Y-115871009D01*
X205360358Y-115924834D01*
X205353633Y-115964221D01*
X204969500Y-117500754D01*
X204495433Y-118733329D01*
X203723703Y-120276790D01*
X202770873Y-121801320D01*
X201934035Y-122731141D01*
X201095772Y-123476264D01*
X199684318Y-124417234D01*
X198382137Y-124975312D01*
X197384802Y-125247313D01*
X196299999Y-125337713D01*
X195233655Y-125248851D01*
X194810318Y-125107739D01*
X194521942Y-124891458D01*
X194521935Y-124891451D01*
X193757675Y-124318257D01*
X192892557Y-123280116D01*
X197399490Y-123280116D01*
X197399490Y-123504622D01*
X197867013Y-123976490D01*
X197963704Y-124055843D01*
X198074019Y-124114807D01*
X198193717Y-124151116D01*
X198318198Y-124163377D01*
X198442679Y-124151116D01*
X198562378Y-124114807D01*
X198672692Y-124055843D01*
X198769383Y-123976490D01*
X198918708Y-123822820D01*
X198918708Y-123598314D01*
X198000000Y-122679605D01*
X197399490Y-123280116D01*
X192892557Y-123280116D01*
X192868693Y-123251480D01*
X192410259Y-122181802D01*
X196336623Y-122181802D01*
X196348884Y-122306283D01*
X196385193Y-122425981D01*
X196444157Y-122536296D01*
X196523510Y-122632987D01*
X196995378Y-123100510D01*
X197219884Y-123100510D01*
X197820395Y-122500000D01*
X198179605Y-122500000D01*
X199098314Y-123418708D01*
X199322820Y-123418708D01*
X199476490Y-123269383D01*
X199555843Y-123172692D01*
X199614807Y-123062378D01*
X199651116Y-122942679D01*
X199663377Y-122818198D01*
X199651116Y-122693717D01*
X199614807Y-122574019D01*
X199555843Y-122463704D01*
X199476490Y-122367013D01*
X199004622Y-121899490D01*
X198780116Y-121899490D01*
X198179605Y-122500000D01*
X197820395Y-122500000D01*
X196901686Y-121581292D01*
X196677180Y-121581292D01*
X196523510Y-121730617D01*
X196444157Y-121827308D01*
X196385193Y-121937622D01*
X196348884Y-122057321D01*
X196336623Y-122181802D01*
X192410259Y-122181802D01*
X192315167Y-121959922D01*
X192038906Y-121177180D01*
X197081292Y-121177180D01*
X197081292Y-121401686D01*
X198000000Y-122320395D01*
X198600510Y-121719884D01*
X198600510Y-121495378D01*
X198132987Y-121023510D01*
X198036296Y-120944157D01*
X197925981Y-120885193D01*
X197806283Y-120848884D01*
X197681802Y-120836623D01*
X197557321Y-120848884D01*
X197437622Y-120885193D01*
X197327308Y-120944157D01*
X197230617Y-121023510D01*
X197081292Y-121177180D01*
X192038906Y-121177180D01*
X191737986Y-120324575D01*
X191558153Y-119425414D01*
X191557897Y-119416365D01*
X191545429Y-119361792D01*
X191540825Y-119338774D01*
X191538200Y-119330153D01*
X191528940Y-119289623D01*
X191519310Y-119268115D01*
X191512444Y-119245566D01*
X191492803Y-119208913D01*
X191475812Y-119170965D01*
X191462169Y-119151747D01*
X191451038Y-119130974D01*
X191424625Y-119098857D01*
X191400556Y-119064952D01*
X191383430Y-119048768D01*
X191368457Y-119030562D01*
X191336276Y-119004208D01*
X191306064Y-118975658D01*
X191286111Y-118963127D01*
X191267873Y-118948191D01*
X191231178Y-118928627D01*
X191195968Y-118906513D01*
X191173947Y-118898113D01*
X191153151Y-118887025D01*
X191113349Y-118874997D01*
X191074497Y-118860176D01*
X191051260Y-118856233D01*
X191028702Y-118849416D01*
X190987319Y-118845384D01*
X190946320Y-118838427D01*
X190922762Y-118839093D01*
X190899307Y-118836808D01*
X190857925Y-118840927D01*
X190816364Y-118842103D01*
X190793393Y-118847351D01*
X190769938Y-118849686D01*
X190730157Y-118861799D01*
X190689622Y-118871060D01*
X190668112Y-118880691D01*
X190645566Y-118887556D01*
X190608914Y-118907196D01*
X190570965Y-118924188D01*
X190551746Y-118937831D01*
X190530974Y-118948962D01*
X190498862Y-118975372D01*
X190464951Y-118999444D01*
X190448764Y-119016573D01*
X190430562Y-119031543D01*
X190404215Y-119063716D01*
X190375657Y-119093936D01*
X190363123Y-119113893D01*
X190348191Y-119132127D01*
X190328628Y-119168818D01*
X190306513Y-119204032D01*
X190298113Y-119226053D01*
X190287025Y-119246849D01*
X190285000Y-119253550D01*
X190285000Y-116148061D01*
X194715000Y-116148061D01*
X194715000Y-116351939D01*
X194754774Y-116551898D01*
X194832795Y-116740256D01*
X194946063Y-116909774D01*
X195050181Y-117013892D01*
X195094138Y-117096131D01*
X195192237Y-117215662D01*
X195222185Y-117240240D01*
X195834356Y-117852411D01*
X195811482Y-117927817D01*
X195799222Y-118052299D01*
X195811482Y-118176781D01*
X195847792Y-118296479D01*
X195906757Y-118406793D01*
X195986109Y-118503484D01*
X197329612Y-119846987D01*
X197426303Y-119926339D01*
X197536617Y-119985304D01*
X197656315Y-120021614D01*
X197780797Y-120033874D01*
X197905279Y-120021614D01*
X198024977Y-119985304D01*
X198135291Y-119926339D01*
X198231982Y-119846987D01*
X198939089Y-119139880D01*
X199018441Y-119043189D01*
X199075773Y-118935931D01*
X199575556Y-119435714D01*
X199600134Y-119465662D01*
X199630082Y-119490240D01*
X199630085Y-119490243D01*
X199659457Y-119514348D01*
X199719665Y-119563760D01*
X199822991Y-119618988D01*
X199856038Y-119636652D01*
X200004010Y-119681539D01*
X200018388Y-119682955D01*
X200119337Y-119692898D01*
X200119344Y-119692898D01*
X200157897Y-119696695D01*
X200196450Y-119692898D01*
X200767625Y-119692898D01*
X201459115Y-120384388D01*
X201555806Y-120463740D01*
X201666120Y-120522705D01*
X201785818Y-120559015D01*
X201910300Y-120571275D01*
X202034782Y-120559015D01*
X202154480Y-120522705D01*
X202264794Y-120463740D01*
X202361485Y-120384388D01*
X203068592Y-119677281D01*
X203147944Y-119580590D01*
X203206909Y-119470276D01*
X203243219Y-119350578D01*
X203255479Y-119226096D01*
X203243219Y-119101614D01*
X203206909Y-118981916D01*
X203147944Y-118871602D01*
X203068592Y-118774911D01*
X201725089Y-117431408D01*
X201628398Y-117352056D01*
X201518084Y-117293091D01*
X201398386Y-117256781D01*
X201273904Y-117244521D01*
X201149422Y-117256781D01*
X201029724Y-117293091D01*
X200919410Y-117352056D01*
X200822719Y-117431408D01*
X200307142Y-117946985D01*
X198035000Y-115674843D01*
X198035000Y-115648061D01*
X198025441Y-115600000D01*
X200061928Y-115600000D01*
X200074188Y-115724482D01*
X200110498Y-115844180D01*
X200169463Y-115954494D01*
X200248815Y-116051185D01*
X200345506Y-116130537D01*
X200455820Y-116189502D01*
X200575518Y-116225812D01*
X200700000Y-116238072D01*
X202214250Y-116235000D01*
X202373000Y-116076250D01*
X202373000Y-114427000D01*
X202627000Y-114427000D01*
X202627000Y-116076250D01*
X202785750Y-116235000D01*
X204300000Y-116238072D01*
X204424482Y-116225812D01*
X204544180Y-116189502D01*
X204654494Y-116130537D01*
X204751185Y-116051185D01*
X204830537Y-115954494D01*
X204889502Y-115844180D01*
X204925812Y-115724482D01*
X204938072Y-115600000D01*
X204935000Y-114585750D01*
X204776250Y-114427000D01*
X202627000Y-114427000D01*
X202373000Y-114427000D01*
X200223750Y-114427000D01*
X200065000Y-114585750D01*
X200061928Y-115600000D01*
X198025441Y-115600000D01*
X197995226Y-115448102D01*
X197917205Y-115259744D01*
X197803937Y-115090226D01*
X197659774Y-114946063D01*
X197490256Y-114832795D01*
X197301898Y-114754774D01*
X197101939Y-114715000D01*
X196898061Y-114715000D01*
X196698102Y-114754774D01*
X196509744Y-114832795D01*
X196340226Y-114946063D01*
X196196063Y-115090226D01*
X196082795Y-115259744D01*
X196080027Y-115266426D01*
X196051898Y-115254774D01*
X195851939Y-115215000D01*
X195648061Y-115215000D01*
X195448102Y-115254774D01*
X195259744Y-115332795D01*
X195090226Y-115446063D01*
X194946063Y-115590226D01*
X194832795Y-115759744D01*
X194754774Y-115948102D01*
X194715000Y-116148061D01*
X190285000Y-116148061D01*
X190285000Y-113000000D01*
X200061928Y-113000000D01*
X200065000Y-114014250D01*
X200223750Y-114173000D01*
X202373000Y-114173000D01*
X202373000Y-112523750D01*
X202627000Y-112523750D01*
X202627000Y-114173000D01*
X204776250Y-114173000D01*
X204935000Y-114014250D01*
X204938072Y-113000000D01*
X204925812Y-112875518D01*
X204889502Y-112755820D01*
X204830537Y-112645506D01*
X204751185Y-112548815D01*
X204654494Y-112469463D01*
X204544180Y-112410498D01*
X204424482Y-112374188D01*
X204300000Y-112361928D01*
X202785750Y-112365000D01*
X202627000Y-112523750D01*
X202373000Y-112523750D01*
X202214250Y-112365000D01*
X200700000Y-112361928D01*
X200575518Y-112374188D01*
X200455820Y-112410498D01*
X200345506Y-112469463D01*
X200248815Y-112548815D01*
X200169463Y-112645506D01*
X200110498Y-112755820D01*
X200074188Y-112875518D01*
X200061928Y-113000000D01*
X190285000Y-113000000D01*
X190285000Y-109075157D01*
X191527816Y-107832342D01*
X191557764Y-107807764D01*
X191587926Y-107771013D01*
X191613167Y-107740256D01*
X191655862Y-107688233D01*
X191728754Y-107551860D01*
X191773641Y-107403887D01*
X191788798Y-107250000D01*
X191785000Y-107211439D01*
X191785000Y-106498589D01*
X191793709Y-106495947D01*
X191946164Y-106414458D01*
X192079792Y-106304792D01*
X192189458Y-106171164D01*
X192270947Y-106018709D01*
X192321128Y-105853285D01*
X192338072Y-105681250D01*
X192338072Y-105193750D01*
X192321128Y-105021715D01*
X192270947Y-104856291D01*
X192189458Y-104703836D01*
X192079792Y-104570208D01*
X191994244Y-104500000D01*
X192079792Y-104429792D01*
X192189458Y-104296164D01*
X192270947Y-104143709D01*
X192321128Y-103978285D01*
X192338072Y-103806250D01*
X192338072Y-103476006D01*
X203095049Y-92719030D01*
X203128817Y-92691317D01*
X203239411Y-92556559D01*
X203321589Y-92402813D01*
X203356843Y-92286597D01*
X203372195Y-92235991D01*
X203375923Y-92198140D01*
X203385000Y-92105977D01*
X203385000Y-92105969D01*
X203389281Y-92062500D01*
X203385000Y-92019031D01*
X203385000Y-86938072D01*
X204300000Y-86938072D01*
X204424482Y-86925812D01*
X204544180Y-86889502D01*
X204654494Y-86830537D01*
X204751185Y-86751185D01*
X204830537Y-86654494D01*
X204889502Y-86544180D01*
X204925812Y-86424482D01*
X204938072Y-86300000D01*
X204938072Y-83700000D01*
X204925812Y-83575518D01*
X204889502Y-83455820D01*
X204830537Y-83345506D01*
X204751185Y-83248815D01*
X204654494Y-83169463D01*
X204544180Y-83110498D01*
X204424482Y-83074188D01*
X204300000Y-83061928D01*
X203385000Y-83061928D01*
X203385000Y-81193465D01*
X203389281Y-81149999D01*
X203385000Y-81106533D01*
X203385000Y-81106523D01*
X203372195Y-80976510D01*
X203321589Y-80809687D01*
X203239411Y-80655941D01*
X203179012Y-80582345D01*
X203156532Y-80554953D01*
X203156530Y-80554951D01*
X203128817Y-80521183D01*
X203095049Y-80493470D01*
X202388072Y-79786493D01*
X202388072Y-79518719D01*
X202394493Y-79524774D01*
G36*
X178115001Y-90556521D02*
G01*
X178110719Y-90600000D01*
X178127805Y-90773490D01*
X178178412Y-90940313D01*
X178260590Y-91094059D01*
X178343468Y-91195046D01*
X178343471Y-91195049D01*
X178371184Y-91228817D01*
X178404951Y-91256529D01*
X179211928Y-92063506D01*
X179211928Y-92900000D01*
X179224188Y-93024482D01*
X179260498Y-93144180D01*
X179319463Y-93254494D01*
X179398815Y-93351185D01*
X179495506Y-93430537D01*
X179605820Y-93489502D01*
X179725518Y-93525812D01*
X179850000Y-93538072D01*
X179915000Y-93538072D01*
X179915001Y-94756521D01*
X179910719Y-94800000D01*
X179927805Y-94973490D01*
X179978412Y-95140313D01*
X180060590Y-95294059D01*
X180143468Y-95395046D01*
X180143471Y-95395049D01*
X180171184Y-95428817D01*
X180204951Y-95456529D01*
X181093386Y-96344965D01*
X181085750Y-96345000D01*
X180927000Y-96503750D01*
X180927000Y-97353000D01*
X180947000Y-97353000D01*
X180947000Y-97607000D01*
X180927000Y-97607000D01*
X180927000Y-98456250D01*
X181085750Y-98615000D01*
X181750000Y-98618072D01*
X181874482Y-98605812D01*
X181994180Y-98569502D01*
X182104494Y-98510537D01*
X182201185Y-98431185D01*
X182280537Y-98334494D01*
X182339502Y-98224180D01*
X182375812Y-98104482D01*
X182388072Y-97980000D01*
X182385000Y-97765750D01*
X182226252Y-97607002D01*
X182355423Y-97607002D01*
X182615000Y-97866579D01*
X182615001Y-100706521D01*
X182610719Y-100750000D01*
X182627805Y-100923490D01*
X182678412Y-101090313D01*
X182760590Y-101244059D01*
X182843468Y-101345046D01*
X182843471Y-101345049D01*
X182871184Y-101378817D01*
X182904951Y-101406529D01*
X185718470Y-104220049D01*
X185746183Y-104253817D01*
X185779951Y-104281530D01*
X185779953Y-104281532D01*
X185804784Y-104301910D01*
X185880941Y-104364411D01*
X186034687Y-104446589D01*
X186132824Y-104476359D01*
X186201509Y-104497195D01*
X186216306Y-104498652D01*
X186281241Y-104505048D01*
X186196063Y-104590226D01*
X186082795Y-104759744D01*
X186004774Y-104948102D01*
X185965000Y-105148061D01*
X185965000Y-105351939D01*
X186004774Y-105551898D01*
X186082795Y-105740256D01*
X186196063Y-105909774D01*
X186340226Y-106053937D01*
X186509744Y-106167205D01*
X186698102Y-106245226D01*
X186898061Y-106285000D01*
X187101939Y-106285000D01*
X187138203Y-106277787D01*
X187211439Y-106285000D01*
X187211446Y-106285000D01*
X187249999Y-106288797D01*
X187288552Y-106285000D01*
X187352672Y-106285000D01*
X187420208Y-106367292D01*
X187553836Y-106476958D01*
X187706291Y-106558447D01*
X187715000Y-106561089D01*
X187715001Y-117859045D01*
X184110188Y-121463859D01*
X184034782Y-121440985D01*
X183910300Y-121428725D01*
X183785818Y-121440985D01*
X183666120Y-121477295D01*
X183555806Y-121536260D01*
X183459115Y-121615612D01*
X182285000Y-122789727D01*
X182285000Y-121917259D01*
X183611417Y-120590842D01*
X183686823Y-120613716D01*
X183811305Y-120625976D01*
X183935787Y-120613716D01*
X184055485Y-120577406D01*
X184165799Y-120518441D01*
X184262490Y-120439089D01*
X185605993Y-119095586D01*
X185685345Y-118998895D01*
X185744310Y-118888581D01*
X185780620Y-118768883D01*
X185792880Y-118644401D01*
X185780620Y-118519919D01*
X185744310Y-118400221D01*
X185685345Y-118289907D01*
X185605993Y-118193216D01*
X184898886Y-117486109D01*
X184802195Y-117406757D01*
X184691881Y-117347792D01*
X184572183Y-117311482D01*
X184447701Y-117299222D01*
X184323219Y-117311482D01*
X184203521Y-117347792D01*
X184093207Y-117406757D01*
X183996516Y-117486109D01*
X182653013Y-118829612D01*
X182573661Y-118926303D01*
X182514696Y-119036617D01*
X182478386Y-119156315D01*
X182466126Y-119280797D01*
X182478386Y-119405279D01*
X182501260Y-119480685D01*
X180972190Y-121009755D01*
X180942236Y-121034338D01*
X180844138Y-121153870D01*
X180771246Y-121290243D01*
X180726359Y-121438216D01*
X180715000Y-121553542D01*
X180715000Y-121553549D01*
X180711203Y-121592102D01*
X180715000Y-121630655D01*
X180715001Y-123531186D01*
X180517323Y-123387421D01*
X179490373Y-122453831D01*
X178359072Y-120945430D01*
X178175305Y-120598314D01*
X179081292Y-120598314D01*
X179081292Y-120822820D01*
X179230617Y-120976490D01*
X179327308Y-121055843D01*
X179437622Y-121114807D01*
X179557321Y-121151116D01*
X179681802Y-121163377D01*
X179806283Y-121151116D01*
X179925981Y-121114807D01*
X180036296Y-121055843D01*
X180132987Y-120976490D01*
X180600510Y-120504622D01*
X180600510Y-120280116D01*
X180000000Y-119679605D01*
X179081292Y-120598314D01*
X178175305Y-120598314D01*
X177762302Y-119818198D01*
X178336623Y-119818198D01*
X178348884Y-119942679D01*
X178385193Y-120062378D01*
X178444157Y-120172692D01*
X178523510Y-120269383D01*
X178677180Y-120418708D01*
X178901686Y-120418708D01*
X179820395Y-119500000D01*
X180179605Y-119500000D01*
X180780116Y-120100510D01*
X181004622Y-120100510D01*
X181476490Y-119632987D01*
X181555843Y-119536296D01*
X181614807Y-119425981D01*
X181651116Y-119306283D01*
X181663377Y-119181802D01*
X181651116Y-119057321D01*
X181614807Y-118937622D01*
X181555843Y-118827308D01*
X181476490Y-118730617D01*
X181322820Y-118581292D01*
X181098314Y-118581292D01*
X180179605Y-119500000D01*
X179820395Y-119500000D01*
X179219884Y-118899490D01*
X178995378Y-118899490D01*
X178523510Y-119367013D01*
X178444157Y-119463704D01*
X178385193Y-119574019D01*
X178348884Y-119693717D01*
X178336623Y-119818198D01*
X177762302Y-119818198D01*
X177492614Y-119308790D01*
X177122882Y-118495378D01*
X179399490Y-118495378D01*
X179399490Y-118719884D01*
X180000000Y-119320395D01*
X180918708Y-118401686D01*
X180918708Y-118177180D01*
X180769383Y-118023510D01*
X180672692Y-117944157D01*
X180562378Y-117885193D01*
X180442679Y-117848884D01*
X180318198Y-117836623D01*
X180193717Y-117848884D01*
X180074019Y-117885193D01*
X179963704Y-117944157D01*
X179867013Y-118023510D01*
X179399490Y-118495378D01*
X177122882Y-118495378D01*
X177017762Y-118264116D01*
X176538998Y-116732071D01*
X176245632Y-115363034D01*
X175854062Y-113503077D01*
X175660214Y-111273827D01*
X175660224Y-111272532D01*
X175657410Y-111241578D01*
X175654710Y-111210528D01*
X175654471Y-111209251D01*
X175459513Y-109064710D01*
X175458857Y-109024296D01*
X175446795Y-108968410D01*
X175436064Y-108912260D01*
X175433097Y-108904942D01*
X175431429Y-108897214D01*
X175408685Y-108844730D01*
X175387216Y-108791778D01*
X175365017Y-108758007D01*
X174888246Y-107899821D01*
X174212315Y-106451399D01*
X173445674Y-104247308D01*
X173160000Y-102057140D01*
X173160000Y-100841087D01*
X173448270Y-98534924D01*
X173611483Y-97980000D01*
X179211928Y-97980000D01*
X179224188Y-98104482D01*
X179260498Y-98224180D01*
X179319463Y-98334494D01*
X179398815Y-98431185D01*
X179495506Y-98510537D01*
X179605820Y-98569502D01*
X179725518Y-98605812D01*
X179850000Y-98618072D01*
X180514250Y-98615000D01*
X180673000Y-98456250D01*
X180673000Y-97607000D01*
X179373750Y-97607000D01*
X179215000Y-97765750D01*
X179211928Y-97980000D01*
X173611483Y-97980000D01*
X173905601Y-96980000D01*
X179211928Y-96980000D01*
X179215000Y-97194250D01*
X179373750Y-97353000D01*
X180673000Y-97353000D01*
X180673000Y-96503750D01*
X180514250Y-96345000D01*
X179850000Y-96341928D01*
X179725518Y-96354188D01*
X179605820Y-96390498D01*
X179495506Y-96449463D01*
X179398815Y-96528815D01*
X179319463Y-96625506D01*
X179260498Y-96735820D01*
X179224188Y-96855518D01*
X179211928Y-96980000D01*
X173905601Y-96980000D01*
X173927339Y-96906092D01*
X174718559Y-94730236D01*
X174829125Y-94440000D01*
X175911928Y-94440000D01*
X175911928Y-95440000D01*
X175924188Y-95564482D01*
X175960498Y-95684180D01*
X176019463Y-95794494D01*
X176098815Y-95891185D01*
X176195506Y-95970537D01*
X176305820Y-96029502D01*
X176425518Y-96065812D01*
X176550000Y-96078072D01*
X178450000Y-96078072D01*
X178574482Y-96065812D01*
X178694180Y-96029502D01*
X178804494Y-95970537D01*
X178901185Y-95891185D01*
X178980537Y-95794494D01*
X179039502Y-95684180D01*
X179075812Y-95564482D01*
X179088072Y-95440000D01*
X179088072Y-94440000D01*
X179075812Y-94315518D01*
X179039502Y-94195820D01*
X178980537Y-94085506D01*
X178901185Y-93988815D01*
X178804494Y-93909463D01*
X178694180Y-93850498D01*
X178574482Y-93814188D01*
X178450000Y-93801928D01*
X178375997Y-93801928D01*
X178417205Y-93740256D01*
X178495226Y-93551898D01*
X178535000Y-93351939D01*
X178535000Y-93148061D01*
X178495226Y-92948102D01*
X178417205Y-92759744D01*
X178303937Y-92590226D01*
X178159774Y-92446063D01*
X177990256Y-92332795D01*
X177801898Y-92254774D01*
X177601939Y-92215000D01*
X177398061Y-92215000D01*
X177198102Y-92254774D01*
X177009744Y-92332795D01*
X176840226Y-92446063D01*
X176696063Y-92590226D01*
X176582795Y-92759744D01*
X176504774Y-92948102D01*
X176465000Y-93148061D01*
X176465000Y-93351939D01*
X176504774Y-93551898D01*
X176582795Y-93740256D01*
X176624003Y-93801928D01*
X176550000Y-93801928D01*
X176425518Y-93814188D01*
X176305820Y-93850498D01*
X176195506Y-93909463D01*
X176098815Y-93988815D01*
X176019463Y-94085506D01*
X175960498Y-94195820D01*
X175924188Y-94315518D01*
X175911928Y-94440000D01*
X174829125Y-94440000D01*
X175505047Y-92665709D01*
X176485490Y-90704824D01*
X177752869Y-88365049D01*
X177757427Y-88359304D01*
X177783786Y-88307971D01*
X177795773Y-88285841D01*
X177798601Y-88279118D01*
X177816813Y-88243652D01*
X177823752Y-88219340D01*
X177833558Y-88196033D01*
X177841554Y-88156966D01*
X177843554Y-88149960D01*
X177848051Y-88125224D01*
X177859628Y-88068666D01*
X177859669Y-88061329D01*
X178055153Y-86986169D01*
X178055153Y-86986163D01*
X178115001Y-86657004D01*
X178115001Y-90556521D01*
G37*
X178115001Y-90556521D02*
X178110719Y-90600000D01*
X178127805Y-90773490D01*
X178178412Y-90940313D01*
X178260590Y-91094059D01*
X178343468Y-91195046D01*
X178343471Y-91195049D01*
X178371184Y-91228817D01*
X178404951Y-91256529D01*
X179211928Y-92063506D01*
X179211928Y-92900000D01*
X179224188Y-93024482D01*
X179260498Y-93144180D01*
X179319463Y-93254494D01*
X179398815Y-93351185D01*
X179495506Y-93430537D01*
X179605820Y-93489502D01*
X179725518Y-93525812D01*
X179850000Y-93538072D01*
X179915000Y-93538072D01*
X179915001Y-94756521D01*
X179910719Y-94800000D01*
X179927805Y-94973490D01*
X179978412Y-95140313D01*
X180060590Y-95294059D01*
X180143468Y-95395046D01*
X180143471Y-95395049D01*
X180171184Y-95428817D01*
X180204951Y-95456529D01*
X181093386Y-96344965D01*
X181085750Y-96345000D01*
X180927000Y-96503750D01*
X180927000Y-97353000D01*
X180947000Y-97353000D01*
X180947000Y-97607000D01*
X180927000Y-97607000D01*
X180927000Y-98456250D01*
X181085750Y-98615000D01*
X181750000Y-98618072D01*
X181874482Y-98605812D01*
X181994180Y-98569502D01*
X182104494Y-98510537D01*
X182201185Y-98431185D01*
X182280537Y-98334494D01*
X182339502Y-98224180D01*
X182375812Y-98104482D01*
X182388072Y-97980000D01*
X182385000Y-97765750D01*
X182226252Y-97607002D01*
X182355423Y-97607002D01*
X182615000Y-97866579D01*
X182615001Y-100706521D01*
X182610719Y-100750000D01*
X182627805Y-100923490D01*
X182678412Y-101090313D01*
X182760590Y-101244059D01*
X182843468Y-101345046D01*
X182843471Y-101345049D01*
X182871184Y-101378817D01*
X182904951Y-101406529D01*
X185718470Y-104220049D01*
X185746183Y-104253817D01*
X185779951Y-104281530D01*
X185779953Y-104281532D01*
X185804784Y-104301910D01*
X185880941Y-104364411D01*
X186034687Y-104446589D01*
X186132824Y-104476359D01*
X186201509Y-104497195D01*
X186216306Y-104498652D01*
X186281241Y-104505048D01*
X186196063Y-104590226D01*
X186082795Y-104759744D01*
X186004774Y-104948102D01*
X185965000Y-105148061D01*
X185965000Y-105351939D01*
X186004774Y-105551898D01*
X186082795Y-105740256D01*
X186196063Y-105909774D01*
X186340226Y-106053937D01*
X186509744Y-106167205D01*
X186698102Y-106245226D01*
X186898061Y-106285000D01*
X187101939Y-106285000D01*
X187138203Y-106277787D01*
X187211439Y-106285000D01*
X187211446Y-106285000D01*
X187249999Y-106288797D01*
X187288552Y-106285000D01*
X187352672Y-106285000D01*
X187420208Y-106367292D01*
X187553836Y-106476958D01*
X187706291Y-106558447D01*
X187715000Y-106561089D01*
X187715001Y-117859045D01*
X184110188Y-121463859D01*
X184034782Y-121440985D01*
X183910300Y-121428725D01*
X183785818Y-121440985D01*
X183666120Y-121477295D01*
X183555806Y-121536260D01*
X183459115Y-121615612D01*
X182285000Y-122789727D01*
X182285000Y-121917259D01*
X183611417Y-120590842D01*
X183686823Y-120613716D01*
X183811305Y-120625976D01*
X183935787Y-120613716D01*
X184055485Y-120577406D01*
X184165799Y-120518441D01*
X184262490Y-120439089D01*
X185605993Y-119095586D01*
X185685345Y-118998895D01*
X185744310Y-118888581D01*
X185780620Y-118768883D01*
X185792880Y-118644401D01*
X185780620Y-118519919D01*
X185744310Y-118400221D01*
X185685345Y-118289907D01*
X185605993Y-118193216D01*
X184898886Y-117486109D01*
X184802195Y-117406757D01*
X184691881Y-117347792D01*
X184572183Y-117311482D01*
X184447701Y-117299222D01*
X184323219Y-117311482D01*
X184203521Y-117347792D01*
X184093207Y-117406757D01*
X183996516Y-117486109D01*
X182653013Y-118829612D01*
X182573661Y-118926303D01*
X182514696Y-119036617D01*
X182478386Y-119156315D01*
X182466126Y-119280797D01*
X182478386Y-119405279D01*
X182501260Y-119480685D01*
X180972190Y-121009755D01*
X180942236Y-121034338D01*
X180844138Y-121153870D01*
X180771246Y-121290243D01*
X180726359Y-121438216D01*
X180715000Y-121553542D01*
X180715000Y-121553549D01*
X180711203Y-121592102D01*
X180715000Y-121630655D01*
X180715001Y-123531186D01*
X180517323Y-123387421D01*
X179490373Y-122453831D01*
X178359072Y-120945430D01*
X178175305Y-120598314D01*
X179081292Y-120598314D01*
X179081292Y-120822820D01*
X179230617Y-120976490D01*
X179327308Y-121055843D01*
X179437622Y-121114807D01*
X179557321Y-121151116D01*
X179681802Y-121163377D01*
X179806283Y-121151116D01*
X179925981Y-121114807D01*
X180036296Y-121055843D01*
X180132987Y-120976490D01*
X180600510Y-120504622D01*
X180600510Y-120280116D01*
X180000000Y-119679605D01*
X179081292Y-120598314D01*
X178175305Y-120598314D01*
X177762302Y-119818198D01*
X178336623Y-119818198D01*
X178348884Y-119942679D01*
X178385193Y-120062378D01*
X178444157Y-120172692D01*
X178523510Y-120269383D01*
X178677180Y-120418708D01*
X178901686Y-120418708D01*
X179820395Y-119500000D01*
X180179605Y-119500000D01*
X180780116Y-120100510D01*
X181004622Y-120100510D01*
X181476490Y-119632987D01*
X181555843Y-119536296D01*
X181614807Y-119425981D01*
X181651116Y-119306283D01*
X181663377Y-119181802D01*
X181651116Y-119057321D01*
X181614807Y-118937622D01*
X181555843Y-118827308D01*
X181476490Y-118730617D01*
X181322820Y-118581292D01*
X181098314Y-118581292D01*
X180179605Y-119500000D01*
X179820395Y-119500000D01*
X179219884Y-118899490D01*
X178995378Y-118899490D01*
X178523510Y-119367013D01*
X178444157Y-119463704D01*
X178385193Y-119574019D01*
X178348884Y-119693717D01*
X178336623Y-119818198D01*
X177762302Y-119818198D01*
X177492614Y-119308790D01*
X177122882Y-118495378D01*
X179399490Y-118495378D01*
X179399490Y-118719884D01*
X180000000Y-119320395D01*
X180918708Y-118401686D01*
X180918708Y-118177180D01*
X180769383Y-118023510D01*
X180672692Y-117944157D01*
X180562378Y-117885193D01*
X180442679Y-117848884D01*
X180318198Y-117836623D01*
X180193717Y-117848884D01*
X180074019Y-117885193D01*
X179963704Y-117944157D01*
X179867013Y-118023510D01*
X179399490Y-118495378D01*
X177122882Y-118495378D01*
X177017762Y-118264116D01*
X176538998Y-116732071D01*
X176245632Y-115363034D01*
X175854062Y-113503077D01*
X175660214Y-111273827D01*
X175660224Y-111272532D01*
X175657410Y-111241578D01*
X175654710Y-111210528D01*
X175654471Y-111209251D01*
X175459513Y-109064710D01*
X175458857Y-109024296D01*
X175446795Y-108968410D01*
X175436064Y-108912260D01*
X175433097Y-108904942D01*
X175431429Y-108897214D01*
X175408685Y-108844730D01*
X175387216Y-108791778D01*
X175365017Y-108758007D01*
X174888246Y-107899821D01*
X174212315Y-106451399D01*
X173445674Y-104247308D01*
X173160000Y-102057140D01*
X173160000Y-100841087D01*
X173448270Y-98534924D01*
X173611483Y-97980000D01*
X179211928Y-97980000D01*
X179224188Y-98104482D01*
X179260498Y-98224180D01*
X179319463Y-98334494D01*
X179398815Y-98431185D01*
X179495506Y-98510537D01*
X179605820Y-98569502D01*
X179725518Y-98605812D01*
X179850000Y-98618072D01*
X180514250Y-98615000D01*
X180673000Y-98456250D01*
X180673000Y-97607000D01*
X179373750Y-97607000D01*
X179215000Y-97765750D01*
X179211928Y-97980000D01*
X173611483Y-97980000D01*
X173905601Y-96980000D01*
X179211928Y-96980000D01*
X179215000Y-97194250D01*
X179373750Y-97353000D01*
X180673000Y-97353000D01*
X180673000Y-96503750D01*
X180514250Y-96345000D01*
X179850000Y-96341928D01*
X179725518Y-96354188D01*
X179605820Y-96390498D01*
X179495506Y-96449463D01*
X179398815Y-96528815D01*
X179319463Y-96625506D01*
X179260498Y-96735820D01*
X179224188Y-96855518D01*
X179211928Y-96980000D01*
X173905601Y-96980000D01*
X173927339Y-96906092D01*
X174718559Y-94730236D01*
X174829125Y-94440000D01*
X175911928Y-94440000D01*
X175911928Y-95440000D01*
X175924188Y-95564482D01*
X175960498Y-95684180D01*
X176019463Y-95794494D01*
X176098815Y-95891185D01*
X176195506Y-95970537D01*
X176305820Y-96029502D01*
X176425518Y-96065812D01*
X176550000Y-96078072D01*
X178450000Y-96078072D01*
X178574482Y-96065812D01*
X178694180Y-96029502D01*
X178804494Y-95970537D01*
X178901185Y-95891185D01*
X178980537Y-95794494D01*
X179039502Y-95684180D01*
X179075812Y-95564482D01*
X179088072Y-95440000D01*
X179088072Y-94440000D01*
X179075812Y-94315518D01*
X179039502Y-94195820D01*
X178980537Y-94085506D01*
X178901185Y-93988815D01*
X178804494Y-93909463D01*
X178694180Y-93850498D01*
X178574482Y-93814188D01*
X178450000Y-93801928D01*
X178375997Y-93801928D01*
X178417205Y-93740256D01*
X178495226Y-93551898D01*
X178535000Y-93351939D01*
X178535000Y-93148061D01*
X178495226Y-92948102D01*
X178417205Y-92759744D01*
X178303937Y-92590226D01*
X178159774Y-92446063D01*
X177990256Y-92332795D01*
X177801898Y-92254774D01*
X177601939Y-92215000D01*
X177398061Y-92215000D01*
X177198102Y-92254774D01*
X177009744Y-92332795D01*
X176840226Y-92446063D01*
X176696063Y-92590226D01*
X176582795Y-92759744D01*
X176504774Y-92948102D01*
X176465000Y-93148061D01*
X176465000Y-93351939D01*
X176504774Y-93551898D01*
X176582795Y-93740256D01*
X176624003Y-93801928D01*
X176550000Y-93801928D01*
X176425518Y-93814188D01*
X176305820Y-93850498D01*
X176195506Y-93909463D01*
X176098815Y-93988815D01*
X176019463Y-94085506D01*
X175960498Y-94195820D01*
X175924188Y-94315518D01*
X175911928Y-94440000D01*
X174829125Y-94440000D01*
X175505047Y-92665709D01*
X176485490Y-90704824D01*
X177752869Y-88365049D01*
X177757427Y-88359304D01*
X177783786Y-88307971D01*
X177795773Y-88285841D01*
X177798601Y-88279118D01*
X177816813Y-88243652D01*
X177823752Y-88219340D01*
X177833558Y-88196033D01*
X177841554Y-88156966D01*
X177843554Y-88149960D01*
X177848051Y-88125224D01*
X177859628Y-88068666D01*
X177859669Y-88061329D01*
X178055153Y-86986169D01*
X178055153Y-86986163D01*
X178115001Y-86657004D01*
X178115001Y-90556521D01*
G36*
X179904951Y-75656530D02*
G01*
X179904953Y-75656532D01*
X179965487Y-75706211D01*
X180005941Y-75739411D01*
X180159687Y-75821589D01*
X180326510Y-75872195D01*
X180456523Y-75885000D01*
X180456533Y-75885000D01*
X180499999Y-75889281D01*
X180543465Y-75885000D01*
X184441785Y-75885000D01*
X184553836Y-75976958D01*
X184706291Y-76058447D01*
X184871715Y-76108628D01*
X185043750Y-76125572D01*
X185956250Y-76125572D01*
X186128285Y-76108628D01*
X186293709Y-76058447D01*
X186446164Y-75976958D01*
X186579792Y-75867292D01*
X186647328Y-75785000D01*
X186681838Y-75785000D01*
X186736745Y-75887722D01*
X186831643Y-76003355D01*
X186980064Y-76151776D01*
X182176134Y-80955707D01*
X182146186Y-80980285D01*
X182121608Y-81010233D01*
X182121604Y-81010237D01*
X182088639Y-81050405D01*
X182048088Y-81099816D01*
X182013589Y-81164360D01*
X181975195Y-81236190D01*
X181930308Y-81384163D01*
X181915152Y-81538049D01*
X181918950Y-81576611D01*
X181918950Y-81975918D01*
X181822337Y-82072531D01*
X181698125Y-82258427D01*
X181612566Y-82464984D01*
X181568949Y-82684263D01*
X181568949Y-82907839D01*
X181612566Y-83127118D01*
X181698125Y-83333675D01*
X181822337Y-83519571D01*
X181980429Y-83677663D01*
X182166325Y-83801875D01*
X182372882Y-83887434D01*
X182592161Y-83931051D01*
X182795894Y-83931051D01*
X182886928Y-84022086D01*
X182886928Y-84243750D01*
X182903392Y-84410908D01*
X182952150Y-84571642D01*
X183031329Y-84719775D01*
X183049100Y-84741430D01*
X182994463Y-84808006D01*
X182935498Y-84918320D01*
X182899188Y-85038018D01*
X182886928Y-85162500D01*
X182890000Y-85314250D01*
X183048750Y-85473000D01*
X183873000Y-85473000D01*
X183873000Y-85453000D01*
X184127000Y-85453000D01*
X184127000Y-85473000D01*
X184951250Y-85473000D01*
X185110000Y-85314250D01*
X185113072Y-85162500D01*
X185100812Y-85038018D01*
X185064502Y-84918320D01*
X185005537Y-84808006D01*
X184950900Y-84741430D01*
X184968671Y-84719775D01*
X185024252Y-84615792D01*
X185073815Y-84676185D01*
X185170506Y-84755537D01*
X185280820Y-84814502D01*
X185400518Y-84850812D01*
X185525000Y-84863072D01*
X185714250Y-84860000D01*
X185873000Y-84701250D01*
X185873000Y-83914500D01*
X186127000Y-83914500D01*
X186127000Y-84701250D01*
X186285750Y-84860000D01*
X186475000Y-84863072D01*
X186599482Y-84850812D01*
X186719180Y-84814502D01*
X186829494Y-84755537D01*
X186926185Y-84676185D01*
X187005537Y-84579494D01*
X187064502Y-84469180D01*
X187100812Y-84349482D01*
X187113072Y-84225000D01*
X187110000Y-84073250D01*
X186951250Y-83914500D01*
X186127000Y-83914500D01*
X185873000Y-83914500D01*
X185853000Y-83914500D01*
X185853000Y-83660500D01*
X185873000Y-83660500D01*
X185873000Y-83640500D01*
X186127000Y-83640500D01*
X186127000Y-83660500D01*
X186951250Y-83660500D01*
X187110000Y-83501750D01*
X187113072Y-83350000D01*
X187100812Y-83225518D01*
X187064502Y-83105820D01*
X187005537Y-82995506D01*
X186950900Y-82928930D01*
X186968671Y-82907275D01*
X187047850Y-82759142D01*
X187096608Y-82598408D01*
X187113072Y-82431250D01*
X187113072Y-81993750D01*
X187096608Y-81826592D01*
X187071646Y-81744303D01*
X187161928Y-81834585D01*
X187161928Y-82306250D01*
X187178872Y-82478285D01*
X187229053Y-82643709D01*
X187310542Y-82796164D01*
X187420208Y-82929792D01*
X187505756Y-83000000D01*
X187420208Y-83070208D01*
X187310542Y-83203836D01*
X187229053Y-83356291D01*
X187178872Y-83521715D01*
X187161928Y-83693750D01*
X187161928Y-84181250D01*
X187178872Y-84353285D01*
X187229053Y-84518709D01*
X187310542Y-84671164D01*
X187420208Y-84804792D01*
X187553836Y-84914458D01*
X187706291Y-84995947D01*
X187871715Y-85046128D01*
X188043750Y-85063072D01*
X188956250Y-85063072D01*
X189128285Y-85046128D01*
X189293709Y-84995947D01*
X189446164Y-84914458D01*
X189579792Y-84804792D01*
X189647328Y-84722500D01*
X189936441Y-84722500D01*
X189948141Y-84728754D01*
X190061673Y-84763194D01*
X190096113Y-84773641D01*
X190249999Y-84788797D01*
X190250000Y-84788797D01*
X190403886Y-84773641D01*
X190551859Y-84728754D01*
X190688232Y-84655861D01*
X190777812Y-84582345D01*
X190777813Y-84582344D01*
X190807764Y-84557764D01*
X190826446Y-84535000D01*
X190851939Y-84535000D01*
X191051898Y-84495226D01*
X191240256Y-84417205D01*
X191409774Y-84303937D01*
X191553937Y-84159774D01*
X191667205Y-83990256D01*
X191745226Y-83801898D01*
X191785000Y-83601939D01*
X191785000Y-83398061D01*
X191745226Y-83198102D01*
X191667205Y-83009744D01*
X191553937Y-82840226D01*
X191429668Y-82715957D01*
X191446715Y-82721128D01*
X191618750Y-82738072D01*
X192106250Y-82738072D01*
X192278285Y-82721128D01*
X192443709Y-82670947D01*
X192596164Y-82589458D01*
X192729792Y-82479792D01*
X192735008Y-82473436D01*
X192798815Y-82551185D01*
X192895506Y-82630537D01*
X193005820Y-82689502D01*
X193125518Y-82725812D01*
X193250000Y-82738072D01*
X193451750Y-82735000D01*
X193610500Y-82576250D01*
X193610500Y-81527000D01*
X193864500Y-81527000D01*
X193864500Y-82576250D01*
X194023250Y-82735000D01*
X194225000Y-82738072D01*
X194349482Y-82725812D01*
X194469180Y-82689502D01*
X194579494Y-82630537D01*
X194676185Y-82551185D01*
X194755537Y-82454494D01*
X194814502Y-82344180D01*
X194850812Y-82224482D01*
X194863072Y-82100000D01*
X194860000Y-81685750D01*
X194701250Y-81527000D01*
X193864500Y-81527000D01*
X193610500Y-81527000D01*
X193590500Y-81527000D01*
X193590500Y-81273000D01*
X193610500Y-81273000D01*
X193610500Y-81253000D01*
X193864500Y-81253000D01*
X193864500Y-81273000D01*
X194701250Y-81273000D01*
X194860000Y-81114250D01*
X194863072Y-80700000D01*
X194850812Y-80575518D01*
X194814502Y-80455820D01*
X194755537Y-80345506D01*
X194676185Y-80248815D01*
X194621261Y-80203740D01*
X194699014Y-80139930D01*
X194875791Y-79963153D01*
X194970689Y-79847520D01*
X195032824Y-79731275D01*
X195149066Y-79669142D01*
X195264699Y-79574244D01*
X195441476Y-79397467D01*
X195536374Y-79281834D01*
X195598507Y-79165592D01*
X195714752Y-79103457D01*
X195830385Y-79008559D01*
X196007162Y-78831782D01*
X196102060Y-78716149D01*
X196164194Y-78599906D01*
X196280437Y-78537772D01*
X196396070Y-78442874D01*
X196465001Y-78373943D01*
X196465001Y-79461437D01*
X196461203Y-79500000D01*
X196476359Y-79653886D01*
X196521246Y-79801859D01*
X196532808Y-79823490D01*
X196594139Y-79938233D01*
X196614591Y-79963153D01*
X196667655Y-80027812D01*
X196667659Y-80027816D01*
X196692237Y-80057764D01*
X196722186Y-80082343D01*
X197167649Y-80527805D01*
X197192236Y-80557764D01*
X197311767Y-80655862D01*
X197424309Y-80716016D01*
X197448140Y-80728754D01*
X197592436Y-80772526D01*
X197670208Y-80867292D01*
X197803836Y-80976958D01*
X197956291Y-81058447D01*
X198121715Y-81108628D01*
X198293750Y-81125572D01*
X199206250Y-81125572D01*
X199378285Y-81108628D01*
X199543709Y-81058447D01*
X199696164Y-80976958D01*
X199829792Y-80867292D01*
X199939458Y-80733664D01*
X199951778Y-80710615D01*
X200005820Y-80739502D01*
X200125518Y-80775812D01*
X200250000Y-80788072D01*
X200886494Y-80788072D01*
X201615001Y-81516580D01*
X201615001Y-83061928D01*
X200700000Y-83061928D01*
X200575518Y-83074188D01*
X200455820Y-83110498D01*
X200345506Y-83169463D01*
X200248815Y-83248815D01*
X200169463Y-83345506D01*
X200110498Y-83455820D01*
X200074188Y-83575518D01*
X200061928Y-83700000D01*
X200061928Y-86300000D01*
X200074188Y-86424482D01*
X200110498Y-86544180D01*
X200169463Y-86654494D01*
X200248815Y-86751185D01*
X200345506Y-86830537D01*
X200455820Y-86889502D01*
X200575518Y-86925812D01*
X200700000Y-86938072D01*
X201615000Y-86938072D01*
X201615001Y-91695920D01*
X190873994Y-102436928D01*
X190543750Y-102436928D01*
X190371715Y-102453872D01*
X190206291Y-102504053D01*
X190053836Y-102585542D01*
X189941785Y-102677500D01*
X189482059Y-102677500D01*
X189446164Y-102648042D01*
X189293709Y-102566553D01*
X189128285Y-102516372D01*
X188956250Y-102499428D01*
X188043750Y-102499428D01*
X187871715Y-102516372D01*
X187706291Y-102566553D01*
X187553836Y-102648042D01*
X187441785Y-102740000D01*
X186741579Y-102740000D01*
X184385000Y-100383422D01*
X184385000Y-97543469D01*
X184389281Y-97500000D01*
X184385000Y-97456531D01*
X184385000Y-97456523D01*
X184372195Y-97326510D01*
X184364448Y-97300973D01*
X184321589Y-97159686D01*
X184239411Y-97005941D01*
X184156532Y-96904953D01*
X184156530Y-96904951D01*
X184128817Y-96871183D01*
X184095050Y-96843471D01*
X183339651Y-96088072D01*
X184572673Y-96088072D01*
X184594139Y-96128233D01*
X184634690Y-96177644D01*
X184667655Y-96217812D01*
X184667659Y-96217816D01*
X184692237Y-96247764D01*
X184722185Y-96272342D01*
X185461928Y-97012085D01*
X185461928Y-97990000D01*
X185474188Y-98114482D01*
X185510498Y-98234180D01*
X185569463Y-98344494D01*
X185648815Y-98441185D01*
X185745506Y-98520537D01*
X185855820Y-98579502D01*
X185975518Y-98615812D01*
X186100000Y-98628072D01*
X188000000Y-98628072D01*
X188124482Y-98615812D01*
X188244180Y-98579502D01*
X188354494Y-98520537D01*
X188451185Y-98441185D01*
X188530537Y-98344494D01*
X188589502Y-98234180D01*
X188625812Y-98114482D01*
X188638072Y-97990000D01*
X188638072Y-96990000D01*
X188625812Y-96865518D01*
X188589502Y-96745820D01*
X188530537Y-96635506D01*
X188451185Y-96538815D01*
X188354494Y-96459463D01*
X188244180Y-96400498D01*
X188124482Y-96364188D01*
X188000000Y-96351928D01*
X187022086Y-96351928D01*
X186035000Y-95364843D01*
X186035000Y-93541670D01*
X186100000Y-93548072D01*
X188000000Y-93548072D01*
X188124482Y-93535812D01*
X188244180Y-93499502D01*
X188354494Y-93440537D01*
X188451185Y-93361185D01*
X188530537Y-93264494D01*
X188589502Y-93154180D01*
X188625812Y-93034482D01*
X188638072Y-92910000D01*
X188638072Y-91910000D01*
X188625812Y-91785518D01*
X188589502Y-91665820D01*
X188530537Y-91555506D01*
X188451185Y-91458815D01*
X188354494Y-91379463D01*
X188244180Y-91320498D01*
X188124482Y-91284188D01*
X188000000Y-91271928D01*
X187646043Y-91271928D01*
X187667205Y-91240256D01*
X187745226Y-91051898D01*
X187785000Y-90851939D01*
X187785000Y-90648061D01*
X187745226Y-90448102D01*
X187667205Y-90259744D01*
X187553937Y-90090226D01*
X187409774Y-89946063D01*
X187240256Y-89832795D01*
X187051898Y-89754774D01*
X186851939Y-89715000D01*
X186648061Y-89715000D01*
X186448102Y-89754774D01*
X186259744Y-89832795D01*
X186090226Y-89946063D01*
X185946063Y-90090226D01*
X185932180Y-90111004D01*
X185905862Y-90061767D01*
X185807764Y-89942236D01*
X185777811Y-89917654D01*
X184035000Y-88174843D01*
X184035000Y-88148061D01*
X183995226Y-87948102D01*
X183917205Y-87759744D01*
X183803937Y-87590226D01*
X183659774Y-87446063D01*
X183490256Y-87332795D01*
X183301898Y-87254774D01*
X183101939Y-87215000D01*
X182898061Y-87215000D01*
X182698102Y-87254774D01*
X182509744Y-87332795D01*
X182340226Y-87446063D01*
X182196063Y-87590226D01*
X182082795Y-87759744D01*
X182004774Y-87948102D01*
X181965000Y-88148061D01*
X181965000Y-88351939D01*
X182004774Y-88551898D01*
X182082795Y-88740256D01*
X182196063Y-88909774D01*
X182340226Y-89053937D01*
X182509744Y-89167205D01*
X182698102Y-89245226D01*
X182898061Y-89285000D01*
X182924843Y-89285000D01*
X184465000Y-90825157D01*
X184465000Y-91751289D01*
X184409774Y-91696063D01*
X184240256Y-91582795D01*
X184051898Y-91504774D01*
X183851939Y-91465000D01*
X183648061Y-91465000D01*
X183448102Y-91504774D01*
X183259744Y-91582795D01*
X183090226Y-91696063D01*
X182946063Y-91840226D01*
X182832795Y-92009744D01*
X182754774Y-92198102D01*
X182715000Y-92398061D01*
X182715000Y-92601939D01*
X182754774Y-92801898D01*
X182832795Y-92990256D01*
X182946063Y-93159774D01*
X182965001Y-93178712D01*
X182965000Y-93811928D01*
X182800000Y-93811928D01*
X182675518Y-93824188D01*
X182555820Y-93860498D01*
X182445506Y-93919463D01*
X182348815Y-93998815D01*
X182269463Y-94095506D01*
X182210498Y-94205820D01*
X182174188Y-94325518D01*
X182161928Y-94450000D01*
X182161928Y-94910350D01*
X181685000Y-94433422D01*
X181685000Y-93538072D01*
X181750000Y-93538072D01*
X181874482Y-93525812D01*
X181994180Y-93489502D01*
X182104494Y-93430537D01*
X182201185Y-93351185D01*
X182280537Y-93254494D01*
X182339502Y-93144180D01*
X182375812Y-93024482D01*
X182388072Y-92900000D01*
X182388072Y-91900000D01*
X182375812Y-91775518D01*
X182339502Y-91655820D01*
X182280537Y-91545506D01*
X182201185Y-91448815D01*
X182104494Y-91369463D01*
X181994180Y-91310498D01*
X181874482Y-91274188D01*
X181750000Y-91261928D01*
X180913507Y-91261928D01*
X179885000Y-90233422D01*
X179885000Y-86037500D01*
X182886928Y-86037500D01*
X182899188Y-86161982D01*
X182935498Y-86281680D01*
X182994463Y-86391994D01*
X183073815Y-86488685D01*
X183170506Y-86568037D01*
X183280820Y-86627002D01*
X183400518Y-86663312D01*
X183525000Y-86675572D01*
X183714250Y-86672500D01*
X183873000Y-86513750D01*
X183873000Y-85727000D01*
X184127000Y-85727000D01*
X184127000Y-86513750D01*
X184285750Y-86672500D01*
X184475000Y-86675572D01*
X184599482Y-86663312D01*
X184719180Y-86627002D01*
X184829494Y-86568037D01*
X184926185Y-86488685D01*
X185005537Y-86391994D01*
X185064502Y-86281680D01*
X185100812Y-86161982D01*
X185113072Y-86037500D01*
X185110000Y-85885750D01*
X184951250Y-85727000D01*
X184127000Y-85727000D01*
X183873000Y-85727000D01*
X183048750Y-85727000D01*
X182890000Y-85885750D01*
X182886928Y-86037500D01*
X179885000Y-86037500D01*
X179885000Y-75640156D01*
X179904951Y-75656530D01*
G37*
X179904951Y-75656530D02*
X179904953Y-75656532D01*
X179965487Y-75706211D01*
X180005941Y-75739411D01*
X180159687Y-75821589D01*
X180326510Y-75872195D01*
X180456523Y-75885000D01*
X180456533Y-75885000D01*
X180499999Y-75889281D01*
X180543465Y-75885000D01*
X184441785Y-75885000D01*
X184553836Y-75976958D01*
X184706291Y-76058447D01*
X184871715Y-76108628D01*
X185043750Y-76125572D01*
X185956250Y-76125572D01*
X186128285Y-76108628D01*
X186293709Y-76058447D01*
X186446164Y-75976958D01*
X186579792Y-75867292D01*
X186647328Y-75785000D01*
X186681838Y-75785000D01*
X186736745Y-75887722D01*
X186831643Y-76003355D01*
X186980064Y-76151776D01*
X182176134Y-80955707D01*
X182146186Y-80980285D01*
X182121608Y-81010233D01*
X182121604Y-81010237D01*
X182088639Y-81050405D01*
X182048088Y-81099816D01*
X182013589Y-81164360D01*
X181975195Y-81236190D01*
X181930308Y-81384163D01*
X181915152Y-81538049D01*
X181918950Y-81576611D01*
X181918950Y-81975918D01*
X181822337Y-82072531D01*
X181698125Y-82258427D01*
X181612566Y-82464984D01*
X181568949Y-82684263D01*
X181568949Y-82907839D01*
X181612566Y-83127118D01*
X181698125Y-83333675D01*
X181822337Y-83519571D01*
X181980429Y-83677663D01*
X182166325Y-83801875D01*
X182372882Y-83887434D01*
X182592161Y-83931051D01*
X182795894Y-83931051D01*
X182886928Y-84022086D01*
X182886928Y-84243750D01*
X182903392Y-84410908D01*
X182952150Y-84571642D01*
X183031329Y-84719775D01*
X183049100Y-84741430D01*
X182994463Y-84808006D01*
X182935498Y-84918320D01*
X182899188Y-85038018D01*
X182886928Y-85162500D01*
X182890000Y-85314250D01*
X183048750Y-85473000D01*
X183873000Y-85473000D01*
X183873000Y-85453000D01*
X184127000Y-85453000D01*
X184127000Y-85473000D01*
X184951250Y-85473000D01*
X185110000Y-85314250D01*
X185113072Y-85162500D01*
X185100812Y-85038018D01*
X185064502Y-84918320D01*
X185005537Y-84808006D01*
X184950900Y-84741430D01*
X184968671Y-84719775D01*
X185024252Y-84615792D01*
X185073815Y-84676185D01*
X185170506Y-84755537D01*
X185280820Y-84814502D01*
X185400518Y-84850812D01*
X185525000Y-84863072D01*
X185714250Y-84860000D01*
X185873000Y-84701250D01*
X185873000Y-83914500D01*
X186127000Y-83914500D01*
X186127000Y-84701250D01*
X186285750Y-84860000D01*
X186475000Y-84863072D01*
X186599482Y-84850812D01*
X186719180Y-84814502D01*
X186829494Y-84755537D01*
X186926185Y-84676185D01*
X187005537Y-84579494D01*
X187064502Y-84469180D01*
X187100812Y-84349482D01*
X187113072Y-84225000D01*
X187110000Y-84073250D01*
X186951250Y-83914500D01*
X186127000Y-83914500D01*
X185873000Y-83914500D01*
X185853000Y-83914500D01*
X185853000Y-83660500D01*
X185873000Y-83660500D01*
X185873000Y-83640500D01*
X186127000Y-83640500D01*
X186127000Y-83660500D01*
X186951250Y-83660500D01*
X187110000Y-83501750D01*
X187113072Y-83350000D01*
X187100812Y-83225518D01*
X187064502Y-83105820D01*
X187005537Y-82995506D01*
X186950900Y-82928930D01*
X186968671Y-82907275D01*
X187047850Y-82759142D01*
X187096608Y-82598408D01*
X187113072Y-82431250D01*
X187113072Y-81993750D01*
X187096608Y-81826592D01*
X187071646Y-81744303D01*
X187161928Y-81834585D01*
X187161928Y-82306250D01*
X187178872Y-82478285D01*
X187229053Y-82643709D01*
X187310542Y-82796164D01*
X187420208Y-82929792D01*
X187505756Y-83000000D01*
X187420208Y-83070208D01*
X187310542Y-83203836D01*
X187229053Y-83356291D01*
X187178872Y-83521715D01*
X187161928Y-83693750D01*
X187161928Y-84181250D01*
X187178872Y-84353285D01*
X187229053Y-84518709D01*
X187310542Y-84671164D01*
X187420208Y-84804792D01*
X187553836Y-84914458D01*
X187706291Y-84995947D01*
X187871715Y-85046128D01*
X188043750Y-85063072D01*
X188956250Y-85063072D01*
X189128285Y-85046128D01*
X189293709Y-84995947D01*
X189446164Y-84914458D01*
X189579792Y-84804792D01*
X189647328Y-84722500D01*
X189936441Y-84722500D01*
X189948141Y-84728754D01*
X190061673Y-84763194D01*
X190096113Y-84773641D01*
X190249999Y-84788797D01*
X190250000Y-84788797D01*
X190403886Y-84773641D01*
X190551859Y-84728754D01*
X190688232Y-84655861D01*
X190777812Y-84582345D01*
X190777813Y-84582344D01*
X190807764Y-84557764D01*
X190826446Y-84535000D01*
X190851939Y-84535000D01*
X191051898Y-84495226D01*
X191240256Y-84417205D01*
X191409774Y-84303937D01*
X191553937Y-84159774D01*
X191667205Y-83990256D01*
X191745226Y-83801898D01*
X191785000Y-83601939D01*
X191785000Y-83398061D01*
X191745226Y-83198102D01*
X191667205Y-83009744D01*
X191553937Y-82840226D01*
X191429668Y-82715957D01*
X191446715Y-82721128D01*
X191618750Y-82738072D01*
X192106250Y-82738072D01*
X192278285Y-82721128D01*
X192443709Y-82670947D01*
X192596164Y-82589458D01*
X192729792Y-82479792D01*
X192735008Y-82473436D01*
X192798815Y-82551185D01*
X192895506Y-82630537D01*
X193005820Y-82689502D01*
X193125518Y-82725812D01*
X193250000Y-82738072D01*
X193451750Y-82735000D01*
X193610500Y-82576250D01*
X193610500Y-81527000D01*
X193864500Y-81527000D01*
X193864500Y-82576250D01*
X194023250Y-82735000D01*
X194225000Y-82738072D01*
X194349482Y-82725812D01*
X194469180Y-82689502D01*
X194579494Y-82630537D01*
X194676185Y-82551185D01*
X194755537Y-82454494D01*
X194814502Y-82344180D01*
X194850812Y-82224482D01*
X194863072Y-82100000D01*
X194860000Y-81685750D01*
X194701250Y-81527000D01*
X193864500Y-81527000D01*
X193610500Y-81527000D01*
X193590500Y-81527000D01*
X193590500Y-81273000D01*
X193610500Y-81273000D01*
X193610500Y-81253000D01*
X193864500Y-81253000D01*
X193864500Y-81273000D01*
X194701250Y-81273000D01*
X194860000Y-81114250D01*
X194863072Y-80700000D01*
X194850812Y-80575518D01*
X194814502Y-80455820D01*
X194755537Y-80345506D01*
X194676185Y-80248815D01*
X194621261Y-80203740D01*
X194699014Y-80139930D01*
X194875791Y-79963153D01*
X194970689Y-79847520D01*
X195032824Y-79731275D01*
X195149066Y-79669142D01*
X195264699Y-79574244D01*
X195441476Y-79397467D01*
X195536374Y-79281834D01*
X195598507Y-79165592D01*
X195714752Y-79103457D01*
X195830385Y-79008559D01*
X196007162Y-78831782D01*
X196102060Y-78716149D01*
X196164194Y-78599906D01*
X196280437Y-78537772D01*
X196396070Y-78442874D01*
X196465001Y-78373943D01*
X196465001Y-79461437D01*
X196461203Y-79500000D01*
X196476359Y-79653886D01*
X196521246Y-79801859D01*
X196532808Y-79823490D01*
X196594139Y-79938233D01*
X196614591Y-79963153D01*
X196667655Y-80027812D01*
X196667659Y-80027816D01*
X196692237Y-80057764D01*
X196722186Y-80082343D01*
X197167649Y-80527805D01*
X197192236Y-80557764D01*
X197311767Y-80655862D01*
X197424309Y-80716016D01*
X197448140Y-80728754D01*
X197592436Y-80772526D01*
X197670208Y-80867292D01*
X197803836Y-80976958D01*
X197956291Y-81058447D01*
X198121715Y-81108628D01*
X198293750Y-81125572D01*
X199206250Y-81125572D01*
X199378285Y-81108628D01*
X199543709Y-81058447D01*
X199696164Y-80976958D01*
X199829792Y-80867292D01*
X199939458Y-80733664D01*
X199951778Y-80710615D01*
X200005820Y-80739502D01*
X200125518Y-80775812D01*
X200250000Y-80788072D01*
X200886494Y-80788072D01*
X201615001Y-81516580D01*
X201615001Y-83061928D01*
X200700000Y-83061928D01*
X200575518Y-83074188D01*
X200455820Y-83110498D01*
X200345506Y-83169463D01*
X200248815Y-83248815D01*
X200169463Y-83345506D01*
X200110498Y-83455820D01*
X200074188Y-83575518D01*
X200061928Y-83700000D01*
X200061928Y-86300000D01*
X200074188Y-86424482D01*
X200110498Y-86544180D01*
X200169463Y-86654494D01*
X200248815Y-86751185D01*
X200345506Y-86830537D01*
X200455820Y-86889502D01*
X200575518Y-86925812D01*
X200700000Y-86938072D01*
X201615000Y-86938072D01*
X201615001Y-91695920D01*
X190873994Y-102436928D01*
X190543750Y-102436928D01*
X190371715Y-102453872D01*
X190206291Y-102504053D01*
X190053836Y-102585542D01*
X189941785Y-102677500D01*
X189482059Y-102677500D01*
X189446164Y-102648042D01*
X189293709Y-102566553D01*
X189128285Y-102516372D01*
X188956250Y-102499428D01*
X188043750Y-102499428D01*
X187871715Y-102516372D01*
X187706291Y-102566553D01*
X187553836Y-102648042D01*
X187441785Y-102740000D01*
X186741579Y-102740000D01*
X184385000Y-100383422D01*
X184385000Y-97543469D01*
X184389281Y-97500000D01*
X184385000Y-97456531D01*
X184385000Y-97456523D01*
X184372195Y-97326510D01*
X184364448Y-97300973D01*
X184321589Y-97159686D01*
X184239411Y-97005941D01*
X184156532Y-96904953D01*
X184156530Y-96904951D01*
X184128817Y-96871183D01*
X184095050Y-96843471D01*
X183339651Y-96088072D01*
X184572673Y-96088072D01*
X184594139Y-96128233D01*
X184634690Y-96177644D01*
X184667655Y-96217812D01*
X184667659Y-96217816D01*
X184692237Y-96247764D01*
X184722185Y-96272342D01*
X185461928Y-97012085D01*
X185461928Y-97990000D01*
X185474188Y-98114482D01*
X185510498Y-98234180D01*
X185569463Y-98344494D01*
X185648815Y-98441185D01*
X185745506Y-98520537D01*
X185855820Y-98579502D01*
X185975518Y-98615812D01*
X186100000Y-98628072D01*
X188000000Y-98628072D01*
X188124482Y-98615812D01*
X188244180Y-98579502D01*
X188354494Y-98520537D01*
X188451185Y-98441185D01*
X188530537Y-98344494D01*
X188589502Y-98234180D01*
X188625812Y-98114482D01*
X188638072Y-97990000D01*
X188638072Y-96990000D01*
X188625812Y-96865518D01*
X188589502Y-96745820D01*
X188530537Y-96635506D01*
X188451185Y-96538815D01*
X188354494Y-96459463D01*
X188244180Y-96400498D01*
X188124482Y-96364188D01*
X188000000Y-96351928D01*
X187022086Y-96351928D01*
X186035000Y-95364843D01*
X186035000Y-93541670D01*
X186100000Y-93548072D01*
X188000000Y-93548072D01*
X188124482Y-93535812D01*
X188244180Y-93499502D01*
X188354494Y-93440537D01*
X188451185Y-93361185D01*
X188530537Y-93264494D01*
X188589502Y-93154180D01*
X188625812Y-93034482D01*
X188638072Y-92910000D01*
X188638072Y-91910000D01*
X188625812Y-91785518D01*
X188589502Y-91665820D01*
X188530537Y-91555506D01*
X188451185Y-91458815D01*
X188354494Y-91379463D01*
X188244180Y-91320498D01*
X188124482Y-91284188D01*
X188000000Y-91271928D01*
X187646043Y-91271928D01*
X187667205Y-91240256D01*
X187745226Y-91051898D01*
X187785000Y-90851939D01*
X187785000Y-90648061D01*
X187745226Y-90448102D01*
X187667205Y-90259744D01*
X187553937Y-90090226D01*
X187409774Y-89946063D01*
X187240256Y-89832795D01*
X187051898Y-89754774D01*
X186851939Y-89715000D01*
X186648061Y-89715000D01*
X186448102Y-89754774D01*
X186259744Y-89832795D01*
X186090226Y-89946063D01*
X185946063Y-90090226D01*
X185932180Y-90111004D01*
X185905862Y-90061767D01*
X185807764Y-89942236D01*
X185777811Y-89917654D01*
X184035000Y-88174843D01*
X184035000Y-88148061D01*
X183995226Y-87948102D01*
X183917205Y-87759744D01*
X183803937Y-87590226D01*
X183659774Y-87446063D01*
X183490256Y-87332795D01*
X183301898Y-87254774D01*
X183101939Y-87215000D01*
X182898061Y-87215000D01*
X182698102Y-87254774D01*
X182509744Y-87332795D01*
X182340226Y-87446063D01*
X182196063Y-87590226D01*
X182082795Y-87759744D01*
X182004774Y-87948102D01*
X181965000Y-88148061D01*
X181965000Y-88351939D01*
X182004774Y-88551898D01*
X182082795Y-88740256D01*
X182196063Y-88909774D01*
X182340226Y-89053937D01*
X182509744Y-89167205D01*
X182698102Y-89245226D01*
X182898061Y-89285000D01*
X182924843Y-89285000D01*
X184465000Y-90825157D01*
X184465000Y-91751289D01*
X184409774Y-91696063D01*
X184240256Y-91582795D01*
X184051898Y-91504774D01*
X183851939Y-91465000D01*
X183648061Y-91465000D01*
X183448102Y-91504774D01*
X183259744Y-91582795D01*
X183090226Y-91696063D01*
X182946063Y-91840226D01*
X182832795Y-92009744D01*
X182754774Y-92198102D01*
X182715000Y-92398061D01*
X182715000Y-92601939D01*
X182754774Y-92801898D01*
X182832795Y-92990256D01*
X182946063Y-93159774D01*
X182965001Y-93178712D01*
X182965000Y-93811928D01*
X182800000Y-93811928D01*
X182675518Y-93824188D01*
X182555820Y-93860498D01*
X182445506Y-93919463D01*
X182348815Y-93998815D01*
X182269463Y-94095506D01*
X182210498Y-94205820D01*
X182174188Y-94325518D01*
X182161928Y-94450000D01*
X182161928Y-94910350D01*
X181685000Y-94433422D01*
X181685000Y-93538072D01*
X181750000Y-93538072D01*
X181874482Y-93525812D01*
X181994180Y-93489502D01*
X182104494Y-93430537D01*
X182201185Y-93351185D01*
X182280537Y-93254494D01*
X182339502Y-93144180D01*
X182375812Y-93024482D01*
X182388072Y-92900000D01*
X182388072Y-91900000D01*
X182375812Y-91775518D01*
X182339502Y-91655820D01*
X182280537Y-91545506D01*
X182201185Y-91448815D01*
X182104494Y-91369463D01*
X181994180Y-91310498D01*
X181874482Y-91274188D01*
X181750000Y-91261928D01*
X180913507Y-91261928D01*
X179885000Y-90233422D01*
X179885000Y-86037500D01*
X182886928Y-86037500D01*
X182899188Y-86161982D01*
X182935498Y-86281680D01*
X182994463Y-86391994D01*
X183073815Y-86488685D01*
X183170506Y-86568037D01*
X183280820Y-86627002D01*
X183400518Y-86663312D01*
X183525000Y-86675572D01*
X183714250Y-86672500D01*
X183873000Y-86513750D01*
X183873000Y-85727000D01*
X184127000Y-85727000D01*
X184127000Y-86513750D01*
X184285750Y-86672500D01*
X184475000Y-86675572D01*
X184599482Y-86663312D01*
X184719180Y-86627002D01*
X184829494Y-86568037D01*
X184926185Y-86488685D01*
X185005537Y-86391994D01*
X185064502Y-86281680D01*
X185100812Y-86161982D01*
X185113072Y-86037500D01*
X185110000Y-85885750D01*
X184951250Y-85727000D01*
X184127000Y-85727000D01*
X183873000Y-85727000D01*
X183048750Y-85727000D01*
X182890000Y-85885750D01*
X182886928Y-86037500D01*
X179885000Y-86037500D01*
X179885000Y-75640156D01*
X179904951Y-75656530D01*
G36*
X178115000Y-69866579D02*
G01*
X178115001Y-73456514D01*
X178115000Y-73456524D01*
X178115000Y-73456531D01*
X178110719Y-73500000D01*
X178115000Y-73543469D01*
X178115001Y-84785227D01*
X178101011Y-84765476D01*
X178083904Y-84749276D01*
X178068948Y-84731052D01*
X178036801Y-84704670D01*
X178006613Y-84676082D01*
X177986668Y-84663527D01*
X177968449Y-84648575D01*
X177931775Y-84628973D01*
X177924157Y-84624177D01*
X177903187Y-84613692D01*
X177853792Y-84587290D01*
X177845124Y-84584661D01*
X177124161Y-84224179D01*
X177124157Y-84224176D01*
X175515270Y-83419733D01*
X173844608Y-82436992D01*
X172775730Y-81756797D01*
X170424983Y-79993738D01*
X168866940Y-78533074D01*
X167406270Y-76975026D01*
X166238998Y-75418665D01*
X165467677Y-74261685D01*
X164594811Y-72612939D01*
X164348526Y-72050000D01*
X169911928Y-72050000D01*
X169924188Y-72174482D01*
X169960498Y-72294180D01*
X170019463Y-72404494D01*
X170098815Y-72501185D01*
X170195506Y-72580537D01*
X170305820Y-72639502D01*
X170425518Y-72675812D01*
X170550000Y-72688072D01*
X171264250Y-72685000D01*
X171423000Y-72526250D01*
X171423000Y-71427000D01*
X171677000Y-71427000D01*
X171677000Y-72526250D01*
X171835750Y-72685000D01*
X172550000Y-72688072D01*
X172674482Y-72675812D01*
X172794180Y-72639502D01*
X172904494Y-72580537D01*
X173001185Y-72501185D01*
X173080537Y-72404494D01*
X173139502Y-72294180D01*
X173175812Y-72174482D01*
X173188072Y-72050000D01*
X173185000Y-71585750D01*
X173026250Y-71427000D01*
X171677000Y-71427000D01*
X171423000Y-71427000D01*
X170073750Y-71427000D01*
X169915000Y-71585750D01*
X169911928Y-72050000D01*
X164348526Y-72050000D01*
X164118225Y-71523600D01*
X164125518Y-71525812D01*
X164250000Y-71538072D01*
X166250000Y-71538072D01*
X166374482Y-71525812D01*
X166494180Y-71489502D01*
X166604494Y-71430537D01*
X166701185Y-71351185D01*
X166780537Y-71254494D01*
X166839502Y-71144180D01*
X166875812Y-71024482D01*
X166888072Y-70900000D01*
X166888072Y-69885000D01*
X169927379Y-69885000D01*
X169960498Y-69994180D01*
X170019463Y-70104494D01*
X170056809Y-70150000D01*
X170019463Y-70195506D01*
X169960498Y-70305820D01*
X169924188Y-70425518D01*
X169911928Y-70550000D01*
X169915000Y-71014250D01*
X170073750Y-71173000D01*
X171423000Y-71173000D01*
X171423000Y-71153000D01*
X171677000Y-71153000D01*
X171677000Y-71173000D01*
X173026250Y-71173000D01*
X173185000Y-71014250D01*
X173188072Y-70550000D01*
X173175812Y-70425518D01*
X173139502Y-70305820D01*
X173080537Y-70195506D01*
X173043191Y-70150000D01*
X173080537Y-70104494D01*
X173139502Y-69994180D01*
X173175812Y-69874482D01*
X173188072Y-69750000D01*
X173188072Y-69063506D01*
X173265000Y-68986578D01*
X173265000Y-69064502D01*
X173423748Y-69064502D01*
X173265000Y-69223250D01*
X173261928Y-69425000D01*
X173274188Y-69549482D01*
X173310498Y-69669180D01*
X173369463Y-69779494D01*
X173448815Y-69876185D01*
X173545506Y-69955537D01*
X173655820Y-70014502D01*
X173775518Y-70050812D01*
X173900000Y-70063072D01*
X174314250Y-70060000D01*
X174473000Y-69901250D01*
X174473000Y-69064500D01*
X174727000Y-69064500D01*
X174727000Y-69901250D01*
X174885750Y-70060000D01*
X175300000Y-70063072D01*
X175424482Y-70050812D01*
X175544180Y-70014502D01*
X175654494Y-69955537D01*
X175751185Y-69876185D01*
X175830537Y-69779494D01*
X175889502Y-69669180D01*
X175925812Y-69549482D01*
X175938072Y-69425000D01*
X175935000Y-69223250D01*
X175776250Y-69064500D01*
X174727000Y-69064500D01*
X174473000Y-69064500D01*
X174453000Y-69064500D01*
X174453000Y-68810500D01*
X174473000Y-68810500D01*
X174473000Y-68790500D01*
X174727000Y-68790500D01*
X174727000Y-68810500D01*
X175776250Y-68810500D01*
X175935000Y-68651750D01*
X175938072Y-68450000D01*
X175925812Y-68325518D01*
X175889502Y-68205820D01*
X175830537Y-68095506D01*
X175751185Y-67998815D01*
X175688657Y-67947500D01*
X176195922Y-67947500D01*
X178115000Y-69866579D01*
G37*
X178115000Y-69866579D02*
X178115001Y-73456514D01*
X178115000Y-73456524D01*
X178115000Y-73456531D01*
X178110719Y-73500000D01*
X178115000Y-73543469D01*
X178115001Y-84785227D01*
X178101011Y-84765476D01*
X178083904Y-84749276D01*
X178068948Y-84731052D01*
X178036801Y-84704670D01*
X178006613Y-84676082D01*
X177986668Y-84663527D01*
X177968449Y-84648575D01*
X177931775Y-84628973D01*
X177924157Y-84624177D01*
X177903187Y-84613692D01*
X177853792Y-84587290D01*
X177845124Y-84584661D01*
X177124161Y-84224179D01*
X177124157Y-84224176D01*
X175515270Y-83419733D01*
X173844608Y-82436992D01*
X172775730Y-81756797D01*
X170424983Y-79993738D01*
X168866940Y-78533074D01*
X167406270Y-76975026D01*
X166238998Y-75418665D01*
X165467677Y-74261685D01*
X164594811Y-72612939D01*
X164348526Y-72050000D01*
X169911928Y-72050000D01*
X169924188Y-72174482D01*
X169960498Y-72294180D01*
X170019463Y-72404494D01*
X170098815Y-72501185D01*
X170195506Y-72580537D01*
X170305820Y-72639502D01*
X170425518Y-72675812D01*
X170550000Y-72688072D01*
X171264250Y-72685000D01*
X171423000Y-72526250D01*
X171423000Y-71427000D01*
X171677000Y-71427000D01*
X171677000Y-72526250D01*
X171835750Y-72685000D01*
X172550000Y-72688072D01*
X172674482Y-72675812D01*
X172794180Y-72639502D01*
X172904494Y-72580537D01*
X173001185Y-72501185D01*
X173080537Y-72404494D01*
X173139502Y-72294180D01*
X173175812Y-72174482D01*
X173188072Y-72050000D01*
X173185000Y-71585750D01*
X173026250Y-71427000D01*
X171677000Y-71427000D01*
X171423000Y-71427000D01*
X170073750Y-71427000D01*
X169915000Y-71585750D01*
X169911928Y-72050000D01*
X164348526Y-72050000D01*
X164118225Y-71523600D01*
X164125518Y-71525812D01*
X164250000Y-71538072D01*
X166250000Y-71538072D01*
X166374482Y-71525812D01*
X166494180Y-71489502D01*
X166604494Y-71430537D01*
X166701185Y-71351185D01*
X166780537Y-71254494D01*
X166839502Y-71144180D01*
X166875812Y-71024482D01*
X166888072Y-70900000D01*
X166888072Y-69885000D01*
X169927379Y-69885000D01*
X169960498Y-69994180D01*
X170019463Y-70104494D01*
X170056809Y-70150000D01*
X170019463Y-70195506D01*
X169960498Y-70305820D01*
X169924188Y-70425518D01*
X169911928Y-70550000D01*
X169915000Y-71014250D01*
X170073750Y-71173000D01*
X171423000Y-71173000D01*
X171423000Y-71153000D01*
X171677000Y-71153000D01*
X171677000Y-71173000D01*
X173026250Y-71173000D01*
X173185000Y-71014250D01*
X173188072Y-70550000D01*
X173175812Y-70425518D01*
X173139502Y-70305820D01*
X173080537Y-70195506D01*
X173043191Y-70150000D01*
X173080537Y-70104494D01*
X173139502Y-69994180D01*
X173175812Y-69874482D01*
X173188072Y-69750000D01*
X173188072Y-69063506D01*
X173265000Y-68986578D01*
X173265000Y-69064502D01*
X173423748Y-69064502D01*
X173265000Y-69223250D01*
X173261928Y-69425000D01*
X173274188Y-69549482D01*
X173310498Y-69669180D01*
X173369463Y-69779494D01*
X173448815Y-69876185D01*
X173545506Y-69955537D01*
X173655820Y-70014502D01*
X173775518Y-70050812D01*
X173900000Y-70063072D01*
X174314250Y-70060000D01*
X174473000Y-69901250D01*
X174473000Y-69064500D01*
X174727000Y-69064500D01*
X174727000Y-69901250D01*
X174885750Y-70060000D01*
X175300000Y-70063072D01*
X175424482Y-70050812D01*
X175544180Y-70014502D01*
X175654494Y-69955537D01*
X175751185Y-69876185D01*
X175830537Y-69779494D01*
X175889502Y-69669180D01*
X175925812Y-69549482D01*
X175938072Y-69425000D01*
X175935000Y-69223250D01*
X175776250Y-69064500D01*
X174727000Y-69064500D01*
X174473000Y-69064500D01*
X174453000Y-69064500D01*
X174453000Y-68810500D01*
X174473000Y-68810500D01*
X174473000Y-68790500D01*
X174727000Y-68790500D01*
X174727000Y-68810500D01*
X175776250Y-68810500D01*
X175935000Y-68651750D01*
X175938072Y-68450000D01*
X175925812Y-68325518D01*
X175889502Y-68205820D01*
X175830537Y-68095506D01*
X175751185Y-67998815D01*
X175688657Y-67947500D01*
X176195922Y-67947500D01*
X178115000Y-69866579D01*
G36*
X203717872Y-68411548D02*
G01*
X204191302Y-69358406D01*
X204746246Y-70930748D01*
X204838923Y-72598922D01*
X204742752Y-74233840D01*
X204659613Y-74815810D01*
X203929162Y-76459326D01*
X202388072Y-78453679D01*
X202388072Y-77850000D01*
X202375812Y-77725518D01*
X202339502Y-77605820D01*
X202280537Y-77495506D01*
X202201185Y-77398815D01*
X202104494Y-77319463D01*
X201994180Y-77260498D01*
X201874482Y-77224188D01*
X201750000Y-77211928D01*
X200250000Y-77211928D01*
X200125518Y-77224188D01*
X200005820Y-77260498D01*
X199975407Y-77276755D01*
X199901185Y-77186315D01*
X199804494Y-77106963D01*
X199694180Y-77047998D01*
X199574482Y-77011688D01*
X199450000Y-76999428D01*
X199035750Y-77002500D01*
X198877000Y-77161250D01*
X198877000Y-77998000D01*
X198897000Y-77998000D01*
X198897000Y-78252000D01*
X198877000Y-78252000D01*
X198877000Y-78272000D01*
X198623000Y-78272000D01*
X198623000Y-78252000D01*
X198603000Y-78252000D01*
X198603000Y-77998000D01*
X198623000Y-77998000D01*
X198623000Y-77161250D01*
X198464250Y-77002500D01*
X198050000Y-76999428D01*
X198035000Y-77000905D01*
X198035000Y-76895837D01*
X198038797Y-76857284D01*
X198035000Y-76818731D01*
X198035000Y-76818724D01*
X198032703Y-76795405D01*
X198093126Y-76745817D01*
X198269903Y-76569040D01*
X198364801Y-76453407D01*
X198400401Y-76386804D01*
X198465805Y-76353085D01*
X198545802Y-76288799D01*
X198545802Y-76064293D01*
X198491482Y-76009973D01*
X198478740Y-75880599D01*
X198435317Y-75737452D01*
X198364801Y-75605527D01*
X198269903Y-75489894D01*
X197724017Y-74944008D01*
X197748715Y-74919310D01*
X197762858Y-74933452D01*
X198189420Y-74506890D01*
X198189420Y-74282384D01*
X198048104Y-74139190D01*
X198136609Y-74050685D01*
X198806247Y-74050685D01*
X198769463Y-74095506D01*
X198710498Y-74205820D01*
X198674188Y-74325518D01*
X198661928Y-74450000D01*
X198665000Y-74651750D01*
X198823748Y-74810498D01*
X198719181Y-74810498D01*
X198593531Y-74686495D01*
X198369025Y-74686495D01*
X197942463Y-75113057D01*
X198719750Y-75890345D01*
X198866069Y-75890345D01*
X198945506Y-75955537D01*
X199055820Y-76014502D01*
X199175518Y-76050812D01*
X199300000Y-76063072D01*
X199714250Y-76060000D01*
X199873000Y-75901250D01*
X199873000Y-75064500D01*
X200127000Y-75064500D01*
X200127000Y-75901250D01*
X200285750Y-76060000D01*
X200700000Y-76063072D01*
X200824482Y-76050812D01*
X200944180Y-76014502D01*
X201054494Y-75955537D01*
X201151185Y-75876185D01*
X201230537Y-75779494D01*
X201289502Y-75669180D01*
X201325812Y-75549482D01*
X201338072Y-75425000D01*
X201335000Y-75223250D01*
X201176250Y-75064500D01*
X200127000Y-75064500D01*
X199873000Y-75064500D01*
X199853000Y-75064500D01*
X199853000Y-74810500D01*
X199873000Y-74810500D01*
X199873000Y-74790500D01*
X200127000Y-74790500D01*
X200127000Y-74810500D01*
X201176250Y-74810500D01*
X201335000Y-74651750D01*
X201338072Y-74450000D01*
X201325812Y-74325518D01*
X201289502Y-74205820D01*
X201230537Y-74095506D01*
X201151185Y-73998815D01*
X201073436Y-73935008D01*
X201079792Y-73929792D01*
X201189458Y-73796164D01*
X201270947Y-73643709D01*
X201321128Y-73478285D01*
X201338072Y-73306250D01*
X201338072Y-72818750D01*
X201321128Y-72646715D01*
X201270947Y-72481291D01*
X201189458Y-72328836D01*
X201079792Y-72195208D01*
X200946164Y-72085542D01*
X200793709Y-72004053D01*
X200628285Y-71953872D01*
X200456250Y-71936928D01*
X199543750Y-71936928D01*
X199371715Y-71953872D01*
X199206291Y-72004053D01*
X199053836Y-72085542D01*
X198920208Y-72195208D01*
X198850059Y-72280685D01*
X198842258Y-72280685D01*
X198835589Y-72272559D01*
X198658812Y-72095782D01*
X198543179Y-72000884D01*
X198426934Y-71938749D01*
X198364801Y-71822507D01*
X198321526Y-71769776D01*
X198398061Y-71785000D01*
X198601939Y-71785000D01*
X198801898Y-71745226D01*
X198990256Y-71667205D01*
X199159774Y-71553937D01*
X199303937Y-71409774D01*
X199417205Y-71240256D01*
X199495226Y-71051898D01*
X199535000Y-70851939D01*
X199535000Y-70648061D01*
X199495226Y-70448102D01*
X199417205Y-70259744D01*
X199327554Y-70125572D01*
X199956250Y-70125572D01*
X200128285Y-70108628D01*
X200293709Y-70058447D01*
X200446164Y-69976958D01*
X200579792Y-69867292D01*
X200689458Y-69733664D01*
X200703264Y-69707834D01*
X200710498Y-69731680D01*
X200769463Y-69841994D01*
X200848815Y-69938685D01*
X200945506Y-70018037D01*
X201055820Y-70077002D01*
X201175518Y-70113312D01*
X201300000Y-70125572D01*
X201714250Y-70122500D01*
X201873000Y-69963750D01*
X201873000Y-69127000D01*
X202127000Y-69127000D01*
X202127000Y-69963750D01*
X202285750Y-70122500D01*
X202700000Y-70125572D01*
X202824482Y-70113312D01*
X202944180Y-70077002D01*
X203054494Y-70018037D01*
X203151185Y-69938685D01*
X203230537Y-69841994D01*
X203289502Y-69731680D01*
X203325812Y-69611982D01*
X203338072Y-69487500D01*
X203335000Y-69285750D01*
X203176250Y-69127000D01*
X202127000Y-69127000D01*
X201873000Y-69127000D01*
X201853000Y-69127000D01*
X201853000Y-68873000D01*
X201873000Y-68873000D01*
X201873000Y-68853000D01*
X202127000Y-68853000D01*
X202127000Y-68873000D01*
X203176250Y-68873000D01*
X203335000Y-68714250D01*
X203338072Y-68512500D01*
X203325812Y-68388018D01*
X203289502Y-68268320D01*
X203230537Y-68158006D01*
X203151185Y-68061315D01*
X203073436Y-67997508D01*
X203079792Y-67992292D01*
X203189458Y-67858664D01*
X203270947Y-67706209D01*
X203286161Y-67656054D01*
X203717872Y-68411548D01*
G37*
X203717872Y-68411548D02*
X204191302Y-69358406D01*
X204746246Y-70930748D01*
X204838923Y-72598922D01*
X204742752Y-74233840D01*
X204659613Y-74815810D01*
X203929162Y-76459326D01*
X202388072Y-78453679D01*
X202388072Y-77850000D01*
X202375812Y-77725518D01*
X202339502Y-77605820D01*
X202280537Y-77495506D01*
X202201185Y-77398815D01*
X202104494Y-77319463D01*
X201994180Y-77260498D01*
X201874482Y-77224188D01*
X201750000Y-77211928D01*
X200250000Y-77211928D01*
X200125518Y-77224188D01*
X200005820Y-77260498D01*
X199975407Y-77276755D01*
X199901185Y-77186315D01*
X199804494Y-77106963D01*
X199694180Y-77047998D01*
X199574482Y-77011688D01*
X199450000Y-76999428D01*
X199035750Y-77002500D01*
X198877000Y-77161250D01*
X198877000Y-77998000D01*
X198897000Y-77998000D01*
X198897000Y-78252000D01*
X198877000Y-78252000D01*
X198877000Y-78272000D01*
X198623000Y-78272000D01*
X198623000Y-78252000D01*
X198603000Y-78252000D01*
X198603000Y-77998000D01*
X198623000Y-77998000D01*
X198623000Y-77161250D01*
X198464250Y-77002500D01*
X198050000Y-76999428D01*
X198035000Y-77000905D01*
X198035000Y-76895837D01*
X198038797Y-76857284D01*
X198035000Y-76818731D01*
X198035000Y-76818724D01*
X198032703Y-76795405D01*
X198093126Y-76745817D01*
X198269903Y-76569040D01*
X198364801Y-76453407D01*
X198400401Y-76386804D01*
X198465805Y-76353085D01*
X198545802Y-76288799D01*
X198545802Y-76064293D01*
X198491482Y-76009973D01*
X198478740Y-75880599D01*
X198435317Y-75737452D01*
X198364801Y-75605527D01*
X198269903Y-75489894D01*
X197724017Y-74944008D01*
X197748715Y-74919310D01*
X197762858Y-74933452D01*
X198189420Y-74506890D01*
X198189420Y-74282384D01*
X198048104Y-74139190D01*
X198136609Y-74050685D01*
X198806247Y-74050685D01*
X198769463Y-74095506D01*
X198710498Y-74205820D01*
X198674188Y-74325518D01*
X198661928Y-74450000D01*
X198665000Y-74651750D01*
X198823748Y-74810498D01*
X198719181Y-74810498D01*
X198593531Y-74686495D01*
X198369025Y-74686495D01*
X197942463Y-75113057D01*
X198719750Y-75890345D01*
X198866069Y-75890345D01*
X198945506Y-75955537D01*
X199055820Y-76014502D01*
X199175518Y-76050812D01*
X199300000Y-76063072D01*
X199714250Y-76060000D01*
X199873000Y-75901250D01*
X199873000Y-75064500D01*
X200127000Y-75064500D01*
X200127000Y-75901250D01*
X200285750Y-76060000D01*
X200700000Y-76063072D01*
X200824482Y-76050812D01*
X200944180Y-76014502D01*
X201054494Y-75955537D01*
X201151185Y-75876185D01*
X201230537Y-75779494D01*
X201289502Y-75669180D01*
X201325812Y-75549482D01*
X201338072Y-75425000D01*
X201335000Y-75223250D01*
X201176250Y-75064500D01*
X200127000Y-75064500D01*
X199873000Y-75064500D01*
X199853000Y-75064500D01*
X199853000Y-74810500D01*
X199873000Y-74810500D01*
X199873000Y-74790500D01*
X200127000Y-74790500D01*
X200127000Y-74810500D01*
X201176250Y-74810500D01*
X201335000Y-74651750D01*
X201338072Y-74450000D01*
X201325812Y-74325518D01*
X201289502Y-74205820D01*
X201230537Y-74095506D01*
X201151185Y-73998815D01*
X201073436Y-73935008D01*
X201079792Y-73929792D01*
X201189458Y-73796164D01*
X201270947Y-73643709D01*
X201321128Y-73478285D01*
X201338072Y-73306250D01*
X201338072Y-72818750D01*
X201321128Y-72646715D01*
X201270947Y-72481291D01*
X201189458Y-72328836D01*
X201079792Y-72195208D01*
X200946164Y-72085542D01*
X200793709Y-72004053D01*
X200628285Y-71953872D01*
X200456250Y-71936928D01*
X199543750Y-71936928D01*
X199371715Y-71953872D01*
X199206291Y-72004053D01*
X199053836Y-72085542D01*
X198920208Y-72195208D01*
X198850059Y-72280685D01*
X198842258Y-72280685D01*
X198835589Y-72272559D01*
X198658812Y-72095782D01*
X198543179Y-72000884D01*
X198426934Y-71938749D01*
X198364801Y-71822507D01*
X198321526Y-71769776D01*
X198398061Y-71785000D01*
X198601939Y-71785000D01*
X198801898Y-71745226D01*
X198990256Y-71667205D01*
X199159774Y-71553937D01*
X199303937Y-71409774D01*
X199417205Y-71240256D01*
X199495226Y-71051898D01*
X199535000Y-70851939D01*
X199535000Y-70648061D01*
X199495226Y-70448102D01*
X199417205Y-70259744D01*
X199327554Y-70125572D01*
X199956250Y-70125572D01*
X200128285Y-70108628D01*
X200293709Y-70058447D01*
X200446164Y-69976958D01*
X200579792Y-69867292D01*
X200689458Y-69733664D01*
X200703264Y-69707834D01*
X200710498Y-69731680D01*
X200769463Y-69841994D01*
X200848815Y-69938685D01*
X200945506Y-70018037D01*
X201055820Y-70077002D01*
X201175518Y-70113312D01*
X201300000Y-70125572D01*
X201714250Y-70122500D01*
X201873000Y-69963750D01*
X201873000Y-69127000D01*
X202127000Y-69127000D01*
X202127000Y-69963750D01*
X202285750Y-70122500D01*
X202700000Y-70125572D01*
X202824482Y-70113312D01*
X202944180Y-70077002D01*
X203054494Y-70018037D01*
X203151185Y-69938685D01*
X203230537Y-69841994D01*
X203289502Y-69731680D01*
X203325812Y-69611982D01*
X203338072Y-69487500D01*
X203335000Y-69285750D01*
X203176250Y-69127000D01*
X202127000Y-69127000D01*
X201873000Y-69127000D01*
X201853000Y-69127000D01*
X201853000Y-68873000D01*
X201873000Y-68873000D01*
X201873000Y-68853000D01*
X202127000Y-68853000D01*
X202127000Y-68873000D01*
X203176250Y-68873000D01*
X203335000Y-68714250D01*
X203338072Y-68512500D01*
X203325812Y-68388018D01*
X203289502Y-68268320D01*
X203230537Y-68158006D01*
X203151185Y-68061315D01*
X203073436Y-67997508D01*
X203079792Y-67992292D01*
X203189458Y-67858664D01*
X203270947Y-67706209D01*
X203286161Y-67656054D01*
X203717872Y-68411548D01*
G36*
X192875409Y-56180136D02*
G01*
X193291626Y-56274955D01*
X193681499Y-56448811D01*
X194030179Y-56695083D01*
X194324382Y-57004389D01*
X194552907Y-57364954D01*
X194707043Y-57763032D01*
X194780924Y-58183472D01*
X194771734Y-58610253D01*
X194679823Y-59027126D01*
X194508694Y-59418198D01*
X194264861Y-59768590D01*
X193935039Y-60086722D01*
X193889429Y-60122820D01*
X193805187Y-60221842D01*
X193741880Y-60335395D01*
X193701943Y-60459118D01*
X193686911Y-60588255D01*
X193697361Y-60717841D01*
X193732890Y-60842900D01*
X193777291Y-60929629D01*
X194215779Y-61611720D01*
X194220266Y-61622074D01*
X194250869Y-61666304D01*
X194262354Y-61684170D01*
X194269319Y-61692970D01*
X194294239Y-61728987D01*
X194309576Y-61743834D01*
X194322821Y-61760569D01*
X194356176Y-61788946D01*
X194387648Y-61819413D01*
X194405588Y-61830984D01*
X194421842Y-61844812D01*
X194460089Y-61866135D01*
X194496903Y-61889879D01*
X194516754Y-61897727D01*
X194535395Y-61908119D01*
X194577080Y-61921575D01*
X194587513Y-61925699D01*
X194607919Y-61931529D01*
X194659118Y-61948056D01*
X194670331Y-61949361D01*
X196664476Y-62519117D01*
X199277186Y-63777089D01*
X200592492Y-64622644D01*
X202061061Y-65999428D01*
X201543750Y-65999428D01*
X201371715Y-66016372D01*
X201206291Y-66066553D01*
X201053836Y-66148042D01*
X200920208Y-66257708D01*
X200852672Y-66340000D01*
X200647328Y-66340000D01*
X200579792Y-66257708D01*
X200446164Y-66148042D01*
X200293709Y-66066553D01*
X200128285Y-66016372D01*
X199956250Y-65999428D01*
X199043750Y-65999428D01*
X198871715Y-66016372D01*
X198706291Y-66066553D01*
X198553836Y-66148042D01*
X198420208Y-66257708D01*
X198310542Y-66391336D01*
X198229053Y-66543791D01*
X198211573Y-66601416D01*
X198082347Y-66472190D01*
X198057764Y-66442236D01*
X197938233Y-66344138D01*
X197801860Y-66271246D01*
X197653887Y-66226359D01*
X197538561Y-66215000D01*
X197538553Y-66215000D01*
X197500000Y-66211203D01*
X197461447Y-66215000D01*
X196498711Y-66215000D01*
X196553937Y-66159774D01*
X196667205Y-65990256D01*
X196745226Y-65801898D01*
X196785000Y-65601939D01*
X196785000Y-65398061D01*
X196745226Y-65198102D01*
X196667205Y-65009744D01*
X196553937Y-64840226D01*
X196409774Y-64696063D01*
X196240256Y-64582795D01*
X196051898Y-64504774D01*
X195851939Y-64465000D01*
X195826446Y-64465000D01*
X195807764Y-64442236D01*
X195688233Y-64344138D01*
X195632209Y-64314193D01*
X195614502Y-64255820D01*
X195557939Y-64150000D01*
X195614502Y-64044180D01*
X195650812Y-63924482D01*
X195663072Y-63800000D01*
X195660000Y-63585750D01*
X195501250Y-63427000D01*
X194377000Y-63427000D01*
X194377000Y-63447000D01*
X194123000Y-63447000D01*
X194123000Y-63427000D01*
X192998750Y-63427000D01*
X192840000Y-63585750D01*
X192836928Y-63800000D01*
X192849188Y-63924482D01*
X192885498Y-64044180D01*
X192942061Y-64150000D01*
X192907317Y-64215000D01*
X190342683Y-64215000D01*
X190307939Y-64150000D01*
X190364502Y-64044180D01*
X190400812Y-63924482D01*
X190413072Y-63800000D01*
X190410000Y-63585750D01*
X190251250Y-63427000D01*
X189127000Y-63427000D01*
X189127000Y-63447000D01*
X188873000Y-63447000D01*
X188873000Y-63427000D01*
X187748750Y-63427000D01*
X187590000Y-63585750D01*
X187586928Y-63800000D01*
X187599188Y-63924482D01*
X187635498Y-64044180D01*
X187692061Y-64150000D01*
X187635498Y-64255820D01*
X187599188Y-64375518D01*
X187586928Y-64500000D01*
X187586928Y-65500000D01*
X187599188Y-65624482D01*
X187635498Y-65744180D01*
X187694463Y-65854494D01*
X187773815Y-65951185D01*
X187870506Y-66030537D01*
X187980820Y-66089502D01*
X188100518Y-66125812D01*
X188225000Y-66138072D01*
X189775000Y-66138072D01*
X189899482Y-66125812D01*
X190019180Y-66089502D01*
X190129494Y-66030537D01*
X190226185Y-65951185D01*
X190305537Y-65854494D01*
X190342683Y-65785000D01*
X192907317Y-65785000D01*
X192944463Y-65854494D01*
X193023815Y-65951185D01*
X193120506Y-66030537D01*
X193230820Y-66089502D01*
X193350518Y-66125812D01*
X193475000Y-66138072D01*
X194931562Y-66138072D01*
X194946063Y-66159774D01*
X195001289Y-66215000D01*
X191288552Y-66215000D01*
X191249999Y-66211203D01*
X191211446Y-66215000D01*
X191211439Y-66215000D01*
X191110490Y-66224943D01*
X191096112Y-66226359D01*
X191061672Y-66236806D01*
X190948140Y-66271246D01*
X190811767Y-66344138D01*
X190764480Y-66382946D01*
X190722187Y-66417655D01*
X190722184Y-66417658D01*
X190692236Y-66442236D01*
X190667658Y-66472184D01*
X189222185Y-67917658D01*
X189192237Y-67942236D01*
X189167659Y-67972184D01*
X189167655Y-67972188D01*
X189159633Y-67981963D01*
X189094139Y-68061767D01*
X189073755Y-68099903D01*
X189021246Y-68198141D01*
X188976359Y-68346114D01*
X188972232Y-68388018D01*
X188965000Y-68461439D01*
X188965000Y-68461447D01*
X188962006Y-68491847D01*
X188442347Y-67972188D01*
X188417766Y-67942236D01*
X188298235Y-67844138D01*
X188161862Y-67771246D01*
X188013889Y-67726359D01*
X187898563Y-67715000D01*
X187898555Y-67715000D01*
X187860002Y-67711203D01*
X187821449Y-67715000D01*
X187428711Y-67715000D01*
X187409774Y-67696063D01*
X187240256Y-67582795D01*
X187051898Y-67504774D01*
X186851939Y-67465000D01*
X186648061Y-67465000D01*
X186448102Y-67504774D01*
X186259744Y-67582795D01*
X186090226Y-67696063D01*
X185946063Y-67840226D01*
X185832795Y-68009744D01*
X185754774Y-68198102D01*
X185715000Y-68398061D01*
X185715000Y-68601939D01*
X185754774Y-68801898D01*
X185832795Y-68990256D01*
X185946063Y-69159774D01*
X186090226Y-69303937D01*
X186259744Y-69417205D01*
X186365388Y-69460965D01*
X186332795Y-69509744D01*
X186254774Y-69698102D01*
X186215000Y-69898061D01*
X186215000Y-70101939D01*
X186254774Y-70301898D01*
X186332795Y-70490256D01*
X186446063Y-70659774D01*
X186590226Y-70803937D01*
X186759744Y-70917205D01*
X186838112Y-70949666D01*
X187496324Y-71607879D01*
X187397329Y-71706874D01*
X187302431Y-71822507D01*
X187266831Y-71889110D01*
X187201427Y-71922829D01*
X187121430Y-71987115D01*
X187121430Y-72211621D01*
X187175750Y-72265941D01*
X187188492Y-72395315D01*
X187231915Y-72538462D01*
X187302431Y-72670387D01*
X187397329Y-72786020D01*
X187943215Y-73331906D01*
X187918517Y-73356604D01*
X187904374Y-73342462D01*
X187477812Y-73769024D01*
X187477812Y-73993530D01*
X187619128Y-74136724D01*
X187540852Y-74215000D01*
X186647328Y-74215000D01*
X186579792Y-74132708D01*
X186573436Y-74127492D01*
X186651185Y-74063685D01*
X186730537Y-73966994D01*
X186789502Y-73856680D01*
X186825812Y-73736982D01*
X186838072Y-73612500D01*
X186835000Y-73410750D01*
X186676252Y-73252002D01*
X186734810Y-73252002D01*
X186750013Y-73269975D01*
X187073701Y-73589419D01*
X187298207Y-73589419D01*
X187724769Y-73162857D01*
X186947482Y-72385569D01*
X186785359Y-72385569D01*
X186730537Y-72283006D01*
X186651185Y-72186315D01*
X186554494Y-72106963D01*
X186444180Y-72047998D01*
X186324482Y-72011688D01*
X186200000Y-71999428D01*
X185785750Y-72002500D01*
X185627000Y-72161250D01*
X185627000Y-72998000D01*
X185647000Y-72998000D01*
X185647000Y-73252000D01*
X185627000Y-73252000D01*
X185627000Y-73272000D01*
X185373000Y-73272000D01*
X185373000Y-73252000D01*
X184323750Y-73252000D01*
X184165000Y-73410750D01*
X184161928Y-73612500D01*
X184174188Y-73736982D01*
X184210498Y-73856680D01*
X184269463Y-73966994D01*
X184348815Y-74063685D01*
X184411343Y-74115000D01*
X180866579Y-74115000D01*
X179885000Y-73133422D01*
X179885000Y-72637500D01*
X184161928Y-72637500D01*
X184165000Y-72839250D01*
X184323750Y-72998000D01*
X185373000Y-72998000D01*
X185373000Y-72161250D01*
X185214250Y-72002500D01*
X184800000Y-71999428D01*
X184675518Y-72011688D01*
X184555820Y-72047998D01*
X184445506Y-72106963D01*
X184348815Y-72186315D01*
X184269463Y-72283006D01*
X184210498Y-72393320D01*
X184174188Y-72513018D01*
X184161928Y-72637500D01*
X179885000Y-72637500D01*
X179885000Y-69543469D01*
X179889281Y-69500000D01*
X179885000Y-69456531D01*
X179885000Y-69456523D01*
X179872195Y-69326510D01*
X179867324Y-69310452D01*
X180089294Y-69754392D01*
X180095505Y-69772783D01*
X180118296Y-69812397D01*
X180124176Y-69824157D01*
X180134472Y-69840513D01*
X180160338Y-69885472D01*
X180169035Y-69895419D01*
X180176081Y-69906613D01*
X180211770Y-69944300D01*
X180245910Y-69983349D01*
X180256385Y-69991412D01*
X180265475Y-70001011D01*
X180307822Y-70031006D01*
X180348932Y-70062650D01*
X180360776Y-70068513D01*
X180371566Y-70076156D01*
X180418948Y-70097311D01*
X180465445Y-70120329D01*
X180478211Y-70123771D01*
X180490280Y-70129159D01*
X180540869Y-70140662D01*
X180590972Y-70154169D01*
X180604162Y-70155054D01*
X180617053Y-70157985D01*
X180668918Y-70159397D01*
X180720689Y-70162870D01*
X180733799Y-70161164D01*
X180747012Y-70161524D01*
X180798170Y-70152789D01*
X180849610Y-70146096D01*
X180862127Y-70141868D01*
X180875166Y-70139642D01*
X180923641Y-70121092D01*
X180972783Y-70104495D01*
X180984240Y-70097904D01*
X180996589Y-70093178D01*
X181040509Y-70065531D01*
X181085472Y-70039662D01*
X181095423Y-70030962D01*
X181106613Y-70023918D01*
X181144286Y-69988242D01*
X181183349Y-69954090D01*
X181191415Y-69943612D01*
X181201011Y-69934524D01*
X181230997Y-69892189D01*
X181262650Y-69851068D01*
X181268515Y-69839221D01*
X181276156Y-69828433D01*
X181297308Y-69781058D01*
X181320329Y-69734555D01*
X181323771Y-69721788D01*
X181329159Y-69709720D01*
X181340661Y-69659135D01*
X181345690Y-69640481D01*
X181347851Y-69627515D01*
X181357985Y-69582947D01*
X181358513Y-69563540D01*
X181442506Y-69059584D01*
X181815177Y-67941571D01*
X182278759Y-66921693D01*
X182835779Y-66086163D01*
X183495749Y-65237631D01*
X183856544Y-64876836D01*
X184985341Y-63842106D01*
X186197198Y-63189570D01*
X187666276Y-62498239D01*
X187635498Y-62555820D01*
X187599188Y-62675518D01*
X187586928Y-62800000D01*
X187590000Y-63014250D01*
X187748750Y-63173000D01*
X188873000Y-63173000D01*
X188873000Y-62323750D01*
X189127000Y-62323750D01*
X189127000Y-63173000D01*
X190251250Y-63173000D01*
X190410000Y-63014250D01*
X190413072Y-62800000D01*
X192836928Y-62800000D01*
X192840000Y-63014250D01*
X192998750Y-63173000D01*
X194123000Y-63173000D01*
X194123000Y-62323750D01*
X194377000Y-62323750D01*
X194377000Y-63173000D01*
X195501250Y-63173000D01*
X195660000Y-63014250D01*
X195663072Y-62800000D01*
X195650812Y-62675518D01*
X195614502Y-62555820D01*
X195555537Y-62445506D01*
X195476185Y-62348815D01*
X195379494Y-62269463D01*
X195269180Y-62210498D01*
X195149482Y-62174188D01*
X195025000Y-62161928D01*
X194535750Y-62165000D01*
X194377000Y-62323750D01*
X194123000Y-62323750D01*
X193964250Y-62165000D01*
X193475000Y-62161928D01*
X193350518Y-62174188D01*
X193230820Y-62210498D01*
X193120506Y-62269463D01*
X193023815Y-62348815D01*
X192944463Y-62445506D01*
X192885498Y-62555820D01*
X192849188Y-62675518D01*
X192836928Y-62800000D01*
X190413072Y-62800000D01*
X190400812Y-62675518D01*
X190364502Y-62555820D01*
X190305537Y-62445506D01*
X190226185Y-62348815D01*
X190129494Y-62269463D01*
X190019180Y-62210498D01*
X189899482Y-62174188D01*
X189775000Y-62161928D01*
X189285750Y-62165000D01*
X189127000Y-62323750D01*
X188873000Y-62323750D01*
X188743650Y-62194400D01*
X188944598Y-62144162D01*
X188992678Y-62134586D01*
X189037540Y-62115990D01*
X189083277Y-62099649D01*
X189125341Y-62074463D01*
X191046131Y-61047141D01*
X191127130Y-60992990D01*
X191219035Y-60901036D01*
X191291236Y-60792920D01*
X191340957Y-60672794D01*
X191366288Y-60545277D01*
X191366254Y-60415269D01*
X191340858Y-60287765D01*
X191291075Y-60167665D01*
X191218818Y-60059585D01*
X191182021Y-60022807D01*
X190856997Y-59671400D01*
X190633533Y-59307688D01*
X190484968Y-58907492D01*
X190416963Y-58486057D01*
X190427641Y-58185331D01*
X190928090Y-58185331D01*
X190928090Y-58514669D01*
X190992340Y-58837678D01*
X191118372Y-59141947D01*
X191301342Y-59415781D01*
X191534219Y-59648658D01*
X191808053Y-59831628D01*
X192112322Y-59957660D01*
X192435331Y-60021910D01*
X192764669Y-60021910D01*
X193087678Y-59957660D01*
X193391947Y-59831628D01*
X193665781Y-59648658D01*
X193898658Y-59415781D01*
X194081628Y-59141947D01*
X194207660Y-58837678D01*
X194271910Y-58514669D01*
X194271910Y-58185331D01*
X194207660Y-57862322D01*
X194081628Y-57558053D01*
X193898658Y-57284219D01*
X193665781Y-57051342D01*
X193391947Y-56868372D01*
X193087678Y-56742340D01*
X192764669Y-56678090D01*
X192435331Y-56678090D01*
X192112322Y-56742340D01*
X191808053Y-56868372D01*
X191534219Y-57051342D01*
X191301342Y-57284219D01*
X191118372Y-57558053D01*
X190992340Y-57862322D01*
X190928090Y-58185331D01*
X190427641Y-58185331D01*
X190432111Y-58059453D01*
X190529834Y-57643902D01*
X190706406Y-57255257D01*
X190955109Y-56908302D01*
X191266459Y-56616268D01*
X191628610Y-56390265D01*
X192027754Y-56238912D01*
X192448702Y-56167967D01*
X192875409Y-56180136D01*
G37*
X192875409Y-56180136D02*
X193291626Y-56274955D01*
X193681499Y-56448811D01*
X194030179Y-56695083D01*
X194324382Y-57004389D01*
X194552907Y-57364954D01*
X194707043Y-57763032D01*
X194780924Y-58183472D01*
X194771734Y-58610253D01*
X194679823Y-59027126D01*
X194508694Y-59418198D01*
X194264861Y-59768590D01*
X193935039Y-60086722D01*
X193889429Y-60122820D01*
X193805187Y-60221842D01*
X193741880Y-60335395D01*
X193701943Y-60459118D01*
X193686911Y-60588255D01*
X193697361Y-60717841D01*
X193732890Y-60842900D01*
X193777291Y-60929629D01*
X194215779Y-61611720D01*
X194220266Y-61622074D01*
X194250869Y-61666304D01*
X194262354Y-61684170D01*
X194269319Y-61692970D01*
X194294239Y-61728987D01*
X194309576Y-61743834D01*
X194322821Y-61760569D01*
X194356176Y-61788946D01*
X194387648Y-61819413D01*
X194405588Y-61830984D01*
X194421842Y-61844812D01*
X194460089Y-61866135D01*
X194496903Y-61889879D01*
X194516754Y-61897727D01*
X194535395Y-61908119D01*
X194577080Y-61921575D01*
X194587513Y-61925699D01*
X194607919Y-61931529D01*
X194659118Y-61948056D01*
X194670331Y-61949361D01*
X196664476Y-62519117D01*
X199277186Y-63777089D01*
X200592492Y-64622644D01*
X202061061Y-65999428D01*
X201543750Y-65999428D01*
X201371715Y-66016372D01*
X201206291Y-66066553D01*
X201053836Y-66148042D01*
X200920208Y-66257708D01*
X200852672Y-66340000D01*
X200647328Y-66340000D01*
X200579792Y-66257708D01*
X200446164Y-66148042D01*
X200293709Y-66066553D01*
X200128285Y-66016372D01*
X199956250Y-65999428D01*
X199043750Y-65999428D01*
X198871715Y-66016372D01*
X198706291Y-66066553D01*
X198553836Y-66148042D01*
X198420208Y-66257708D01*
X198310542Y-66391336D01*
X198229053Y-66543791D01*
X198211573Y-66601416D01*
X198082347Y-66472190D01*
X198057764Y-66442236D01*
X197938233Y-66344138D01*
X197801860Y-66271246D01*
X197653887Y-66226359D01*
X197538561Y-66215000D01*
X197538553Y-66215000D01*
X197500000Y-66211203D01*
X197461447Y-66215000D01*
X196498711Y-66215000D01*
X196553937Y-66159774D01*
X196667205Y-65990256D01*
X196745226Y-65801898D01*
X196785000Y-65601939D01*
X196785000Y-65398061D01*
X196745226Y-65198102D01*
X196667205Y-65009744D01*
X196553937Y-64840226D01*
X196409774Y-64696063D01*
X196240256Y-64582795D01*
X196051898Y-64504774D01*
X195851939Y-64465000D01*
X195826446Y-64465000D01*
X195807764Y-64442236D01*
X195688233Y-64344138D01*
X195632209Y-64314193D01*
X195614502Y-64255820D01*
X195557939Y-64150000D01*
X195614502Y-64044180D01*
X195650812Y-63924482D01*
X195663072Y-63800000D01*
X195660000Y-63585750D01*
X195501250Y-63427000D01*
X194377000Y-63427000D01*
X194377000Y-63447000D01*
X194123000Y-63447000D01*
X194123000Y-63427000D01*
X192998750Y-63427000D01*
X192840000Y-63585750D01*
X192836928Y-63800000D01*
X192849188Y-63924482D01*
X192885498Y-64044180D01*
X192942061Y-64150000D01*
X192907317Y-64215000D01*
X190342683Y-64215000D01*
X190307939Y-64150000D01*
X190364502Y-64044180D01*
X190400812Y-63924482D01*
X190413072Y-63800000D01*
X190410000Y-63585750D01*
X190251250Y-63427000D01*
X189127000Y-63427000D01*
X189127000Y-63447000D01*
X188873000Y-63447000D01*
X188873000Y-63427000D01*
X187748750Y-63427000D01*
X187590000Y-63585750D01*
X187586928Y-63800000D01*
X187599188Y-63924482D01*
X187635498Y-64044180D01*
X187692061Y-64150000D01*
X187635498Y-64255820D01*
X187599188Y-64375518D01*
X187586928Y-64500000D01*
X187586928Y-65500000D01*
X187599188Y-65624482D01*
X187635498Y-65744180D01*
X187694463Y-65854494D01*
X187773815Y-65951185D01*
X187870506Y-66030537D01*
X187980820Y-66089502D01*
X188100518Y-66125812D01*
X188225000Y-66138072D01*
X189775000Y-66138072D01*
X189899482Y-66125812D01*
X190019180Y-66089502D01*
X190129494Y-66030537D01*
X190226185Y-65951185D01*
X190305537Y-65854494D01*
X190342683Y-65785000D01*
X192907317Y-65785000D01*
X192944463Y-65854494D01*
X193023815Y-65951185D01*
X193120506Y-66030537D01*
X193230820Y-66089502D01*
X193350518Y-66125812D01*
X193475000Y-66138072D01*
X194931562Y-66138072D01*
X194946063Y-66159774D01*
X195001289Y-66215000D01*
X191288552Y-66215000D01*
X191249999Y-66211203D01*
X191211446Y-66215000D01*
X191211439Y-66215000D01*
X191110490Y-66224943D01*
X191096112Y-66226359D01*
X191061672Y-66236806D01*
X190948140Y-66271246D01*
X190811767Y-66344138D01*
X190764480Y-66382946D01*
X190722187Y-66417655D01*
X190722184Y-66417658D01*
X190692236Y-66442236D01*
X190667658Y-66472184D01*
X189222185Y-67917658D01*
X189192237Y-67942236D01*
X189167659Y-67972184D01*
X189167655Y-67972188D01*
X189159633Y-67981963D01*
X189094139Y-68061767D01*
X189073755Y-68099903D01*
X189021246Y-68198141D01*
X188976359Y-68346114D01*
X188972232Y-68388018D01*
X188965000Y-68461439D01*
X188965000Y-68461447D01*
X188962006Y-68491847D01*
X188442347Y-67972188D01*
X188417766Y-67942236D01*
X188298235Y-67844138D01*
X188161862Y-67771246D01*
X188013889Y-67726359D01*
X187898563Y-67715000D01*
X187898555Y-67715000D01*
X187860002Y-67711203D01*
X187821449Y-67715000D01*
X187428711Y-67715000D01*
X187409774Y-67696063D01*
X187240256Y-67582795D01*
X187051898Y-67504774D01*
X186851939Y-67465000D01*
X186648061Y-67465000D01*
X186448102Y-67504774D01*
X186259744Y-67582795D01*
X186090226Y-67696063D01*
X185946063Y-67840226D01*
X185832795Y-68009744D01*
X185754774Y-68198102D01*
X185715000Y-68398061D01*
X185715000Y-68601939D01*
X185754774Y-68801898D01*
X185832795Y-68990256D01*
X185946063Y-69159774D01*
X186090226Y-69303937D01*
X186259744Y-69417205D01*
X186365388Y-69460965D01*
X186332795Y-69509744D01*
X186254774Y-69698102D01*
X186215000Y-69898061D01*
X186215000Y-70101939D01*
X186254774Y-70301898D01*
X186332795Y-70490256D01*
X186446063Y-70659774D01*
X186590226Y-70803937D01*
X186759744Y-70917205D01*
X186838112Y-70949666D01*
X187496324Y-71607879D01*
X187397329Y-71706874D01*
X187302431Y-71822507D01*
X187266831Y-71889110D01*
X187201427Y-71922829D01*
X187121430Y-71987115D01*
X187121430Y-72211621D01*
X187175750Y-72265941D01*
X187188492Y-72395315D01*
X187231915Y-72538462D01*
X187302431Y-72670387D01*
X187397329Y-72786020D01*
X187943215Y-73331906D01*
X187918517Y-73356604D01*
X187904374Y-73342462D01*
X187477812Y-73769024D01*
X187477812Y-73993530D01*
X187619128Y-74136724D01*
X187540852Y-74215000D01*
X186647328Y-74215000D01*
X186579792Y-74132708D01*
X186573436Y-74127492D01*
X186651185Y-74063685D01*
X186730537Y-73966994D01*
X186789502Y-73856680D01*
X186825812Y-73736982D01*
X186838072Y-73612500D01*
X186835000Y-73410750D01*
X186676252Y-73252002D01*
X186734810Y-73252002D01*
X186750013Y-73269975D01*
X187073701Y-73589419D01*
X187298207Y-73589419D01*
X187724769Y-73162857D01*
X186947482Y-72385569D01*
X186785359Y-72385569D01*
X186730537Y-72283006D01*
X186651185Y-72186315D01*
X186554494Y-72106963D01*
X186444180Y-72047998D01*
X186324482Y-72011688D01*
X186200000Y-71999428D01*
X185785750Y-72002500D01*
X185627000Y-72161250D01*
X185627000Y-72998000D01*
X185647000Y-72998000D01*
X185647000Y-73252000D01*
X185627000Y-73252000D01*
X185627000Y-73272000D01*
X185373000Y-73272000D01*
X185373000Y-73252000D01*
X184323750Y-73252000D01*
X184165000Y-73410750D01*
X184161928Y-73612500D01*
X184174188Y-73736982D01*
X184210498Y-73856680D01*
X184269463Y-73966994D01*
X184348815Y-74063685D01*
X184411343Y-74115000D01*
X180866579Y-74115000D01*
X179885000Y-73133422D01*
X179885000Y-72637500D01*
X184161928Y-72637500D01*
X184165000Y-72839250D01*
X184323750Y-72998000D01*
X185373000Y-72998000D01*
X185373000Y-72161250D01*
X185214250Y-72002500D01*
X184800000Y-71999428D01*
X184675518Y-72011688D01*
X184555820Y-72047998D01*
X184445506Y-72106963D01*
X184348815Y-72186315D01*
X184269463Y-72283006D01*
X184210498Y-72393320D01*
X184174188Y-72513018D01*
X184161928Y-72637500D01*
X179885000Y-72637500D01*
X179885000Y-69543469D01*
X179889281Y-69500000D01*
X179885000Y-69456531D01*
X179885000Y-69456523D01*
X179872195Y-69326510D01*
X179867324Y-69310452D01*
X180089294Y-69754392D01*
X180095505Y-69772783D01*
X180118296Y-69812397D01*
X180124176Y-69824157D01*
X180134472Y-69840513D01*
X180160338Y-69885472D01*
X180169035Y-69895419D01*
X180176081Y-69906613D01*
X180211770Y-69944300D01*
X180245910Y-69983349D01*
X180256385Y-69991412D01*
X180265475Y-70001011D01*
X180307822Y-70031006D01*
X180348932Y-70062650D01*
X180360776Y-70068513D01*
X180371566Y-70076156D01*
X180418948Y-70097311D01*
X180465445Y-70120329D01*
X180478211Y-70123771D01*
X180490280Y-70129159D01*
X180540869Y-70140662D01*
X180590972Y-70154169D01*
X180604162Y-70155054D01*
X180617053Y-70157985D01*
X180668918Y-70159397D01*
X180720689Y-70162870D01*
X180733799Y-70161164D01*
X180747012Y-70161524D01*
X180798170Y-70152789D01*
X180849610Y-70146096D01*
X180862127Y-70141868D01*
X180875166Y-70139642D01*
X180923641Y-70121092D01*
X180972783Y-70104495D01*
X180984240Y-70097904D01*
X180996589Y-70093178D01*
X181040509Y-70065531D01*
X181085472Y-70039662D01*
X181095423Y-70030962D01*
X181106613Y-70023918D01*
X181144286Y-69988242D01*
X181183349Y-69954090D01*
X181191415Y-69943612D01*
X181201011Y-69934524D01*
X181230997Y-69892189D01*
X181262650Y-69851068D01*
X181268515Y-69839221D01*
X181276156Y-69828433D01*
X181297308Y-69781058D01*
X181320329Y-69734555D01*
X181323771Y-69721788D01*
X181329159Y-69709720D01*
X181340661Y-69659135D01*
X181345690Y-69640481D01*
X181347851Y-69627515D01*
X181357985Y-69582947D01*
X181358513Y-69563540D01*
X181442506Y-69059584D01*
X181815177Y-67941571D01*
X182278759Y-66921693D01*
X182835779Y-66086163D01*
X183495749Y-65237631D01*
X183856544Y-64876836D01*
X184985341Y-63842106D01*
X186197198Y-63189570D01*
X187666276Y-62498239D01*
X187635498Y-62555820D01*
X187599188Y-62675518D01*
X187586928Y-62800000D01*
X187590000Y-63014250D01*
X187748750Y-63173000D01*
X188873000Y-63173000D01*
X188873000Y-62323750D01*
X189127000Y-62323750D01*
X189127000Y-63173000D01*
X190251250Y-63173000D01*
X190410000Y-63014250D01*
X190413072Y-62800000D01*
X192836928Y-62800000D01*
X192840000Y-63014250D01*
X192998750Y-63173000D01*
X194123000Y-63173000D01*
X194123000Y-62323750D01*
X194377000Y-62323750D01*
X194377000Y-63173000D01*
X195501250Y-63173000D01*
X195660000Y-63014250D01*
X195663072Y-62800000D01*
X195650812Y-62675518D01*
X195614502Y-62555820D01*
X195555537Y-62445506D01*
X195476185Y-62348815D01*
X195379494Y-62269463D01*
X195269180Y-62210498D01*
X195149482Y-62174188D01*
X195025000Y-62161928D01*
X194535750Y-62165000D01*
X194377000Y-62323750D01*
X194123000Y-62323750D01*
X193964250Y-62165000D01*
X193475000Y-62161928D01*
X193350518Y-62174188D01*
X193230820Y-62210498D01*
X193120506Y-62269463D01*
X193023815Y-62348815D01*
X192944463Y-62445506D01*
X192885498Y-62555820D01*
X192849188Y-62675518D01*
X192836928Y-62800000D01*
X190413072Y-62800000D01*
X190400812Y-62675518D01*
X190364502Y-62555820D01*
X190305537Y-62445506D01*
X190226185Y-62348815D01*
X190129494Y-62269463D01*
X190019180Y-62210498D01*
X189899482Y-62174188D01*
X189775000Y-62161928D01*
X189285750Y-62165000D01*
X189127000Y-62323750D01*
X188873000Y-62323750D01*
X188743650Y-62194400D01*
X188944598Y-62144162D01*
X188992678Y-62134586D01*
X189037540Y-62115990D01*
X189083277Y-62099649D01*
X189125341Y-62074463D01*
X191046131Y-61047141D01*
X191127130Y-60992990D01*
X191219035Y-60901036D01*
X191291236Y-60792920D01*
X191340957Y-60672794D01*
X191366288Y-60545277D01*
X191366254Y-60415269D01*
X191340858Y-60287765D01*
X191291075Y-60167665D01*
X191218818Y-60059585D01*
X191182021Y-60022807D01*
X190856997Y-59671400D01*
X190633533Y-59307688D01*
X190484968Y-58907492D01*
X190416963Y-58486057D01*
X190427641Y-58185331D01*
X190928090Y-58185331D01*
X190928090Y-58514669D01*
X190992340Y-58837678D01*
X191118372Y-59141947D01*
X191301342Y-59415781D01*
X191534219Y-59648658D01*
X191808053Y-59831628D01*
X192112322Y-59957660D01*
X192435331Y-60021910D01*
X192764669Y-60021910D01*
X193087678Y-59957660D01*
X193391947Y-59831628D01*
X193665781Y-59648658D01*
X193898658Y-59415781D01*
X194081628Y-59141947D01*
X194207660Y-58837678D01*
X194271910Y-58514669D01*
X194271910Y-58185331D01*
X194207660Y-57862322D01*
X194081628Y-57558053D01*
X193898658Y-57284219D01*
X193665781Y-57051342D01*
X193391947Y-56868372D01*
X193087678Y-56742340D01*
X192764669Y-56678090D01*
X192435331Y-56678090D01*
X192112322Y-56742340D01*
X191808053Y-56868372D01*
X191534219Y-57051342D01*
X191301342Y-57284219D01*
X191118372Y-57558053D01*
X190992340Y-57862322D01*
X190928090Y-58185331D01*
X190427641Y-58185331D01*
X190432111Y-58059453D01*
X190529834Y-57643902D01*
X190706406Y-57255257D01*
X190955109Y-56908302D01*
X191266459Y-56616268D01*
X191628610Y-56390265D01*
X192027754Y-56238912D01*
X192448702Y-56167967D01*
X192875409Y-56180136D01*
G36*
X170682995Y-57951061D02*
G01*
X171396470Y-58129429D01*
X172316046Y-58497260D01*
X173164627Y-58968694D01*
X173886461Y-59419841D01*
X174456233Y-59989614D01*
X174456238Y-59989618D01*
X174912144Y-60445525D01*
X175357257Y-60979661D01*
X177118896Y-64013596D01*
X178400982Y-66577769D01*
X178406075Y-66589660D01*
X178415453Y-66606710D01*
X178424176Y-66624157D01*
X178431084Y-66635131D01*
X179515474Y-68606751D01*
X179677114Y-68930032D01*
X179656532Y-68904953D01*
X179656530Y-68904951D01*
X179628817Y-68871183D01*
X179595050Y-68843471D01*
X177219034Y-66467456D01*
X177191317Y-66433683D01*
X177056559Y-66323089D01*
X176902813Y-66240911D01*
X176735990Y-66190305D01*
X176605977Y-66177500D01*
X176605969Y-66177500D01*
X176562500Y-66173219D01*
X176519031Y-66177500D01*
X175658215Y-66177500D01*
X175546164Y-66085542D01*
X175393709Y-66004053D01*
X175228285Y-65953872D01*
X175056250Y-65936928D01*
X174143750Y-65936928D01*
X173971715Y-65953872D01*
X173806291Y-66004053D01*
X173653836Y-66085542D01*
X173520208Y-66195208D01*
X173410542Y-66328836D01*
X173390305Y-66366697D01*
X173342453Y-66405968D01*
X173342451Y-66405970D01*
X173308683Y-66433683D01*
X173280970Y-66467451D01*
X173188072Y-66560349D01*
X173188072Y-65950000D01*
X173175812Y-65825518D01*
X173139502Y-65705820D01*
X173080537Y-65595506D01*
X173001185Y-65498815D01*
X172904494Y-65419463D01*
X172794180Y-65360498D01*
X172674482Y-65324188D01*
X172550000Y-65311928D01*
X172435000Y-65311928D01*
X172435000Y-64593469D01*
X172439281Y-64550000D01*
X172461928Y-64550000D01*
X172474188Y-64674482D01*
X172510498Y-64794180D01*
X172569463Y-64904494D01*
X172648815Y-65001185D01*
X172745506Y-65080537D01*
X172855820Y-65139502D01*
X172975518Y-65175812D01*
X173100000Y-65188072D01*
X173314250Y-65185000D01*
X173473000Y-65026250D01*
X173473000Y-63727000D01*
X173727000Y-63727000D01*
X173727000Y-65026250D01*
X173885750Y-65185000D01*
X174100000Y-65188072D01*
X174224482Y-65175812D01*
X174344180Y-65139502D01*
X174454494Y-65080537D01*
X174551185Y-65001185D01*
X174630537Y-64904494D01*
X174689502Y-64794180D01*
X174725812Y-64674482D01*
X174738072Y-64550000D01*
X174735000Y-63885750D01*
X174576250Y-63727000D01*
X173727000Y-63727000D01*
X173473000Y-63727000D01*
X172623750Y-63727000D01*
X172465000Y-63885750D01*
X172461928Y-64550000D01*
X172439281Y-64550000D01*
X172435000Y-64506531D01*
X172435000Y-64506523D01*
X172422195Y-64376510D01*
X172416044Y-64356234D01*
X172371589Y-64209686D01*
X172289411Y-64055941D01*
X172206532Y-63954953D01*
X172206530Y-63954951D01*
X172178817Y-63921183D01*
X172145050Y-63893471D01*
X171056534Y-62804956D01*
X171028817Y-62771183D01*
X170894059Y-62660589D01*
X170874249Y-62650000D01*
X172461928Y-62650000D01*
X172465000Y-63314250D01*
X172623750Y-63473000D01*
X173473000Y-63473000D01*
X173473000Y-62173750D01*
X173727000Y-62173750D01*
X173727000Y-63473000D01*
X174576250Y-63473000D01*
X174735000Y-63314250D01*
X174738072Y-62650000D01*
X174725812Y-62525518D01*
X174689502Y-62405820D01*
X174630537Y-62295506D01*
X174551185Y-62198815D01*
X174454494Y-62119463D01*
X174344180Y-62060498D01*
X174224482Y-62024188D01*
X174100000Y-62011928D01*
X173885750Y-62015000D01*
X173727000Y-62173750D01*
X173473000Y-62173750D01*
X173314250Y-62015000D01*
X173100000Y-62011928D01*
X172975518Y-62024188D01*
X172855820Y-62060498D01*
X172745506Y-62119463D01*
X172648815Y-62198815D01*
X172569463Y-62295506D01*
X172510498Y-62405820D01*
X172474188Y-62525518D01*
X172461928Y-62650000D01*
X170874249Y-62650000D01*
X170740313Y-62578411D01*
X170573490Y-62527805D01*
X170443477Y-62515000D01*
X170443469Y-62515000D01*
X170400000Y-62510719D01*
X170356531Y-62515000D01*
X168747151Y-62515000D01*
X168743468Y-62508110D01*
X169929069Y-61322509D01*
X169934188Y-61374482D01*
X169970498Y-61494180D01*
X170029463Y-61604494D01*
X170108815Y-61701185D01*
X170205506Y-61780537D01*
X170315820Y-61839502D01*
X170435518Y-61875812D01*
X170560000Y-61888072D01*
X171560000Y-61888072D01*
X171684482Y-61875812D01*
X171804180Y-61839502D01*
X171914494Y-61780537D01*
X172011185Y-61701185D01*
X172090537Y-61604494D01*
X172149502Y-61494180D01*
X172185812Y-61374482D01*
X172198072Y-61250000D01*
X172198072Y-59350000D01*
X172185812Y-59225518D01*
X172149502Y-59105820D01*
X172090537Y-58995506D01*
X172011185Y-58898815D01*
X171914494Y-58819463D01*
X171804180Y-58760498D01*
X171684482Y-58724188D01*
X171560000Y-58711928D01*
X170560000Y-58711928D01*
X170435518Y-58724188D01*
X170315820Y-58760498D01*
X170205506Y-58819463D01*
X170108815Y-58898815D01*
X170029463Y-58995506D01*
X169970498Y-59105820D01*
X169934188Y-59225518D01*
X169921928Y-59350000D01*
X169921928Y-59415000D01*
X169743465Y-59415000D01*
X169699999Y-59410719D01*
X169656533Y-59415000D01*
X169656523Y-59415000D01*
X169526510Y-59427805D01*
X169359687Y-59478411D01*
X169205941Y-59560589D01*
X169201592Y-59564158D01*
X169104953Y-59643468D01*
X169104951Y-59643470D01*
X169071183Y-59671183D01*
X169043470Y-59704951D01*
X167142456Y-61605966D01*
X167108683Y-61633683D01*
X166998089Y-61768442D01*
X166915911Y-61922188D01*
X166884969Y-62024188D01*
X166866533Y-62084964D01*
X166865305Y-62089011D01*
X166852500Y-62219024D01*
X166852500Y-62219031D01*
X166848219Y-62262500D01*
X166852500Y-62305970D01*
X166852500Y-62311343D01*
X166801185Y-62248815D01*
X166704494Y-62169463D01*
X166594180Y-62110498D01*
X166474482Y-62074188D01*
X166350000Y-62061928D01*
X166148250Y-62065000D01*
X165989500Y-62223750D01*
X165989500Y-63273000D01*
X166009500Y-63273000D01*
X166009500Y-63527000D01*
X165989500Y-63527000D01*
X165989500Y-64576250D01*
X166148250Y-64735000D01*
X166350000Y-64738072D01*
X166474482Y-64725812D01*
X166594180Y-64689502D01*
X166704494Y-64630537D01*
X166801185Y-64551185D01*
X166864992Y-64473436D01*
X166870208Y-64479792D01*
X167003836Y-64589458D01*
X167156291Y-64670947D01*
X167321715Y-64721128D01*
X167493750Y-64738072D01*
X167981250Y-64738072D01*
X168153285Y-64721128D01*
X168318709Y-64670947D01*
X168471164Y-64589458D01*
X168604792Y-64479792D01*
X168714458Y-64346164D01*
X168747151Y-64285000D01*
X170033422Y-64285000D01*
X170665000Y-64916579D01*
X170665000Y-65311928D01*
X170550000Y-65311928D01*
X170425518Y-65324188D01*
X170305820Y-65360498D01*
X170195506Y-65419463D01*
X170098815Y-65498815D01*
X170019463Y-65595506D01*
X169960498Y-65705820D01*
X169924188Y-65825518D01*
X169911928Y-65950000D01*
X169911928Y-67450000D01*
X169924188Y-67574482D01*
X169960498Y-67694180D01*
X170019463Y-67804494D01*
X170056809Y-67850000D01*
X170019463Y-67895506D01*
X169960498Y-68005820D01*
X169927379Y-68115000D01*
X166888072Y-68115000D01*
X166888072Y-67100000D01*
X166875812Y-66975518D01*
X166839502Y-66855820D01*
X166780537Y-66745506D01*
X166701185Y-66648815D01*
X166604494Y-66569463D01*
X166494180Y-66510498D01*
X166374482Y-66474188D01*
X166250000Y-66461928D01*
X164250000Y-66461928D01*
X164125518Y-66474188D01*
X164005820Y-66510498D01*
X163895506Y-66569463D01*
X163798815Y-66648815D01*
X163719463Y-66745506D01*
X163660498Y-66855820D01*
X163624188Y-66975518D01*
X163611928Y-67100000D01*
X163611928Y-70103592D01*
X163245594Y-68952257D01*
X163054720Y-67616139D01*
X163052142Y-67593410D01*
X163050134Y-67584038D01*
X163048781Y-67574569D01*
X163043352Y-67552391D01*
X162760000Y-66230084D01*
X162760000Y-64157788D01*
X162770197Y-64100000D01*
X164736928Y-64100000D01*
X164749188Y-64224482D01*
X164785498Y-64344180D01*
X164844463Y-64454494D01*
X164923815Y-64551185D01*
X165020506Y-64630537D01*
X165130820Y-64689502D01*
X165250518Y-64725812D01*
X165375000Y-64738072D01*
X165576750Y-64735000D01*
X165735500Y-64576250D01*
X165735500Y-63527000D01*
X164898750Y-63527000D01*
X164740000Y-63685750D01*
X164736928Y-64100000D01*
X162770197Y-64100000D01*
X163017256Y-62700000D01*
X164736928Y-62700000D01*
X164740000Y-63114250D01*
X164898750Y-63273000D01*
X165735500Y-63273000D01*
X165735500Y-62223750D01*
X165576750Y-62065000D01*
X165375000Y-62061928D01*
X165250518Y-62074188D01*
X165130820Y-62110498D01*
X165020506Y-62169463D01*
X164923815Y-62248815D01*
X164844463Y-62345506D01*
X164785498Y-62455820D01*
X164749188Y-62575518D01*
X164736928Y-62700000D01*
X163017256Y-62700000D01*
X163040280Y-62569533D01*
X163494222Y-61298497D01*
X164204852Y-60232553D01*
X165293754Y-59234395D01*
X166386598Y-58596903D01*
X167579062Y-58138263D01*
X168600033Y-57952632D01*
X169341087Y-57860000D01*
X169863448Y-57860000D01*
X170682995Y-57951061D01*
G37*
X170682995Y-57951061D02*
X171396470Y-58129429D01*
X172316046Y-58497260D01*
X173164627Y-58968694D01*
X173886461Y-59419841D01*
X174456233Y-59989614D01*
X174456238Y-59989618D01*
X174912144Y-60445525D01*
X175357257Y-60979661D01*
X177118896Y-64013596D01*
X178400982Y-66577769D01*
X178406075Y-66589660D01*
X178415453Y-66606710D01*
X178424176Y-66624157D01*
X178431084Y-66635131D01*
X179515474Y-68606751D01*
X179677114Y-68930032D01*
X179656532Y-68904953D01*
X179656530Y-68904951D01*
X179628817Y-68871183D01*
X179595050Y-68843471D01*
X177219034Y-66467456D01*
X177191317Y-66433683D01*
X177056559Y-66323089D01*
X176902813Y-66240911D01*
X176735990Y-66190305D01*
X176605977Y-66177500D01*
X176605969Y-66177500D01*
X176562500Y-66173219D01*
X176519031Y-66177500D01*
X175658215Y-66177500D01*
X175546164Y-66085542D01*
X175393709Y-66004053D01*
X175228285Y-65953872D01*
X175056250Y-65936928D01*
X174143750Y-65936928D01*
X173971715Y-65953872D01*
X173806291Y-66004053D01*
X173653836Y-66085542D01*
X173520208Y-66195208D01*
X173410542Y-66328836D01*
X173390305Y-66366697D01*
X173342453Y-66405968D01*
X173342451Y-66405970D01*
X173308683Y-66433683D01*
X173280970Y-66467451D01*
X173188072Y-66560349D01*
X173188072Y-65950000D01*
X173175812Y-65825518D01*
X173139502Y-65705820D01*
X173080537Y-65595506D01*
X173001185Y-65498815D01*
X172904494Y-65419463D01*
X172794180Y-65360498D01*
X172674482Y-65324188D01*
X172550000Y-65311928D01*
X172435000Y-65311928D01*
X172435000Y-64593469D01*
X172439281Y-64550000D01*
X172461928Y-64550000D01*
X172474188Y-64674482D01*
X172510498Y-64794180D01*
X172569463Y-64904494D01*
X172648815Y-65001185D01*
X172745506Y-65080537D01*
X172855820Y-65139502D01*
X172975518Y-65175812D01*
X173100000Y-65188072D01*
X173314250Y-65185000D01*
X173473000Y-65026250D01*
X173473000Y-63727000D01*
X173727000Y-63727000D01*
X173727000Y-65026250D01*
X173885750Y-65185000D01*
X174100000Y-65188072D01*
X174224482Y-65175812D01*
X174344180Y-65139502D01*
X174454494Y-65080537D01*
X174551185Y-65001185D01*
X174630537Y-64904494D01*
X174689502Y-64794180D01*
X174725812Y-64674482D01*
X174738072Y-64550000D01*
X174735000Y-63885750D01*
X174576250Y-63727000D01*
X173727000Y-63727000D01*
X173473000Y-63727000D01*
X172623750Y-63727000D01*
X172465000Y-63885750D01*
X172461928Y-64550000D01*
X172439281Y-64550000D01*
X172435000Y-64506531D01*
X172435000Y-64506523D01*
X172422195Y-64376510D01*
X172416044Y-64356234D01*
X172371589Y-64209686D01*
X172289411Y-64055941D01*
X172206532Y-63954953D01*
X172206530Y-63954951D01*
X172178817Y-63921183D01*
X172145050Y-63893471D01*
X171056534Y-62804956D01*
X171028817Y-62771183D01*
X170894059Y-62660589D01*
X170874249Y-62650000D01*
X172461928Y-62650000D01*
X172465000Y-63314250D01*
X172623750Y-63473000D01*
X173473000Y-63473000D01*
X173473000Y-62173750D01*
X173727000Y-62173750D01*
X173727000Y-63473000D01*
X174576250Y-63473000D01*
X174735000Y-63314250D01*
X174738072Y-62650000D01*
X174725812Y-62525518D01*
X174689502Y-62405820D01*
X174630537Y-62295506D01*
X174551185Y-62198815D01*
X174454494Y-62119463D01*
X174344180Y-62060498D01*
X174224482Y-62024188D01*
X174100000Y-62011928D01*
X173885750Y-62015000D01*
X173727000Y-62173750D01*
X173473000Y-62173750D01*
X173314250Y-62015000D01*
X173100000Y-62011928D01*
X172975518Y-62024188D01*
X172855820Y-62060498D01*
X172745506Y-62119463D01*
X172648815Y-62198815D01*
X172569463Y-62295506D01*
X172510498Y-62405820D01*
X172474188Y-62525518D01*
X172461928Y-62650000D01*
X170874249Y-62650000D01*
X170740313Y-62578411D01*
X170573490Y-62527805D01*
X170443477Y-62515000D01*
X170443469Y-62515000D01*
X170400000Y-62510719D01*
X170356531Y-62515000D01*
X168747151Y-62515000D01*
X168743468Y-62508110D01*
X169929069Y-61322509D01*
X169934188Y-61374482D01*
X169970498Y-61494180D01*
X170029463Y-61604494D01*
X170108815Y-61701185D01*
X170205506Y-61780537D01*
X170315820Y-61839502D01*
X170435518Y-61875812D01*
X170560000Y-61888072D01*
X171560000Y-61888072D01*
X171684482Y-61875812D01*
X171804180Y-61839502D01*
X171914494Y-61780537D01*
X172011185Y-61701185D01*
X172090537Y-61604494D01*
X172149502Y-61494180D01*
X172185812Y-61374482D01*
X172198072Y-61250000D01*
X172198072Y-59350000D01*
X172185812Y-59225518D01*
X172149502Y-59105820D01*
X172090537Y-58995506D01*
X172011185Y-58898815D01*
X171914494Y-58819463D01*
X171804180Y-58760498D01*
X171684482Y-58724188D01*
X171560000Y-58711928D01*
X170560000Y-58711928D01*
X170435518Y-58724188D01*
X170315820Y-58760498D01*
X170205506Y-58819463D01*
X170108815Y-58898815D01*
X170029463Y-58995506D01*
X169970498Y-59105820D01*
X169934188Y-59225518D01*
X169921928Y-59350000D01*
X169921928Y-59415000D01*
X169743465Y-59415000D01*
X169699999Y-59410719D01*
X169656533Y-59415000D01*
X169656523Y-59415000D01*
X169526510Y-59427805D01*
X169359687Y-59478411D01*
X169205941Y-59560589D01*
X169201592Y-59564158D01*
X169104953Y-59643468D01*
X169104951Y-59643470D01*
X169071183Y-59671183D01*
X169043470Y-59704951D01*
X167142456Y-61605966D01*
X167108683Y-61633683D01*
X166998089Y-61768442D01*
X166915911Y-61922188D01*
X166884969Y-62024188D01*
X166866533Y-62084964D01*
X166865305Y-62089011D01*
X166852500Y-62219024D01*
X166852500Y-62219031D01*
X166848219Y-62262500D01*
X166852500Y-62305970D01*
X166852500Y-62311343D01*
X166801185Y-62248815D01*
X166704494Y-62169463D01*
X166594180Y-62110498D01*
X166474482Y-62074188D01*
X166350000Y-62061928D01*
X166148250Y-62065000D01*
X165989500Y-62223750D01*
X165989500Y-63273000D01*
X166009500Y-63273000D01*
X166009500Y-63527000D01*
X165989500Y-63527000D01*
X165989500Y-64576250D01*
X166148250Y-64735000D01*
X166350000Y-64738072D01*
X166474482Y-64725812D01*
X166594180Y-64689502D01*
X166704494Y-64630537D01*
X166801185Y-64551185D01*
X166864992Y-64473436D01*
X166870208Y-64479792D01*
X167003836Y-64589458D01*
X167156291Y-64670947D01*
X167321715Y-64721128D01*
X167493750Y-64738072D01*
X167981250Y-64738072D01*
X168153285Y-64721128D01*
X168318709Y-64670947D01*
X168471164Y-64589458D01*
X168604792Y-64479792D01*
X168714458Y-64346164D01*
X168747151Y-64285000D01*
X170033422Y-64285000D01*
X170665000Y-64916579D01*
X170665000Y-65311928D01*
X170550000Y-65311928D01*
X170425518Y-65324188D01*
X170305820Y-65360498D01*
X170195506Y-65419463D01*
X170098815Y-65498815D01*
X170019463Y-65595506D01*
X169960498Y-65705820D01*
X169924188Y-65825518D01*
X169911928Y-65950000D01*
X169911928Y-67450000D01*
X169924188Y-67574482D01*
X169960498Y-67694180D01*
X170019463Y-67804494D01*
X170056809Y-67850000D01*
X170019463Y-67895506D01*
X169960498Y-68005820D01*
X169927379Y-68115000D01*
X166888072Y-68115000D01*
X166888072Y-67100000D01*
X166875812Y-66975518D01*
X166839502Y-66855820D01*
X166780537Y-66745506D01*
X166701185Y-66648815D01*
X166604494Y-66569463D01*
X166494180Y-66510498D01*
X166374482Y-66474188D01*
X166250000Y-66461928D01*
X164250000Y-66461928D01*
X164125518Y-66474188D01*
X164005820Y-66510498D01*
X163895506Y-66569463D01*
X163798815Y-66648815D01*
X163719463Y-66745506D01*
X163660498Y-66855820D01*
X163624188Y-66975518D01*
X163611928Y-67100000D01*
X163611928Y-70103592D01*
X163245594Y-68952257D01*
X163054720Y-67616139D01*
X163052142Y-67593410D01*
X163050134Y-67584038D01*
X163048781Y-67574569D01*
X163043352Y-67552391D01*
X162760000Y-66230084D01*
X162760000Y-64157788D01*
X162770197Y-64100000D01*
X164736928Y-64100000D01*
X164749188Y-64224482D01*
X164785498Y-64344180D01*
X164844463Y-64454494D01*
X164923815Y-64551185D01*
X165020506Y-64630537D01*
X165130820Y-64689502D01*
X165250518Y-64725812D01*
X165375000Y-64738072D01*
X165576750Y-64735000D01*
X165735500Y-64576250D01*
X165735500Y-63527000D01*
X164898750Y-63527000D01*
X164740000Y-63685750D01*
X164736928Y-64100000D01*
X162770197Y-64100000D01*
X163017256Y-62700000D01*
X164736928Y-62700000D01*
X164740000Y-63114250D01*
X164898750Y-63273000D01*
X165735500Y-63273000D01*
X165735500Y-62223750D01*
X165576750Y-62065000D01*
X165375000Y-62061928D01*
X165250518Y-62074188D01*
X165130820Y-62110498D01*
X165020506Y-62169463D01*
X164923815Y-62248815D01*
X164844463Y-62345506D01*
X164785498Y-62455820D01*
X164749188Y-62575518D01*
X164736928Y-62700000D01*
X163017256Y-62700000D01*
X163040280Y-62569533D01*
X163494222Y-61298497D01*
X164204852Y-60232553D01*
X165293754Y-59234395D01*
X166386598Y-58596903D01*
X167579062Y-58138263D01*
X168600033Y-57952632D01*
X169341087Y-57860000D01*
X169863448Y-57860000D01*
X170682995Y-57951061D01*
%TD*%
M02*
